M48
; DRILL file {KiCad 8.0.2} date 2025-03-10T15:51:46-0500
; FORMAT={-:-/ absolute / metric / decimal}
; #@! TF.CreationDate,2025-03-10T15:51:46-05:00
; #@! TF.GenerationSoftware,Kicad,Pcbnew,8.0.2
; #@! TF.FileFunction,NonPlated,1,2,NPTH
FMAT,2
METRIC
; #@! TA.AperFunction,NonPlated,NPTH,ComponentDrill
T1C0.650
; #@! TA.AperFunction,NonPlated,NPTH,ComponentDrill
T2C1.700
; #@! TA.AperFunction,NonPlated,NPTH,ComponentDrill
T3C3.050
; #@! TA.AperFunction,NonPlated,NPTH,ComponentDrill
T4C4.000
%
G90
G05
T1
X199.61Y-94.8
X205.39Y-94.8
T2
X54.5Y-104.38
X56.88Y-180.58
X59.26Y-123.43
X61.64Y-142.48
X64.66Y-104.38
X66.405Y-161.53
X67.04Y-180.58
X69.42Y-123.43
X71.8Y-142.48
X73.55Y-104.38
X76.565Y-161.53
X78.311Y-180.58
X83.074Y-123.43
X83.71Y-104.38
X87.834Y-142.48
X88.471Y-180.58
X92.6Y-104.38
X93.234Y-123.43
X97.361Y-161.53
X97.993Y-142.48
X99.695Y-180.58
X102.124Y-123.43
X102.76Y-104.38
X106.88Y-142.48
X107.52Y-161.53
X109.855Y-180.58
X111.65Y-104.38
X112.284Y-123.43
X116.42Y-161.53
X117.04Y-142.48
X121.174Y-123.43
X121.81Y-104.38
X125.933Y-142.48
X126.58Y-161.53
X130.7Y-104.38
X131.334Y-123.43
X135.46Y-161.53
X136.094Y-142.48
X140.224Y-123.43
X140.86Y-104.38
X144.983Y-142.48
X145.62Y-161.53
X149.75Y-104.38
X150.384Y-123.43
X154.51Y-161.53
X155.143Y-142.48
X159.274Y-123.43
X159.91Y-104.38
X164.034Y-142.48
X164.671Y-161.53
X168.8Y-104.38
X169.434Y-123.43
X171.132Y-180.58
X173.56Y-161.53
X174.194Y-142.48
X178.324Y-123.43
X178.96Y-104.38
X181.292Y-180.58
X183.083Y-142.48
X183.72Y-161.53
X187.85Y-104.38
X188.484Y-123.43
X192.611Y-161.53
X193.243Y-142.48
X197.374Y-123.43
X198.01Y-104.38
X202.133Y-142.48
X202.77Y-161.53
X206.9Y-104.38
X207.534Y-123.43
X211.66Y-161.53
X212.293Y-142.48
X216.424Y-123.43
X217.06Y-104.38
X221.183Y-142.48
X221.82Y-161.53
X225.95Y-104.38
X226.584Y-123.43
X230.71Y-161.53
X231.343Y-142.48
X235.474Y-123.43
X236.11Y-104.38
X240.233Y-142.48
X240.87Y-161.53
X242.616Y-180.58
X245.0Y-104.38
X245.634Y-123.43
X249.76Y-161.53
X250.393Y-142.48
X252.776Y-180.58
X254.524Y-123.43
X255.16Y-104.38
X259.284Y-142.48
X259.921Y-161.53
X264.05Y-104.38
X264.684Y-123.43
X266.382Y-180.58
X268.81Y-161.53
X269.443Y-142.48
X273.574Y-123.43
X274.21Y-104.38
X276.542Y-180.58
X278.334Y-142.48
X278.971Y-161.53
X283.1Y-104.38
X283.734Y-123.43
X288.493Y-142.48
X290.24Y-180.58
X292.624Y-123.43
X293.26Y-104.38
X299.766Y-161.53
X300.4Y-180.58
X302.784Y-123.43
X309.289Y-142.48
X309.926Y-161.53
X311.671Y-180.58
X311.675Y-104.38
X316.418Y-123.43
X319.449Y-142.48
X321.831Y-180.58
X321.835Y-104.38
X326.578Y-123.43
X330.721Y-161.53
X330.721Y-180.58
X340.881Y-161.53
X340.881Y-180.58
X349.771Y-104.38
X349.771Y-123.43
X349.771Y-180.58
X359.931Y-104.38
X359.931Y-123.43
X359.931Y-180.58
T3
X59.585Y-154.53
X83.385Y-154.53
X126.212Y-173.58
X226.212Y-173.58
X292.946Y-154.53
X302.469Y-135.48
X304.855Y-97.38
X316.746Y-154.53
X326.269Y-135.48
X328.655Y-97.38
T4
X59.58Y-104.38
X59.585Y-169.77
X61.96Y-180.58
X64.34Y-123.43
X66.72Y-142.48
X71.485Y-161.53
X78.63Y-104.38
X83.385Y-169.77
X83.391Y-180.58
X88.154Y-123.43
X92.913Y-142.48
X97.68Y-104.38
X102.441Y-161.53
X104.775Y-180.58
X107.204Y-123.43
X111.96Y-142.48
X116.73Y-104.38
X121.5Y-161.53
X126.212Y-188.82
X126.254Y-123.43
X131.013Y-142.48
X135.78Y-104.38
X140.54Y-161.53
X145.304Y-123.43
X150.064Y-142.48
X154.83Y-104.38
X159.59Y-161.53
X164.354Y-123.43
X169.113Y-142.48
X173.88Y-104.38
X176.213Y-180.58
X178.641Y-161.53
X183.404Y-123.43
X188.163Y-142.48
X192.93Y-104.38
X197.69Y-161.53
X202.454Y-123.43
X207.213Y-142.48
X211.98Y-104.38
X216.74Y-161.53
X221.504Y-123.43
X226.212Y-188.82
X226.263Y-142.48
X231.03Y-104.38
X235.79Y-161.53
X240.554Y-123.43
X245.313Y-142.48
X247.696Y-180.58
X250.08Y-104.38
X254.84Y-161.53
X259.604Y-123.43
X264.363Y-142.48
X269.13Y-104.38
X271.462Y-180.58
X273.89Y-161.53
X278.654Y-123.43
X283.413Y-142.48
X288.18Y-104.38
X292.946Y-169.77
X295.32Y-180.58
X297.704Y-123.43
X302.469Y-150.72
X304.846Y-161.53
X304.855Y-112.62
X314.369Y-142.48
X316.746Y-169.77
X316.751Y-180.58
X316.755Y-104.38
X321.498Y-123.43
X326.269Y-150.72
X328.655Y-112.62
X335.801Y-161.53
X335.801Y-180.58
X354.851Y-104.38
X354.851Y-123.43
X354.851Y-180.58
M30
