M48
; DRILL file {KiCad 8.0.2} date 2025-03-10T15:51:46-0500
; FORMAT={-:-/ absolute / metric / decimal}
; #@! TF.CreationDate,2025-03-10T15:51:46-05:00
; #@! TF.GenerationSoftware,Kicad,Pcbnew,8.0.2
; #@! TF.FileFunction,Plated,1,2,PTH
FMAT,2
METRIC
; #@! TA.AperFunction,Plated,PTH,ViaDrill
T1C0.250
; #@! TA.AperFunction,Plated,PTH,ViaDrill
T2C0.400
; #@! TA.AperFunction,Plated,PTH,ComponentDrill
T3C0.600
; #@! TA.AperFunction,Plated,PTH,ComponentDrill
T4C1.500
%
G90
G05
T1
X198.6Y-97.6
X200.8Y-111.5
X202.5Y-106.234
X204.2Y-111.5
X208.7Y-97.4
X327.2Y-166.5
X327.2Y-169.3
X329.7Y-131.2
X331.7Y-114.7
X331.7Y-117.4
X334.3Y-146.4
X339.8Y-123.0
X341.0Y-139.7
X341.2Y-146.1
X342.0Y-110.7
X342.3Y-150.1
X343.1Y-151.3
X343.8Y-123.0
X343.9Y-152.4
X344.7Y-138.6
X344.8Y-153.3
X345.5Y-110.7
X345.5Y-154.5
X346.3Y-155.6
X347.1Y-156.8
X347.9Y-158.0
X348.6Y-128.7
X349.3Y-135.5
X349.5Y-147.4
X349.9Y-141.3
X350.4Y-135.4
X352.5Y-134.7
X354.6Y-149.7
X355.5Y-150.7
X355.8Y-141.5
X356.4Y-151.7
X357.2Y-152.7
X357.7Y-135.1
X359.2Y-137.1
X359.2Y-148.2
X360.9Y-144.2
X360.9Y-158.6
T2
X164.4Y-97.2
X201.1Y-103.7
T4
X55.77Y-101.84
X58.15Y-178.04
X60.53Y-120.89
X62.12Y-99.3
X62.91Y-139.94
X64.5Y-175.5
X66.88Y-118.35
X67.675Y-158.99
X69.26Y-137.4
X74.025Y-156.45
X74.82Y-101.84
X79.581Y-178.04
X81.17Y-99.3
X84.344Y-120.89
X85.931Y-175.5
X89.103Y-139.94
X90.694Y-118.35
X93.87Y-101.84
X95.453Y-137.4
X98.63Y-158.99
X100.22Y-99.3
X100.965Y-178.04
X103.394Y-120.89
X104.98Y-156.45
X107.315Y-175.5
X108.15Y-139.94
X109.744Y-118.35
X112.92Y-101.84
X114.5Y-137.4
X117.69Y-158.99
X119.27Y-99.3
X122.444Y-120.89
X124.04Y-156.45
X127.203Y-139.94
X128.794Y-118.35
X131.97Y-101.84
X133.553Y-137.4
X136.731Y-158.99
X138.32Y-99.3
X141.494Y-120.89
X143.081Y-156.45
X146.254Y-139.94
X147.844Y-118.35
X151.02Y-101.84
X152.603Y-137.4
X155.78Y-158.99
X157.37Y-99.3
X160.544Y-120.89
X162.13Y-156.45
X165.303Y-139.94
X166.894Y-118.35
X170.07Y-101.84
X171.653Y-137.4
X172.403Y-178.04
X174.831Y-158.99
X176.42Y-99.3
X178.752Y-175.5
X179.594Y-120.89
X181.18Y-156.45
X184.353Y-139.94
X185.944Y-118.35
X189.12Y-101.84
X190.703Y-137.4
X193.88Y-158.99
X195.47Y-99.3
X198.644Y-120.89
X200.23Y-156.45
X203.403Y-139.94
X204.994Y-118.35
X208.17Y-101.84
X209.754Y-137.4
X212.93Y-158.99
X214.52Y-99.3
X217.694Y-120.89
X219.28Y-156.45
X222.453Y-139.94
X224.044Y-118.35
X227.22Y-101.84
X228.803Y-137.4
X231.98Y-158.99
X233.57Y-99.3
X236.744Y-120.89
X238.331Y-156.45
X241.504Y-139.94
X243.094Y-118.35
X243.886Y-178.04
X246.27Y-101.84
X247.853Y-137.4
X250.236Y-175.5
X251.03Y-158.99
X252.62Y-99.3
X255.794Y-120.89
X257.38Y-156.45
X260.553Y-139.94
X262.144Y-118.35
X265.32Y-101.84
X266.904Y-137.4
X267.652Y-178.04
X270.08Y-158.99
X271.67Y-99.3
X274.002Y-175.5
X274.844Y-120.89
X276.43Y-156.45
X279.603Y-139.94
X281.194Y-118.35
X284.37Y-101.84
X285.953Y-137.4
X290.72Y-99.3
X291.51Y-178.04
X293.894Y-120.89
X297.86Y-175.5
X300.244Y-118.35
X301.036Y-158.99
X307.386Y-156.45
X310.559Y-139.94
X312.941Y-178.04
X312.945Y-101.84
X316.909Y-137.4
X317.688Y-120.89
X319.291Y-175.5
X319.295Y-99.3
X324.038Y-118.35
X331.991Y-158.99
X331.991Y-178.04
X338.341Y-156.45
X338.341Y-175.5
X351.041Y-101.84
X351.041Y-120.89
X351.041Y-178.04
X357.391Y-99.3
X357.391Y-118.35
X357.391Y-175.5
T3
G00X198.18Y-90.85
M15
G01X198.18Y-91.45
M16
G05
G00X198.18Y-94.78
M15
G01X198.18Y-95.88
M16
G05
G00X206.82Y-90.85
M15
G01X206.82Y-91.45
M16
G05
G00X206.82Y-94.78
M15
G01X206.82Y-95.88
M16
G05
M30
