G04 #@! TF.GenerationSoftware,KiCad,Pcbnew,8.0.2*
G04 #@! TF.CreationDate,2025-03-10T15:51:09-05:00*
G04 #@! TF.ProjectId,65,36352e6b-6963-4616-945f-706362585858,rev?*
G04 #@! TF.SameCoordinates,Original*
G04 #@! TF.FileFunction,Legend,Bot*
G04 #@! TF.FilePolarity,Positive*
%FSLAX46Y46*%
G04 Gerber Fmt 4.6, Leading zero omitted, Abs format (unit mm)*
G04 Created by KiCad (PCBNEW 8.0.2) date 2025-03-10 15:51:09*
%MOMM*%
%LPD*%
G01*
G04 APERTURE LIST*
G04 Aperture macros list*
%AMRoundRect*
0 Rectangle with rounded corners*
0 $1 Rounding radius*
0 $2 $3 $4 $5 $6 $7 $8 $9 X,Y pos of 4 corners*
0 Add a 4 corners polygon primitive as box body*
4,1,4,$2,$3,$4,$5,$6,$7,$8,$9,$2,$3,0*
0 Add four circle primitives for the rounded corners*
1,1,$1+$1,$2,$3*
1,1,$1+$1,$4,$5*
1,1,$1+$1,$6,$7*
1,1,$1+$1,$8,$9*
0 Add four rect primitives between the rounded corners*
20,1,$1+$1,$2,$3,$4,$5,0*
20,1,$1+$1,$4,$5,$6,$7,0*
20,1,$1+$1,$6,$7,$8,$9,0*
20,1,$1+$1,$8,$9,$2,$3,0*%
%AMRotRect*
0 Rectangle, with rotation*
0 The origin of the aperture is its center*
0 $1 length*
0 $2 width*
0 $3 Rotation angle, in degrees counterclockwise*
0 Add horizontal line*
21,1,$1,$2,0,0,$3*%
G04 Aperture macros list end*
%ADD10C,0.150000*%
%ADD11C,0.120000*%
%ADD12C,1.700000*%
%ADD13C,4.000000*%
%ADD14C,2.200000*%
%ADD15C,3.050000*%
%ADD16RoundRect,0.225000X0.375000X-0.225000X0.375000X0.225000X-0.375000X0.225000X-0.375000X-0.225000X0*%
%ADD17RoundRect,0.250000X-0.250000X-0.475000X0.250000X-0.475000X0.250000X0.475000X-0.250000X0.475000X0*%
%ADD18RoundRect,0.250000X-0.375000X-0.625000X0.375000X-0.625000X0.375000X0.625000X-0.375000X0.625000X0*%
%ADD19C,0.650000*%
%ADD20R,0.600000X1.450000*%
%ADD21R,0.300000X1.450000*%
%ADD22O,1.000000X1.600000*%
%ADD23O,1.000000X2.100000*%
%ADD24RoundRect,0.250000X0.250000X0.475000X-0.250000X0.475000X-0.250000X-0.475000X0.250000X-0.475000X0*%
%ADD25RoundRect,0.250000X-0.450000X0.262500X-0.450000X-0.262500X0.450000X-0.262500X0.450000X0.262500X0*%
%ADD26RoundRect,0.250000X0.450000X-0.262500X0.450000X0.262500X-0.450000X0.262500X-0.450000X-0.262500X0*%
%ADD27RoundRect,0.225000X-0.375000X0.225000X-0.375000X-0.225000X0.375000X-0.225000X0.375000X0.225000X0*%
%ADD28RoundRect,0.250000X-0.262500X-0.450000X0.262500X-0.450000X0.262500X0.450000X-0.262500X0.450000X0*%
%ADD29RoundRect,0.250000X0.475000X-0.250000X0.475000X0.250000X-0.475000X0.250000X-0.475000X-0.250000X0*%
%ADD30RoundRect,0.250000X-0.512652X-0.159099X-0.159099X-0.512652X0.512652X0.159099X0.159099X0.512652X0*%
%ADD31R,0.550000X1.500000*%
%ADD32R,1.500000X0.550000*%
%ADD33RoundRect,0.250000X0.159099X-0.512652X0.512652X-0.159099X-0.159099X0.512652X-0.512652X0.159099X0*%
%ADD34RoundRect,0.150000X-0.150000X0.512500X-0.150000X-0.512500X0.150000X-0.512500X0.150000X0.512500X0*%
%ADD35RotRect,1.400000X1.200000X315.000000*%
%ADD36R,1.800000X1.100000*%
G04 APERTURE END LIST*
D10*
X250898570Y-145885714D02*
X249898570Y-145885714D01*
X249898570Y-145885714D02*
X249898570Y-146123809D01*
X249898570Y-146123809D02*
X249946189Y-146266666D01*
X249946189Y-146266666D02*
X250041427Y-146361904D01*
X250041427Y-146361904D02*
X250136665Y-146409523D01*
X250136665Y-146409523D02*
X250327141Y-146457142D01*
X250327141Y-146457142D02*
X250469998Y-146457142D01*
X250469998Y-146457142D02*
X250660474Y-146409523D01*
X250660474Y-146409523D02*
X250755712Y-146361904D01*
X250755712Y-146361904D02*
X250850951Y-146266666D01*
X250850951Y-146266666D02*
X250898570Y-146123809D01*
X250898570Y-146123809D02*
X250898570Y-145885714D01*
X250231903Y-147314285D02*
X250898570Y-147314285D01*
X249850951Y-147076190D02*
X250565236Y-146838095D01*
X250565236Y-146838095D02*
X250565236Y-147457142D01*
X249898570Y-148028571D02*
X249898570Y-148123809D01*
X249898570Y-148123809D02*
X249946189Y-148219047D01*
X249946189Y-148219047D02*
X249993808Y-148266666D01*
X249993808Y-148266666D02*
X250089046Y-148314285D01*
X250089046Y-148314285D02*
X250279522Y-148361904D01*
X250279522Y-148361904D02*
X250517617Y-148361904D01*
X250517617Y-148361904D02*
X250708093Y-148314285D01*
X250708093Y-148314285D02*
X250803331Y-148266666D01*
X250803331Y-148266666D02*
X250850951Y-148219047D01*
X250850951Y-148219047D02*
X250898570Y-148123809D01*
X250898570Y-148123809D02*
X250898570Y-148028571D01*
X250898570Y-148028571D02*
X250850951Y-147933333D01*
X250850951Y-147933333D02*
X250803331Y-147885714D01*
X250803331Y-147885714D02*
X250708093Y-147838095D01*
X250708093Y-147838095D02*
X250517617Y-147790476D01*
X250517617Y-147790476D02*
X250279522Y-147790476D01*
X250279522Y-147790476D02*
X250089046Y-147838095D01*
X250089046Y-147838095D02*
X249993808Y-147885714D01*
X249993808Y-147885714D02*
X249946189Y-147933333D01*
X249946189Y-147933333D02*
X249898570Y-148028571D01*
X141361070Y-108261905D02*
X140361070Y-108261905D01*
X140361070Y-108261905D02*
X140361070Y-108500000D01*
X140361070Y-108500000D02*
X140408689Y-108642857D01*
X140408689Y-108642857D02*
X140503927Y-108738095D01*
X140503927Y-108738095D02*
X140599165Y-108785714D01*
X140599165Y-108785714D02*
X140789641Y-108833333D01*
X140789641Y-108833333D02*
X140932498Y-108833333D01*
X140932498Y-108833333D02*
X141122974Y-108785714D01*
X141122974Y-108785714D02*
X141218212Y-108738095D01*
X141218212Y-108738095D02*
X141313451Y-108642857D01*
X141313451Y-108642857D02*
X141361070Y-108500000D01*
X141361070Y-108500000D02*
X141361070Y-108261905D01*
X140361070Y-109738095D02*
X140361070Y-109261905D01*
X140361070Y-109261905D02*
X140837260Y-109214286D01*
X140837260Y-109214286D02*
X140789641Y-109261905D01*
X140789641Y-109261905D02*
X140742022Y-109357143D01*
X140742022Y-109357143D02*
X140742022Y-109595238D01*
X140742022Y-109595238D02*
X140789641Y-109690476D01*
X140789641Y-109690476D02*
X140837260Y-109738095D01*
X140837260Y-109738095D02*
X140932498Y-109785714D01*
X140932498Y-109785714D02*
X141170593Y-109785714D01*
X141170593Y-109785714D02*
X141265831Y-109738095D01*
X141265831Y-109738095D02*
X141313451Y-109690476D01*
X141313451Y-109690476D02*
X141361070Y-109595238D01*
X141361070Y-109595238D02*
X141361070Y-109357143D01*
X141361070Y-109357143D02*
X141313451Y-109261905D01*
X141313451Y-109261905D02*
X141265831Y-109214286D01*
X260423570Y-164905714D02*
X259423570Y-164905714D01*
X259423570Y-164905714D02*
X259423570Y-165143809D01*
X259423570Y-165143809D02*
X259471189Y-165286666D01*
X259471189Y-165286666D02*
X259566427Y-165381904D01*
X259566427Y-165381904D02*
X259661665Y-165429523D01*
X259661665Y-165429523D02*
X259852141Y-165477142D01*
X259852141Y-165477142D02*
X259994998Y-165477142D01*
X259994998Y-165477142D02*
X260185474Y-165429523D01*
X260185474Y-165429523D02*
X260280712Y-165381904D01*
X260280712Y-165381904D02*
X260375951Y-165286666D01*
X260375951Y-165286666D02*
X260423570Y-165143809D01*
X260423570Y-165143809D02*
X260423570Y-164905714D01*
X259423570Y-166381904D02*
X259423570Y-165905714D01*
X259423570Y-165905714D02*
X259899760Y-165858095D01*
X259899760Y-165858095D02*
X259852141Y-165905714D01*
X259852141Y-165905714D02*
X259804522Y-166000952D01*
X259804522Y-166000952D02*
X259804522Y-166239047D01*
X259804522Y-166239047D02*
X259852141Y-166334285D01*
X259852141Y-166334285D02*
X259899760Y-166381904D01*
X259899760Y-166381904D02*
X259994998Y-166429523D01*
X259994998Y-166429523D02*
X260233093Y-166429523D01*
X260233093Y-166429523D02*
X260328331Y-166381904D01*
X260328331Y-166381904D02*
X260375951Y-166334285D01*
X260375951Y-166334285D02*
X260423570Y-166239047D01*
X260423570Y-166239047D02*
X260423570Y-166000952D01*
X260423570Y-166000952D02*
X260375951Y-165905714D01*
X260375951Y-165905714D02*
X260328331Y-165858095D01*
X259423570Y-166762857D02*
X259423570Y-167381904D01*
X259423570Y-167381904D02*
X259804522Y-167048571D01*
X259804522Y-167048571D02*
X259804522Y-167191428D01*
X259804522Y-167191428D02*
X259852141Y-167286666D01*
X259852141Y-167286666D02*
X259899760Y-167334285D01*
X259899760Y-167334285D02*
X259994998Y-167381904D01*
X259994998Y-167381904D02*
X260233093Y-167381904D01*
X260233093Y-167381904D02*
X260328331Y-167334285D01*
X260328331Y-167334285D02*
X260375951Y-167286666D01*
X260375951Y-167286666D02*
X260423570Y-167191428D01*
X260423570Y-167191428D02*
X260423570Y-166905714D01*
X260423570Y-166905714D02*
X260375951Y-166810476D01*
X260375951Y-166810476D02*
X260328331Y-166762857D01*
X255661070Y-107785714D02*
X254661070Y-107785714D01*
X254661070Y-107785714D02*
X254661070Y-108023809D01*
X254661070Y-108023809D02*
X254708689Y-108166666D01*
X254708689Y-108166666D02*
X254803927Y-108261904D01*
X254803927Y-108261904D02*
X254899165Y-108309523D01*
X254899165Y-108309523D02*
X255089641Y-108357142D01*
X255089641Y-108357142D02*
X255232498Y-108357142D01*
X255232498Y-108357142D02*
X255422974Y-108309523D01*
X255422974Y-108309523D02*
X255518212Y-108261904D01*
X255518212Y-108261904D02*
X255613451Y-108166666D01*
X255613451Y-108166666D02*
X255661070Y-108023809D01*
X255661070Y-108023809D02*
X255661070Y-107785714D01*
X255661070Y-109309523D02*
X255661070Y-108738095D01*
X255661070Y-109023809D02*
X254661070Y-109023809D01*
X254661070Y-109023809D02*
X254803927Y-108928571D01*
X254803927Y-108928571D02*
X254899165Y-108833333D01*
X254899165Y-108833333D02*
X254946784Y-108738095D01*
X255661070Y-110261904D02*
X255661070Y-109690476D01*
X255661070Y-109976190D02*
X254661070Y-109976190D01*
X254661070Y-109976190D02*
X254803927Y-109880952D01*
X254803927Y-109880952D02*
X254899165Y-109785714D01*
X254899165Y-109785714D02*
X254946784Y-109690476D01*
X98498570Y-145885714D02*
X97498570Y-145885714D01*
X97498570Y-145885714D02*
X97498570Y-146123809D01*
X97498570Y-146123809D02*
X97546189Y-146266666D01*
X97546189Y-146266666D02*
X97641427Y-146361904D01*
X97641427Y-146361904D02*
X97736665Y-146409523D01*
X97736665Y-146409523D02*
X97927141Y-146457142D01*
X97927141Y-146457142D02*
X98069998Y-146457142D01*
X98069998Y-146457142D02*
X98260474Y-146409523D01*
X98260474Y-146409523D02*
X98355712Y-146361904D01*
X98355712Y-146361904D02*
X98450951Y-146266666D01*
X98450951Y-146266666D02*
X98498570Y-146123809D01*
X98498570Y-146123809D02*
X98498570Y-145885714D01*
X97498570Y-146790476D02*
X97498570Y-147409523D01*
X97498570Y-147409523D02*
X97879522Y-147076190D01*
X97879522Y-147076190D02*
X97879522Y-147219047D01*
X97879522Y-147219047D02*
X97927141Y-147314285D01*
X97927141Y-147314285D02*
X97974760Y-147361904D01*
X97974760Y-147361904D02*
X98069998Y-147409523D01*
X98069998Y-147409523D02*
X98308093Y-147409523D01*
X98308093Y-147409523D02*
X98403331Y-147361904D01*
X98403331Y-147361904D02*
X98450951Y-147314285D01*
X98450951Y-147314285D02*
X98498570Y-147219047D01*
X98498570Y-147219047D02*
X98498570Y-146933333D01*
X98498570Y-146933333D02*
X98450951Y-146838095D01*
X98450951Y-146838095D02*
X98403331Y-146790476D01*
X97593808Y-147790476D02*
X97546189Y-147838095D01*
X97546189Y-147838095D02*
X97498570Y-147933333D01*
X97498570Y-147933333D02*
X97498570Y-148171428D01*
X97498570Y-148171428D02*
X97546189Y-148266666D01*
X97546189Y-148266666D02*
X97593808Y-148314285D01*
X97593808Y-148314285D02*
X97689046Y-148361904D01*
X97689046Y-148361904D02*
X97784284Y-148361904D01*
X97784284Y-148361904D02*
X97927141Y-148314285D01*
X97927141Y-148314285D02*
X98498570Y-147742857D01*
X98498570Y-147742857D02*
X98498570Y-148361904D01*
X69923570Y-126835714D02*
X68923570Y-126835714D01*
X68923570Y-126835714D02*
X68923570Y-127073809D01*
X68923570Y-127073809D02*
X68971189Y-127216666D01*
X68971189Y-127216666D02*
X69066427Y-127311904D01*
X69066427Y-127311904D02*
X69161665Y-127359523D01*
X69161665Y-127359523D02*
X69352141Y-127407142D01*
X69352141Y-127407142D02*
X69494998Y-127407142D01*
X69494998Y-127407142D02*
X69685474Y-127359523D01*
X69685474Y-127359523D02*
X69780712Y-127311904D01*
X69780712Y-127311904D02*
X69875951Y-127216666D01*
X69875951Y-127216666D02*
X69923570Y-127073809D01*
X69923570Y-127073809D02*
X69923570Y-126835714D01*
X69923570Y-128359523D02*
X69923570Y-127788095D01*
X69923570Y-128073809D02*
X68923570Y-128073809D01*
X68923570Y-128073809D02*
X69066427Y-127978571D01*
X69066427Y-127978571D02*
X69161665Y-127883333D01*
X69161665Y-127883333D02*
X69209284Y-127788095D01*
X68923570Y-129216666D02*
X68923570Y-129026190D01*
X68923570Y-129026190D02*
X68971189Y-128930952D01*
X68971189Y-128930952D02*
X69018808Y-128883333D01*
X69018808Y-128883333D02*
X69161665Y-128788095D01*
X69161665Y-128788095D02*
X69352141Y-128740476D01*
X69352141Y-128740476D02*
X69733093Y-128740476D01*
X69733093Y-128740476D02*
X69828331Y-128788095D01*
X69828331Y-128788095D02*
X69875951Y-128835714D01*
X69875951Y-128835714D02*
X69923570Y-128930952D01*
X69923570Y-128930952D02*
X69923570Y-129121428D01*
X69923570Y-129121428D02*
X69875951Y-129216666D01*
X69875951Y-129216666D02*
X69828331Y-129264285D01*
X69828331Y-129264285D02*
X69733093Y-129311904D01*
X69733093Y-129311904D02*
X69494998Y-129311904D01*
X69494998Y-129311904D02*
X69399760Y-129264285D01*
X69399760Y-129264285D02*
X69352141Y-129216666D01*
X69352141Y-129216666D02*
X69304522Y-129121428D01*
X69304522Y-129121428D02*
X69304522Y-128930952D01*
X69304522Y-128930952D02*
X69352141Y-128835714D01*
X69352141Y-128835714D02*
X69399760Y-128788095D01*
X69399760Y-128788095D02*
X69494998Y-128740476D01*
X269948570Y-145885714D02*
X268948570Y-145885714D01*
X268948570Y-145885714D02*
X268948570Y-146123809D01*
X268948570Y-146123809D02*
X268996189Y-146266666D01*
X268996189Y-146266666D02*
X269091427Y-146361904D01*
X269091427Y-146361904D02*
X269186665Y-146409523D01*
X269186665Y-146409523D02*
X269377141Y-146457142D01*
X269377141Y-146457142D02*
X269519998Y-146457142D01*
X269519998Y-146457142D02*
X269710474Y-146409523D01*
X269710474Y-146409523D02*
X269805712Y-146361904D01*
X269805712Y-146361904D02*
X269900951Y-146266666D01*
X269900951Y-146266666D02*
X269948570Y-146123809D01*
X269948570Y-146123809D02*
X269948570Y-145885714D01*
X269281903Y-147314285D02*
X269948570Y-147314285D01*
X268900951Y-147076190D02*
X269615236Y-146838095D01*
X269615236Y-146838095D02*
X269615236Y-147457142D01*
X269948570Y-148361904D02*
X269948570Y-147790476D01*
X269948570Y-148076190D02*
X268948570Y-148076190D01*
X268948570Y-148076190D02*
X269091427Y-147980952D01*
X269091427Y-147980952D02*
X269186665Y-147885714D01*
X269186665Y-147885714D02*
X269234284Y-147790476D01*
X193748570Y-145885714D02*
X192748570Y-145885714D01*
X192748570Y-145885714D02*
X192748570Y-146123809D01*
X192748570Y-146123809D02*
X192796189Y-146266666D01*
X192796189Y-146266666D02*
X192891427Y-146361904D01*
X192891427Y-146361904D02*
X192986665Y-146409523D01*
X192986665Y-146409523D02*
X193177141Y-146457142D01*
X193177141Y-146457142D02*
X193319998Y-146457142D01*
X193319998Y-146457142D02*
X193510474Y-146409523D01*
X193510474Y-146409523D02*
X193605712Y-146361904D01*
X193605712Y-146361904D02*
X193700951Y-146266666D01*
X193700951Y-146266666D02*
X193748570Y-146123809D01*
X193748570Y-146123809D02*
X193748570Y-145885714D01*
X192748570Y-146790476D02*
X192748570Y-147409523D01*
X192748570Y-147409523D02*
X193129522Y-147076190D01*
X193129522Y-147076190D02*
X193129522Y-147219047D01*
X193129522Y-147219047D02*
X193177141Y-147314285D01*
X193177141Y-147314285D02*
X193224760Y-147361904D01*
X193224760Y-147361904D02*
X193319998Y-147409523D01*
X193319998Y-147409523D02*
X193558093Y-147409523D01*
X193558093Y-147409523D02*
X193653331Y-147361904D01*
X193653331Y-147361904D02*
X193700951Y-147314285D01*
X193700951Y-147314285D02*
X193748570Y-147219047D01*
X193748570Y-147219047D02*
X193748570Y-146933333D01*
X193748570Y-146933333D02*
X193700951Y-146838095D01*
X193700951Y-146838095D02*
X193653331Y-146790476D01*
X192748570Y-147742857D02*
X192748570Y-148409523D01*
X192748570Y-148409523D02*
X193748570Y-147980952D01*
X352266666Y-152659580D02*
X352314285Y-152707200D01*
X352314285Y-152707200D02*
X352457142Y-152754819D01*
X352457142Y-152754819D02*
X352552380Y-152754819D01*
X352552380Y-152754819D02*
X352695237Y-152707200D01*
X352695237Y-152707200D02*
X352790475Y-152611961D01*
X352790475Y-152611961D02*
X352838094Y-152516723D01*
X352838094Y-152516723D02*
X352885713Y-152326247D01*
X352885713Y-152326247D02*
X352885713Y-152183390D01*
X352885713Y-152183390D02*
X352838094Y-151992914D01*
X352838094Y-151992914D02*
X352790475Y-151897676D01*
X352790475Y-151897676D02*
X352695237Y-151802438D01*
X352695237Y-151802438D02*
X352552380Y-151754819D01*
X352552380Y-151754819D02*
X352457142Y-151754819D01*
X352457142Y-151754819D02*
X352314285Y-151802438D01*
X352314285Y-151802438D02*
X352266666Y-151850057D01*
X351933332Y-151754819D02*
X351314285Y-151754819D01*
X351314285Y-151754819D02*
X351647618Y-152135771D01*
X351647618Y-152135771D02*
X351504761Y-152135771D01*
X351504761Y-152135771D02*
X351409523Y-152183390D01*
X351409523Y-152183390D02*
X351361904Y-152231009D01*
X351361904Y-152231009D02*
X351314285Y-152326247D01*
X351314285Y-152326247D02*
X351314285Y-152564342D01*
X351314285Y-152564342D02*
X351361904Y-152659580D01*
X351361904Y-152659580D02*
X351409523Y-152707200D01*
X351409523Y-152707200D02*
X351504761Y-152754819D01*
X351504761Y-152754819D02*
X351790475Y-152754819D01*
X351790475Y-152754819D02*
X351885713Y-152707200D01*
X351885713Y-152707200D02*
X351933332Y-152659580D01*
X212798570Y-145885714D02*
X211798570Y-145885714D01*
X211798570Y-145885714D02*
X211798570Y-146123809D01*
X211798570Y-146123809D02*
X211846189Y-146266666D01*
X211846189Y-146266666D02*
X211941427Y-146361904D01*
X211941427Y-146361904D02*
X212036665Y-146409523D01*
X212036665Y-146409523D02*
X212227141Y-146457142D01*
X212227141Y-146457142D02*
X212369998Y-146457142D01*
X212369998Y-146457142D02*
X212560474Y-146409523D01*
X212560474Y-146409523D02*
X212655712Y-146361904D01*
X212655712Y-146361904D02*
X212750951Y-146266666D01*
X212750951Y-146266666D02*
X212798570Y-146123809D01*
X212798570Y-146123809D02*
X212798570Y-145885714D01*
X211798570Y-146790476D02*
X211798570Y-147409523D01*
X211798570Y-147409523D02*
X212179522Y-147076190D01*
X212179522Y-147076190D02*
X212179522Y-147219047D01*
X212179522Y-147219047D02*
X212227141Y-147314285D01*
X212227141Y-147314285D02*
X212274760Y-147361904D01*
X212274760Y-147361904D02*
X212369998Y-147409523D01*
X212369998Y-147409523D02*
X212608093Y-147409523D01*
X212608093Y-147409523D02*
X212703331Y-147361904D01*
X212703331Y-147361904D02*
X212750951Y-147314285D01*
X212750951Y-147314285D02*
X212798570Y-147219047D01*
X212798570Y-147219047D02*
X212798570Y-146933333D01*
X212798570Y-146933333D02*
X212750951Y-146838095D01*
X212750951Y-146838095D02*
X212703331Y-146790476D01*
X212227141Y-147980952D02*
X212179522Y-147885714D01*
X212179522Y-147885714D02*
X212131903Y-147838095D01*
X212131903Y-147838095D02*
X212036665Y-147790476D01*
X212036665Y-147790476D02*
X211989046Y-147790476D01*
X211989046Y-147790476D02*
X211893808Y-147838095D01*
X211893808Y-147838095D02*
X211846189Y-147885714D01*
X211846189Y-147885714D02*
X211798570Y-147980952D01*
X211798570Y-147980952D02*
X211798570Y-148171428D01*
X211798570Y-148171428D02*
X211846189Y-148266666D01*
X211846189Y-148266666D02*
X211893808Y-148314285D01*
X211893808Y-148314285D02*
X211989046Y-148361904D01*
X211989046Y-148361904D02*
X212036665Y-148361904D01*
X212036665Y-148361904D02*
X212131903Y-148314285D01*
X212131903Y-148314285D02*
X212179522Y-148266666D01*
X212179522Y-148266666D02*
X212227141Y-148171428D01*
X212227141Y-148171428D02*
X212227141Y-147980952D01*
X212227141Y-147980952D02*
X212274760Y-147885714D01*
X212274760Y-147885714D02*
X212322379Y-147838095D01*
X212322379Y-147838095D02*
X212417617Y-147790476D01*
X212417617Y-147790476D02*
X212608093Y-147790476D01*
X212608093Y-147790476D02*
X212703331Y-147838095D01*
X212703331Y-147838095D02*
X212750951Y-147885714D01*
X212750951Y-147885714D02*
X212798570Y-147980952D01*
X212798570Y-147980952D02*
X212798570Y-148171428D01*
X212798570Y-148171428D02*
X212750951Y-148266666D01*
X212750951Y-148266666D02*
X212703331Y-148314285D01*
X212703331Y-148314285D02*
X212608093Y-148361904D01*
X212608093Y-148361904D02*
X212417617Y-148361904D01*
X212417617Y-148361904D02*
X212322379Y-148314285D01*
X212322379Y-148314285D02*
X212274760Y-148266666D01*
X212274760Y-148266666D02*
X212227141Y-148171428D01*
X220202083Y-97794759D02*
X220535416Y-97794759D01*
X220535416Y-98318569D02*
X220535416Y-97318569D01*
X220535416Y-97318569D02*
X220059226Y-97318569D01*
X219154464Y-98318569D02*
X219725892Y-98318569D01*
X219440178Y-98318569D02*
X219440178Y-97318569D01*
X219440178Y-97318569D02*
X219535416Y-97461426D01*
X219535416Y-97461426D02*
X219630654Y-97556664D01*
X219630654Y-97556664D02*
X219725892Y-97604283D01*
X202833333Y-97299819D02*
X202833333Y-98014104D01*
X202833333Y-98014104D02*
X202880952Y-98156961D01*
X202880952Y-98156961D02*
X202976190Y-98252200D01*
X202976190Y-98252200D02*
X203119047Y-98299819D01*
X203119047Y-98299819D02*
X203214285Y-98299819D01*
X202404761Y-97395057D02*
X202357142Y-97347438D01*
X202357142Y-97347438D02*
X202261904Y-97299819D01*
X202261904Y-97299819D02*
X202023809Y-97299819D01*
X202023809Y-97299819D02*
X201928571Y-97347438D01*
X201928571Y-97347438D02*
X201880952Y-97395057D01*
X201880952Y-97395057D02*
X201833333Y-97490295D01*
X201833333Y-97490295D02*
X201833333Y-97585533D01*
X201833333Y-97585533D02*
X201880952Y-97728390D01*
X201880952Y-97728390D02*
X202452380Y-98299819D01*
X202452380Y-98299819D02*
X201833333Y-98299819D01*
X338966666Y-133779581D02*
X339014285Y-133827201D01*
X339014285Y-133827201D02*
X339157142Y-133874820D01*
X339157142Y-133874820D02*
X339252380Y-133874820D01*
X339252380Y-133874820D02*
X339395237Y-133827201D01*
X339395237Y-133827201D02*
X339490475Y-133731962D01*
X339490475Y-133731962D02*
X339538094Y-133636724D01*
X339538094Y-133636724D02*
X339585713Y-133446248D01*
X339585713Y-133446248D02*
X339585713Y-133303391D01*
X339585713Y-133303391D02*
X339538094Y-133112915D01*
X339538094Y-133112915D02*
X339490475Y-133017677D01*
X339490475Y-133017677D02*
X339395237Y-132922439D01*
X339395237Y-132922439D02*
X339252380Y-132874820D01*
X339252380Y-132874820D02*
X339157142Y-132874820D01*
X339157142Y-132874820D02*
X339014285Y-132922439D01*
X339014285Y-132922439D02*
X338966666Y-132970058D01*
X338109523Y-133208153D02*
X338109523Y-133874820D01*
X338347618Y-132827201D02*
X338585713Y-133541486D01*
X338585713Y-133541486D02*
X337966666Y-133541486D01*
X217717368Y-108528816D02*
X216717368Y-108528816D01*
X216717368Y-108528816D02*
X216717368Y-108766911D01*
X216717368Y-108766911D02*
X216764987Y-108909768D01*
X216764987Y-108909768D02*
X216860225Y-109005006D01*
X216860225Y-109005006D02*
X216955463Y-109052625D01*
X216955463Y-109052625D02*
X217145939Y-109100244D01*
X217145939Y-109100244D02*
X217288796Y-109100244D01*
X217288796Y-109100244D02*
X217479272Y-109052625D01*
X217479272Y-109052625D02*
X217574510Y-109005006D01*
X217574510Y-109005006D02*
X217669749Y-108909768D01*
X217669749Y-108909768D02*
X217717368Y-108766911D01*
X217717368Y-108766911D02*
X217717368Y-108528816D01*
X217717368Y-109576435D02*
X217717368Y-109766911D01*
X217717368Y-109766911D02*
X217669749Y-109862149D01*
X217669749Y-109862149D02*
X217622129Y-109909768D01*
X217622129Y-109909768D02*
X217479272Y-110005006D01*
X217479272Y-110005006D02*
X217288796Y-110052625D01*
X217288796Y-110052625D02*
X216907844Y-110052625D01*
X216907844Y-110052625D02*
X216812606Y-110005006D01*
X216812606Y-110005006D02*
X216764987Y-109957387D01*
X216764987Y-109957387D02*
X216717368Y-109862149D01*
X216717368Y-109862149D02*
X216717368Y-109671673D01*
X216717368Y-109671673D02*
X216764987Y-109576435D01*
X216764987Y-109576435D02*
X216812606Y-109528816D01*
X216812606Y-109528816D02*
X216907844Y-109481197D01*
X216907844Y-109481197D02*
X217145939Y-109481197D01*
X217145939Y-109481197D02*
X217241177Y-109528816D01*
X217241177Y-109528816D02*
X217288796Y-109576435D01*
X217288796Y-109576435D02*
X217336415Y-109671673D01*
X217336415Y-109671673D02*
X217336415Y-109862149D01*
X217336415Y-109862149D02*
X217288796Y-109957387D01*
X217288796Y-109957387D02*
X217241177Y-110005006D01*
X217241177Y-110005006D02*
X217145939Y-110052625D01*
X231848570Y-145885714D02*
X230848570Y-145885714D01*
X230848570Y-145885714D02*
X230848570Y-146123809D01*
X230848570Y-146123809D02*
X230896189Y-146266666D01*
X230896189Y-146266666D02*
X230991427Y-146361904D01*
X230991427Y-146361904D02*
X231086665Y-146409523D01*
X231086665Y-146409523D02*
X231277141Y-146457142D01*
X231277141Y-146457142D02*
X231419998Y-146457142D01*
X231419998Y-146457142D02*
X231610474Y-146409523D01*
X231610474Y-146409523D02*
X231705712Y-146361904D01*
X231705712Y-146361904D02*
X231800951Y-146266666D01*
X231800951Y-146266666D02*
X231848570Y-146123809D01*
X231848570Y-146123809D02*
X231848570Y-145885714D01*
X230848570Y-146790476D02*
X230848570Y-147409523D01*
X230848570Y-147409523D02*
X231229522Y-147076190D01*
X231229522Y-147076190D02*
X231229522Y-147219047D01*
X231229522Y-147219047D02*
X231277141Y-147314285D01*
X231277141Y-147314285D02*
X231324760Y-147361904D01*
X231324760Y-147361904D02*
X231419998Y-147409523D01*
X231419998Y-147409523D02*
X231658093Y-147409523D01*
X231658093Y-147409523D02*
X231753331Y-147361904D01*
X231753331Y-147361904D02*
X231800951Y-147314285D01*
X231800951Y-147314285D02*
X231848570Y-147219047D01*
X231848570Y-147219047D02*
X231848570Y-146933333D01*
X231848570Y-146933333D02*
X231800951Y-146838095D01*
X231800951Y-146838095D02*
X231753331Y-146790476D01*
X231848570Y-147885714D02*
X231848570Y-148076190D01*
X231848570Y-148076190D02*
X231800951Y-148171428D01*
X231800951Y-148171428D02*
X231753331Y-148219047D01*
X231753331Y-148219047D02*
X231610474Y-148314285D01*
X231610474Y-148314285D02*
X231419998Y-148361904D01*
X231419998Y-148361904D02*
X231039046Y-148361904D01*
X231039046Y-148361904D02*
X230943808Y-148314285D01*
X230943808Y-148314285D02*
X230896189Y-148266666D01*
X230896189Y-148266666D02*
X230848570Y-148171428D01*
X230848570Y-148171428D02*
X230848570Y-147980952D01*
X230848570Y-147980952D02*
X230896189Y-147885714D01*
X230896189Y-147885714D02*
X230943808Y-147838095D01*
X230943808Y-147838095D02*
X231039046Y-147790476D01*
X231039046Y-147790476D02*
X231277141Y-147790476D01*
X231277141Y-147790476D02*
X231372379Y-147838095D01*
X231372379Y-147838095D02*
X231419998Y-147885714D01*
X231419998Y-147885714D02*
X231467617Y-147980952D01*
X231467617Y-147980952D02*
X231467617Y-148171428D01*
X231467617Y-148171428D02*
X231419998Y-148266666D01*
X231419998Y-148266666D02*
X231372379Y-148314285D01*
X231372379Y-148314285D02*
X231277141Y-148361904D01*
X198825066Y-100392819D02*
X199158399Y-99916628D01*
X199396494Y-100392819D02*
X199396494Y-99392819D01*
X199396494Y-99392819D02*
X199015542Y-99392819D01*
X199015542Y-99392819D02*
X198920304Y-99440438D01*
X198920304Y-99440438D02*
X198872685Y-99488057D01*
X198872685Y-99488057D02*
X198825066Y-99583295D01*
X198825066Y-99583295D02*
X198825066Y-99726152D01*
X198825066Y-99726152D02*
X198872685Y-99821390D01*
X198872685Y-99821390D02*
X198920304Y-99869009D01*
X198920304Y-99869009D02*
X199015542Y-99916628D01*
X199015542Y-99916628D02*
X199396494Y-99916628D01*
X197967923Y-99392819D02*
X198158399Y-99392819D01*
X198158399Y-99392819D02*
X198253637Y-99440438D01*
X198253637Y-99440438D02*
X198301256Y-99488057D01*
X198301256Y-99488057D02*
X198396494Y-99630914D01*
X198396494Y-99630914D02*
X198444113Y-99821390D01*
X198444113Y-99821390D02*
X198444113Y-100202342D01*
X198444113Y-100202342D02*
X198396494Y-100297580D01*
X198396494Y-100297580D02*
X198348875Y-100345200D01*
X198348875Y-100345200D02*
X198253637Y-100392819D01*
X198253637Y-100392819D02*
X198063161Y-100392819D01*
X198063161Y-100392819D02*
X197967923Y-100345200D01*
X197967923Y-100345200D02*
X197920304Y-100297580D01*
X197920304Y-100297580D02*
X197872685Y-100202342D01*
X197872685Y-100202342D02*
X197872685Y-99964247D01*
X197872685Y-99964247D02*
X197920304Y-99869009D01*
X197920304Y-99869009D02*
X197967923Y-99821390D01*
X197967923Y-99821390D02*
X198063161Y-99773771D01*
X198063161Y-99773771D02*
X198253637Y-99773771D01*
X198253637Y-99773771D02*
X198348875Y-99821390D01*
X198348875Y-99821390D02*
X198396494Y-99869009D01*
X198396494Y-99869009D02*
X198444113Y-99964247D01*
X155648570Y-145885714D02*
X154648570Y-145885714D01*
X154648570Y-145885714D02*
X154648570Y-146123809D01*
X154648570Y-146123809D02*
X154696189Y-146266666D01*
X154696189Y-146266666D02*
X154791427Y-146361904D01*
X154791427Y-146361904D02*
X154886665Y-146409523D01*
X154886665Y-146409523D02*
X155077141Y-146457142D01*
X155077141Y-146457142D02*
X155219998Y-146457142D01*
X155219998Y-146457142D02*
X155410474Y-146409523D01*
X155410474Y-146409523D02*
X155505712Y-146361904D01*
X155505712Y-146361904D02*
X155600951Y-146266666D01*
X155600951Y-146266666D02*
X155648570Y-146123809D01*
X155648570Y-146123809D02*
X155648570Y-145885714D01*
X154648570Y-146790476D02*
X154648570Y-147409523D01*
X154648570Y-147409523D02*
X155029522Y-147076190D01*
X155029522Y-147076190D02*
X155029522Y-147219047D01*
X155029522Y-147219047D02*
X155077141Y-147314285D01*
X155077141Y-147314285D02*
X155124760Y-147361904D01*
X155124760Y-147361904D02*
X155219998Y-147409523D01*
X155219998Y-147409523D02*
X155458093Y-147409523D01*
X155458093Y-147409523D02*
X155553331Y-147361904D01*
X155553331Y-147361904D02*
X155600951Y-147314285D01*
X155600951Y-147314285D02*
X155648570Y-147219047D01*
X155648570Y-147219047D02*
X155648570Y-146933333D01*
X155648570Y-146933333D02*
X155600951Y-146838095D01*
X155600951Y-146838095D02*
X155553331Y-146790476D01*
X154648570Y-148314285D02*
X154648570Y-147838095D01*
X154648570Y-147838095D02*
X155124760Y-147790476D01*
X155124760Y-147790476D02*
X155077141Y-147838095D01*
X155077141Y-147838095D02*
X155029522Y-147933333D01*
X155029522Y-147933333D02*
X155029522Y-148171428D01*
X155029522Y-148171428D02*
X155077141Y-148266666D01*
X155077141Y-148266666D02*
X155124760Y-148314285D01*
X155124760Y-148314285D02*
X155219998Y-148361904D01*
X155219998Y-148361904D02*
X155458093Y-148361904D01*
X155458093Y-148361904D02*
X155553331Y-148314285D01*
X155553331Y-148314285D02*
X155600951Y-148266666D01*
X155600951Y-148266666D02*
X155648570Y-148171428D01*
X155648570Y-148171428D02*
X155648570Y-147933333D01*
X155648570Y-147933333D02*
X155600951Y-147838095D01*
X155600951Y-147838095D02*
X155553331Y-147790476D01*
X184223570Y-164905714D02*
X183223570Y-164905714D01*
X183223570Y-164905714D02*
X183223570Y-165143809D01*
X183223570Y-165143809D02*
X183271189Y-165286666D01*
X183271189Y-165286666D02*
X183366427Y-165381904D01*
X183366427Y-165381904D02*
X183461665Y-165429523D01*
X183461665Y-165429523D02*
X183652141Y-165477142D01*
X183652141Y-165477142D02*
X183794998Y-165477142D01*
X183794998Y-165477142D02*
X183985474Y-165429523D01*
X183985474Y-165429523D02*
X184080712Y-165381904D01*
X184080712Y-165381904D02*
X184175951Y-165286666D01*
X184175951Y-165286666D02*
X184223570Y-165143809D01*
X184223570Y-165143809D02*
X184223570Y-164905714D01*
X183556903Y-166334285D02*
X184223570Y-166334285D01*
X183175951Y-166096190D02*
X183890236Y-165858095D01*
X183890236Y-165858095D02*
X183890236Y-166477142D01*
X184223570Y-166905714D02*
X184223570Y-167096190D01*
X184223570Y-167096190D02*
X184175951Y-167191428D01*
X184175951Y-167191428D02*
X184128331Y-167239047D01*
X184128331Y-167239047D02*
X183985474Y-167334285D01*
X183985474Y-167334285D02*
X183794998Y-167381904D01*
X183794998Y-167381904D02*
X183414046Y-167381904D01*
X183414046Y-167381904D02*
X183318808Y-167334285D01*
X183318808Y-167334285D02*
X183271189Y-167286666D01*
X183271189Y-167286666D02*
X183223570Y-167191428D01*
X183223570Y-167191428D02*
X183223570Y-167000952D01*
X183223570Y-167000952D02*
X183271189Y-166905714D01*
X183271189Y-166905714D02*
X183318808Y-166858095D01*
X183318808Y-166858095D02*
X183414046Y-166810476D01*
X183414046Y-166810476D02*
X183652141Y-166810476D01*
X183652141Y-166810476D02*
X183747379Y-166858095D01*
X183747379Y-166858095D02*
X183794998Y-166905714D01*
X183794998Y-166905714D02*
X183842617Y-167000952D01*
X183842617Y-167000952D02*
X183842617Y-167191428D01*
X183842617Y-167191428D02*
X183794998Y-167286666D01*
X183794998Y-167286666D02*
X183747379Y-167334285D01*
X183747379Y-167334285D02*
X183652141Y-167381904D01*
X165173570Y-164905714D02*
X164173570Y-164905714D01*
X164173570Y-164905714D02*
X164173570Y-165143809D01*
X164173570Y-165143809D02*
X164221189Y-165286666D01*
X164221189Y-165286666D02*
X164316427Y-165381904D01*
X164316427Y-165381904D02*
X164411665Y-165429523D01*
X164411665Y-165429523D02*
X164602141Y-165477142D01*
X164602141Y-165477142D02*
X164744998Y-165477142D01*
X164744998Y-165477142D02*
X164935474Y-165429523D01*
X164935474Y-165429523D02*
X165030712Y-165381904D01*
X165030712Y-165381904D02*
X165125951Y-165286666D01*
X165125951Y-165286666D02*
X165173570Y-165143809D01*
X165173570Y-165143809D02*
X165173570Y-164905714D01*
X164506903Y-166334285D02*
X165173570Y-166334285D01*
X164125951Y-166096190D02*
X164840236Y-165858095D01*
X164840236Y-165858095D02*
X164840236Y-166477142D01*
X164602141Y-167000952D02*
X164554522Y-166905714D01*
X164554522Y-166905714D02*
X164506903Y-166858095D01*
X164506903Y-166858095D02*
X164411665Y-166810476D01*
X164411665Y-166810476D02*
X164364046Y-166810476D01*
X164364046Y-166810476D02*
X164268808Y-166858095D01*
X164268808Y-166858095D02*
X164221189Y-166905714D01*
X164221189Y-166905714D02*
X164173570Y-167000952D01*
X164173570Y-167000952D02*
X164173570Y-167191428D01*
X164173570Y-167191428D02*
X164221189Y-167286666D01*
X164221189Y-167286666D02*
X164268808Y-167334285D01*
X164268808Y-167334285D02*
X164364046Y-167381904D01*
X164364046Y-167381904D02*
X164411665Y-167381904D01*
X164411665Y-167381904D02*
X164506903Y-167334285D01*
X164506903Y-167334285D02*
X164554522Y-167286666D01*
X164554522Y-167286666D02*
X164602141Y-167191428D01*
X164602141Y-167191428D02*
X164602141Y-167000952D01*
X164602141Y-167000952D02*
X164649760Y-166905714D01*
X164649760Y-166905714D02*
X164697379Y-166858095D01*
X164697379Y-166858095D02*
X164792617Y-166810476D01*
X164792617Y-166810476D02*
X164983093Y-166810476D01*
X164983093Y-166810476D02*
X165078331Y-166858095D01*
X165078331Y-166858095D02*
X165125951Y-166905714D01*
X165125951Y-166905714D02*
X165173570Y-167000952D01*
X165173570Y-167000952D02*
X165173570Y-167191428D01*
X165173570Y-167191428D02*
X165125951Y-167286666D01*
X165125951Y-167286666D02*
X165078331Y-167334285D01*
X165078331Y-167334285D02*
X164983093Y-167381904D01*
X164983093Y-167381904D02*
X164792617Y-167381904D01*
X164792617Y-167381904D02*
X164697379Y-167334285D01*
X164697379Y-167334285D02*
X164649760Y-167286666D01*
X164649760Y-167286666D02*
X164602141Y-167191428D01*
X345166666Y-127654819D02*
X345499999Y-127178628D01*
X345738094Y-127654819D02*
X345738094Y-126654819D01*
X345738094Y-126654819D02*
X345357142Y-126654819D01*
X345357142Y-126654819D02*
X345261904Y-126702438D01*
X345261904Y-126702438D02*
X345214285Y-126750057D01*
X345214285Y-126750057D02*
X345166666Y-126845295D01*
X345166666Y-126845295D02*
X345166666Y-126988152D01*
X345166666Y-126988152D02*
X345214285Y-127083390D01*
X345214285Y-127083390D02*
X345261904Y-127131009D01*
X345261904Y-127131009D02*
X345357142Y-127178628D01*
X345357142Y-127178628D02*
X345738094Y-127178628D01*
X344833332Y-126654819D02*
X344214285Y-126654819D01*
X344214285Y-126654819D02*
X344547618Y-127035771D01*
X344547618Y-127035771D02*
X344404761Y-127035771D01*
X344404761Y-127035771D02*
X344309523Y-127083390D01*
X344309523Y-127083390D02*
X344261904Y-127131009D01*
X344261904Y-127131009D02*
X344214285Y-127226247D01*
X344214285Y-127226247D02*
X344214285Y-127464342D01*
X344214285Y-127464342D02*
X344261904Y-127559580D01*
X344261904Y-127559580D02*
X344309523Y-127607200D01*
X344309523Y-127607200D02*
X344404761Y-127654819D01*
X344404761Y-127654819D02*
X344690475Y-127654819D01*
X344690475Y-127654819D02*
X344785713Y-127607200D01*
X344785713Y-127607200D02*
X344833332Y-127559580D01*
X340754819Y-172485714D02*
X339754819Y-172485714D01*
X339754819Y-172485714D02*
X339754819Y-172723809D01*
X339754819Y-172723809D02*
X339802438Y-172866666D01*
X339802438Y-172866666D02*
X339897676Y-172961904D01*
X339897676Y-172961904D02*
X339992914Y-173009523D01*
X339992914Y-173009523D02*
X340183390Y-173057142D01*
X340183390Y-173057142D02*
X340326247Y-173057142D01*
X340326247Y-173057142D02*
X340516723Y-173009523D01*
X340516723Y-173009523D02*
X340611961Y-172961904D01*
X340611961Y-172961904D02*
X340707200Y-172866666D01*
X340707200Y-172866666D02*
X340754819Y-172723809D01*
X340754819Y-172723809D02*
X340754819Y-172485714D01*
X339754819Y-173914285D02*
X339754819Y-173723809D01*
X339754819Y-173723809D02*
X339802438Y-173628571D01*
X339802438Y-173628571D02*
X339850057Y-173580952D01*
X339850057Y-173580952D02*
X339992914Y-173485714D01*
X339992914Y-173485714D02*
X340183390Y-173438095D01*
X340183390Y-173438095D02*
X340564342Y-173438095D01*
X340564342Y-173438095D02*
X340659580Y-173485714D01*
X340659580Y-173485714D02*
X340707200Y-173533333D01*
X340707200Y-173533333D02*
X340754819Y-173628571D01*
X340754819Y-173628571D02*
X340754819Y-173819047D01*
X340754819Y-173819047D02*
X340707200Y-173914285D01*
X340707200Y-173914285D02*
X340659580Y-173961904D01*
X340659580Y-173961904D02*
X340564342Y-174009523D01*
X340564342Y-174009523D02*
X340326247Y-174009523D01*
X340326247Y-174009523D02*
X340231009Y-173961904D01*
X340231009Y-173961904D02*
X340183390Y-173914285D01*
X340183390Y-173914285D02*
X340135771Y-173819047D01*
X340135771Y-173819047D02*
X340135771Y-173628571D01*
X340135771Y-173628571D02*
X340183390Y-173533333D01*
X340183390Y-173533333D02*
X340231009Y-173485714D01*
X340231009Y-173485714D02*
X340326247Y-173438095D01*
X339754819Y-174914285D02*
X339754819Y-174438095D01*
X339754819Y-174438095D02*
X340231009Y-174390476D01*
X340231009Y-174390476D02*
X340183390Y-174438095D01*
X340183390Y-174438095D02*
X340135771Y-174533333D01*
X340135771Y-174533333D02*
X340135771Y-174771428D01*
X340135771Y-174771428D02*
X340183390Y-174866666D01*
X340183390Y-174866666D02*
X340231009Y-174914285D01*
X340231009Y-174914285D02*
X340326247Y-174961904D01*
X340326247Y-174961904D02*
X340564342Y-174961904D01*
X340564342Y-174961904D02*
X340659580Y-174914285D01*
X340659580Y-174914285D02*
X340707200Y-174866666D01*
X340707200Y-174866666D02*
X340754819Y-174771428D01*
X340754819Y-174771428D02*
X340754819Y-174533333D01*
X340754819Y-174533333D02*
X340707200Y-174438095D01*
X340707200Y-174438095D02*
X340659580Y-174390476D01*
X241373570Y-164905714D02*
X240373570Y-164905714D01*
X240373570Y-164905714D02*
X240373570Y-165143809D01*
X240373570Y-165143809D02*
X240421189Y-165286666D01*
X240421189Y-165286666D02*
X240516427Y-165381904D01*
X240516427Y-165381904D02*
X240611665Y-165429523D01*
X240611665Y-165429523D02*
X240802141Y-165477142D01*
X240802141Y-165477142D02*
X240944998Y-165477142D01*
X240944998Y-165477142D02*
X241135474Y-165429523D01*
X241135474Y-165429523D02*
X241230712Y-165381904D01*
X241230712Y-165381904D02*
X241325951Y-165286666D01*
X241325951Y-165286666D02*
X241373570Y-165143809D01*
X241373570Y-165143809D02*
X241373570Y-164905714D01*
X240373570Y-166381904D02*
X240373570Y-165905714D01*
X240373570Y-165905714D02*
X240849760Y-165858095D01*
X240849760Y-165858095D02*
X240802141Y-165905714D01*
X240802141Y-165905714D02*
X240754522Y-166000952D01*
X240754522Y-166000952D02*
X240754522Y-166239047D01*
X240754522Y-166239047D02*
X240802141Y-166334285D01*
X240802141Y-166334285D02*
X240849760Y-166381904D01*
X240849760Y-166381904D02*
X240944998Y-166429523D01*
X240944998Y-166429523D02*
X241183093Y-166429523D01*
X241183093Y-166429523D02*
X241278331Y-166381904D01*
X241278331Y-166381904D02*
X241325951Y-166334285D01*
X241325951Y-166334285D02*
X241373570Y-166239047D01*
X241373570Y-166239047D02*
X241373570Y-166000952D01*
X241373570Y-166000952D02*
X241325951Y-165905714D01*
X241325951Y-165905714D02*
X241278331Y-165858095D01*
X240468808Y-166810476D02*
X240421189Y-166858095D01*
X240421189Y-166858095D02*
X240373570Y-166953333D01*
X240373570Y-166953333D02*
X240373570Y-167191428D01*
X240373570Y-167191428D02*
X240421189Y-167286666D01*
X240421189Y-167286666D02*
X240468808Y-167334285D01*
X240468808Y-167334285D02*
X240564046Y-167381904D01*
X240564046Y-167381904D02*
X240659284Y-167381904D01*
X240659284Y-167381904D02*
X240802141Y-167334285D01*
X240802141Y-167334285D02*
X241373570Y-166762857D01*
X241373570Y-166762857D02*
X241373570Y-167381904D01*
X122311070Y-108261905D02*
X121311070Y-108261905D01*
X121311070Y-108261905D02*
X121311070Y-108500000D01*
X121311070Y-108500000D02*
X121358689Y-108642857D01*
X121358689Y-108642857D02*
X121453927Y-108738095D01*
X121453927Y-108738095D02*
X121549165Y-108785714D01*
X121549165Y-108785714D02*
X121739641Y-108833333D01*
X121739641Y-108833333D02*
X121882498Y-108833333D01*
X121882498Y-108833333D02*
X122072974Y-108785714D01*
X122072974Y-108785714D02*
X122168212Y-108738095D01*
X122168212Y-108738095D02*
X122263451Y-108642857D01*
X122263451Y-108642857D02*
X122311070Y-108500000D01*
X122311070Y-108500000D02*
X122311070Y-108261905D01*
X121644403Y-109690476D02*
X122311070Y-109690476D01*
X121263451Y-109452381D02*
X121977736Y-109214286D01*
X121977736Y-109214286D02*
X121977736Y-109833333D01*
X279473570Y-164905714D02*
X278473570Y-164905714D01*
X278473570Y-164905714D02*
X278473570Y-165143809D01*
X278473570Y-165143809D02*
X278521189Y-165286666D01*
X278521189Y-165286666D02*
X278616427Y-165381904D01*
X278616427Y-165381904D02*
X278711665Y-165429523D01*
X278711665Y-165429523D02*
X278902141Y-165477142D01*
X278902141Y-165477142D02*
X279044998Y-165477142D01*
X279044998Y-165477142D02*
X279235474Y-165429523D01*
X279235474Y-165429523D02*
X279330712Y-165381904D01*
X279330712Y-165381904D02*
X279425951Y-165286666D01*
X279425951Y-165286666D02*
X279473570Y-165143809D01*
X279473570Y-165143809D02*
X279473570Y-164905714D01*
X278473570Y-166381904D02*
X278473570Y-165905714D01*
X278473570Y-165905714D02*
X278949760Y-165858095D01*
X278949760Y-165858095D02*
X278902141Y-165905714D01*
X278902141Y-165905714D02*
X278854522Y-166000952D01*
X278854522Y-166000952D02*
X278854522Y-166239047D01*
X278854522Y-166239047D02*
X278902141Y-166334285D01*
X278902141Y-166334285D02*
X278949760Y-166381904D01*
X278949760Y-166381904D02*
X279044998Y-166429523D01*
X279044998Y-166429523D02*
X279283093Y-166429523D01*
X279283093Y-166429523D02*
X279378331Y-166381904D01*
X279378331Y-166381904D02*
X279425951Y-166334285D01*
X279425951Y-166334285D02*
X279473570Y-166239047D01*
X279473570Y-166239047D02*
X279473570Y-166000952D01*
X279473570Y-166000952D02*
X279425951Y-165905714D01*
X279425951Y-165905714D02*
X279378331Y-165858095D01*
X278806903Y-167286666D02*
X279473570Y-167286666D01*
X278425951Y-167048571D02*
X279140236Y-166810476D01*
X279140236Y-166810476D02*
X279140236Y-167429523D01*
X341454819Y-151533333D02*
X340978628Y-151200000D01*
X341454819Y-150961905D02*
X340454819Y-150961905D01*
X340454819Y-150961905D02*
X340454819Y-151342857D01*
X340454819Y-151342857D02*
X340502438Y-151438095D01*
X340502438Y-151438095D02*
X340550057Y-151485714D01*
X340550057Y-151485714D02*
X340645295Y-151533333D01*
X340645295Y-151533333D02*
X340788152Y-151533333D01*
X340788152Y-151533333D02*
X340883390Y-151485714D01*
X340883390Y-151485714D02*
X340931009Y-151438095D01*
X340931009Y-151438095D02*
X340978628Y-151342857D01*
X340978628Y-151342857D02*
X340978628Y-150961905D01*
X341454819Y-152485714D02*
X341454819Y-151914286D01*
X341454819Y-152200000D02*
X340454819Y-152200000D01*
X340454819Y-152200000D02*
X340597676Y-152104762D01*
X340597676Y-152104762D02*
X340692914Y-152009524D01*
X340692914Y-152009524D02*
X340740533Y-151914286D01*
X77067320Y-164905714D02*
X76067320Y-164905714D01*
X76067320Y-164905714D02*
X76067320Y-165143809D01*
X76067320Y-165143809D02*
X76114939Y-165286666D01*
X76114939Y-165286666D02*
X76210177Y-165381904D01*
X76210177Y-165381904D02*
X76305415Y-165429523D01*
X76305415Y-165429523D02*
X76495891Y-165477142D01*
X76495891Y-165477142D02*
X76638748Y-165477142D01*
X76638748Y-165477142D02*
X76829224Y-165429523D01*
X76829224Y-165429523D02*
X76924462Y-165381904D01*
X76924462Y-165381904D02*
X77019701Y-165286666D01*
X77019701Y-165286666D02*
X77067320Y-165143809D01*
X77067320Y-165143809D02*
X77067320Y-164905714D01*
X76400653Y-166334285D02*
X77067320Y-166334285D01*
X76019701Y-166096190D02*
X76733986Y-165858095D01*
X76733986Y-165858095D02*
X76733986Y-166477142D01*
X76400653Y-167286666D02*
X77067320Y-167286666D01*
X76019701Y-167048571D02*
X76733986Y-166810476D01*
X76733986Y-166810476D02*
X76733986Y-167429523D01*
X293861070Y-106788095D02*
X292861070Y-106788095D01*
X292861070Y-106788095D02*
X292861070Y-107026190D01*
X292861070Y-107026190D02*
X292908689Y-107169047D01*
X292908689Y-107169047D02*
X293003927Y-107264285D01*
X293003927Y-107264285D02*
X293099165Y-107311904D01*
X293099165Y-107311904D02*
X293289641Y-107359523D01*
X293289641Y-107359523D02*
X293432498Y-107359523D01*
X293432498Y-107359523D02*
X293622974Y-107311904D01*
X293622974Y-107311904D02*
X293718212Y-107264285D01*
X293718212Y-107264285D02*
X293813451Y-107169047D01*
X293813451Y-107169047D02*
X293861070Y-107026190D01*
X293861070Y-107026190D02*
X293861070Y-106788095D01*
X293861070Y-108311904D02*
X293861070Y-107740476D01*
X293861070Y-108026190D02*
X292861070Y-108026190D01*
X292861070Y-108026190D02*
X293003927Y-107930952D01*
X293003927Y-107930952D02*
X293099165Y-107835714D01*
X293099165Y-107835714D02*
X293146784Y-107740476D01*
X292861070Y-108645238D02*
X292861070Y-109264285D01*
X292861070Y-109264285D02*
X293242022Y-108930952D01*
X293242022Y-108930952D02*
X293242022Y-109073809D01*
X293242022Y-109073809D02*
X293289641Y-109169047D01*
X293289641Y-109169047D02*
X293337260Y-109216666D01*
X293337260Y-109216666D02*
X293432498Y-109264285D01*
X293432498Y-109264285D02*
X293670593Y-109264285D01*
X293670593Y-109264285D02*
X293765831Y-109216666D01*
X293765831Y-109216666D02*
X293813451Y-109169047D01*
X293813451Y-109169047D02*
X293861070Y-109073809D01*
X293861070Y-109073809D02*
X293861070Y-108788095D01*
X293861070Y-108788095D02*
X293813451Y-108692857D01*
X293813451Y-108692857D02*
X293765831Y-108645238D01*
X355066667Y-157654819D02*
X355400000Y-157178628D01*
X355638095Y-157654819D02*
X355638095Y-156654819D01*
X355638095Y-156654819D02*
X355257143Y-156654819D01*
X355257143Y-156654819D02*
X355161905Y-156702438D01*
X355161905Y-156702438D02*
X355114286Y-156750057D01*
X355114286Y-156750057D02*
X355066667Y-156845295D01*
X355066667Y-156845295D02*
X355066667Y-156988152D01*
X355066667Y-156988152D02*
X355114286Y-157083390D01*
X355114286Y-157083390D02*
X355161905Y-157131009D01*
X355161905Y-157131009D02*
X355257143Y-157178628D01*
X355257143Y-157178628D02*
X355638095Y-157178628D01*
X354685714Y-156750057D02*
X354638095Y-156702438D01*
X354638095Y-156702438D02*
X354542857Y-156654819D01*
X354542857Y-156654819D02*
X354304762Y-156654819D01*
X354304762Y-156654819D02*
X354209524Y-156702438D01*
X354209524Y-156702438D02*
X354161905Y-156750057D01*
X354161905Y-156750057D02*
X354114286Y-156845295D01*
X354114286Y-156845295D02*
X354114286Y-156940533D01*
X354114286Y-156940533D02*
X354161905Y-157083390D01*
X354161905Y-157083390D02*
X354733333Y-157654819D01*
X354733333Y-157654819D02*
X354114286Y-157654819D01*
X236611070Y-107785714D02*
X235611070Y-107785714D01*
X235611070Y-107785714D02*
X235611070Y-108023809D01*
X235611070Y-108023809D02*
X235658689Y-108166666D01*
X235658689Y-108166666D02*
X235753927Y-108261904D01*
X235753927Y-108261904D02*
X235849165Y-108309523D01*
X235849165Y-108309523D02*
X236039641Y-108357142D01*
X236039641Y-108357142D02*
X236182498Y-108357142D01*
X236182498Y-108357142D02*
X236372974Y-108309523D01*
X236372974Y-108309523D02*
X236468212Y-108261904D01*
X236468212Y-108261904D02*
X236563451Y-108166666D01*
X236563451Y-108166666D02*
X236611070Y-108023809D01*
X236611070Y-108023809D02*
X236611070Y-107785714D01*
X236611070Y-109309523D02*
X236611070Y-108738095D01*
X236611070Y-109023809D02*
X235611070Y-109023809D01*
X235611070Y-109023809D02*
X235753927Y-108928571D01*
X235753927Y-108928571D02*
X235849165Y-108833333D01*
X235849165Y-108833333D02*
X235896784Y-108738095D01*
X235611070Y-109928571D02*
X235611070Y-110023809D01*
X235611070Y-110023809D02*
X235658689Y-110119047D01*
X235658689Y-110119047D02*
X235706308Y-110166666D01*
X235706308Y-110166666D02*
X235801546Y-110214285D01*
X235801546Y-110214285D02*
X235992022Y-110261904D01*
X235992022Y-110261904D02*
X236230117Y-110261904D01*
X236230117Y-110261904D02*
X236420593Y-110214285D01*
X236420593Y-110214285D02*
X236515831Y-110166666D01*
X236515831Y-110166666D02*
X236563451Y-110119047D01*
X236563451Y-110119047D02*
X236611070Y-110023809D01*
X236611070Y-110023809D02*
X236611070Y-109928571D01*
X236611070Y-109928571D02*
X236563451Y-109833333D01*
X236563451Y-109833333D02*
X236515831Y-109785714D01*
X236515831Y-109785714D02*
X236420593Y-109738095D01*
X236420593Y-109738095D02*
X236230117Y-109690476D01*
X236230117Y-109690476D02*
X235992022Y-109690476D01*
X235992022Y-109690476D02*
X235801546Y-109738095D01*
X235801546Y-109738095D02*
X235706308Y-109785714D01*
X235706308Y-109785714D02*
X235658689Y-109833333D01*
X235658689Y-109833333D02*
X235611070Y-109928571D01*
X265186070Y-126835714D02*
X264186070Y-126835714D01*
X264186070Y-126835714D02*
X264186070Y-127073809D01*
X264186070Y-127073809D02*
X264233689Y-127216666D01*
X264233689Y-127216666D02*
X264328927Y-127311904D01*
X264328927Y-127311904D02*
X264424165Y-127359523D01*
X264424165Y-127359523D02*
X264614641Y-127407142D01*
X264614641Y-127407142D02*
X264757498Y-127407142D01*
X264757498Y-127407142D02*
X264947974Y-127359523D01*
X264947974Y-127359523D02*
X265043212Y-127311904D01*
X265043212Y-127311904D02*
X265138451Y-127216666D01*
X265138451Y-127216666D02*
X265186070Y-127073809D01*
X265186070Y-127073809D02*
X265186070Y-126835714D01*
X264281308Y-127788095D02*
X264233689Y-127835714D01*
X264233689Y-127835714D02*
X264186070Y-127930952D01*
X264186070Y-127930952D02*
X264186070Y-128169047D01*
X264186070Y-128169047D02*
X264233689Y-128264285D01*
X264233689Y-128264285D02*
X264281308Y-128311904D01*
X264281308Y-128311904D02*
X264376546Y-128359523D01*
X264376546Y-128359523D02*
X264471784Y-128359523D01*
X264471784Y-128359523D02*
X264614641Y-128311904D01*
X264614641Y-128311904D02*
X265186070Y-127740476D01*
X265186070Y-127740476D02*
X265186070Y-128359523D01*
X264186070Y-129216666D02*
X264186070Y-129026190D01*
X264186070Y-129026190D02*
X264233689Y-128930952D01*
X264233689Y-128930952D02*
X264281308Y-128883333D01*
X264281308Y-128883333D02*
X264424165Y-128788095D01*
X264424165Y-128788095D02*
X264614641Y-128740476D01*
X264614641Y-128740476D02*
X264995593Y-128740476D01*
X264995593Y-128740476D02*
X265090831Y-128788095D01*
X265090831Y-128788095D02*
X265138451Y-128835714D01*
X265138451Y-128835714D02*
X265186070Y-128930952D01*
X265186070Y-128930952D02*
X265186070Y-129121428D01*
X265186070Y-129121428D02*
X265138451Y-129216666D01*
X265138451Y-129216666D02*
X265090831Y-129264285D01*
X265090831Y-129264285D02*
X264995593Y-129311904D01*
X264995593Y-129311904D02*
X264757498Y-129311904D01*
X264757498Y-129311904D02*
X264662260Y-129264285D01*
X264662260Y-129264285D02*
X264614641Y-129216666D01*
X264614641Y-129216666D02*
X264567022Y-129121428D01*
X264567022Y-129121428D02*
X264567022Y-128930952D01*
X264567022Y-128930952D02*
X264614641Y-128835714D01*
X264614641Y-128835714D02*
X264662260Y-128788095D01*
X264662260Y-128788095D02*
X264757498Y-128740476D01*
X341386070Y-164905714D02*
X340386070Y-164905714D01*
X340386070Y-164905714D02*
X340386070Y-165143809D01*
X340386070Y-165143809D02*
X340433689Y-165286666D01*
X340433689Y-165286666D02*
X340528927Y-165381904D01*
X340528927Y-165381904D02*
X340624165Y-165429523D01*
X340624165Y-165429523D02*
X340814641Y-165477142D01*
X340814641Y-165477142D02*
X340957498Y-165477142D01*
X340957498Y-165477142D02*
X341147974Y-165429523D01*
X341147974Y-165429523D02*
X341243212Y-165381904D01*
X341243212Y-165381904D02*
X341338451Y-165286666D01*
X341338451Y-165286666D02*
X341386070Y-165143809D01*
X341386070Y-165143809D02*
X341386070Y-164905714D01*
X340386070Y-166381904D02*
X340386070Y-165905714D01*
X340386070Y-165905714D02*
X340862260Y-165858095D01*
X340862260Y-165858095D02*
X340814641Y-165905714D01*
X340814641Y-165905714D02*
X340767022Y-166000952D01*
X340767022Y-166000952D02*
X340767022Y-166239047D01*
X340767022Y-166239047D02*
X340814641Y-166334285D01*
X340814641Y-166334285D02*
X340862260Y-166381904D01*
X340862260Y-166381904D02*
X340957498Y-166429523D01*
X340957498Y-166429523D02*
X341195593Y-166429523D01*
X341195593Y-166429523D02*
X341290831Y-166381904D01*
X341290831Y-166381904D02*
X341338451Y-166334285D01*
X341338451Y-166334285D02*
X341386070Y-166239047D01*
X341386070Y-166239047D02*
X341386070Y-166000952D01*
X341386070Y-166000952D02*
X341338451Y-165905714D01*
X341338451Y-165905714D02*
X341290831Y-165858095D01*
X340386070Y-167286666D02*
X340386070Y-167096190D01*
X340386070Y-167096190D02*
X340433689Y-167000952D01*
X340433689Y-167000952D02*
X340481308Y-166953333D01*
X340481308Y-166953333D02*
X340624165Y-166858095D01*
X340624165Y-166858095D02*
X340814641Y-166810476D01*
X340814641Y-166810476D02*
X341195593Y-166810476D01*
X341195593Y-166810476D02*
X341290831Y-166858095D01*
X341290831Y-166858095D02*
X341338451Y-166905714D01*
X341338451Y-166905714D02*
X341386070Y-167000952D01*
X341386070Y-167000952D02*
X341386070Y-167191428D01*
X341386070Y-167191428D02*
X341338451Y-167286666D01*
X341338451Y-167286666D02*
X341290831Y-167334285D01*
X341290831Y-167334285D02*
X341195593Y-167381904D01*
X341195593Y-167381904D02*
X340957498Y-167381904D01*
X340957498Y-167381904D02*
X340862260Y-167334285D01*
X340862260Y-167334285D02*
X340814641Y-167286666D01*
X340814641Y-167286666D02*
X340767022Y-167191428D01*
X340767022Y-167191428D02*
X340767022Y-167000952D01*
X340767022Y-167000952D02*
X340814641Y-166905714D01*
X340814641Y-166905714D02*
X340862260Y-166858095D01*
X340862260Y-166858095D02*
X340957498Y-166810476D01*
X254354818Y-172535714D02*
X253354818Y-172535714D01*
X253354818Y-172535714D02*
X253354818Y-172773809D01*
X253354818Y-172773809D02*
X253402437Y-172916666D01*
X253402437Y-172916666D02*
X253497675Y-173011904D01*
X253497675Y-173011904D02*
X253592913Y-173059523D01*
X253592913Y-173059523D02*
X253783389Y-173107142D01*
X253783389Y-173107142D02*
X253926246Y-173107142D01*
X253926246Y-173107142D02*
X254116722Y-173059523D01*
X254116722Y-173059523D02*
X254211960Y-173011904D01*
X254211960Y-173011904D02*
X254307199Y-172916666D01*
X254307199Y-172916666D02*
X254354818Y-172773809D01*
X254354818Y-172773809D02*
X254354818Y-172535714D01*
X253354818Y-173964285D02*
X253354818Y-173773809D01*
X253354818Y-173773809D02*
X253402437Y-173678571D01*
X253402437Y-173678571D02*
X253450056Y-173630952D01*
X253450056Y-173630952D02*
X253592913Y-173535714D01*
X253592913Y-173535714D02*
X253783389Y-173488095D01*
X253783389Y-173488095D02*
X254164341Y-173488095D01*
X254164341Y-173488095D02*
X254259579Y-173535714D01*
X254259579Y-173535714D02*
X254307199Y-173583333D01*
X254307199Y-173583333D02*
X254354818Y-173678571D01*
X254354818Y-173678571D02*
X254354818Y-173869047D01*
X254354818Y-173869047D02*
X254307199Y-173964285D01*
X254307199Y-173964285D02*
X254259579Y-174011904D01*
X254259579Y-174011904D02*
X254164341Y-174059523D01*
X254164341Y-174059523D02*
X253926246Y-174059523D01*
X253926246Y-174059523D02*
X253831008Y-174011904D01*
X253831008Y-174011904D02*
X253783389Y-173964285D01*
X253783389Y-173964285D02*
X253735770Y-173869047D01*
X253735770Y-173869047D02*
X253735770Y-173678571D01*
X253735770Y-173678571D02*
X253783389Y-173583333D01*
X253783389Y-173583333D02*
X253831008Y-173535714D01*
X253831008Y-173535714D02*
X253926246Y-173488095D01*
X254354818Y-175011904D02*
X254354818Y-174440476D01*
X254354818Y-174726190D02*
X253354818Y-174726190D01*
X253354818Y-174726190D02*
X253497675Y-174630952D01*
X253497675Y-174630952D02*
X253592913Y-174535714D01*
X253592913Y-174535714D02*
X253640532Y-174440476D01*
X188986070Y-126835714D02*
X187986070Y-126835714D01*
X187986070Y-126835714D02*
X187986070Y-127073809D01*
X187986070Y-127073809D02*
X188033689Y-127216666D01*
X188033689Y-127216666D02*
X188128927Y-127311904D01*
X188128927Y-127311904D02*
X188224165Y-127359523D01*
X188224165Y-127359523D02*
X188414641Y-127407142D01*
X188414641Y-127407142D02*
X188557498Y-127407142D01*
X188557498Y-127407142D02*
X188747974Y-127359523D01*
X188747974Y-127359523D02*
X188843212Y-127311904D01*
X188843212Y-127311904D02*
X188938451Y-127216666D01*
X188938451Y-127216666D02*
X188986070Y-127073809D01*
X188986070Y-127073809D02*
X188986070Y-126835714D01*
X188081308Y-127788095D02*
X188033689Y-127835714D01*
X188033689Y-127835714D02*
X187986070Y-127930952D01*
X187986070Y-127930952D02*
X187986070Y-128169047D01*
X187986070Y-128169047D02*
X188033689Y-128264285D01*
X188033689Y-128264285D02*
X188081308Y-128311904D01*
X188081308Y-128311904D02*
X188176546Y-128359523D01*
X188176546Y-128359523D02*
X188271784Y-128359523D01*
X188271784Y-128359523D02*
X188414641Y-128311904D01*
X188414641Y-128311904D02*
X188986070Y-127740476D01*
X188986070Y-127740476D02*
X188986070Y-128359523D01*
X188081308Y-128740476D02*
X188033689Y-128788095D01*
X188033689Y-128788095D02*
X187986070Y-128883333D01*
X187986070Y-128883333D02*
X187986070Y-129121428D01*
X187986070Y-129121428D02*
X188033689Y-129216666D01*
X188033689Y-129216666D02*
X188081308Y-129264285D01*
X188081308Y-129264285D02*
X188176546Y-129311904D01*
X188176546Y-129311904D02*
X188271784Y-129311904D01*
X188271784Y-129311904D02*
X188414641Y-129264285D01*
X188414641Y-129264285D02*
X188986070Y-128692857D01*
X188986070Y-128692857D02*
X188986070Y-129311904D01*
X339266666Y-127654819D02*
X339599999Y-127178628D01*
X339838094Y-127654819D02*
X339838094Y-126654819D01*
X339838094Y-126654819D02*
X339457142Y-126654819D01*
X339457142Y-126654819D02*
X339361904Y-126702438D01*
X339361904Y-126702438D02*
X339314285Y-126750057D01*
X339314285Y-126750057D02*
X339266666Y-126845295D01*
X339266666Y-126845295D02*
X339266666Y-126988152D01*
X339266666Y-126988152D02*
X339314285Y-127083390D01*
X339314285Y-127083390D02*
X339361904Y-127131009D01*
X339361904Y-127131009D02*
X339457142Y-127178628D01*
X339457142Y-127178628D02*
X339838094Y-127178628D01*
X338409523Y-126988152D02*
X338409523Y-127654819D01*
X338647618Y-126607200D02*
X338885713Y-127321485D01*
X338885713Y-127321485D02*
X338266666Y-127321485D01*
X319954820Y-145885714D02*
X318954820Y-145885714D01*
X318954820Y-145885714D02*
X318954820Y-146123809D01*
X318954820Y-146123809D02*
X319002439Y-146266666D01*
X319002439Y-146266666D02*
X319097677Y-146361904D01*
X319097677Y-146361904D02*
X319192915Y-146409523D01*
X319192915Y-146409523D02*
X319383391Y-146457142D01*
X319383391Y-146457142D02*
X319526248Y-146457142D01*
X319526248Y-146457142D02*
X319716724Y-146409523D01*
X319716724Y-146409523D02*
X319811962Y-146361904D01*
X319811962Y-146361904D02*
X319907201Y-146266666D01*
X319907201Y-146266666D02*
X319954820Y-146123809D01*
X319954820Y-146123809D02*
X319954820Y-145885714D01*
X319288153Y-147314285D02*
X319954820Y-147314285D01*
X318907201Y-147076190D02*
X319621486Y-146838095D01*
X319621486Y-146838095D02*
X319621486Y-147457142D01*
X318954820Y-147742857D02*
X318954820Y-148361904D01*
X318954820Y-148361904D02*
X319335772Y-148028571D01*
X319335772Y-148028571D02*
X319335772Y-148171428D01*
X319335772Y-148171428D02*
X319383391Y-148266666D01*
X319383391Y-148266666D02*
X319431010Y-148314285D01*
X319431010Y-148314285D02*
X319526248Y-148361904D01*
X319526248Y-148361904D02*
X319764343Y-148361904D01*
X319764343Y-148361904D02*
X319859581Y-148314285D01*
X319859581Y-148314285D02*
X319907201Y-148266666D01*
X319907201Y-148266666D02*
X319954820Y-148171428D01*
X319954820Y-148171428D02*
X319954820Y-147885714D01*
X319954820Y-147885714D02*
X319907201Y-147790476D01*
X319907201Y-147790476D02*
X319859581Y-147742857D01*
X65161070Y-108261905D02*
X64161070Y-108261905D01*
X64161070Y-108261905D02*
X64161070Y-108500000D01*
X64161070Y-108500000D02*
X64208689Y-108642857D01*
X64208689Y-108642857D02*
X64303927Y-108738095D01*
X64303927Y-108738095D02*
X64399165Y-108785714D01*
X64399165Y-108785714D02*
X64589641Y-108833333D01*
X64589641Y-108833333D02*
X64732498Y-108833333D01*
X64732498Y-108833333D02*
X64922974Y-108785714D01*
X64922974Y-108785714D02*
X65018212Y-108738095D01*
X65018212Y-108738095D02*
X65113451Y-108642857D01*
X65113451Y-108642857D02*
X65161070Y-108500000D01*
X65161070Y-108500000D02*
X65161070Y-108261905D01*
X65161070Y-109785714D02*
X65161070Y-109214286D01*
X65161070Y-109500000D02*
X64161070Y-109500000D01*
X64161070Y-109500000D02*
X64303927Y-109404762D01*
X64303927Y-109404762D02*
X64399165Y-109309524D01*
X64399165Y-109309524D02*
X64446784Y-109214286D01*
X278054818Y-172535714D02*
X277054818Y-172535714D01*
X277054818Y-172535714D02*
X277054818Y-172773809D01*
X277054818Y-172773809D02*
X277102437Y-172916666D01*
X277102437Y-172916666D02*
X277197675Y-173011904D01*
X277197675Y-173011904D02*
X277292913Y-173059523D01*
X277292913Y-173059523D02*
X277483389Y-173107142D01*
X277483389Y-173107142D02*
X277626246Y-173107142D01*
X277626246Y-173107142D02*
X277816722Y-173059523D01*
X277816722Y-173059523D02*
X277911960Y-173011904D01*
X277911960Y-173011904D02*
X278007199Y-172916666D01*
X278007199Y-172916666D02*
X278054818Y-172773809D01*
X278054818Y-172773809D02*
X278054818Y-172535714D01*
X277054818Y-173964285D02*
X277054818Y-173773809D01*
X277054818Y-173773809D02*
X277102437Y-173678571D01*
X277102437Y-173678571D02*
X277150056Y-173630952D01*
X277150056Y-173630952D02*
X277292913Y-173535714D01*
X277292913Y-173535714D02*
X277483389Y-173488095D01*
X277483389Y-173488095D02*
X277864341Y-173488095D01*
X277864341Y-173488095D02*
X277959579Y-173535714D01*
X277959579Y-173535714D02*
X278007199Y-173583333D01*
X278007199Y-173583333D02*
X278054818Y-173678571D01*
X278054818Y-173678571D02*
X278054818Y-173869047D01*
X278054818Y-173869047D02*
X278007199Y-173964285D01*
X278007199Y-173964285D02*
X277959579Y-174011904D01*
X277959579Y-174011904D02*
X277864341Y-174059523D01*
X277864341Y-174059523D02*
X277626246Y-174059523D01*
X277626246Y-174059523D02*
X277531008Y-174011904D01*
X277531008Y-174011904D02*
X277483389Y-173964285D01*
X277483389Y-173964285D02*
X277435770Y-173869047D01*
X277435770Y-173869047D02*
X277435770Y-173678571D01*
X277435770Y-173678571D02*
X277483389Y-173583333D01*
X277483389Y-173583333D02*
X277531008Y-173535714D01*
X277531008Y-173535714D02*
X277626246Y-173488095D01*
X277150056Y-174440476D02*
X277102437Y-174488095D01*
X277102437Y-174488095D02*
X277054818Y-174583333D01*
X277054818Y-174583333D02*
X277054818Y-174821428D01*
X277054818Y-174821428D02*
X277102437Y-174916666D01*
X277102437Y-174916666D02*
X277150056Y-174964285D01*
X277150056Y-174964285D02*
X277245294Y-175011904D01*
X277245294Y-175011904D02*
X277340532Y-175011904D01*
X277340532Y-175011904D02*
X277483389Y-174964285D01*
X277483389Y-174964285D02*
X278054818Y-174392857D01*
X278054818Y-174392857D02*
X278054818Y-175011904D01*
X301954818Y-172535714D02*
X300954818Y-172535714D01*
X300954818Y-172535714D02*
X300954818Y-172773809D01*
X300954818Y-172773809D02*
X301002437Y-172916666D01*
X301002437Y-172916666D02*
X301097675Y-173011904D01*
X301097675Y-173011904D02*
X301192913Y-173059523D01*
X301192913Y-173059523D02*
X301383389Y-173107142D01*
X301383389Y-173107142D02*
X301526246Y-173107142D01*
X301526246Y-173107142D02*
X301716722Y-173059523D01*
X301716722Y-173059523D02*
X301811960Y-173011904D01*
X301811960Y-173011904D02*
X301907199Y-172916666D01*
X301907199Y-172916666D02*
X301954818Y-172773809D01*
X301954818Y-172773809D02*
X301954818Y-172535714D01*
X300954818Y-173964285D02*
X300954818Y-173773809D01*
X300954818Y-173773809D02*
X301002437Y-173678571D01*
X301002437Y-173678571D02*
X301050056Y-173630952D01*
X301050056Y-173630952D02*
X301192913Y-173535714D01*
X301192913Y-173535714D02*
X301383389Y-173488095D01*
X301383389Y-173488095D02*
X301764341Y-173488095D01*
X301764341Y-173488095D02*
X301859579Y-173535714D01*
X301859579Y-173535714D02*
X301907199Y-173583333D01*
X301907199Y-173583333D02*
X301954818Y-173678571D01*
X301954818Y-173678571D02*
X301954818Y-173869047D01*
X301954818Y-173869047D02*
X301907199Y-173964285D01*
X301907199Y-173964285D02*
X301859579Y-174011904D01*
X301859579Y-174011904D02*
X301764341Y-174059523D01*
X301764341Y-174059523D02*
X301526246Y-174059523D01*
X301526246Y-174059523D02*
X301431008Y-174011904D01*
X301431008Y-174011904D02*
X301383389Y-173964285D01*
X301383389Y-173964285D02*
X301335770Y-173869047D01*
X301335770Y-173869047D02*
X301335770Y-173678571D01*
X301335770Y-173678571D02*
X301383389Y-173583333D01*
X301383389Y-173583333D02*
X301431008Y-173535714D01*
X301431008Y-173535714D02*
X301526246Y-173488095D01*
X300954818Y-174392857D02*
X300954818Y-175011904D01*
X300954818Y-175011904D02*
X301335770Y-174678571D01*
X301335770Y-174678571D02*
X301335770Y-174821428D01*
X301335770Y-174821428D02*
X301383389Y-174916666D01*
X301383389Y-174916666D02*
X301431008Y-174964285D01*
X301431008Y-174964285D02*
X301526246Y-175011904D01*
X301526246Y-175011904D02*
X301764341Y-175011904D01*
X301764341Y-175011904D02*
X301859579Y-174964285D01*
X301859579Y-174964285D02*
X301907199Y-174916666D01*
X301907199Y-174916666D02*
X301954818Y-174821428D01*
X301954818Y-174821428D02*
X301954818Y-174535714D01*
X301954818Y-174535714D02*
X301907199Y-174440476D01*
X301907199Y-174440476D02*
X301859579Y-174392857D01*
X348439579Y-132733333D02*
X348487199Y-132685714D01*
X348487199Y-132685714D02*
X348534818Y-132542857D01*
X348534818Y-132542857D02*
X348534818Y-132447619D01*
X348534818Y-132447619D02*
X348487199Y-132304762D01*
X348487199Y-132304762D02*
X348391960Y-132209524D01*
X348391960Y-132209524D02*
X348296722Y-132161905D01*
X348296722Y-132161905D02*
X348106246Y-132114286D01*
X348106246Y-132114286D02*
X347963389Y-132114286D01*
X347963389Y-132114286D02*
X347772913Y-132161905D01*
X347772913Y-132161905D02*
X347677675Y-132209524D01*
X347677675Y-132209524D02*
X347582437Y-132304762D01*
X347582437Y-132304762D02*
X347534818Y-132447619D01*
X347534818Y-132447619D02*
X347534818Y-132542857D01*
X347534818Y-132542857D02*
X347582437Y-132685714D01*
X347582437Y-132685714D02*
X347630056Y-132733333D01*
X347534818Y-133638095D02*
X347534818Y-133161905D01*
X347534818Y-133161905D02*
X348011008Y-133114286D01*
X348011008Y-133114286D02*
X347963389Y-133161905D01*
X347963389Y-133161905D02*
X347915770Y-133257143D01*
X347915770Y-133257143D02*
X347915770Y-133495238D01*
X347915770Y-133495238D02*
X347963389Y-133590476D01*
X347963389Y-133590476D02*
X348011008Y-133638095D01*
X348011008Y-133638095D02*
X348106246Y-133685714D01*
X348106246Y-133685714D02*
X348344341Y-133685714D01*
X348344341Y-133685714D02*
X348439579Y-133638095D01*
X348439579Y-133638095D02*
X348487199Y-133590476D01*
X348487199Y-133590476D02*
X348534818Y-133495238D01*
X348534818Y-133495238D02*
X348534818Y-133257143D01*
X348534818Y-133257143D02*
X348487199Y-133161905D01*
X348487199Y-133161905D02*
X348439579Y-133114286D01*
X146123570Y-164905714D02*
X145123570Y-164905714D01*
X145123570Y-164905714D02*
X145123570Y-165143809D01*
X145123570Y-165143809D02*
X145171189Y-165286666D01*
X145171189Y-165286666D02*
X145266427Y-165381904D01*
X145266427Y-165381904D02*
X145361665Y-165429523D01*
X145361665Y-165429523D02*
X145552141Y-165477142D01*
X145552141Y-165477142D02*
X145694998Y-165477142D01*
X145694998Y-165477142D02*
X145885474Y-165429523D01*
X145885474Y-165429523D02*
X145980712Y-165381904D01*
X145980712Y-165381904D02*
X146075951Y-165286666D01*
X146075951Y-165286666D02*
X146123570Y-165143809D01*
X146123570Y-165143809D02*
X146123570Y-164905714D01*
X145456903Y-166334285D02*
X146123570Y-166334285D01*
X145075951Y-166096190D02*
X145790236Y-165858095D01*
X145790236Y-165858095D02*
X145790236Y-166477142D01*
X145123570Y-166762857D02*
X145123570Y-167429523D01*
X145123570Y-167429523D02*
X146123570Y-167000952D01*
X361454818Y-172535714D02*
X360454818Y-172535714D01*
X360454818Y-172535714D02*
X360454818Y-172773809D01*
X360454818Y-172773809D02*
X360502437Y-172916666D01*
X360502437Y-172916666D02*
X360597675Y-173011904D01*
X360597675Y-173011904D02*
X360692913Y-173059523D01*
X360692913Y-173059523D02*
X360883389Y-173107142D01*
X360883389Y-173107142D02*
X361026246Y-173107142D01*
X361026246Y-173107142D02*
X361216722Y-173059523D01*
X361216722Y-173059523D02*
X361311960Y-173011904D01*
X361311960Y-173011904D02*
X361407199Y-172916666D01*
X361407199Y-172916666D02*
X361454818Y-172773809D01*
X361454818Y-172773809D02*
X361454818Y-172535714D01*
X360454818Y-173964285D02*
X360454818Y-173773809D01*
X360454818Y-173773809D02*
X360502437Y-173678571D01*
X360502437Y-173678571D02*
X360550056Y-173630952D01*
X360550056Y-173630952D02*
X360692913Y-173535714D01*
X360692913Y-173535714D02*
X360883389Y-173488095D01*
X360883389Y-173488095D02*
X361264341Y-173488095D01*
X361264341Y-173488095D02*
X361359579Y-173535714D01*
X361359579Y-173535714D02*
X361407199Y-173583333D01*
X361407199Y-173583333D02*
X361454818Y-173678571D01*
X361454818Y-173678571D02*
X361454818Y-173869047D01*
X361454818Y-173869047D02*
X361407199Y-173964285D01*
X361407199Y-173964285D02*
X361359579Y-174011904D01*
X361359579Y-174011904D02*
X361264341Y-174059523D01*
X361264341Y-174059523D02*
X361026246Y-174059523D01*
X361026246Y-174059523D02*
X360931008Y-174011904D01*
X360931008Y-174011904D02*
X360883389Y-173964285D01*
X360883389Y-173964285D02*
X360835770Y-173869047D01*
X360835770Y-173869047D02*
X360835770Y-173678571D01*
X360835770Y-173678571D02*
X360883389Y-173583333D01*
X360883389Y-173583333D02*
X360931008Y-173535714D01*
X360931008Y-173535714D02*
X361026246Y-173488095D01*
X360454818Y-174916666D02*
X360454818Y-174726190D01*
X360454818Y-174726190D02*
X360502437Y-174630952D01*
X360502437Y-174630952D02*
X360550056Y-174583333D01*
X360550056Y-174583333D02*
X360692913Y-174488095D01*
X360692913Y-174488095D02*
X360883389Y-174440476D01*
X360883389Y-174440476D02*
X361264341Y-174440476D01*
X361264341Y-174440476D02*
X361359579Y-174488095D01*
X361359579Y-174488095D02*
X361407199Y-174535714D01*
X361407199Y-174535714D02*
X361454818Y-174630952D01*
X361454818Y-174630952D02*
X361454818Y-174821428D01*
X361454818Y-174821428D02*
X361407199Y-174916666D01*
X361407199Y-174916666D02*
X361359579Y-174964285D01*
X361359579Y-174964285D02*
X361264341Y-175011904D01*
X361264341Y-175011904D02*
X361026246Y-175011904D01*
X361026246Y-175011904D02*
X360931008Y-174964285D01*
X360931008Y-174964285D02*
X360883389Y-174916666D01*
X360883389Y-174916666D02*
X360835770Y-174821428D01*
X360835770Y-174821428D02*
X360835770Y-174630952D01*
X360835770Y-174630952D02*
X360883389Y-174535714D01*
X360883389Y-174535714D02*
X360931008Y-174488095D01*
X360931008Y-174488095D02*
X361026246Y-174440476D01*
X360436070Y-107785714D02*
X359436070Y-107785714D01*
X359436070Y-107785714D02*
X359436070Y-108023809D01*
X359436070Y-108023809D02*
X359483689Y-108166666D01*
X359483689Y-108166666D02*
X359578927Y-108261904D01*
X359578927Y-108261904D02*
X359674165Y-108309523D01*
X359674165Y-108309523D02*
X359864641Y-108357142D01*
X359864641Y-108357142D02*
X360007498Y-108357142D01*
X360007498Y-108357142D02*
X360197974Y-108309523D01*
X360197974Y-108309523D02*
X360293212Y-108261904D01*
X360293212Y-108261904D02*
X360388451Y-108166666D01*
X360388451Y-108166666D02*
X360436070Y-108023809D01*
X360436070Y-108023809D02*
X360436070Y-107785714D01*
X360436070Y-109309523D02*
X360436070Y-108738095D01*
X360436070Y-109023809D02*
X359436070Y-109023809D01*
X359436070Y-109023809D02*
X359578927Y-108928571D01*
X359578927Y-108928571D02*
X359674165Y-108833333D01*
X359674165Y-108833333D02*
X359721784Y-108738095D01*
X359436070Y-110214285D02*
X359436070Y-109738095D01*
X359436070Y-109738095D02*
X359912260Y-109690476D01*
X359912260Y-109690476D02*
X359864641Y-109738095D01*
X359864641Y-109738095D02*
X359817022Y-109833333D01*
X359817022Y-109833333D02*
X359817022Y-110071428D01*
X359817022Y-110071428D02*
X359864641Y-110166666D01*
X359864641Y-110166666D02*
X359912260Y-110214285D01*
X359912260Y-110214285D02*
X360007498Y-110261904D01*
X360007498Y-110261904D02*
X360245593Y-110261904D01*
X360245593Y-110261904D02*
X360340831Y-110214285D01*
X360340831Y-110214285D02*
X360388451Y-110166666D01*
X360388451Y-110166666D02*
X360436070Y-110071428D01*
X360436070Y-110071428D02*
X360436070Y-109833333D01*
X360436070Y-109833333D02*
X360388451Y-109738095D01*
X360388451Y-109738095D02*
X360340831Y-109690476D01*
X360566666Y-146659580D02*
X360614285Y-146707200D01*
X360614285Y-146707200D02*
X360757142Y-146754819D01*
X360757142Y-146754819D02*
X360852380Y-146754819D01*
X360852380Y-146754819D02*
X360995237Y-146707200D01*
X360995237Y-146707200D02*
X361090475Y-146611961D01*
X361090475Y-146611961D02*
X361138094Y-146516723D01*
X361138094Y-146516723D02*
X361185713Y-146326247D01*
X361185713Y-146326247D02*
X361185713Y-146183390D01*
X361185713Y-146183390D02*
X361138094Y-145992914D01*
X361138094Y-145992914D02*
X361090475Y-145897676D01*
X361090475Y-145897676D02*
X360995237Y-145802438D01*
X360995237Y-145802438D02*
X360852380Y-145754819D01*
X360852380Y-145754819D02*
X360757142Y-145754819D01*
X360757142Y-145754819D02*
X360614285Y-145802438D01*
X360614285Y-145802438D02*
X360566666Y-145850057D01*
X360233332Y-145754819D02*
X359566666Y-145754819D01*
X359566666Y-145754819D02*
X359995237Y-146754819D01*
X203123569Y-165155714D02*
X202123569Y-165155714D01*
X202123569Y-165155714D02*
X202123569Y-165393809D01*
X202123569Y-165393809D02*
X202171188Y-165536666D01*
X202171188Y-165536666D02*
X202266426Y-165631904D01*
X202266426Y-165631904D02*
X202361664Y-165679523D01*
X202361664Y-165679523D02*
X202552140Y-165727142D01*
X202552140Y-165727142D02*
X202694997Y-165727142D01*
X202694997Y-165727142D02*
X202885473Y-165679523D01*
X202885473Y-165679523D02*
X202980711Y-165631904D01*
X202980711Y-165631904D02*
X203075950Y-165536666D01*
X203075950Y-165536666D02*
X203123569Y-165393809D01*
X203123569Y-165393809D02*
X203123569Y-165155714D01*
X202123569Y-166631904D02*
X202123569Y-166155714D01*
X202123569Y-166155714D02*
X202599759Y-166108095D01*
X202599759Y-166108095D02*
X202552140Y-166155714D01*
X202552140Y-166155714D02*
X202504521Y-166250952D01*
X202504521Y-166250952D02*
X202504521Y-166489047D01*
X202504521Y-166489047D02*
X202552140Y-166584285D01*
X202552140Y-166584285D02*
X202599759Y-166631904D01*
X202599759Y-166631904D02*
X202694997Y-166679523D01*
X202694997Y-166679523D02*
X202933092Y-166679523D01*
X202933092Y-166679523D02*
X203028330Y-166631904D01*
X203028330Y-166631904D02*
X203075950Y-166584285D01*
X203075950Y-166584285D02*
X203123569Y-166489047D01*
X203123569Y-166489047D02*
X203123569Y-166250952D01*
X203123569Y-166250952D02*
X203075950Y-166155714D01*
X203075950Y-166155714D02*
X203028330Y-166108095D01*
X202123569Y-167298571D02*
X202123569Y-167393809D01*
X202123569Y-167393809D02*
X202171188Y-167489047D01*
X202171188Y-167489047D02*
X202218807Y-167536666D01*
X202218807Y-167536666D02*
X202314045Y-167584285D01*
X202314045Y-167584285D02*
X202504521Y-167631904D01*
X202504521Y-167631904D02*
X202742616Y-167631904D01*
X202742616Y-167631904D02*
X202933092Y-167584285D01*
X202933092Y-167584285D02*
X203028330Y-167536666D01*
X203028330Y-167536666D02*
X203075950Y-167489047D01*
X203075950Y-167489047D02*
X203123569Y-167393809D01*
X203123569Y-167393809D02*
X203123569Y-167298571D01*
X203123569Y-167298571D02*
X203075950Y-167203333D01*
X203075950Y-167203333D02*
X203028330Y-167155714D01*
X203028330Y-167155714D02*
X202933092Y-167108095D01*
X202933092Y-167108095D02*
X202742616Y-167060476D01*
X202742616Y-167060476D02*
X202504521Y-167060476D01*
X202504521Y-167060476D02*
X202314045Y-167108095D01*
X202314045Y-167108095D02*
X202218807Y-167155714D01*
X202218807Y-167155714D02*
X202171188Y-167203333D01*
X202171188Y-167203333D02*
X202123569Y-167298571D01*
X93736070Y-126835714D02*
X92736070Y-126835714D01*
X92736070Y-126835714D02*
X92736070Y-127073809D01*
X92736070Y-127073809D02*
X92783689Y-127216666D01*
X92783689Y-127216666D02*
X92878927Y-127311904D01*
X92878927Y-127311904D02*
X92974165Y-127359523D01*
X92974165Y-127359523D02*
X93164641Y-127407142D01*
X93164641Y-127407142D02*
X93307498Y-127407142D01*
X93307498Y-127407142D02*
X93497974Y-127359523D01*
X93497974Y-127359523D02*
X93593212Y-127311904D01*
X93593212Y-127311904D02*
X93688451Y-127216666D01*
X93688451Y-127216666D02*
X93736070Y-127073809D01*
X93736070Y-127073809D02*
X93736070Y-126835714D01*
X93736070Y-128359523D02*
X93736070Y-127788095D01*
X93736070Y-128073809D02*
X92736070Y-128073809D01*
X92736070Y-128073809D02*
X92878927Y-127978571D01*
X92878927Y-127978571D02*
X92974165Y-127883333D01*
X92974165Y-127883333D02*
X93021784Y-127788095D01*
X92736070Y-128692857D02*
X92736070Y-129359523D01*
X92736070Y-129359523D02*
X93736070Y-128930952D01*
X337504818Y-142138095D02*
X338314341Y-142138095D01*
X338314341Y-142138095D02*
X338409579Y-142185714D01*
X338409579Y-142185714D02*
X338457199Y-142233333D01*
X338457199Y-142233333D02*
X338504818Y-142328571D01*
X338504818Y-142328571D02*
X338504818Y-142519047D01*
X338504818Y-142519047D02*
X338457199Y-142614285D01*
X338457199Y-142614285D02*
X338409579Y-142661904D01*
X338409579Y-142661904D02*
X338314341Y-142709523D01*
X338314341Y-142709523D02*
X337504818Y-142709523D01*
X337600056Y-143138095D02*
X337552437Y-143185714D01*
X337552437Y-143185714D02*
X337504818Y-143280952D01*
X337504818Y-143280952D02*
X337504818Y-143519047D01*
X337504818Y-143519047D02*
X337552437Y-143614285D01*
X337552437Y-143614285D02*
X337600056Y-143661904D01*
X337600056Y-143661904D02*
X337695294Y-143709523D01*
X337695294Y-143709523D02*
X337790532Y-143709523D01*
X337790532Y-143709523D02*
X337933389Y-143661904D01*
X337933389Y-143661904D02*
X338504818Y-143090476D01*
X338504818Y-143090476D02*
X338504818Y-143709523D01*
X335266666Y-136179581D02*
X335314285Y-136227201D01*
X335314285Y-136227201D02*
X335457142Y-136274820D01*
X335457142Y-136274820D02*
X335552380Y-136274820D01*
X335552380Y-136274820D02*
X335695237Y-136227201D01*
X335695237Y-136227201D02*
X335790475Y-136131962D01*
X335790475Y-136131962D02*
X335838094Y-136036724D01*
X335838094Y-136036724D02*
X335885713Y-135846248D01*
X335885713Y-135846248D02*
X335885713Y-135703391D01*
X335885713Y-135703391D02*
X335838094Y-135512915D01*
X335838094Y-135512915D02*
X335790475Y-135417677D01*
X335790475Y-135417677D02*
X335695237Y-135322439D01*
X335695237Y-135322439D02*
X335552380Y-135274820D01*
X335552380Y-135274820D02*
X335457142Y-135274820D01*
X335457142Y-135274820D02*
X335314285Y-135322439D01*
X335314285Y-135322439D02*
X335266666Y-135370058D01*
X334314285Y-136274820D02*
X334885713Y-136274820D01*
X334599999Y-136274820D02*
X334599999Y-135274820D01*
X334599999Y-135274820D02*
X334695237Y-135417677D01*
X334695237Y-135417677D02*
X334790475Y-135512915D01*
X334790475Y-135512915D02*
X334885713Y-135560534D01*
X288998570Y-145885714D02*
X287998570Y-145885714D01*
X287998570Y-145885714D02*
X287998570Y-146123809D01*
X287998570Y-146123809D02*
X288046189Y-146266666D01*
X288046189Y-146266666D02*
X288141427Y-146361904D01*
X288141427Y-146361904D02*
X288236665Y-146409523D01*
X288236665Y-146409523D02*
X288427141Y-146457142D01*
X288427141Y-146457142D02*
X288569998Y-146457142D01*
X288569998Y-146457142D02*
X288760474Y-146409523D01*
X288760474Y-146409523D02*
X288855712Y-146361904D01*
X288855712Y-146361904D02*
X288950951Y-146266666D01*
X288950951Y-146266666D02*
X288998570Y-146123809D01*
X288998570Y-146123809D02*
X288998570Y-145885714D01*
X288331903Y-147314285D02*
X288998570Y-147314285D01*
X287950951Y-147076190D02*
X288665236Y-146838095D01*
X288665236Y-146838095D02*
X288665236Y-147457142D01*
X288093808Y-147790476D02*
X288046189Y-147838095D01*
X288046189Y-147838095D02*
X287998570Y-147933333D01*
X287998570Y-147933333D02*
X287998570Y-148171428D01*
X287998570Y-148171428D02*
X288046189Y-148266666D01*
X288046189Y-148266666D02*
X288093808Y-148314285D01*
X288093808Y-148314285D02*
X288189046Y-148361904D01*
X288189046Y-148361904D02*
X288284284Y-148361904D01*
X288284284Y-148361904D02*
X288427141Y-148314285D01*
X288427141Y-148314285D02*
X288998570Y-147742857D01*
X288998570Y-147742857D02*
X288998570Y-148361904D01*
X169936070Y-126835714D02*
X168936070Y-126835714D01*
X168936070Y-126835714D02*
X168936070Y-127073809D01*
X168936070Y-127073809D02*
X168983689Y-127216666D01*
X168983689Y-127216666D02*
X169078927Y-127311904D01*
X169078927Y-127311904D02*
X169174165Y-127359523D01*
X169174165Y-127359523D02*
X169364641Y-127407142D01*
X169364641Y-127407142D02*
X169507498Y-127407142D01*
X169507498Y-127407142D02*
X169697974Y-127359523D01*
X169697974Y-127359523D02*
X169793212Y-127311904D01*
X169793212Y-127311904D02*
X169888451Y-127216666D01*
X169888451Y-127216666D02*
X169936070Y-127073809D01*
X169936070Y-127073809D02*
X169936070Y-126835714D01*
X169031308Y-127788095D02*
X168983689Y-127835714D01*
X168983689Y-127835714D02*
X168936070Y-127930952D01*
X168936070Y-127930952D02*
X168936070Y-128169047D01*
X168936070Y-128169047D02*
X168983689Y-128264285D01*
X168983689Y-128264285D02*
X169031308Y-128311904D01*
X169031308Y-128311904D02*
X169126546Y-128359523D01*
X169126546Y-128359523D02*
X169221784Y-128359523D01*
X169221784Y-128359523D02*
X169364641Y-128311904D01*
X169364641Y-128311904D02*
X169936070Y-127740476D01*
X169936070Y-127740476D02*
X169936070Y-128359523D01*
X169936070Y-129311904D02*
X169936070Y-128740476D01*
X169936070Y-129026190D02*
X168936070Y-129026190D01*
X168936070Y-129026190D02*
X169078927Y-128930952D01*
X169078927Y-128930952D02*
X169174165Y-128835714D01*
X169174165Y-128835714D02*
X169221784Y-128740476D01*
X284236070Y-126579464D02*
X283236070Y-126579464D01*
X283236070Y-126579464D02*
X283236070Y-126817559D01*
X283236070Y-126817559D02*
X283283689Y-126960416D01*
X283283689Y-126960416D02*
X283378927Y-127055654D01*
X283378927Y-127055654D02*
X283474165Y-127103273D01*
X283474165Y-127103273D02*
X283664641Y-127150892D01*
X283664641Y-127150892D02*
X283807498Y-127150892D01*
X283807498Y-127150892D02*
X283997974Y-127103273D01*
X283997974Y-127103273D02*
X284093212Y-127055654D01*
X284093212Y-127055654D02*
X284188451Y-126960416D01*
X284188451Y-126960416D02*
X284236070Y-126817559D01*
X284236070Y-126817559D02*
X284236070Y-126579464D01*
X283331308Y-127531845D02*
X283283689Y-127579464D01*
X283283689Y-127579464D02*
X283236070Y-127674702D01*
X283236070Y-127674702D02*
X283236070Y-127912797D01*
X283236070Y-127912797D02*
X283283689Y-128008035D01*
X283283689Y-128008035D02*
X283331308Y-128055654D01*
X283331308Y-128055654D02*
X283426546Y-128103273D01*
X283426546Y-128103273D02*
X283521784Y-128103273D01*
X283521784Y-128103273D02*
X283664641Y-128055654D01*
X283664641Y-128055654D02*
X284236070Y-127484226D01*
X284236070Y-127484226D02*
X284236070Y-128103273D01*
X283236070Y-128436607D02*
X283236070Y-129103273D01*
X283236070Y-129103273D02*
X284236070Y-128674702D01*
X150886070Y-126835714D02*
X149886070Y-126835714D01*
X149886070Y-126835714D02*
X149886070Y-127073809D01*
X149886070Y-127073809D02*
X149933689Y-127216666D01*
X149933689Y-127216666D02*
X150028927Y-127311904D01*
X150028927Y-127311904D02*
X150124165Y-127359523D01*
X150124165Y-127359523D02*
X150314641Y-127407142D01*
X150314641Y-127407142D02*
X150457498Y-127407142D01*
X150457498Y-127407142D02*
X150647974Y-127359523D01*
X150647974Y-127359523D02*
X150743212Y-127311904D01*
X150743212Y-127311904D02*
X150838451Y-127216666D01*
X150838451Y-127216666D02*
X150886070Y-127073809D01*
X150886070Y-127073809D02*
X150886070Y-126835714D01*
X149981308Y-127788095D02*
X149933689Y-127835714D01*
X149933689Y-127835714D02*
X149886070Y-127930952D01*
X149886070Y-127930952D02*
X149886070Y-128169047D01*
X149886070Y-128169047D02*
X149933689Y-128264285D01*
X149933689Y-128264285D02*
X149981308Y-128311904D01*
X149981308Y-128311904D02*
X150076546Y-128359523D01*
X150076546Y-128359523D02*
X150171784Y-128359523D01*
X150171784Y-128359523D02*
X150314641Y-128311904D01*
X150314641Y-128311904D02*
X150886070Y-127740476D01*
X150886070Y-127740476D02*
X150886070Y-128359523D01*
X149886070Y-128978571D02*
X149886070Y-129073809D01*
X149886070Y-129073809D02*
X149933689Y-129169047D01*
X149933689Y-129169047D02*
X149981308Y-129216666D01*
X149981308Y-129216666D02*
X150076546Y-129264285D01*
X150076546Y-129264285D02*
X150267022Y-129311904D01*
X150267022Y-129311904D02*
X150505117Y-129311904D01*
X150505117Y-129311904D02*
X150695593Y-129264285D01*
X150695593Y-129264285D02*
X150790831Y-129216666D01*
X150790831Y-129216666D02*
X150838451Y-129169047D01*
X150838451Y-129169047D02*
X150886070Y-129073809D01*
X150886070Y-129073809D02*
X150886070Y-128978571D01*
X150886070Y-128978571D02*
X150838451Y-128883333D01*
X150838451Y-128883333D02*
X150790831Y-128835714D01*
X150790831Y-128835714D02*
X150695593Y-128788095D01*
X150695593Y-128788095D02*
X150505117Y-128740476D01*
X150505117Y-128740476D02*
X150267022Y-128740476D01*
X150267022Y-128740476D02*
X150076546Y-128788095D01*
X150076546Y-128788095D02*
X149981308Y-128835714D01*
X149981308Y-128835714D02*
X149933689Y-128883333D01*
X149933689Y-128883333D02*
X149886070Y-128978571D01*
X131836070Y-126985714D02*
X130836070Y-126985714D01*
X130836070Y-126985714D02*
X130836070Y-127223809D01*
X130836070Y-127223809D02*
X130883689Y-127366666D01*
X130883689Y-127366666D02*
X130978927Y-127461904D01*
X130978927Y-127461904D02*
X131074165Y-127509523D01*
X131074165Y-127509523D02*
X131264641Y-127557142D01*
X131264641Y-127557142D02*
X131407498Y-127557142D01*
X131407498Y-127557142D02*
X131597974Y-127509523D01*
X131597974Y-127509523D02*
X131693212Y-127461904D01*
X131693212Y-127461904D02*
X131788451Y-127366666D01*
X131788451Y-127366666D02*
X131836070Y-127223809D01*
X131836070Y-127223809D02*
X131836070Y-126985714D01*
X131836070Y-128509523D02*
X131836070Y-127938095D01*
X131836070Y-128223809D02*
X130836070Y-128223809D01*
X130836070Y-128223809D02*
X130978927Y-128128571D01*
X130978927Y-128128571D02*
X131074165Y-128033333D01*
X131074165Y-128033333D02*
X131121784Y-127938095D01*
X131836070Y-128985714D02*
X131836070Y-129176190D01*
X131836070Y-129176190D02*
X131788451Y-129271428D01*
X131788451Y-129271428D02*
X131740831Y-129319047D01*
X131740831Y-129319047D02*
X131597974Y-129414285D01*
X131597974Y-129414285D02*
X131407498Y-129461904D01*
X131407498Y-129461904D02*
X131026546Y-129461904D01*
X131026546Y-129461904D02*
X130931308Y-129414285D01*
X130931308Y-129414285D02*
X130883689Y-129366666D01*
X130883689Y-129366666D02*
X130836070Y-129271428D01*
X130836070Y-129271428D02*
X130836070Y-129080952D01*
X130836070Y-129080952D02*
X130883689Y-128985714D01*
X130883689Y-128985714D02*
X130931308Y-128938095D01*
X130931308Y-128938095D02*
X131026546Y-128890476D01*
X131026546Y-128890476D02*
X131264641Y-128890476D01*
X131264641Y-128890476D02*
X131359879Y-128938095D01*
X131359879Y-128938095D02*
X131407498Y-128985714D01*
X131407498Y-128985714D02*
X131455117Y-129080952D01*
X131455117Y-129080952D02*
X131455117Y-129271428D01*
X131455117Y-129271428D02*
X131407498Y-129366666D01*
X131407498Y-129366666D02*
X131359879Y-129414285D01*
X131359879Y-129414285D02*
X131264641Y-129461904D01*
X182754818Y-172535714D02*
X181754818Y-172535714D01*
X181754818Y-172535714D02*
X181754818Y-172773809D01*
X181754818Y-172773809D02*
X181802437Y-172916666D01*
X181802437Y-172916666D02*
X181897675Y-173011904D01*
X181897675Y-173011904D02*
X181992913Y-173059523D01*
X181992913Y-173059523D02*
X182183389Y-173107142D01*
X182183389Y-173107142D02*
X182326246Y-173107142D01*
X182326246Y-173107142D02*
X182516722Y-173059523D01*
X182516722Y-173059523D02*
X182611960Y-173011904D01*
X182611960Y-173011904D02*
X182707199Y-172916666D01*
X182707199Y-172916666D02*
X182754818Y-172773809D01*
X182754818Y-172773809D02*
X182754818Y-172535714D01*
X181754818Y-173964285D02*
X181754818Y-173773809D01*
X181754818Y-173773809D02*
X181802437Y-173678571D01*
X181802437Y-173678571D02*
X181850056Y-173630952D01*
X181850056Y-173630952D02*
X181992913Y-173535714D01*
X181992913Y-173535714D02*
X182183389Y-173488095D01*
X182183389Y-173488095D02*
X182564341Y-173488095D01*
X182564341Y-173488095D02*
X182659579Y-173535714D01*
X182659579Y-173535714D02*
X182707199Y-173583333D01*
X182707199Y-173583333D02*
X182754818Y-173678571D01*
X182754818Y-173678571D02*
X182754818Y-173869047D01*
X182754818Y-173869047D02*
X182707199Y-173964285D01*
X182707199Y-173964285D02*
X182659579Y-174011904D01*
X182659579Y-174011904D02*
X182564341Y-174059523D01*
X182564341Y-174059523D02*
X182326246Y-174059523D01*
X182326246Y-174059523D02*
X182231008Y-174011904D01*
X182231008Y-174011904D02*
X182183389Y-173964285D01*
X182183389Y-173964285D02*
X182135770Y-173869047D01*
X182135770Y-173869047D02*
X182135770Y-173678571D01*
X182135770Y-173678571D02*
X182183389Y-173583333D01*
X182183389Y-173583333D02*
X182231008Y-173535714D01*
X182231008Y-173535714D02*
X182326246Y-173488095D01*
X181754818Y-174678571D02*
X181754818Y-174773809D01*
X181754818Y-174773809D02*
X181802437Y-174869047D01*
X181802437Y-174869047D02*
X181850056Y-174916666D01*
X181850056Y-174916666D02*
X181945294Y-174964285D01*
X181945294Y-174964285D02*
X182135770Y-175011904D01*
X182135770Y-175011904D02*
X182373865Y-175011904D01*
X182373865Y-175011904D02*
X182564341Y-174964285D01*
X182564341Y-174964285D02*
X182659579Y-174916666D01*
X182659579Y-174916666D02*
X182707199Y-174869047D01*
X182707199Y-174869047D02*
X182754818Y-174773809D01*
X182754818Y-174773809D02*
X182754818Y-174678571D01*
X182754818Y-174678571D02*
X182707199Y-174583333D01*
X182707199Y-174583333D02*
X182659579Y-174535714D01*
X182659579Y-174535714D02*
X182564341Y-174488095D01*
X182564341Y-174488095D02*
X182373865Y-174440476D01*
X182373865Y-174440476D02*
X182135770Y-174440476D01*
X182135770Y-174440476D02*
X181945294Y-174488095D01*
X181945294Y-174488095D02*
X181850056Y-174535714D01*
X181850056Y-174535714D02*
X181802437Y-174583333D01*
X181802437Y-174583333D02*
X181754818Y-174678571D01*
X360066666Y-139959580D02*
X360114285Y-140007200D01*
X360114285Y-140007200D02*
X360257142Y-140054819D01*
X360257142Y-140054819D02*
X360352380Y-140054819D01*
X360352380Y-140054819D02*
X360495237Y-140007200D01*
X360495237Y-140007200D02*
X360590475Y-139911961D01*
X360590475Y-139911961D02*
X360638094Y-139816723D01*
X360638094Y-139816723D02*
X360685713Y-139626247D01*
X360685713Y-139626247D02*
X360685713Y-139483390D01*
X360685713Y-139483390D02*
X360638094Y-139292914D01*
X360638094Y-139292914D02*
X360590475Y-139197676D01*
X360590475Y-139197676D02*
X360495237Y-139102438D01*
X360495237Y-139102438D02*
X360352380Y-139054819D01*
X360352380Y-139054819D02*
X360257142Y-139054819D01*
X360257142Y-139054819D02*
X360114285Y-139102438D01*
X360114285Y-139102438D02*
X360066666Y-139150057D01*
X359209523Y-139054819D02*
X359399999Y-139054819D01*
X359399999Y-139054819D02*
X359495237Y-139102438D01*
X359495237Y-139102438D02*
X359542856Y-139150057D01*
X359542856Y-139150057D02*
X359638094Y-139292914D01*
X359638094Y-139292914D02*
X359685713Y-139483390D01*
X359685713Y-139483390D02*
X359685713Y-139864342D01*
X359685713Y-139864342D02*
X359638094Y-139959580D01*
X359638094Y-139959580D02*
X359590475Y-140007200D01*
X359590475Y-140007200D02*
X359495237Y-140054819D01*
X359495237Y-140054819D02*
X359304761Y-140054819D01*
X359304761Y-140054819D02*
X359209523Y-140007200D01*
X359209523Y-140007200D02*
X359161904Y-139959580D01*
X359161904Y-139959580D02*
X359114285Y-139864342D01*
X359114285Y-139864342D02*
X359114285Y-139626247D01*
X359114285Y-139626247D02*
X359161904Y-139531009D01*
X359161904Y-139531009D02*
X359209523Y-139483390D01*
X359209523Y-139483390D02*
X359304761Y-139435771D01*
X359304761Y-139435771D02*
X359495237Y-139435771D01*
X359495237Y-139435771D02*
X359590475Y-139483390D01*
X359590475Y-139483390D02*
X359638094Y-139531009D01*
X359638094Y-139531009D02*
X359685713Y-139626247D01*
X327154820Y-126785714D02*
X326154820Y-126785714D01*
X326154820Y-126785714D02*
X326154820Y-127023809D01*
X326154820Y-127023809D02*
X326202439Y-127166666D01*
X326202439Y-127166666D02*
X326297677Y-127261904D01*
X326297677Y-127261904D02*
X326392915Y-127309523D01*
X326392915Y-127309523D02*
X326583391Y-127357142D01*
X326583391Y-127357142D02*
X326726248Y-127357142D01*
X326726248Y-127357142D02*
X326916724Y-127309523D01*
X326916724Y-127309523D02*
X327011962Y-127261904D01*
X327011962Y-127261904D02*
X327107201Y-127166666D01*
X327107201Y-127166666D02*
X327154820Y-127023809D01*
X327154820Y-127023809D02*
X327154820Y-126785714D01*
X326250058Y-127738095D02*
X326202439Y-127785714D01*
X326202439Y-127785714D02*
X326154820Y-127880952D01*
X326154820Y-127880952D02*
X326154820Y-128119047D01*
X326154820Y-128119047D02*
X326202439Y-128214285D01*
X326202439Y-128214285D02*
X326250058Y-128261904D01*
X326250058Y-128261904D02*
X326345296Y-128309523D01*
X326345296Y-128309523D02*
X326440534Y-128309523D01*
X326440534Y-128309523D02*
X326583391Y-128261904D01*
X326583391Y-128261904D02*
X327154820Y-127690476D01*
X327154820Y-127690476D02*
X327154820Y-128309523D01*
X327154820Y-128785714D02*
X327154820Y-128976190D01*
X327154820Y-128976190D02*
X327107201Y-129071428D01*
X327107201Y-129071428D02*
X327059581Y-129119047D01*
X327059581Y-129119047D02*
X326916724Y-129214285D01*
X326916724Y-129214285D02*
X326726248Y-129261904D01*
X326726248Y-129261904D02*
X326345296Y-129261904D01*
X326345296Y-129261904D02*
X326250058Y-129214285D01*
X326250058Y-129214285D02*
X326202439Y-129166666D01*
X326202439Y-129166666D02*
X326154820Y-129071428D01*
X326154820Y-129071428D02*
X326154820Y-128880952D01*
X326154820Y-128880952D02*
X326202439Y-128785714D01*
X326202439Y-128785714D02*
X326250058Y-128738095D01*
X326250058Y-128738095D02*
X326345296Y-128690476D01*
X326345296Y-128690476D02*
X326583391Y-128690476D01*
X326583391Y-128690476D02*
X326678629Y-128738095D01*
X326678629Y-128738095D02*
X326726248Y-128785714D01*
X326726248Y-128785714D02*
X326773867Y-128880952D01*
X326773867Y-128880952D02*
X326773867Y-129071428D01*
X326773867Y-129071428D02*
X326726248Y-129166666D01*
X326726248Y-129166666D02*
X326678629Y-129214285D01*
X326678629Y-129214285D02*
X326583391Y-129261904D01*
X72304820Y-145885714D02*
X71304820Y-145885714D01*
X71304820Y-145885714D02*
X71304820Y-146123809D01*
X71304820Y-146123809D02*
X71352439Y-146266666D01*
X71352439Y-146266666D02*
X71447677Y-146361904D01*
X71447677Y-146361904D02*
X71542915Y-146409523D01*
X71542915Y-146409523D02*
X71733391Y-146457142D01*
X71733391Y-146457142D02*
X71876248Y-146457142D01*
X71876248Y-146457142D02*
X72066724Y-146409523D01*
X72066724Y-146409523D02*
X72161962Y-146361904D01*
X72161962Y-146361904D02*
X72257201Y-146266666D01*
X72257201Y-146266666D02*
X72304820Y-146123809D01*
X72304820Y-146123809D02*
X72304820Y-145885714D01*
X71304820Y-146790476D02*
X71304820Y-147409523D01*
X71304820Y-147409523D02*
X71685772Y-147076190D01*
X71685772Y-147076190D02*
X71685772Y-147219047D01*
X71685772Y-147219047D02*
X71733391Y-147314285D01*
X71733391Y-147314285D02*
X71781010Y-147361904D01*
X71781010Y-147361904D02*
X71876248Y-147409523D01*
X71876248Y-147409523D02*
X72114343Y-147409523D01*
X72114343Y-147409523D02*
X72209581Y-147361904D01*
X72209581Y-147361904D02*
X72257201Y-147314285D01*
X72257201Y-147314285D02*
X72304820Y-147219047D01*
X72304820Y-147219047D02*
X72304820Y-146933333D01*
X72304820Y-146933333D02*
X72257201Y-146838095D01*
X72257201Y-146838095D02*
X72209581Y-146790476D01*
X72304820Y-148361904D02*
X72304820Y-147790476D01*
X72304820Y-148076190D02*
X71304820Y-148076190D01*
X71304820Y-148076190D02*
X71447677Y-147980952D01*
X71447677Y-147980952D02*
X71542915Y-147885714D01*
X71542915Y-147885714D02*
X71590534Y-147790476D01*
X127073570Y-164905714D02*
X126073570Y-164905714D01*
X126073570Y-164905714D02*
X126073570Y-165143809D01*
X126073570Y-165143809D02*
X126121189Y-165286666D01*
X126121189Y-165286666D02*
X126216427Y-165381904D01*
X126216427Y-165381904D02*
X126311665Y-165429523D01*
X126311665Y-165429523D02*
X126502141Y-165477142D01*
X126502141Y-165477142D02*
X126644998Y-165477142D01*
X126644998Y-165477142D02*
X126835474Y-165429523D01*
X126835474Y-165429523D02*
X126930712Y-165381904D01*
X126930712Y-165381904D02*
X127025951Y-165286666D01*
X127025951Y-165286666D02*
X127073570Y-165143809D01*
X127073570Y-165143809D02*
X127073570Y-164905714D01*
X126406903Y-166334285D02*
X127073570Y-166334285D01*
X126025951Y-166096190D02*
X126740236Y-165858095D01*
X126740236Y-165858095D02*
X126740236Y-166477142D01*
X126073570Y-167286666D02*
X126073570Y-167096190D01*
X126073570Y-167096190D02*
X126121189Y-167000952D01*
X126121189Y-167000952D02*
X126168808Y-166953333D01*
X126168808Y-166953333D02*
X126311665Y-166858095D01*
X126311665Y-166858095D02*
X126502141Y-166810476D01*
X126502141Y-166810476D02*
X126883093Y-166810476D01*
X126883093Y-166810476D02*
X126978331Y-166858095D01*
X126978331Y-166858095D02*
X127025951Y-166905714D01*
X127025951Y-166905714D02*
X127073570Y-167000952D01*
X127073570Y-167000952D02*
X127073570Y-167191428D01*
X127073570Y-167191428D02*
X127025951Y-167286666D01*
X127025951Y-167286666D02*
X126978331Y-167334285D01*
X126978331Y-167334285D02*
X126883093Y-167381904D01*
X126883093Y-167381904D02*
X126644998Y-167381904D01*
X126644998Y-167381904D02*
X126549760Y-167334285D01*
X126549760Y-167334285D02*
X126502141Y-167286666D01*
X126502141Y-167286666D02*
X126454522Y-167191428D01*
X126454522Y-167191428D02*
X126454522Y-167000952D01*
X126454522Y-167000952D02*
X126502141Y-166905714D01*
X126502141Y-166905714D02*
X126549760Y-166858095D01*
X126549760Y-166858095D02*
X126644998Y-166810476D01*
X323554818Y-172535714D02*
X322554818Y-172535714D01*
X322554818Y-172535714D02*
X322554818Y-172773809D01*
X322554818Y-172773809D02*
X322602437Y-172916666D01*
X322602437Y-172916666D02*
X322697675Y-173011904D01*
X322697675Y-173011904D02*
X322792913Y-173059523D01*
X322792913Y-173059523D02*
X322983389Y-173107142D01*
X322983389Y-173107142D02*
X323126246Y-173107142D01*
X323126246Y-173107142D02*
X323316722Y-173059523D01*
X323316722Y-173059523D02*
X323411960Y-173011904D01*
X323411960Y-173011904D02*
X323507199Y-172916666D01*
X323507199Y-172916666D02*
X323554818Y-172773809D01*
X323554818Y-172773809D02*
X323554818Y-172535714D01*
X322554818Y-173964285D02*
X322554818Y-173773809D01*
X322554818Y-173773809D02*
X322602437Y-173678571D01*
X322602437Y-173678571D02*
X322650056Y-173630952D01*
X322650056Y-173630952D02*
X322792913Y-173535714D01*
X322792913Y-173535714D02*
X322983389Y-173488095D01*
X322983389Y-173488095D02*
X323364341Y-173488095D01*
X323364341Y-173488095D02*
X323459579Y-173535714D01*
X323459579Y-173535714D02*
X323507199Y-173583333D01*
X323507199Y-173583333D02*
X323554818Y-173678571D01*
X323554818Y-173678571D02*
X323554818Y-173869047D01*
X323554818Y-173869047D02*
X323507199Y-173964285D01*
X323507199Y-173964285D02*
X323459579Y-174011904D01*
X323459579Y-174011904D02*
X323364341Y-174059523D01*
X323364341Y-174059523D02*
X323126246Y-174059523D01*
X323126246Y-174059523D02*
X323031008Y-174011904D01*
X323031008Y-174011904D02*
X322983389Y-173964285D01*
X322983389Y-173964285D02*
X322935770Y-173869047D01*
X322935770Y-173869047D02*
X322935770Y-173678571D01*
X322935770Y-173678571D02*
X322983389Y-173583333D01*
X322983389Y-173583333D02*
X323031008Y-173535714D01*
X323031008Y-173535714D02*
X323126246Y-173488095D01*
X322888151Y-174916666D02*
X323554818Y-174916666D01*
X322507199Y-174678571D02*
X323221484Y-174440476D01*
X323221484Y-174440476D02*
X323221484Y-175059523D01*
X205661904Y-106054819D02*
X205661904Y-106864342D01*
X205661904Y-106864342D02*
X205614285Y-106959580D01*
X205614285Y-106959580D02*
X205566666Y-107007200D01*
X205566666Y-107007200D02*
X205471428Y-107054819D01*
X205471428Y-107054819D02*
X205280952Y-107054819D01*
X205280952Y-107054819D02*
X205185714Y-107007200D01*
X205185714Y-107007200D02*
X205138095Y-106959580D01*
X205138095Y-106959580D02*
X205090476Y-106864342D01*
X205090476Y-106864342D02*
X205090476Y-106054819D01*
X204090476Y-107054819D02*
X204661904Y-107054819D01*
X204376190Y-107054819D02*
X204376190Y-106054819D01*
X204376190Y-106054819D02*
X204471428Y-106197676D01*
X204471428Y-106197676D02*
X204566666Y-106292914D01*
X204566666Y-106292914D02*
X204661904Y-106340533D01*
X90054818Y-172535714D02*
X89054818Y-172535714D01*
X89054818Y-172535714D02*
X89054818Y-172773809D01*
X89054818Y-172773809D02*
X89102437Y-172916666D01*
X89102437Y-172916666D02*
X89197675Y-173011904D01*
X89197675Y-173011904D02*
X89292913Y-173059523D01*
X89292913Y-173059523D02*
X89483389Y-173107142D01*
X89483389Y-173107142D02*
X89626246Y-173107142D01*
X89626246Y-173107142D02*
X89816722Y-173059523D01*
X89816722Y-173059523D02*
X89911960Y-173011904D01*
X89911960Y-173011904D02*
X90007199Y-172916666D01*
X90007199Y-172916666D02*
X90054818Y-172773809D01*
X90054818Y-172773809D02*
X90054818Y-172535714D01*
X89054818Y-174011904D02*
X89054818Y-173535714D01*
X89054818Y-173535714D02*
X89531008Y-173488095D01*
X89531008Y-173488095D02*
X89483389Y-173535714D01*
X89483389Y-173535714D02*
X89435770Y-173630952D01*
X89435770Y-173630952D02*
X89435770Y-173869047D01*
X89435770Y-173869047D02*
X89483389Y-173964285D01*
X89483389Y-173964285D02*
X89531008Y-174011904D01*
X89531008Y-174011904D02*
X89626246Y-174059523D01*
X89626246Y-174059523D02*
X89864341Y-174059523D01*
X89864341Y-174059523D02*
X89959579Y-174011904D01*
X89959579Y-174011904D02*
X90007199Y-173964285D01*
X90007199Y-173964285D02*
X90054818Y-173869047D01*
X90054818Y-173869047D02*
X90054818Y-173630952D01*
X90054818Y-173630952D02*
X90007199Y-173535714D01*
X90007199Y-173535714D02*
X89959579Y-173488095D01*
X89483389Y-174630952D02*
X89435770Y-174535714D01*
X89435770Y-174535714D02*
X89388151Y-174488095D01*
X89388151Y-174488095D02*
X89292913Y-174440476D01*
X89292913Y-174440476D02*
X89245294Y-174440476D01*
X89245294Y-174440476D02*
X89150056Y-174488095D01*
X89150056Y-174488095D02*
X89102437Y-174535714D01*
X89102437Y-174535714D02*
X89054818Y-174630952D01*
X89054818Y-174630952D02*
X89054818Y-174821428D01*
X89054818Y-174821428D02*
X89102437Y-174916666D01*
X89102437Y-174916666D02*
X89150056Y-174964285D01*
X89150056Y-174964285D02*
X89245294Y-175011904D01*
X89245294Y-175011904D02*
X89292913Y-175011904D01*
X89292913Y-175011904D02*
X89388151Y-174964285D01*
X89388151Y-174964285D02*
X89435770Y-174916666D01*
X89435770Y-174916666D02*
X89483389Y-174821428D01*
X89483389Y-174821428D02*
X89483389Y-174630952D01*
X89483389Y-174630952D02*
X89531008Y-174535714D01*
X89531008Y-174535714D02*
X89578627Y-174488095D01*
X89578627Y-174488095D02*
X89673865Y-174440476D01*
X89673865Y-174440476D02*
X89864341Y-174440476D01*
X89864341Y-174440476D02*
X89959579Y-174488095D01*
X89959579Y-174488095D02*
X90007199Y-174535714D01*
X90007199Y-174535714D02*
X90054818Y-174630952D01*
X90054818Y-174630952D02*
X90054818Y-174821428D01*
X90054818Y-174821428D02*
X90007199Y-174916666D01*
X90007199Y-174916666D02*
X89959579Y-174964285D01*
X89959579Y-174964285D02*
X89864341Y-175011904D01*
X89864341Y-175011904D02*
X89673865Y-175011904D01*
X89673865Y-175011904D02*
X89578627Y-174964285D01*
X89578627Y-174964285D02*
X89531008Y-174916666D01*
X89531008Y-174916666D02*
X89483389Y-174821428D01*
X246136070Y-126579464D02*
X245136070Y-126579464D01*
X245136070Y-126579464D02*
X245136070Y-126817559D01*
X245136070Y-126817559D02*
X245183689Y-126960416D01*
X245183689Y-126960416D02*
X245278927Y-127055654D01*
X245278927Y-127055654D02*
X245374165Y-127103273D01*
X245374165Y-127103273D02*
X245564641Y-127150892D01*
X245564641Y-127150892D02*
X245707498Y-127150892D01*
X245707498Y-127150892D02*
X245897974Y-127103273D01*
X245897974Y-127103273D02*
X245993212Y-127055654D01*
X245993212Y-127055654D02*
X246088451Y-126960416D01*
X246088451Y-126960416D02*
X246136070Y-126817559D01*
X246136070Y-126817559D02*
X246136070Y-126579464D01*
X245231308Y-127531845D02*
X245183689Y-127579464D01*
X245183689Y-127579464D02*
X245136070Y-127674702D01*
X245136070Y-127674702D02*
X245136070Y-127912797D01*
X245136070Y-127912797D02*
X245183689Y-128008035D01*
X245183689Y-128008035D02*
X245231308Y-128055654D01*
X245231308Y-128055654D02*
X245326546Y-128103273D01*
X245326546Y-128103273D02*
X245421784Y-128103273D01*
X245421784Y-128103273D02*
X245564641Y-128055654D01*
X245564641Y-128055654D02*
X246136070Y-127484226D01*
X246136070Y-127484226D02*
X246136070Y-128103273D01*
X245136070Y-129008035D02*
X245136070Y-128531845D01*
X245136070Y-128531845D02*
X245612260Y-128484226D01*
X245612260Y-128484226D02*
X245564641Y-128531845D01*
X245564641Y-128531845D02*
X245517022Y-128627083D01*
X245517022Y-128627083D02*
X245517022Y-128865178D01*
X245517022Y-128865178D02*
X245564641Y-128960416D01*
X245564641Y-128960416D02*
X245612260Y-129008035D01*
X245612260Y-129008035D02*
X245707498Y-129055654D01*
X245707498Y-129055654D02*
X245945593Y-129055654D01*
X245945593Y-129055654D02*
X246040831Y-129008035D01*
X246040831Y-129008035D02*
X246088451Y-128960416D01*
X246088451Y-128960416D02*
X246136070Y-128865178D01*
X246136070Y-128865178D02*
X246136070Y-128627083D01*
X246136070Y-128627083D02*
X246088451Y-128531845D01*
X246088451Y-128531845D02*
X246040831Y-128484226D01*
X362276190Y-142078628D02*
X362276190Y-142554819D01*
X362609523Y-141554819D02*
X362276190Y-142078628D01*
X362276190Y-142078628D02*
X361942857Y-141554819D01*
X361657142Y-141650057D02*
X361609523Y-141602438D01*
X361609523Y-141602438D02*
X361514285Y-141554819D01*
X361514285Y-141554819D02*
X361276190Y-141554819D01*
X361276190Y-141554819D02*
X361180952Y-141602438D01*
X361180952Y-141602438D02*
X361133333Y-141650057D01*
X361133333Y-141650057D02*
X361085714Y-141745295D01*
X361085714Y-141745295D02*
X361085714Y-141840533D01*
X361085714Y-141840533D02*
X361133333Y-141983390D01*
X361133333Y-141983390D02*
X361704761Y-142554819D01*
X361704761Y-142554819D02*
X361085714Y-142554819D01*
X174698570Y-145885714D02*
X173698570Y-145885714D01*
X173698570Y-145885714D02*
X173698570Y-146123809D01*
X173698570Y-146123809D02*
X173746189Y-146266666D01*
X173746189Y-146266666D02*
X173841427Y-146361904D01*
X173841427Y-146361904D02*
X173936665Y-146409523D01*
X173936665Y-146409523D02*
X174127141Y-146457142D01*
X174127141Y-146457142D02*
X174269998Y-146457142D01*
X174269998Y-146457142D02*
X174460474Y-146409523D01*
X174460474Y-146409523D02*
X174555712Y-146361904D01*
X174555712Y-146361904D02*
X174650951Y-146266666D01*
X174650951Y-146266666D02*
X174698570Y-146123809D01*
X174698570Y-146123809D02*
X174698570Y-145885714D01*
X173698570Y-146790476D02*
X173698570Y-147409523D01*
X173698570Y-147409523D02*
X174079522Y-147076190D01*
X174079522Y-147076190D02*
X174079522Y-147219047D01*
X174079522Y-147219047D02*
X174127141Y-147314285D01*
X174127141Y-147314285D02*
X174174760Y-147361904D01*
X174174760Y-147361904D02*
X174269998Y-147409523D01*
X174269998Y-147409523D02*
X174508093Y-147409523D01*
X174508093Y-147409523D02*
X174603331Y-147361904D01*
X174603331Y-147361904D02*
X174650951Y-147314285D01*
X174650951Y-147314285D02*
X174698570Y-147219047D01*
X174698570Y-147219047D02*
X174698570Y-146933333D01*
X174698570Y-146933333D02*
X174650951Y-146838095D01*
X174650951Y-146838095D02*
X174603331Y-146790476D01*
X173698570Y-148266666D02*
X173698570Y-148076190D01*
X173698570Y-148076190D02*
X173746189Y-147980952D01*
X173746189Y-147980952D02*
X173793808Y-147933333D01*
X173793808Y-147933333D02*
X173936665Y-147838095D01*
X173936665Y-147838095D02*
X174127141Y-147790476D01*
X174127141Y-147790476D02*
X174508093Y-147790476D01*
X174508093Y-147790476D02*
X174603331Y-147838095D01*
X174603331Y-147838095D02*
X174650951Y-147885714D01*
X174650951Y-147885714D02*
X174698570Y-147980952D01*
X174698570Y-147980952D02*
X174698570Y-148171428D01*
X174698570Y-148171428D02*
X174650951Y-148266666D01*
X174650951Y-148266666D02*
X174603331Y-148314285D01*
X174603331Y-148314285D02*
X174508093Y-148361904D01*
X174508093Y-148361904D02*
X174269998Y-148361904D01*
X174269998Y-148361904D02*
X174174760Y-148314285D01*
X174174760Y-148314285D02*
X174127141Y-148266666D01*
X174127141Y-148266666D02*
X174079522Y-148171428D01*
X174079522Y-148171428D02*
X174079522Y-147980952D01*
X174079522Y-147980952D02*
X174127141Y-147885714D01*
X174127141Y-147885714D02*
X174174760Y-147838095D01*
X174174760Y-147838095D02*
X174269998Y-147790476D01*
X353633332Y-168407200D02*
X353490475Y-168454819D01*
X353490475Y-168454819D02*
X353252380Y-168454819D01*
X353252380Y-168454819D02*
X353157142Y-168407200D01*
X353157142Y-168407200D02*
X353109523Y-168359580D01*
X353109523Y-168359580D02*
X353061904Y-168264342D01*
X353061904Y-168264342D02*
X353061904Y-168169104D01*
X353061904Y-168169104D02*
X353109523Y-168073866D01*
X353109523Y-168073866D02*
X353157142Y-168026247D01*
X353157142Y-168026247D02*
X353252380Y-167978628D01*
X353252380Y-167978628D02*
X353442856Y-167931009D01*
X353442856Y-167931009D02*
X353538094Y-167883390D01*
X353538094Y-167883390D02*
X353585713Y-167835771D01*
X353585713Y-167835771D02*
X353633332Y-167740533D01*
X353633332Y-167740533D02*
X353633332Y-167645295D01*
X353633332Y-167645295D02*
X353585713Y-167550057D01*
X353585713Y-167550057D02*
X353538094Y-167502438D01*
X353538094Y-167502438D02*
X353442856Y-167454819D01*
X353442856Y-167454819D02*
X353204761Y-167454819D01*
X353204761Y-167454819D02*
X353061904Y-167502438D01*
X352728570Y-167454819D02*
X352490475Y-168454819D01*
X352490475Y-168454819D02*
X352299999Y-167740533D01*
X352299999Y-167740533D02*
X352109523Y-168454819D01*
X352109523Y-168454819D02*
X351871428Y-167454819D01*
X350966666Y-168454819D02*
X351538094Y-168454819D01*
X351252380Y-168454819D02*
X351252380Y-167454819D01*
X351252380Y-167454819D02*
X351347618Y-167597676D01*
X351347618Y-167597676D02*
X351442856Y-167692914D01*
X351442856Y-167692914D02*
X351538094Y-167740533D01*
X179461070Y-108261905D02*
X178461070Y-108261905D01*
X178461070Y-108261905D02*
X178461070Y-108500000D01*
X178461070Y-108500000D02*
X178508689Y-108642857D01*
X178508689Y-108642857D02*
X178603927Y-108738095D01*
X178603927Y-108738095D02*
X178699165Y-108785714D01*
X178699165Y-108785714D02*
X178889641Y-108833333D01*
X178889641Y-108833333D02*
X179032498Y-108833333D01*
X179032498Y-108833333D02*
X179222974Y-108785714D01*
X179222974Y-108785714D02*
X179318212Y-108738095D01*
X179318212Y-108738095D02*
X179413451Y-108642857D01*
X179413451Y-108642857D02*
X179461070Y-108500000D01*
X179461070Y-108500000D02*
X179461070Y-108261905D01*
X178461070Y-109166667D02*
X178461070Y-109833333D01*
X178461070Y-109833333D02*
X179461070Y-109404762D01*
X222023568Y-164655714D02*
X221023568Y-164655714D01*
X221023568Y-164655714D02*
X221023568Y-164893809D01*
X221023568Y-164893809D02*
X221071187Y-165036666D01*
X221071187Y-165036666D02*
X221166425Y-165131904D01*
X221166425Y-165131904D02*
X221261663Y-165179523D01*
X221261663Y-165179523D02*
X221452139Y-165227142D01*
X221452139Y-165227142D02*
X221594996Y-165227142D01*
X221594996Y-165227142D02*
X221785472Y-165179523D01*
X221785472Y-165179523D02*
X221880710Y-165131904D01*
X221880710Y-165131904D02*
X221975949Y-165036666D01*
X221975949Y-165036666D02*
X222023568Y-164893809D01*
X222023568Y-164893809D02*
X222023568Y-164655714D01*
X221023568Y-166131904D02*
X221023568Y-165655714D01*
X221023568Y-165655714D02*
X221499758Y-165608095D01*
X221499758Y-165608095D02*
X221452139Y-165655714D01*
X221452139Y-165655714D02*
X221404520Y-165750952D01*
X221404520Y-165750952D02*
X221404520Y-165989047D01*
X221404520Y-165989047D02*
X221452139Y-166084285D01*
X221452139Y-166084285D02*
X221499758Y-166131904D01*
X221499758Y-166131904D02*
X221594996Y-166179523D01*
X221594996Y-166179523D02*
X221833091Y-166179523D01*
X221833091Y-166179523D02*
X221928329Y-166131904D01*
X221928329Y-166131904D02*
X221975949Y-166084285D01*
X221975949Y-166084285D02*
X222023568Y-165989047D01*
X222023568Y-165989047D02*
X222023568Y-165750952D01*
X222023568Y-165750952D02*
X221975949Y-165655714D01*
X221975949Y-165655714D02*
X221928329Y-165608095D01*
X222023568Y-167131904D02*
X222023568Y-166560476D01*
X222023568Y-166846190D02*
X221023568Y-166846190D01*
X221023568Y-166846190D02*
X221166425Y-166750952D01*
X221166425Y-166750952D02*
X221261663Y-166655714D01*
X221261663Y-166655714D02*
X221309282Y-166560476D01*
X198511070Y-108261905D02*
X197511070Y-108261905D01*
X197511070Y-108261905D02*
X197511070Y-108500000D01*
X197511070Y-108500000D02*
X197558689Y-108642857D01*
X197558689Y-108642857D02*
X197653927Y-108738095D01*
X197653927Y-108738095D02*
X197749165Y-108785714D01*
X197749165Y-108785714D02*
X197939641Y-108833333D01*
X197939641Y-108833333D02*
X198082498Y-108833333D01*
X198082498Y-108833333D02*
X198272974Y-108785714D01*
X198272974Y-108785714D02*
X198368212Y-108738095D01*
X198368212Y-108738095D02*
X198463451Y-108642857D01*
X198463451Y-108642857D02*
X198511070Y-108500000D01*
X198511070Y-108500000D02*
X198511070Y-108261905D01*
X197939641Y-109404762D02*
X197892022Y-109309524D01*
X197892022Y-109309524D02*
X197844403Y-109261905D01*
X197844403Y-109261905D02*
X197749165Y-109214286D01*
X197749165Y-109214286D02*
X197701546Y-109214286D01*
X197701546Y-109214286D02*
X197606308Y-109261905D01*
X197606308Y-109261905D02*
X197558689Y-109309524D01*
X197558689Y-109309524D02*
X197511070Y-109404762D01*
X197511070Y-109404762D02*
X197511070Y-109595238D01*
X197511070Y-109595238D02*
X197558689Y-109690476D01*
X197558689Y-109690476D02*
X197606308Y-109738095D01*
X197606308Y-109738095D02*
X197701546Y-109785714D01*
X197701546Y-109785714D02*
X197749165Y-109785714D01*
X197749165Y-109785714D02*
X197844403Y-109738095D01*
X197844403Y-109738095D02*
X197892022Y-109690476D01*
X197892022Y-109690476D02*
X197939641Y-109595238D01*
X197939641Y-109595238D02*
X197939641Y-109404762D01*
X197939641Y-109404762D02*
X197987260Y-109309524D01*
X197987260Y-109309524D02*
X198034879Y-109261905D01*
X198034879Y-109261905D02*
X198130117Y-109214286D01*
X198130117Y-109214286D02*
X198320593Y-109214286D01*
X198320593Y-109214286D02*
X198415831Y-109261905D01*
X198415831Y-109261905D02*
X198463451Y-109309524D01*
X198463451Y-109309524D02*
X198511070Y-109404762D01*
X198511070Y-109404762D02*
X198511070Y-109595238D01*
X198511070Y-109595238D02*
X198463451Y-109690476D01*
X198463451Y-109690476D02*
X198415831Y-109738095D01*
X198415831Y-109738095D02*
X198320593Y-109785714D01*
X198320593Y-109785714D02*
X198130117Y-109785714D01*
X198130117Y-109785714D02*
X198034879Y-109738095D01*
X198034879Y-109738095D02*
X197987260Y-109690476D01*
X197987260Y-109690476D02*
X197939641Y-109595238D01*
X103261070Y-108261905D02*
X102261070Y-108261905D01*
X102261070Y-108261905D02*
X102261070Y-108500000D01*
X102261070Y-108500000D02*
X102308689Y-108642857D01*
X102308689Y-108642857D02*
X102403927Y-108738095D01*
X102403927Y-108738095D02*
X102499165Y-108785714D01*
X102499165Y-108785714D02*
X102689641Y-108833333D01*
X102689641Y-108833333D02*
X102832498Y-108833333D01*
X102832498Y-108833333D02*
X103022974Y-108785714D01*
X103022974Y-108785714D02*
X103118212Y-108738095D01*
X103118212Y-108738095D02*
X103213451Y-108642857D01*
X103213451Y-108642857D02*
X103261070Y-108500000D01*
X103261070Y-108500000D02*
X103261070Y-108261905D01*
X102261070Y-109166667D02*
X102261070Y-109785714D01*
X102261070Y-109785714D02*
X102642022Y-109452381D01*
X102642022Y-109452381D02*
X102642022Y-109595238D01*
X102642022Y-109595238D02*
X102689641Y-109690476D01*
X102689641Y-109690476D02*
X102737260Y-109738095D01*
X102737260Y-109738095D02*
X102832498Y-109785714D01*
X102832498Y-109785714D02*
X103070593Y-109785714D01*
X103070593Y-109785714D02*
X103165831Y-109738095D01*
X103165831Y-109738095D02*
X103213451Y-109690476D01*
X103213451Y-109690476D02*
X103261070Y-109595238D01*
X103261070Y-109595238D02*
X103261070Y-109309524D01*
X103261070Y-109309524D02*
X103213451Y-109214286D01*
X103213451Y-109214286D02*
X103165831Y-109166667D01*
X355866666Y-135459580D02*
X355914285Y-135507200D01*
X355914285Y-135507200D02*
X356057142Y-135554819D01*
X356057142Y-135554819D02*
X356152380Y-135554819D01*
X356152380Y-135554819D02*
X356295237Y-135507200D01*
X356295237Y-135507200D02*
X356390475Y-135411961D01*
X356390475Y-135411961D02*
X356438094Y-135316723D01*
X356438094Y-135316723D02*
X356485713Y-135126247D01*
X356485713Y-135126247D02*
X356485713Y-134983390D01*
X356485713Y-134983390D02*
X356438094Y-134792914D01*
X356438094Y-134792914D02*
X356390475Y-134697676D01*
X356390475Y-134697676D02*
X356295237Y-134602438D01*
X356295237Y-134602438D02*
X356152380Y-134554819D01*
X356152380Y-134554819D02*
X356057142Y-134554819D01*
X356057142Y-134554819D02*
X355914285Y-134602438D01*
X355914285Y-134602438D02*
X355866666Y-134650057D01*
X355295237Y-134983390D02*
X355390475Y-134935771D01*
X355390475Y-134935771D02*
X355438094Y-134888152D01*
X355438094Y-134888152D02*
X355485713Y-134792914D01*
X355485713Y-134792914D02*
X355485713Y-134745295D01*
X355485713Y-134745295D02*
X355438094Y-134650057D01*
X355438094Y-134650057D02*
X355390475Y-134602438D01*
X355390475Y-134602438D02*
X355295237Y-134554819D01*
X355295237Y-134554819D02*
X355104761Y-134554819D01*
X355104761Y-134554819D02*
X355009523Y-134602438D01*
X355009523Y-134602438D02*
X354961904Y-134650057D01*
X354961904Y-134650057D02*
X354914285Y-134745295D01*
X354914285Y-134745295D02*
X354914285Y-134792914D01*
X354914285Y-134792914D02*
X354961904Y-134888152D01*
X354961904Y-134888152D02*
X355009523Y-134935771D01*
X355009523Y-134935771D02*
X355104761Y-134983390D01*
X355104761Y-134983390D02*
X355295237Y-134983390D01*
X355295237Y-134983390D02*
X355390475Y-135031009D01*
X355390475Y-135031009D02*
X355438094Y-135078628D01*
X355438094Y-135078628D02*
X355485713Y-135173866D01*
X355485713Y-135173866D02*
X355485713Y-135364342D01*
X355485713Y-135364342D02*
X355438094Y-135459580D01*
X355438094Y-135459580D02*
X355390475Y-135507200D01*
X355390475Y-135507200D02*
X355295237Y-135554819D01*
X355295237Y-135554819D02*
X355104761Y-135554819D01*
X355104761Y-135554819D02*
X355009523Y-135507200D01*
X355009523Y-135507200D02*
X354961904Y-135459580D01*
X354961904Y-135459580D02*
X354914285Y-135364342D01*
X354914285Y-135364342D02*
X354914285Y-135173866D01*
X354914285Y-135173866D02*
X354961904Y-135078628D01*
X354961904Y-135078628D02*
X355009523Y-135031009D01*
X355009523Y-135031009D02*
X355104761Y-134983390D01*
X207166666Y-100354819D02*
X207499999Y-99878628D01*
X207738094Y-100354819D02*
X207738094Y-99354819D01*
X207738094Y-99354819D02*
X207357142Y-99354819D01*
X207357142Y-99354819D02*
X207261904Y-99402438D01*
X207261904Y-99402438D02*
X207214285Y-99450057D01*
X207214285Y-99450057D02*
X207166666Y-99545295D01*
X207166666Y-99545295D02*
X207166666Y-99688152D01*
X207166666Y-99688152D02*
X207214285Y-99783390D01*
X207214285Y-99783390D02*
X207261904Y-99831009D01*
X207261904Y-99831009D02*
X207357142Y-99878628D01*
X207357142Y-99878628D02*
X207738094Y-99878628D01*
X206261904Y-99354819D02*
X206738094Y-99354819D01*
X206738094Y-99354819D02*
X206785713Y-99831009D01*
X206785713Y-99831009D02*
X206738094Y-99783390D01*
X206738094Y-99783390D02*
X206642856Y-99735771D01*
X206642856Y-99735771D02*
X206404761Y-99735771D01*
X206404761Y-99735771D02*
X206309523Y-99783390D01*
X206309523Y-99783390D02*
X206261904Y-99831009D01*
X206261904Y-99831009D02*
X206214285Y-99926247D01*
X206214285Y-99926247D02*
X206214285Y-100164342D01*
X206214285Y-100164342D02*
X206261904Y-100259580D01*
X206261904Y-100259580D02*
X206309523Y-100307200D01*
X206309523Y-100307200D02*
X206404761Y-100354819D01*
X206404761Y-100354819D02*
X206642856Y-100354819D01*
X206642856Y-100354819D02*
X206738094Y-100307200D01*
X206738094Y-100307200D02*
X206785713Y-100259580D01*
X274711070Y-107785714D02*
X273711070Y-107785714D01*
X273711070Y-107785714D02*
X273711070Y-108023809D01*
X273711070Y-108023809D02*
X273758689Y-108166666D01*
X273758689Y-108166666D02*
X273853927Y-108261904D01*
X273853927Y-108261904D02*
X273949165Y-108309523D01*
X273949165Y-108309523D02*
X274139641Y-108357142D01*
X274139641Y-108357142D02*
X274282498Y-108357142D01*
X274282498Y-108357142D02*
X274472974Y-108309523D01*
X274472974Y-108309523D02*
X274568212Y-108261904D01*
X274568212Y-108261904D02*
X274663451Y-108166666D01*
X274663451Y-108166666D02*
X274711070Y-108023809D01*
X274711070Y-108023809D02*
X274711070Y-107785714D01*
X274711070Y-109309523D02*
X274711070Y-108738095D01*
X274711070Y-109023809D02*
X273711070Y-109023809D01*
X273711070Y-109023809D02*
X273853927Y-108928571D01*
X273853927Y-108928571D02*
X273949165Y-108833333D01*
X273949165Y-108833333D02*
X273996784Y-108738095D01*
X273806308Y-109690476D02*
X273758689Y-109738095D01*
X273758689Y-109738095D02*
X273711070Y-109833333D01*
X273711070Y-109833333D02*
X273711070Y-110071428D01*
X273711070Y-110071428D02*
X273758689Y-110166666D01*
X273758689Y-110166666D02*
X273806308Y-110214285D01*
X273806308Y-110214285D02*
X273901546Y-110261904D01*
X273901546Y-110261904D02*
X273996784Y-110261904D01*
X273996784Y-110261904D02*
X274139641Y-110214285D01*
X274139641Y-110214285D02*
X274711070Y-109642857D01*
X274711070Y-109642857D02*
X274711070Y-110261904D01*
X303286070Y-126835714D02*
X302286070Y-126835714D01*
X302286070Y-126835714D02*
X302286070Y-127073809D01*
X302286070Y-127073809D02*
X302333689Y-127216666D01*
X302333689Y-127216666D02*
X302428927Y-127311904D01*
X302428927Y-127311904D02*
X302524165Y-127359523D01*
X302524165Y-127359523D02*
X302714641Y-127407142D01*
X302714641Y-127407142D02*
X302857498Y-127407142D01*
X302857498Y-127407142D02*
X303047974Y-127359523D01*
X303047974Y-127359523D02*
X303143212Y-127311904D01*
X303143212Y-127311904D02*
X303238451Y-127216666D01*
X303238451Y-127216666D02*
X303286070Y-127073809D01*
X303286070Y-127073809D02*
X303286070Y-126835714D01*
X302381308Y-127788095D02*
X302333689Y-127835714D01*
X302333689Y-127835714D02*
X302286070Y-127930952D01*
X302286070Y-127930952D02*
X302286070Y-128169047D01*
X302286070Y-128169047D02*
X302333689Y-128264285D01*
X302333689Y-128264285D02*
X302381308Y-128311904D01*
X302381308Y-128311904D02*
X302476546Y-128359523D01*
X302476546Y-128359523D02*
X302571784Y-128359523D01*
X302571784Y-128359523D02*
X302714641Y-128311904D01*
X302714641Y-128311904D02*
X303286070Y-127740476D01*
X303286070Y-127740476D02*
X303286070Y-128359523D01*
X302714641Y-128930952D02*
X302667022Y-128835714D01*
X302667022Y-128835714D02*
X302619403Y-128788095D01*
X302619403Y-128788095D02*
X302524165Y-128740476D01*
X302524165Y-128740476D02*
X302476546Y-128740476D01*
X302476546Y-128740476D02*
X302381308Y-128788095D01*
X302381308Y-128788095D02*
X302333689Y-128835714D01*
X302333689Y-128835714D02*
X302286070Y-128930952D01*
X302286070Y-128930952D02*
X302286070Y-129121428D01*
X302286070Y-129121428D02*
X302333689Y-129216666D01*
X302333689Y-129216666D02*
X302381308Y-129264285D01*
X302381308Y-129264285D02*
X302476546Y-129311904D01*
X302476546Y-129311904D02*
X302524165Y-129311904D01*
X302524165Y-129311904D02*
X302619403Y-129264285D01*
X302619403Y-129264285D02*
X302667022Y-129216666D01*
X302667022Y-129216666D02*
X302714641Y-129121428D01*
X302714641Y-129121428D02*
X302714641Y-128930952D01*
X302714641Y-128930952D02*
X302762260Y-128835714D01*
X302762260Y-128835714D02*
X302809879Y-128788095D01*
X302809879Y-128788095D02*
X302905117Y-128740476D01*
X302905117Y-128740476D02*
X303095593Y-128740476D01*
X303095593Y-128740476D02*
X303190831Y-128788095D01*
X303190831Y-128788095D02*
X303238451Y-128835714D01*
X303238451Y-128835714D02*
X303286070Y-128930952D01*
X303286070Y-128930952D02*
X303286070Y-129121428D01*
X303286070Y-129121428D02*
X303238451Y-129216666D01*
X303238451Y-129216666D02*
X303190831Y-129264285D01*
X303190831Y-129264285D02*
X303095593Y-129311904D01*
X303095593Y-129311904D02*
X302905117Y-129311904D01*
X302905117Y-129311904D02*
X302809879Y-129264285D01*
X302809879Y-129264285D02*
X302762260Y-129216666D01*
X302762260Y-129216666D02*
X302714641Y-129121428D01*
X117548570Y-145885714D02*
X116548570Y-145885714D01*
X116548570Y-145885714D02*
X116548570Y-146123809D01*
X116548570Y-146123809D02*
X116596189Y-146266666D01*
X116596189Y-146266666D02*
X116691427Y-146361904D01*
X116691427Y-146361904D02*
X116786665Y-146409523D01*
X116786665Y-146409523D02*
X116977141Y-146457142D01*
X116977141Y-146457142D02*
X117119998Y-146457142D01*
X117119998Y-146457142D02*
X117310474Y-146409523D01*
X117310474Y-146409523D02*
X117405712Y-146361904D01*
X117405712Y-146361904D02*
X117500951Y-146266666D01*
X117500951Y-146266666D02*
X117548570Y-146123809D01*
X117548570Y-146123809D02*
X117548570Y-145885714D01*
X116548570Y-146790476D02*
X116548570Y-147409523D01*
X116548570Y-147409523D02*
X116929522Y-147076190D01*
X116929522Y-147076190D02*
X116929522Y-147219047D01*
X116929522Y-147219047D02*
X116977141Y-147314285D01*
X116977141Y-147314285D02*
X117024760Y-147361904D01*
X117024760Y-147361904D02*
X117119998Y-147409523D01*
X117119998Y-147409523D02*
X117358093Y-147409523D01*
X117358093Y-147409523D02*
X117453331Y-147361904D01*
X117453331Y-147361904D02*
X117500951Y-147314285D01*
X117500951Y-147314285D02*
X117548570Y-147219047D01*
X117548570Y-147219047D02*
X117548570Y-146933333D01*
X117548570Y-146933333D02*
X117500951Y-146838095D01*
X117500951Y-146838095D02*
X117453331Y-146790476D01*
X116548570Y-147742857D02*
X116548570Y-148361904D01*
X116548570Y-148361904D02*
X116929522Y-148028571D01*
X116929522Y-148028571D02*
X116929522Y-148171428D01*
X116929522Y-148171428D02*
X116977141Y-148266666D01*
X116977141Y-148266666D02*
X117024760Y-148314285D01*
X117024760Y-148314285D02*
X117119998Y-148361904D01*
X117119998Y-148361904D02*
X117358093Y-148361904D01*
X117358093Y-148361904D02*
X117453331Y-148314285D01*
X117453331Y-148314285D02*
X117500951Y-148266666D01*
X117500951Y-148266666D02*
X117548570Y-148171428D01*
X117548570Y-148171428D02*
X117548570Y-147885714D01*
X117548570Y-147885714D02*
X117500951Y-147790476D01*
X117500951Y-147790476D02*
X117453331Y-147742857D01*
X112786070Y-126835714D02*
X111786070Y-126835714D01*
X111786070Y-126835714D02*
X111786070Y-127073809D01*
X111786070Y-127073809D02*
X111833689Y-127216666D01*
X111833689Y-127216666D02*
X111928927Y-127311904D01*
X111928927Y-127311904D02*
X112024165Y-127359523D01*
X112024165Y-127359523D02*
X112214641Y-127407142D01*
X112214641Y-127407142D02*
X112357498Y-127407142D01*
X112357498Y-127407142D02*
X112547974Y-127359523D01*
X112547974Y-127359523D02*
X112643212Y-127311904D01*
X112643212Y-127311904D02*
X112738451Y-127216666D01*
X112738451Y-127216666D02*
X112786070Y-127073809D01*
X112786070Y-127073809D02*
X112786070Y-126835714D01*
X112786070Y-128359523D02*
X112786070Y-127788095D01*
X112786070Y-128073809D02*
X111786070Y-128073809D01*
X111786070Y-128073809D02*
X111928927Y-127978571D01*
X111928927Y-127978571D02*
X112024165Y-127883333D01*
X112024165Y-127883333D02*
X112071784Y-127788095D01*
X112214641Y-128930952D02*
X112167022Y-128835714D01*
X112167022Y-128835714D02*
X112119403Y-128788095D01*
X112119403Y-128788095D02*
X112024165Y-128740476D01*
X112024165Y-128740476D02*
X111976546Y-128740476D01*
X111976546Y-128740476D02*
X111881308Y-128788095D01*
X111881308Y-128788095D02*
X111833689Y-128835714D01*
X111833689Y-128835714D02*
X111786070Y-128930952D01*
X111786070Y-128930952D02*
X111786070Y-129121428D01*
X111786070Y-129121428D02*
X111833689Y-129216666D01*
X111833689Y-129216666D02*
X111881308Y-129264285D01*
X111881308Y-129264285D02*
X111976546Y-129311904D01*
X111976546Y-129311904D02*
X112024165Y-129311904D01*
X112024165Y-129311904D02*
X112119403Y-129264285D01*
X112119403Y-129264285D02*
X112167022Y-129216666D01*
X112167022Y-129216666D02*
X112214641Y-129121428D01*
X112214641Y-129121428D02*
X112214641Y-128930952D01*
X112214641Y-128930952D02*
X112262260Y-128835714D01*
X112262260Y-128835714D02*
X112309879Y-128788095D01*
X112309879Y-128788095D02*
X112405117Y-128740476D01*
X112405117Y-128740476D02*
X112595593Y-128740476D01*
X112595593Y-128740476D02*
X112690831Y-128788095D01*
X112690831Y-128788095D02*
X112738451Y-128835714D01*
X112738451Y-128835714D02*
X112786070Y-128930952D01*
X112786070Y-128930952D02*
X112786070Y-129121428D01*
X112786070Y-129121428D02*
X112738451Y-129216666D01*
X112738451Y-129216666D02*
X112690831Y-129264285D01*
X112690831Y-129264285D02*
X112595593Y-129311904D01*
X112595593Y-129311904D02*
X112405117Y-129311904D01*
X112405117Y-129311904D02*
X112309879Y-129264285D01*
X112309879Y-129264285D02*
X112262260Y-129216666D01*
X112262260Y-129216666D02*
X112214641Y-129121428D01*
X68754818Y-172685714D02*
X67754818Y-172685714D01*
X67754818Y-172685714D02*
X67754818Y-172923809D01*
X67754818Y-172923809D02*
X67802437Y-173066666D01*
X67802437Y-173066666D02*
X67897675Y-173161904D01*
X67897675Y-173161904D02*
X67992913Y-173209523D01*
X67992913Y-173209523D02*
X68183389Y-173257142D01*
X68183389Y-173257142D02*
X68326246Y-173257142D01*
X68326246Y-173257142D02*
X68516722Y-173209523D01*
X68516722Y-173209523D02*
X68611960Y-173161904D01*
X68611960Y-173161904D02*
X68707199Y-173066666D01*
X68707199Y-173066666D02*
X68754818Y-172923809D01*
X68754818Y-172923809D02*
X68754818Y-172685714D01*
X67754818Y-174161904D02*
X67754818Y-173685714D01*
X67754818Y-173685714D02*
X68231008Y-173638095D01*
X68231008Y-173638095D02*
X68183389Y-173685714D01*
X68183389Y-173685714D02*
X68135770Y-173780952D01*
X68135770Y-173780952D02*
X68135770Y-174019047D01*
X68135770Y-174019047D02*
X68183389Y-174114285D01*
X68183389Y-174114285D02*
X68231008Y-174161904D01*
X68231008Y-174161904D02*
X68326246Y-174209523D01*
X68326246Y-174209523D02*
X68564341Y-174209523D01*
X68564341Y-174209523D02*
X68659579Y-174161904D01*
X68659579Y-174161904D02*
X68707199Y-174114285D01*
X68707199Y-174114285D02*
X68754818Y-174019047D01*
X68754818Y-174019047D02*
X68754818Y-173780952D01*
X68754818Y-173780952D02*
X68707199Y-173685714D01*
X68707199Y-173685714D02*
X68659579Y-173638095D01*
X67754818Y-174542857D02*
X67754818Y-175209523D01*
X67754818Y-175209523D02*
X68754818Y-174780952D01*
X360436070Y-126885714D02*
X359436070Y-126885714D01*
X359436070Y-126885714D02*
X359436070Y-127123809D01*
X359436070Y-127123809D02*
X359483689Y-127266666D01*
X359483689Y-127266666D02*
X359578927Y-127361904D01*
X359578927Y-127361904D02*
X359674165Y-127409523D01*
X359674165Y-127409523D02*
X359864641Y-127457142D01*
X359864641Y-127457142D02*
X360007498Y-127457142D01*
X360007498Y-127457142D02*
X360197974Y-127409523D01*
X360197974Y-127409523D02*
X360293212Y-127361904D01*
X360293212Y-127361904D02*
X360388451Y-127266666D01*
X360388451Y-127266666D02*
X360436070Y-127123809D01*
X360436070Y-127123809D02*
X360436070Y-126885714D01*
X359436070Y-127790476D02*
X359436070Y-128409523D01*
X359436070Y-128409523D02*
X359817022Y-128076190D01*
X359817022Y-128076190D02*
X359817022Y-128219047D01*
X359817022Y-128219047D02*
X359864641Y-128314285D01*
X359864641Y-128314285D02*
X359912260Y-128361904D01*
X359912260Y-128361904D02*
X360007498Y-128409523D01*
X360007498Y-128409523D02*
X360245593Y-128409523D01*
X360245593Y-128409523D02*
X360340831Y-128361904D01*
X360340831Y-128361904D02*
X360388451Y-128314285D01*
X360388451Y-128314285D02*
X360436070Y-128219047D01*
X360436070Y-128219047D02*
X360436070Y-127933333D01*
X360436070Y-127933333D02*
X360388451Y-127838095D01*
X360388451Y-127838095D02*
X360340831Y-127790476D01*
X359436070Y-129028571D02*
X359436070Y-129123809D01*
X359436070Y-129123809D02*
X359483689Y-129219047D01*
X359483689Y-129219047D02*
X359531308Y-129266666D01*
X359531308Y-129266666D02*
X359626546Y-129314285D01*
X359626546Y-129314285D02*
X359817022Y-129361904D01*
X359817022Y-129361904D02*
X360055117Y-129361904D01*
X360055117Y-129361904D02*
X360245593Y-129314285D01*
X360245593Y-129314285D02*
X360340831Y-129266666D01*
X360340831Y-129266666D02*
X360388451Y-129219047D01*
X360388451Y-129219047D02*
X360436070Y-129123809D01*
X360436070Y-129123809D02*
X360436070Y-129028571D01*
X360436070Y-129028571D02*
X360388451Y-128933333D01*
X360388451Y-128933333D02*
X360340831Y-128885714D01*
X360340831Y-128885714D02*
X360245593Y-128838095D01*
X360245593Y-128838095D02*
X360055117Y-128790476D01*
X360055117Y-128790476D02*
X359817022Y-128790476D01*
X359817022Y-128790476D02*
X359626546Y-128838095D01*
X359626546Y-128838095D02*
X359531308Y-128885714D01*
X359531308Y-128885714D02*
X359483689Y-128933333D01*
X359483689Y-128933333D02*
X359436070Y-129028571D01*
X333166666Y-148759580D02*
X333214285Y-148807200D01*
X333214285Y-148807200D02*
X333357142Y-148854819D01*
X333357142Y-148854819D02*
X333452380Y-148854819D01*
X333452380Y-148854819D02*
X333595237Y-148807200D01*
X333595237Y-148807200D02*
X333690475Y-148711961D01*
X333690475Y-148711961D02*
X333738094Y-148616723D01*
X333738094Y-148616723D02*
X333785713Y-148426247D01*
X333785713Y-148426247D02*
X333785713Y-148283390D01*
X333785713Y-148283390D02*
X333738094Y-148092914D01*
X333738094Y-148092914D02*
X333690475Y-147997676D01*
X333690475Y-147997676D02*
X333595237Y-147902438D01*
X333595237Y-147902438D02*
X333452380Y-147854819D01*
X333452380Y-147854819D02*
X333357142Y-147854819D01*
X333357142Y-147854819D02*
X333214285Y-147902438D01*
X333214285Y-147902438D02*
X333166666Y-147950057D01*
X332785713Y-147950057D02*
X332738094Y-147902438D01*
X332738094Y-147902438D02*
X332642856Y-147854819D01*
X332642856Y-147854819D02*
X332404761Y-147854819D01*
X332404761Y-147854819D02*
X332309523Y-147902438D01*
X332309523Y-147902438D02*
X332261904Y-147950057D01*
X332261904Y-147950057D02*
X332214285Y-148045295D01*
X332214285Y-148045295D02*
X332214285Y-148140533D01*
X332214285Y-148140533D02*
X332261904Y-148283390D01*
X332261904Y-148283390D02*
X332833332Y-148854819D01*
X332833332Y-148854819D02*
X332214285Y-148854819D01*
X208036070Y-126835714D02*
X207036070Y-126835714D01*
X207036070Y-126835714D02*
X207036070Y-127073809D01*
X207036070Y-127073809D02*
X207083689Y-127216666D01*
X207083689Y-127216666D02*
X207178927Y-127311904D01*
X207178927Y-127311904D02*
X207274165Y-127359523D01*
X207274165Y-127359523D02*
X207464641Y-127407142D01*
X207464641Y-127407142D02*
X207607498Y-127407142D01*
X207607498Y-127407142D02*
X207797974Y-127359523D01*
X207797974Y-127359523D02*
X207893212Y-127311904D01*
X207893212Y-127311904D02*
X207988451Y-127216666D01*
X207988451Y-127216666D02*
X208036070Y-127073809D01*
X208036070Y-127073809D02*
X208036070Y-126835714D01*
X207131308Y-127788095D02*
X207083689Y-127835714D01*
X207083689Y-127835714D02*
X207036070Y-127930952D01*
X207036070Y-127930952D02*
X207036070Y-128169047D01*
X207036070Y-128169047D02*
X207083689Y-128264285D01*
X207083689Y-128264285D02*
X207131308Y-128311904D01*
X207131308Y-128311904D02*
X207226546Y-128359523D01*
X207226546Y-128359523D02*
X207321784Y-128359523D01*
X207321784Y-128359523D02*
X207464641Y-128311904D01*
X207464641Y-128311904D02*
X208036070Y-127740476D01*
X208036070Y-127740476D02*
X208036070Y-128359523D01*
X207036070Y-128692857D02*
X207036070Y-129311904D01*
X207036070Y-129311904D02*
X207417022Y-128978571D01*
X207417022Y-128978571D02*
X207417022Y-129121428D01*
X207417022Y-129121428D02*
X207464641Y-129216666D01*
X207464641Y-129216666D02*
X207512260Y-129264285D01*
X207512260Y-129264285D02*
X207607498Y-129311904D01*
X207607498Y-129311904D02*
X207845593Y-129311904D01*
X207845593Y-129311904D02*
X207940831Y-129264285D01*
X207940831Y-129264285D02*
X207988451Y-129216666D01*
X207988451Y-129216666D02*
X208036070Y-129121428D01*
X208036070Y-129121428D02*
X208036070Y-128835714D01*
X208036070Y-128835714D02*
X207988451Y-128740476D01*
X207988451Y-128740476D02*
X207940831Y-128692857D01*
X136598570Y-145885714D02*
X135598570Y-145885714D01*
X135598570Y-145885714D02*
X135598570Y-146123809D01*
X135598570Y-146123809D02*
X135646189Y-146266666D01*
X135646189Y-146266666D02*
X135741427Y-146361904D01*
X135741427Y-146361904D02*
X135836665Y-146409523D01*
X135836665Y-146409523D02*
X136027141Y-146457142D01*
X136027141Y-146457142D02*
X136169998Y-146457142D01*
X136169998Y-146457142D02*
X136360474Y-146409523D01*
X136360474Y-146409523D02*
X136455712Y-146361904D01*
X136455712Y-146361904D02*
X136550951Y-146266666D01*
X136550951Y-146266666D02*
X136598570Y-146123809D01*
X136598570Y-146123809D02*
X136598570Y-145885714D01*
X135598570Y-146790476D02*
X135598570Y-147409523D01*
X135598570Y-147409523D02*
X135979522Y-147076190D01*
X135979522Y-147076190D02*
X135979522Y-147219047D01*
X135979522Y-147219047D02*
X136027141Y-147314285D01*
X136027141Y-147314285D02*
X136074760Y-147361904D01*
X136074760Y-147361904D02*
X136169998Y-147409523D01*
X136169998Y-147409523D02*
X136408093Y-147409523D01*
X136408093Y-147409523D02*
X136503331Y-147361904D01*
X136503331Y-147361904D02*
X136550951Y-147314285D01*
X136550951Y-147314285D02*
X136598570Y-147219047D01*
X136598570Y-147219047D02*
X136598570Y-146933333D01*
X136598570Y-146933333D02*
X136550951Y-146838095D01*
X136550951Y-146838095D02*
X136503331Y-146790476D01*
X135931903Y-148266666D02*
X136598570Y-148266666D01*
X135550951Y-148028571D02*
X136265236Y-147790476D01*
X136265236Y-147790476D02*
X136265236Y-148409523D01*
X84211070Y-108261905D02*
X83211070Y-108261905D01*
X83211070Y-108261905D02*
X83211070Y-108500000D01*
X83211070Y-108500000D02*
X83258689Y-108642857D01*
X83258689Y-108642857D02*
X83353927Y-108738095D01*
X83353927Y-108738095D02*
X83449165Y-108785714D01*
X83449165Y-108785714D02*
X83639641Y-108833333D01*
X83639641Y-108833333D02*
X83782498Y-108833333D01*
X83782498Y-108833333D02*
X83972974Y-108785714D01*
X83972974Y-108785714D02*
X84068212Y-108738095D01*
X84068212Y-108738095D02*
X84163451Y-108642857D01*
X84163451Y-108642857D02*
X84211070Y-108500000D01*
X84211070Y-108500000D02*
X84211070Y-108261905D01*
X83306308Y-109214286D02*
X83258689Y-109261905D01*
X83258689Y-109261905D02*
X83211070Y-109357143D01*
X83211070Y-109357143D02*
X83211070Y-109595238D01*
X83211070Y-109595238D02*
X83258689Y-109690476D01*
X83258689Y-109690476D02*
X83306308Y-109738095D01*
X83306308Y-109738095D02*
X83401546Y-109785714D01*
X83401546Y-109785714D02*
X83496784Y-109785714D01*
X83496784Y-109785714D02*
X83639641Y-109738095D01*
X83639641Y-109738095D02*
X84211070Y-109166667D01*
X84211070Y-109166667D02*
X84211070Y-109785714D01*
X322336070Y-107785714D02*
X321336070Y-107785714D01*
X321336070Y-107785714D02*
X321336070Y-108023809D01*
X321336070Y-108023809D02*
X321383689Y-108166666D01*
X321383689Y-108166666D02*
X321478927Y-108261904D01*
X321478927Y-108261904D02*
X321574165Y-108309523D01*
X321574165Y-108309523D02*
X321764641Y-108357142D01*
X321764641Y-108357142D02*
X321907498Y-108357142D01*
X321907498Y-108357142D02*
X322097974Y-108309523D01*
X322097974Y-108309523D02*
X322193212Y-108261904D01*
X322193212Y-108261904D02*
X322288451Y-108166666D01*
X322288451Y-108166666D02*
X322336070Y-108023809D01*
X322336070Y-108023809D02*
X322336070Y-107785714D01*
X322336070Y-109309523D02*
X322336070Y-108738095D01*
X322336070Y-109023809D02*
X321336070Y-109023809D01*
X321336070Y-109023809D02*
X321478927Y-108928571D01*
X321478927Y-108928571D02*
X321574165Y-108833333D01*
X321574165Y-108833333D02*
X321621784Y-108738095D01*
X321669403Y-110166666D02*
X322336070Y-110166666D01*
X321288451Y-109928571D02*
X322002736Y-109690476D01*
X322002736Y-109690476D02*
X322002736Y-110309523D01*
X310429820Y-164905714D02*
X309429820Y-164905714D01*
X309429820Y-164905714D02*
X309429820Y-165143809D01*
X309429820Y-165143809D02*
X309477439Y-165286666D01*
X309477439Y-165286666D02*
X309572677Y-165381904D01*
X309572677Y-165381904D02*
X309667915Y-165429523D01*
X309667915Y-165429523D02*
X309858391Y-165477142D01*
X309858391Y-165477142D02*
X310001248Y-165477142D01*
X310001248Y-165477142D02*
X310191724Y-165429523D01*
X310191724Y-165429523D02*
X310286962Y-165381904D01*
X310286962Y-165381904D02*
X310382201Y-165286666D01*
X310382201Y-165286666D02*
X310429820Y-165143809D01*
X310429820Y-165143809D02*
X310429820Y-164905714D01*
X309429820Y-166381904D02*
X309429820Y-165905714D01*
X309429820Y-165905714D02*
X309906010Y-165858095D01*
X309906010Y-165858095D02*
X309858391Y-165905714D01*
X309858391Y-165905714D02*
X309810772Y-166000952D01*
X309810772Y-166000952D02*
X309810772Y-166239047D01*
X309810772Y-166239047D02*
X309858391Y-166334285D01*
X309858391Y-166334285D02*
X309906010Y-166381904D01*
X309906010Y-166381904D02*
X310001248Y-166429523D01*
X310001248Y-166429523D02*
X310239343Y-166429523D01*
X310239343Y-166429523D02*
X310334581Y-166381904D01*
X310334581Y-166381904D02*
X310382201Y-166334285D01*
X310382201Y-166334285D02*
X310429820Y-166239047D01*
X310429820Y-166239047D02*
X310429820Y-166000952D01*
X310429820Y-166000952D02*
X310382201Y-165905714D01*
X310382201Y-165905714D02*
X310334581Y-165858095D01*
X309429820Y-167334285D02*
X309429820Y-166858095D01*
X309429820Y-166858095D02*
X309906010Y-166810476D01*
X309906010Y-166810476D02*
X309858391Y-166858095D01*
X309858391Y-166858095D02*
X309810772Y-166953333D01*
X309810772Y-166953333D02*
X309810772Y-167191428D01*
X309810772Y-167191428D02*
X309858391Y-167286666D01*
X309858391Y-167286666D02*
X309906010Y-167334285D01*
X309906010Y-167334285D02*
X310001248Y-167381904D01*
X310001248Y-167381904D02*
X310239343Y-167381904D01*
X310239343Y-167381904D02*
X310334581Y-167334285D01*
X310334581Y-167334285D02*
X310382201Y-167286666D01*
X310382201Y-167286666D02*
X310429820Y-167191428D01*
X310429820Y-167191428D02*
X310429820Y-166953333D01*
X310429820Y-166953333D02*
X310382201Y-166858095D01*
X310382201Y-166858095D02*
X310334581Y-166810476D01*
X111454818Y-172535714D02*
X110454818Y-172535714D01*
X110454818Y-172535714D02*
X110454818Y-172773809D01*
X110454818Y-172773809D02*
X110502437Y-172916666D01*
X110502437Y-172916666D02*
X110597675Y-173011904D01*
X110597675Y-173011904D02*
X110692913Y-173059523D01*
X110692913Y-173059523D02*
X110883389Y-173107142D01*
X110883389Y-173107142D02*
X111026246Y-173107142D01*
X111026246Y-173107142D02*
X111216722Y-173059523D01*
X111216722Y-173059523D02*
X111311960Y-173011904D01*
X111311960Y-173011904D02*
X111407199Y-172916666D01*
X111407199Y-172916666D02*
X111454818Y-172773809D01*
X111454818Y-172773809D02*
X111454818Y-172535714D01*
X110454818Y-174011904D02*
X110454818Y-173535714D01*
X110454818Y-173535714D02*
X110931008Y-173488095D01*
X110931008Y-173488095D02*
X110883389Y-173535714D01*
X110883389Y-173535714D02*
X110835770Y-173630952D01*
X110835770Y-173630952D02*
X110835770Y-173869047D01*
X110835770Y-173869047D02*
X110883389Y-173964285D01*
X110883389Y-173964285D02*
X110931008Y-174011904D01*
X110931008Y-174011904D02*
X111026246Y-174059523D01*
X111026246Y-174059523D02*
X111264341Y-174059523D01*
X111264341Y-174059523D02*
X111359579Y-174011904D01*
X111359579Y-174011904D02*
X111407199Y-173964285D01*
X111407199Y-173964285D02*
X111454818Y-173869047D01*
X111454818Y-173869047D02*
X111454818Y-173630952D01*
X111454818Y-173630952D02*
X111407199Y-173535714D01*
X111407199Y-173535714D02*
X111359579Y-173488095D01*
X111454818Y-174535714D02*
X111454818Y-174726190D01*
X111454818Y-174726190D02*
X111407199Y-174821428D01*
X111407199Y-174821428D02*
X111359579Y-174869047D01*
X111359579Y-174869047D02*
X111216722Y-174964285D01*
X111216722Y-174964285D02*
X111026246Y-175011904D01*
X111026246Y-175011904D02*
X110645294Y-175011904D01*
X110645294Y-175011904D02*
X110550056Y-174964285D01*
X110550056Y-174964285D02*
X110502437Y-174916666D01*
X110502437Y-174916666D02*
X110454818Y-174821428D01*
X110454818Y-174821428D02*
X110454818Y-174630952D01*
X110454818Y-174630952D02*
X110502437Y-174535714D01*
X110502437Y-174535714D02*
X110550056Y-174488095D01*
X110550056Y-174488095D02*
X110645294Y-174440476D01*
X110645294Y-174440476D02*
X110883389Y-174440476D01*
X110883389Y-174440476D02*
X110978627Y-174488095D01*
X110978627Y-174488095D02*
X111026246Y-174535714D01*
X111026246Y-174535714D02*
X111073865Y-174630952D01*
X111073865Y-174630952D02*
X111073865Y-174821428D01*
X111073865Y-174821428D02*
X111026246Y-174916666D01*
X111026246Y-174916666D02*
X110978627Y-174964285D01*
X110978627Y-174964285D02*
X110883389Y-175011904D01*
X227086070Y-126835714D02*
X226086070Y-126835714D01*
X226086070Y-126835714D02*
X226086070Y-127073809D01*
X226086070Y-127073809D02*
X226133689Y-127216666D01*
X226133689Y-127216666D02*
X226228927Y-127311904D01*
X226228927Y-127311904D02*
X226324165Y-127359523D01*
X226324165Y-127359523D02*
X226514641Y-127407142D01*
X226514641Y-127407142D02*
X226657498Y-127407142D01*
X226657498Y-127407142D02*
X226847974Y-127359523D01*
X226847974Y-127359523D02*
X226943212Y-127311904D01*
X226943212Y-127311904D02*
X227038451Y-127216666D01*
X227038451Y-127216666D02*
X227086070Y-127073809D01*
X227086070Y-127073809D02*
X227086070Y-126835714D01*
X226181308Y-127788095D02*
X226133689Y-127835714D01*
X226133689Y-127835714D02*
X226086070Y-127930952D01*
X226086070Y-127930952D02*
X226086070Y-128169047D01*
X226086070Y-128169047D02*
X226133689Y-128264285D01*
X226133689Y-128264285D02*
X226181308Y-128311904D01*
X226181308Y-128311904D02*
X226276546Y-128359523D01*
X226276546Y-128359523D02*
X226371784Y-128359523D01*
X226371784Y-128359523D02*
X226514641Y-128311904D01*
X226514641Y-128311904D02*
X227086070Y-127740476D01*
X227086070Y-127740476D02*
X227086070Y-128359523D01*
X226419403Y-129216666D02*
X227086070Y-129216666D01*
X226038451Y-128978571D02*
X226752736Y-128740476D01*
X226752736Y-128740476D02*
X226752736Y-129359523D01*
X160411070Y-108261905D02*
X159411070Y-108261905D01*
X159411070Y-108261905D02*
X159411070Y-108500000D01*
X159411070Y-108500000D02*
X159458689Y-108642857D01*
X159458689Y-108642857D02*
X159553927Y-108738095D01*
X159553927Y-108738095D02*
X159649165Y-108785714D01*
X159649165Y-108785714D02*
X159839641Y-108833333D01*
X159839641Y-108833333D02*
X159982498Y-108833333D01*
X159982498Y-108833333D02*
X160172974Y-108785714D01*
X160172974Y-108785714D02*
X160268212Y-108738095D01*
X160268212Y-108738095D02*
X160363451Y-108642857D01*
X160363451Y-108642857D02*
X160411070Y-108500000D01*
X160411070Y-108500000D02*
X160411070Y-108261905D01*
X159411070Y-109690476D02*
X159411070Y-109500000D01*
X159411070Y-109500000D02*
X159458689Y-109404762D01*
X159458689Y-109404762D02*
X159506308Y-109357143D01*
X159506308Y-109357143D02*
X159649165Y-109261905D01*
X159649165Y-109261905D02*
X159839641Y-109214286D01*
X159839641Y-109214286D02*
X160220593Y-109214286D01*
X160220593Y-109214286D02*
X160315831Y-109261905D01*
X160315831Y-109261905D02*
X160363451Y-109309524D01*
X160363451Y-109309524D02*
X160411070Y-109404762D01*
X160411070Y-109404762D02*
X160411070Y-109595238D01*
X160411070Y-109595238D02*
X160363451Y-109690476D01*
X160363451Y-109690476D02*
X160315831Y-109738095D01*
X160315831Y-109738095D02*
X160220593Y-109785714D01*
X160220593Y-109785714D02*
X159982498Y-109785714D01*
X159982498Y-109785714D02*
X159887260Y-109738095D01*
X159887260Y-109738095D02*
X159839641Y-109690476D01*
X159839641Y-109690476D02*
X159792022Y-109595238D01*
X159792022Y-109595238D02*
X159792022Y-109404762D01*
X159792022Y-109404762D02*
X159839641Y-109309524D01*
X159839641Y-109309524D02*
X159887260Y-109261905D01*
X159887260Y-109261905D02*
X159982498Y-109214286D01*
X108023570Y-164905714D02*
X107023570Y-164905714D01*
X107023570Y-164905714D02*
X107023570Y-165143809D01*
X107023570Y-165143809D02*
X107071189Y-165286666D01*
X107071189Y-165286666D02*
X107166427Y-165381904D01*
X107166427Y-165381904D02*
X107261665Y-165429523D01*
X107261665Y-165429523D02*
X107452141Y-165477142D01*
X107452141Y-165477142D02*
X107594998Y-165477142D01*
X107594998Y-165477142D02*
X107785474Y-165429523D01*
X107785474Y-165429523D02*
X107880712Y-165381904D01*
X107880712Y-165381904D02*
X107975951Y-165286666D01*
X107975951Y-165286666D02*
X108023570Y-165143809D01*
X108023570Y-165143809D02*
X108023570Y-164905714D01*
X107356903Y-166334285D02*
X108023570Y-166334285D01*
X106975951Y-166096190D02*
X107690236Y-165858095D01*
X107690236Y-165858095D02*
X107690236Y-166477142D01*
X107023570Y-167334285D02*
X107023570Y-166858095D01*
X107023570Y-166858095D02*
X107499760Y-166810476D01*
X107499760Y-166810476D02*
X107452141Y-166858095D01*
X107452141Y-166858095D02*
X107404522Y-166953333D01*
X107404522Y-166953333D02*
X107404522Y-167191428D01*
X107404522Y-167191428D02*
X107452141Y-167286666D01*
X107452141Y-167286666D02*
X107499760Y-167334285D01*
X107499760Y-167334285D02*
X107594998Y-167381904D01*
X107594998Y-167381904D02*
X107833093Y-167381904D01*
X107833093Y-167381904D02*
X107928331Y-167334285D01*
X107928331Y-167334285D02*
X107975951Y-167286666D01*
X107975951Y-167286666D02*
X108023570Y-167191428D01*
X108023570Y-167191428D02*
X108023570Y-166953333D01*
X108023570Y-166953333D02*
X107975951Y-166858095D01*
X107975951Y-166858095D02*
X107928331Y-166810476D01*
D11*
X247443750Y-145450000D02*
X247443750Y-149460000D01*
X247443750Y-149460000D02*
X249443750Y-149460000D01*
X249443750Y-145450000D02*
X249443750Y-149460000D01*
X137906250Y-107350000D02*
X137906250Y-111360000D01*
X137906250Y-111360000D02*
X139906250Y-111360000D01*
X139906250Y-107350000D02*
X139906250Y-111360000D01*
X256968750Y-164470000D02*
X256968750Y-168480000D01*
X256968750Y-168480000D02*
X258968750Y-168480000D01*
X258968750Y-164470000D02*
X258968750Y-168480000D01*
X252206250Y-107350000D02*
X252206250Y-111360000D01*
X252206250Y-111360000D02*
X254206250Y-111360000D01*
X254206250Y-107350000D02*
X254206250Y-111360000D01*
X95043750Y-145450000D02*
X95043750Y-149460000D01*
X95043750Y-149460000D02*
X97043750Y-149460000D01*
X97043750Y-145450000D02*
X97043750Y-149460000D01*
X66468750Y-126400000D02*
X66468750Y-130410000D01*
X66468750Y-130410000D02*
X68468750Y-130410000D01*
X68468750Y-126400000D02*
X68468750Y-130410000D01*
X266493750Y-145450000D02*
X266493750Y-149460000D01*
X266493750Y-149460000D02*
X268493750Y-149460000D01*
X268493750Y-145450000D02*
X268493750Y-149460000D01*
X190293750Y-145450000D02*
X190293750Y-149460000D01*
X190293750Y-149460000D02*
X192293750Y-149460000D01*
X192293750Y-145450000D02*
X192293750Y-149460000D01*
X351961253Y-149965000D02*
X351438747Y-149965000D01*
X351961253Y-151435000D02*
X351438747Y-151435000D01*
X209343750Y-145450000D02*
X209343750Y-149460000D01*
X209343750Y-149460000D02*
X211343750Y-149460000D01*
X211343750Y-145450000D02*
X211343750Y-149460000D01*
X220470814Y-95133750D02*
X219266686Y-95133750D01*
X220470814Y-96953750D02*
X219266686Y-96953750D01*
X197800000Y-88300000D02*
X197800000Y-90200000D01*
X197800000Y-92100000D02*
X197800000Y-94100000D01*
X207200000Y-88300000D02*
X197800000Y-88300000D01*
X207200000Y-88300000D02*
X207200000Y-90200000D01*
X207200000Y-92100000D02*
X207200000Y-94100000D01*
X338538747Y-134365000D02*
X339061253Y-134365000D01*
X338538747Y-135835000D02*
X339061253Y-135835000D01*
X214106250Y-107350000D02*
X214106250Y-111360000D01*
X214106250Y-111360000D02*
X216106250Y-111360000D01*
X216106250Y-107350000D02*
X216106250Y-111360000D01*
X228393750Y-145450000D02*
X228393750Y-149460000D01*
X228393750Y-149460000D02*
X230393750Y-149460000D01*
X230393750Y-145450000D02*
X230393750Y-149460000D01*
X199823400Y-101065064D02*
X199823400Y-100610936D01*
X201293400Y-101065064D02*
X201293400Y-100610936D01*
X152193750Y-145450000D02*
X152193750Y-149460000D01*
X152193750Y-149460000D02*
X154193750Y-149460000D01*
X154193750Y-145450000D02*
X154193750Y-149460000D01*
X180768750Y-164470000D02*
X180768750Y-168480000D01*
X180768750Y-168480000D02*
X182768750Y-168480000D01*
X182768750Y-164470000D02*
X182768750Y-168480000D01*
X161718750Y-164470000D02*
X161718750Y-168480000D01*
X161718750Y-168480000D02*
X163718750Y-168480000D01*
X163718750Y-164470000D02*
X163718750Y-168480000D01*
X342365000Y-127872936D02*
X342365000Y-128327064D01*
X343835000Y-127872936D02*
X343835000Y-128327064D01*
X340900000Y-175450000D02*
X340900000Y-171440000D01*
X342900000Y-171440000D02*
X340900000Y-171440000D01*
X342900000Y-175450000D02*
X342900000Y-171440000D01*
X237918750Y-164470000D02*
X237918750Y-168480000D01*
X237918750Y-168480000D02*
X239918750Y-168480000D01*
X239918750Y-164470000D02*
X239918750Y-168480000D01*
X118856250Y-107350000D02*
X118856250Y-111360000D01*
X118856250Y-111360000D02*
X120856250Y-111360000D01*
X120856250Y-107350000D02*
X120856250Y-111360000D01*
X276018750Y-164470000D02*
X276018750Y-168480000D01*
X276018750Y-168480000D02*
X278018750Y-168480000D01*
X278018750Y-164470000D02*
X278018750Y-168480000D01*
X338665000Y-151727064D02*
X338665000Y-151272936D01*
X340135000Y-151727064D02*
X340135000Y-151272936D01*
X73612500Y-164470000D02*
X73612500Y-168480000D01*
X73612500Y-168480000D02*
X75612500Y-168480000D01*
X75612500Y-164470000D02*
X75612500Y-168480000D01*
X290306250Y-107350000D02*
X290306250Y-111360000D01*
X290306250Y-111360000D02*
X292306250Y-111360000D01*
X292306250Y-107350000D02*
X292306250Y-111360000D01*
X357027064Y-157865000D02*
X356572936Y-157865000D01*
X357027064Y-159335000D02*
X356572936Y-159335000D01*
X233156250Y-107350000D02*
X233156250Y-111360000D01*
X233156250Y-111360000D02*
X235156250Y-111360000D01*
X235156250Y-107350000D02*
X235156250Y-111360000D01*
X261731250Y-126400000D02*
X261731250Y-130410000D01*
X261731250Y-130410000D02*
X263731250Y-130410000D01*
X263731250Y-126400000D02*
X263731250Y-130410000D01*
X337931250Y-164470000D02*
X337931250Y-168480000D01*
X337931250Y-168480000D02*
X339931250Y-168480000D01*
X339931250Y-164470000D02*
X339931250Y-168480000D01*
X254900000Y-175400000D02*
X254900000Y-171390000D01*
X256900000Y-171390000D02*
X254900000Y-171390000D01*
X256900000Y-175400000D02*
X256900000Y-171390000D01*
X185531250Y-126400000D02*
X185531250Y-130410000D01*
X185531250Y-130410000D02*
X187531250Y-130410000D01*
X187531250Y-126400000D02*
X187531250Y-130410000D01*
X340365000Y-127872936D02*
X340365000Y-128327064D01*
X341835000Y-127872936D02*
X341835000Y-128327064D01*
X316500000Y-145450000D02*
X316500000Y-149460000D01*
X316500000Y-149460000D02*
X318500000Y-149460000D01*
X318500000Y-145450000D02*
X318500000Y-149460000D01*
X61706250Y-107350000D02*
X61706250Y-111360000D01*
X61706250Y-111360000D02*
X63706250Y-111360000D01*
X63706250Y-107350000D02*
X63706250Y-111360000D01*
X278600000Y-175400000D02*
X278600000Y-171390000D01*
X280600000Y-171390000D02*
X278600000Y-171390000D01*
X280600000Y-175400000D02*
X280600000Y-171390000D01*
X302500000Y-175400000D02*
X302500000Y-171390000D01*
X304500000Y-171390000D02*
X302500000Y-171390000D01*
X304500000Y-175400000D02*
X304500000Y-171390000D01*
X345665000Y-132638747D02*
X345665000Y-133161253D01*
X347135000Y-132638747D02*
X347135000Y-133161253D01*
X142668750Y-164470000D02*
X142668750Y-168480000D01*
X142668750Y-168480000D02*
X144668750Y-168480000D01*
X144668750Y-164470000D02*
X144668750Y-168480000D01*
X362100000Y-175400000D02*
X362100000Y-171390000D01*
X364100000Y-171390000D02*
X362100000Y-171390000D01*
X364100000Y-175400000D02*
X364100000Y-171390000D01*
X356981250Y-107350000D02*
X356981250Y-111360000D01*
X356981250Y-111360000D02*
X358981250Y-111360000D01*
X358981250Y-107350000D02*
X358981250Y-111360000D01*
X357165010Y-147004457D02*
X356795543Y-146634990D01*
X358204457Y-145965010D02*
X357834990Y-145595543D01*
X199818750Y-164470000D02*
X199818750Y-168480000D01*
X199818750Y-168480000D02*
X201818750Y-168480000D01*
X201818750Y-164470000D02*
X201818750Y-168480000D01*
X90281250Y-126400000D02*
X90281250Y-130410000D01*
X90281250Y-130410000D02*
X92281250Y-130410000D01*
X92281250Y-126400000D02*
X92281250Y-130410000D01*
D10*
X340325000Y-138400000D02*
X340325000Y-137725000D01*
X340325000Y-147400000D02*
X340325000Y-148075000D01*
X340940000Y-137724999D02*
X340325000Y-137725000D01*
X341000000Y-148075000D02*
X340325000Y-148075000D01*
X350000000Y-137725000D02*
X350675000Y-137725000D01*
X350000000Y-148075000D02*
X350675000Y-148075000D01*
X350675000Y-138400000D02*
X350675000Y-137725000D01*
X350675000Y-147400000D02*
X350675000Y-148075000D01*
D11*
X340960000Y-137040000D02*
X340490000Y-137380001D01*
X340490000Y-136700000D01*
X340960000Y-137040000D01*
G36*
X340960000Y-137040000D02*
G01*
X340490000Y-137380001D01*
X340490000Y-136700000D01*
X340960000Y-137040000D01*
G37*
X334838747Y-136765000D02*
X335361253Y-136765000D01*
X334838747Y-138235000D02*
X335361253Y-138235000D01*
X285543750Y-145450000D02*
X285543750Y-149460000D01*
X285543750Y-149460000D02*
X287543750Y-149460000D01*
X287543750Y-145450000D02*
X287543750Y-149460000D01*
X166481250Y-126400000D02*
X166481250Y-130410000D01*
X166481250Y-130410000D02*
X168481250Y-130410000D01*
X168481250Y-126400000D02*
X168481250Y-130410000D01*
X280781250Y-126143750D02*
X280781250Y-130153750D01*
X280781250Y-130153750D02*
X282781250Y-130153750D01*
X282781250Y-126143750D02*
X282781250Y-130153750D01*
X147431250Y-126400000D02*
X147431250Y-130410000D01*
X147431250Y-130410000D02*
X149431250Y-130410000D01*
X149431250Y-126400000D02*
X149431250Y-130410000D01*
X128381250Y-126550000D02*
X128381250Y-130560000D01*
X128381250Y-130560000D02*
X130381250Y-130560000D01*
X130381250Y-126550000D02*
X130381250Y-130560000D01*
X183300000Y-175400000D02*
X183300000Y-171390000D01*
X185300000Y-171390000D02*
X183300000Y-171390000D01*
X185300000Y-175400000D02*
X185300000Y-171390000D01*
X356865010Y-138395543D02*
X356495543Y-138765010D01*
X357904457Y-139434990D02*
X357534990Y-139804457D01*
X323700000Y-126350000D02*
X323700000Y-130360000D01*
X323700000Y-130360000D02*
X325700000Y-130360000D01*
X325700000Y-126350000D02*
X325700000Y-130360000D01*
X68850000Y-145450000D02*
X68850000Y-149460000D01*
X68850000Y-149460000D02*
X70850000Y-149460000D01*
X70850000Y-145450000D02*
X70850000Y-149460000D01*
X123618750Y-164470000D02*
X123618750Y-168480000D01*
X123618750Y-168480000D02*
X125618750Y-168480000D01*
X125618750Y-164470000D02*
X125618750Y-168480000D01*
X324100000Y-175400000D02*
X324100000Y-171390000D01*
X326100000Y-171390000D02*
X324100000Y-171390000D01*
X326100000Y-175400000D02*
X326100000Y-171390000D01*
X200940000Y-107600000D02*
X200939999Y-108400000D01*
X200940000Y-109200000D02*
X200939999Y-108400000D01*
X204060000Y-107600000D02*
X204060001Y-108400000D01*
X204060000Y-109200000D02*
X204060001Y-108400000D01*
X200990000Y-107100000D02*
X200660000Y-107340000D01*
X200660000Y-106860000D01*
X200990000Y-107100000D01*
G36*
X200990000Y-107100000D02*
G01*
X200660000Y-107340000D01*
X200660000Y-106860000D01*
X200990000Y-107100000D01*
G37*
X90600000Y-175400000D02*
X90600000Y-171390000D01*
X92600000Y-171390000D02*
X90600000Y-171390000D01*
X92600000Y-175400000D02*
X92600000Y-171390000D01*
X242681250Y-126143750D02*
X242681250Y-130153750D01*
X242681250Y-130153750D02*
X244681250Y-130153750D01*
X244681250Y-126143750D02*
X244681250Y-130153750D01*
X357952513Y-140219060D02*
X355619060Y-142552513D01*
X360780940Y-143047487D02*
X357952513Y-140219060D01*
X171243750Y-145450000D02*
X171243750Y-149460000D01*
X171243750Y-149460000D02*
X173243750Y-149460000D01*
X173243750Y-145450000D02*
X173243750Y-149460000D01*
X351780001Y-165540000D02*
X351780001Y-163460000D01*
X352560000Y-162270000D02*
X353050000Y-161780000D01*
X352560000Y-166730000D02*
X353050000Y-167220000D01*
X355950000Y-161780000D02*
X353050000Y-161780000D01*
X355950000Y-167220000D02*
X353050000Y-167220000D01*
X356440000Y-162270000D02*
X355950000Y-161780000D01*
X356440000Y-166730000D02*
X355950000Y-167220000D01*
X357219999Y-165540000D02*
X357219999Y-163460000D01*
X176006250Y-107350000D02*
X176006250Y-111360000D01*
X176006250Y-111360000D02*
X178006250Y-111360000D01*
X178006250Y-107350000D02*
X178006250Y-111360000D01*
X218868750Y-164470000D02*
X218868750Y-168480000D01*
X218868750Y-168480000D02*
X220868750Y-168480000D01*
X220868750Y-164470000D02*
X220868750Y-168480000D01*
X195056250Y-107350000D02*
X195056250Y-111360000D01*
X195056250Y-111360000D02*
X197056250Y-111360000D01*
X197056250Y-107350000D02*
X197056250Y-111360000D01*
X99806250Y-107350000D02*
X99806250Y-111360000D01*
X99806250Y-111360000D02*
X101806250Y-111360000D01*
X101806250Y-107350000D02*
X101806250Y-111360000D01*
X355461253Y-135865000D02*
X354938747Y-135865000D01*
X355461253Y-137335000D02*
X354938747Y-137335000D01*
X204565000Y-101627064D02*
X204565000Y-101172936D01*
X206035000Y-101627064D02*
X206035000Y-101172936D01*
X271256250Y-107350000D02*
X271256250Y-111360000D01*
X271256250Y-111360000D02*
X273256250Y-111360000D01*
X273256250Y-107350000D02*
X273256250Y-111360000D01*
X299831250Y-126400000D02*
X299831250Y-130410000D01*
X299831250Y-130410000D02*
X301831250Y-130410000D01*
X301831250Y-126400000D02*
X301831250Y-130410000D01*
X114093750Y-145450000D02*
X114093750Y-149460000D01*
X114093750Y-149460000D02*
X116093750Y-149460000D01*
X116093750Y-145450000D02*
X116093750Y-149460000D01*
X109331250Y-126400000D02*
X109331250Y-130410000D01*
X109331250Y-130410000D02*
X111331250Y-130410000D01*
X111331250Y-126400000D02*
X111331250Y-130410000D01*
X69300000Y-175550000D02*
X69300000Y-171540000D01*
X71300000Y-171540000D02*
X69300000Y-171540000D01*
X71300000Y-175550000D02*
X71300000Y-171540000D01*
X356981250Y-126450000D02*
X356981250Y-130460000D01*
X356981250Y-130460000D02*
X358981250Y-130460000D01*
X358981250Y-126450000D02*
X358981250Y-130460000D01*
X335538747Y-147665000D02*
X336061253Y-147665000D01*
X335538747Y-149135000D02*
X336061253Y-149135000D01*
X204581250Y-126400000D02*
X204581250Y-130410000D01*
X204581250Y-130410000D02*
X206581250Y-130410000D01*
X206581250Y-126400000D02*
X206581250Y-130410000D01*
X133143750Y-145450000D02*
X133143750Y-149460000D01*
X133143750Y-149460000D02*
X135143750Y-149460000D01*
X135143750Y-145450000D02*
X135143750Y-149460000D01*
X80756250Y-107350000D02*
X80756250Y-111360000D01*
X80756250Y-111360000D02*
X82756250Y-111360000D01*
X82756250Y-107350000D02*
X82756250Y-111360000D01*
X318881250Y-107350000D02*
X318881250Y-111360000D01*
X318881250Y-111360000D02*
X320881250Y-111360000D01*
X320881250Y-107350000D02*
X320881250Y-111360000D01*
X306975000Y-164470000D02*
X306975000Y-168480000D01*
X306975000Y-168480000D02*
X308975000Y-168480000D01*
X308975000Y-164470000D02*
X308975000Y-168480000D01*
X112000000Y-175400000D02*
X112000000Y-171390000D01*
X114000000Y-171390000D02*
X112000000Y-171390000D01*
X114000000Y-175400000D02*
X114000000Y-171390000D01*
X223631250Y-126400000D02*
X223631250Y-130410000D01*
X223631250Y-130410000D02*
X225631250Y-130410000D01*
X225631250Y-126400000D02*
X225631250Y-130410000D01*
X156956250Y-107350000D02*
X156956250Y-111360000D01*
X156956250Y-111360000D02*
X158956250Y-111360000D01*
X158956250Y-107350000D02*
X158956250Y-111360000D01*
X104568750Y-164470000D02*
X104568750Y-168480000D01*
X104568750Y-168480000D02*
X106568750Y-168480000D01*
X106568750Y-164470000D02*
X106568750Y-168480000D01*
%LPC*%
D12*
X349771000Y-104380000D03*
D13*
X354851000Y-104380000D03*
D12*
X359931000Y-104380000D03*
D14*
X351041000Y-101840000D03*
X357391000Y-99300000D03*
D12*
X240233500Y-142480000D03*
D13*
X245313500Y-142480000D03*
D12*
X250393500Y-142480000D03*
D14*
X241503500Y-139940000D03*
X247853500Y-137400000D03*
D12*
X73550000Y-104380000D03*
D13*
X78630000Y-104380000D03*
D12*
X83710000Y-104380000D03*
D14*
X74820000Y-101840000D03*
X81170000Y-99300000D03*
D12*
X111650000Y-104380000D03*
D13*
X116730000Y-104380000D03*
D12*
X121810000Y-104380000D03*
D14*
X112920000Y-101840000D03*
X119270000Y-99300000D03*
D12*
X54500000Y-104380000D03*
D13*
X59580000Y-104380000D03*
D12*
X64660000Y-104380000D03*
D14*
X55770000Y-101840000D03*
X62120000Y-99300000D03*
D12*
X187850000Y-104380000D03*
D13*
X192930000Y-104380000D03*
D12*
X198010000Y-104380000D03*
D14*
X189120000Y-101840000D03*
X195470000Y-99300000D03*
D12*
X144983500Y-142480000D03*
D13*
X150063500Y-142480000D03*
D12*
X155143500Y-142480000D03*
D14*
X146253500Y-139940000D03*
X152603500Y-137400000D03*
D15*
X292946000Y-154530000D03*
D13*
X292946000Y-169770000D03*
D12*
X299766000Y-161530000D03*
D13*
X304846000Y-161530000D03*
D12*
X309926000Y-161530000D03*
D15*
X316746000Y-154530000D03*
D13*
X316746000Y-169770000D03*
D14*
X301036000Y-158990000D03*
X307386000Y-156450000D03*
D12*
X268810500Y-161530000D03*
D13*
X273890500Y-161530000D03*
D12*
X278970500Y-161530000D03*
D14*
X270080500Y-158990000D03*
X276430500Y-156450000D03*
D12*
X230710500Y-161530000D03*
D13*
X235790500Y-161530000D03*
D12*
X240870500Y-161530000D03*
D14*
X231980500Y-158990000D03*
X238330500Y-156450000D03*
D12*
X135460500Y-161530000D03*
D13*
X140540500Y-161530000D03*
D12*
X145620500Y-161530000D03*
D14*
X136730500Y-158990000D03*
X143080500Y-156450000D03*
D12*
X349771000Y-180580000D03*
D13*
X354851000Y-180580000D03*
D12*
X359931000Y-180580000D03*
D14*
X351041000Y-178040000D03*
X357391000Y-175500000D03*
D12*
X278333500Y-142480000D03*
D13*
X283413500Y-142480000D03*
D12*
X288493500Y-142480000D03*
D14*
X279603500Y-139940000D03*
X285953500Y-137400000D03*
D12*
X242616000Y-180580000D03*
D13*
X247696000Y-180580000D03*
D12*
X252776000Y-180580000D03*
D14*
X243886000Y-178040000D03*
X250236000Y-175500000D03*
D12*
X259283500Y-142480000D03*
D13*
X264363500Y-142480000D03*
D12*
X269443500Y-142480000D03*
D14*
X260553500Y-139940000D03*
X266903500Y-137400000D03*
D12*
X283100000Y-104380000D03*
D13*
X288180000Y-104380000D03*
D12*
X293260000Y-104380000D03*
D14*
X284370000Y-101840000D03*
X290720000Y-99300000D03*
D12*
X149750000Y-104380000D03*
D13*
X154830000Y-104380000D03*
D12*
X159910000Y-104380000D03*
D14*
X151020000Y-101840000D03*
X157370000Y-99300000D03*
D12*
X56880000Y-180580000D03*
D13*
X61960000Y-180580000D03*
D12*
X67040000Y-180580000D03*
D14*
X58150000Y-178040000D03*
X64500000Y-175500000D03*
D12*
X264050000Y-104380000D03*
D13*
X269130000Y-104380000D03*
D12*
X274210000Y-104380000D03*
D14*
X265320000Y-101840000D03*
X271670000Y-99300000D03*
D12*
X330721000Y-180580000D03*
D13*
X335801000Y-180580000D03*
D12*
X340881000Y-180580000D03*
D14*
X331991000Y-178040000D03*
X338341000Y-175500000D03*
D12*
X116420000Y-161530000D03*
D13*
X121500000Y-161530000D03*
D12*
X126580000Y-161530000D03*
D14*
X117690000Y-158990000D03*
X124040000Y-156450000D03*
D12*
X164033500Y-142480000D03*
D13*
X169113500Y-142480000D03*
D12*
X174193500Y-142480000D03*
D14*
X165303500Y-139940000D03*
X171653500Y-137400000D03*
D12*
X273574000Y-123430000D03*
D13*
X278654000Y-123430000D03*
D12*
X283734000Y-123430000D03*
D14*
X274844000Y-120890000D03*
X281194000Y-118350000D03*
D12*
X292624000Y-123430000D03*
D13*
X297704000Y-123430000D03*
D12*
X302784000Y-123430000D03*
D14*
X293894000Y-120890000D03*
X300244000Y-118350000D03*
D12*
X125933500Y-142480000D03*
D13*
X131013500Y-142480000D03*
D12*
X136093500Y-142480000D03*
D14*
X127203500Y-139940000D03*
X133553500Y-137400000D03*
D15*
X59585000Y-154530000D03*
D13*
X59585000Y-169770000D03*
D12*
X66405000Y-161530000D03*
D13*
X71485000Y-161530000D03*
D12*
X76565000Y-161530000D03*
D15*
X83385000Y-154530000D03*
D13*
X83385000Y-169770000D03*
D14*
X67675000Y-158990000D03*
X74025000Y-156450000D03*
D15*
X126212500Y-173580000D03*
D13*
X126212500Y-188820000D03*
D12*
X171132500Y-180580000D03*
D13*
X176212500Y-180580000D03*
D12*
X181292500Y-180580000D03*
D15*
X226212500Y-173580000D03*
D13*
X226212500Y-188820000D03*
D14*
X172402500Y-178040000D03*
X178752500Y-175500000D03*
D12*
X97360500Y-161530000D03*
D13*
X102440500Y-161530000D03*
D12*
X107520500Y-161530000D03*
D14*
X98630500Y-158990000D03*
X104980500Y-156450000D03*
D12*
X216424000Y-123430000D03*
D13*
X221504000Y-123430000D03*
D12*
X226584000Y-123430000D03*
D14*
X217694000Y-120890000D03*
X224044000Y-118350000D03*
D12*
X121174000Y-123430000D03*
D13*
X126254000Y-123430000D03*
D12*
X131334000Y-123430000D03*
D14*
X122444000Y-120890000D03*
X128794000Y-118350000D03*
D12*
X102124000Y-123430000D03*
D13*
X107204000Y-123430000D03*
D12*
X112284000Y-123430000D03*
D14*
X103394000Y-120890000D03*
X109744000Y-118350000D03*
D12*
X173560500Y-161530000D03*
D13*
X178640500Y-161530000D03*
D12*
X183720500Y-161530000D03*
D14*
X174830500Y-158990000D03*
X181180500Y-156450000D03*
D12*
X349771000Y-123430000D03*
D13*
X354851000Y-123430000D03*
D12*
X359931000Y-123430000D03*
D14*
X351041000Y-120890000D03*
X357391000Y-118350000D03*
D12*
X330721000Y-161530000D03*
D13*
X335801000Y-161530000D03*
D12*
X340881000Y-161530000D03*
D14*
X331991000Y-158990000D03*
X338341000Y-156450000D03*
D12*
X245000000Y-104380000D03*
D13*
X250080000Y-104380000D03*
D12*
X255160000Y-104380000D03*
D14*
X246270000Y-101840000D03*
X252620000Y-99300000D03*
X200230500Y-156450000D03*
X193880500Y-158990000D03*
D12*
X202770500Y-161530000D03*
D13*
X197690500Y-161530000D03*
D12*
X192610500Y-161530000D03*
X59260000Y-123430000D03*
D13*
X64340000Y-123430000D03*
D12*
X69420000Y-123430000D03*
D14*
X60530000Y-120890000D03*
X66880000Y-118350000D03*
D12*
X290240000Y-180580000D03*
D13*
X295320000Y-180580000D03*
D12*
X300400000Y-180580000D03*
D14*
X291510000Y-178040000D03*
X297860000Y-175500000D03*
D12*
X211660500Y-161530000D03*
D13*
X216740500Y-161530000D03*
D12*
X221820500Y-161530000D03*
D14*
X212930500Y-158990000D03*
X219280500Y-156450000D03*
D12*
X225950000Y-104380000D03*
D13*
X231030000Y-104380000D03*
D12*
X236110000Y-104380000D03*
D14*
X227220000Y-101840000D03*
X233570000Y-99300000D03*
D12*
X83074000Y-123430000D03*
D13*
X88154000Y-123430000D03*
D12*
X93234000Y-123430000D03*
D14*
X84344000Y-120890000D03*
X90694000Y-118350000D03*
D12*
X106880000Y-142480000D03*
D13*
X111960000Y-142480000D03*
D12*
X117040000Y-142480000D03*
D14*
X108150000Y-139940000D03*
X114500000Y-137400000D03*
D12*
X140224000Y-123430000D03*
D13*
X145304000Y-123430000D03*
D12*
X150384000Y-123430000D03*
D14*
X141494000Y-120890000D03*
X147844000Y-118350000D03*
D12*
X168800000Y-104380000D03*
D13*
X173880000Y-104380000D03*
D12*
X178960000Y-104380000D03*
D14*
X170070000Y-101840000D03*
X176420000Y-99300000D03*
D12*
X87833500Y-142480000D03*
D13*
X92913500Y-142480000D03*
D12*
X97993500Y-142480000D03*
D14*
X89103500Y-139940000D03*
X95453500Y-137400000D03*
D12*
X266382500Y-180580000D03*
D13*
X271462500Y-180580000D03*
D12*
X276542500Y-180580000D03*
D14*
X267652500Y-178040000D03*
X274002500Y-175500000D03*
D15*
X304855000Y-97380000D03*
D13*
X304855000Y-112620000D03*
D12*
X311675000Y-104380000D03*
D13*
X316755000Y-104380000D03*
D12*
X321835000Y-104380000D03*
D15*
X328655000Y-97380000D03*
D13*
X328655000Y-112620000D03*
D14*
X312945000Y-101840000D03*
X319295000Y-99300000D03*
D12*
X92600000Y-104380000D03*
D13*
X97680000Y-104380000D03*
D12*
X102760000Y-104380000D03*
D14*
X93870000Y-101840000D03*
X100220000Y-99300000D03*
D12*
X99695000Y-180580000D03*
D13*
X104775000Y-180580000D03*
D12*
X109855000Y-180580000D03*
D14*
X100965000Y-178040000D03*
X107315000Y-175500000D03*
D12*
X154510500Y-161530000D03*
D13*
X159590500Y-161530000D03*
D12*
X164670500Y-161530000D03*
D14*
X155780500Y-158990000D03*
X162130500Y-156450000D03*
D12*
X197374000Y-123430000D03*
D13*
X202454000Y-123430000D03*
D12*
X207534000Y-123430000D03*
D14*
X198644000Y-120890000D03*
X204994000Y-118350000D03*
D12*
X235474000Y-123430000D03*
D13*
X240554000Y-123430000D03*
D12*
X245634000Y-123430000D03*
D14*
X236744000Y-120890000D03*
X243094000Y-118350000D03*
D12*
X249760500Y-161530000D03*
D13*
X254840500Y-161530000D03*
D12*
X259920500Y-161530000D03*
D14*
X251030500Y-158990000D03*
X257380500Y-156450000D03*
D15*
X302469000Y-135480000D03*
D13*
X302469000Y-150720000D03*
D12*
X309289000Y-142480000D03*
D13*
X314369000Y-142480000D03*
D12*
X319449000Y-142480000D03*
D15*
X326269000Y-135480000D03*
D13*
X326269000Y-150720000D03*
D14*
X310559000Y-139940000D03*
X316909000Y-137400000D03*
D12*
X61640000Y-142480000D03*
D13*
X66720000Y-142480000D03*
D12*
X71800000Y-142480000D03*
D14*
X62910000Y-139940000D03*
X69260000Y-137400000D03*
D12*
X206900000Y-104380000D03*
D13*
X211980000Y-104380000D03*
D12*
X217060000Y-104380000D03*
D14*
X208170000Y-101840000D03*
X214520000Y-99300000D03*
D12*
X316418000Y-123430000D03*
D13*
X321498000Y-123430000D03*
D12*
X326578000Y-123430000D03*
D14*
X317688000Y-120890000D03*
X324038000Y-118350000D03*
D12*
X221183500Y-142480000D03*
D13*
X226263500Y-142480000D03*
D12*
X231343500Y-142480000D03*
D14*
X222453500Y-139940000D03*
X228803500Y-137400000D03*
D12*
X130700000Y-104380000D03*
D13*
X135780000Y-104380000D03*
D12*
X140860000Y-104380000D03*
D14*
X131970000Y-101840000D03*
X138320000Y-99300000D03*
D12*
X159274000Y-123430000D03*
D13*
X164354000Y-123430000D03*
D12*
X169434000Y-123430000D03*
D14*
X160544000Y-120890000D03*
X166894000Y-118350000D03*
D12*
X183083500Y-142480000D03*
D13*
X188163500Y-142480000D03*
D12*
X193243500Y-142480000D03*
D14*
X184353500Y-139940000D03*
X190703500Y-137400000D03*
D12*
X254524000Y-123430000D03*
D13*
X259604000Y-123430000D03*
D12*
X264684000Y-123430000D03*
D14*
X255794000Y-120890000D03*
X262144000Y-118350000D03*
D12*
X311671000Y-180580000D03*
D13*
X316751000Y-180580000D03*
D12*
X321831000Y-180580000D03*
D14*
X312941000Y-178040000D03*
X319291000Y-175500000D03*
D12*
X178324000Y-123430000D03*
D13*
X183404000Y-123430000D03*
D12*
X188484000Y-123430000D03*
D14*
X179594000Y-120890000D03*
X185944000Y-118350000D03*
D12*
X78311000Y-180580000D03*
D13*
X83391000Y-180580000D03*
D12*
X88471000Y-180580000D03*
D14*
X79581000Y-178040000D03*
X85931000Y-175500000D03*
D12*
X202133500Y-142480000D03*
D13*
X207213500Y-142480000D03*
D12*
X212293500Y-142480000D03*
D14*
X203403500Y-139940000D03*
X209753500Y-137400000D03*
D16*
X248443750Y-148750000D03*
X248443750Y-145450000D03*
X138906250Y-110650000D03*
X138906250Y-107350000D03*
X257968750Y-167770000D03*
X257968750Y-164470000D03*
X253206250Y-110650000D03*
X253206250Y-107350000D03*
X96043750Y-148750000D03*
X96043750Y-145450000D03*
X67468750Y-129700000D03*
X67468750Y-126400000D03*
X267493750Y-148750000D03*
X267493750Y-145450000D03*
X191293750Y-148750000D03*
X191293750Y-145450000D03*
D17*
X350750001Y-150700000D03*
X352649999Y-150700000D03*
D16*
X210343750Y-148750000D03*
X210343750Y-145450000D03*
D18*
X218468751Y-96043750D03*
X221268749Y-96043750D03*
D19*
X199610000Y-94800000D03*
X205390000Y-94800000D03*
D20*
X199250000Y-96245000D03*
X200050000Y-96245000D03*
D21*
X201250000Y-96245000D03*
X202250000Y-96245000D03*
X202750000Y-96245000D03*
X203750000Y-96245000D03*
D20*
X204950000Y-96245000D03*
X205750000Y-96245000D03*
X205750000Y-96245000D03*
X204950000Y-96245000D03*
D21*
X204250000Y-96245000D03*
X203250000Y-96245000D03*
X201750000Y-96245000D03*
X200750000Y-96245000D03*
D20*
X200050000Y-96245000D03*
X199250000Y-96245000D03*
D22*
X198180000Y-91150000D03*
D23*
X198180000Y-95330000D03*
D22*
X206820000Y-91150000D03*
D23*
X206820000Y-95330000D03*
D24*
X339749999Y-135100000D03*
X337850001Y-135100000D03*
D16*
X215106250Y-110650000D03*
X215106250Y-107350000D03*
X229393750Y-148750000D03*
X229393750Y-145450000D03*
D25*
X200558400Y-99925500D03*
X200558400Y-101750500D03*
D16*
X153193750Y-148750000D03*
X153193750Y-145450000D03*
X181768750Y-167770000D03*
X181768750Y-164470000D03*
X162718750Y-167770000D03*
X162718750Y-164470000D03*
D26*
X343100000Y-129012500D03*
X343100000Y-127187500D03*
D27*
X341900000Y-172150000D03*
X341900000Y-175450000D03*
D16*
X238918750Y-167770000D03*
X238918750Y-164470000D03*
X119856250Y-110650000D03*
X119856250Y-107350000D03*
X277018750Y-167770000D03*
X277018750Y-164470000D03*
D25*
X339400000Y-150587500D03*
X339400000Y-152412500D03*
D16*
X74612500Y-167770000D03*
X74612500Y-164470000D03*
X291306250Y-110650000D03*
X291306250Y-107350000D03*
D28*
X355887500Y-158600000D03*
X357712500Y-158600000D03*
D16*
X234156250Y-110650000D03*
X234156250Y-107350000D03*
X262731250Y-129700000D03*
X262731250Y-126400000D03*
X338931250Y-167770000D03*
X338931250Y-164470000D03*
D27*
X255900000Y-172100000D03*
X255900000Y-175400000D03*
D16*
X186531250Y-129700000D03*
X186531250Y-126400000D03*
D26*
X341100000Y-129012500D03*
X341100000Y-127187500D03*
D16*
X317500000Y-148750000D03*
X317500000Y-145450000D03*
X62706250Y-110650000D03*
X62706250Y-107350000D03*
D27*
X279600000Y-172100000D03*
X279600000Y-175400000D03*
X303500000Y-172100000D03*
X303500000Y-175400000D03*
D29*
X346400000Y-133849999D03*
X346400000Y-131950001D03*
D16*
X143668750Y-167770000D03*
X143668750Y-164470000D03*
D27*
X363100000Y-172100000D03*
X363100000Y-175400000D03*
D16*
X357981250Y-110650000D03*
X357981250Y-107350000D03*
D30*
X356828249Y-145628249D03*
X358171751Y-146971751D03*
D16*
X200818750Y-167770000D03*
X200818750Y-164470000D03*
X91281250Y-129700000D03*
X91281250Y-126400000D03*
D31*
X341500000Y-137200000D03*
X342300000Y-137200000D03*
X343100000Y-137200000D03*
X343900000Y-137200000D03*
X344700000Y-137200000D03*
X345500000Y-137200000D03*
X346300000Y-137200000D03*
X347100000Y-137200000D03*
X347900000Y-137200000D03*
X348700000Y-137200000D03*
X349500000Y-137200000D03*
D32*
X351200000Y-138900000D03*
X351200000Y-139700000D03*
X351200000Y-140500000D03*
X351200000Y-141300000D03*
X351200000Y-142100000D03*
X351200000Y-142900000D03*
X351200000Y-143700000D03*
X351200000Y-144500000D03*
X351200000Y-145300000D03*
X351200000Y-146100000D03*
X351200000Y-146900000D03*
D31*
X349500000Y-148600000D03*
X348700000Y-148600000D03*
X347900000Y-148600000D03*
X347100000Y-148600000D03*
X346300000Y-148600000D03*
X345500000Y-148600000D03*
X344700000Y-148600000D03*
X343900000Y-148600000D03*
X343100000Y-148600000D03*
X342300000Y-148600000D03*
X341500000Y-148600000D03*
D32*
X339800000Y-146900000D03*
X339800000Y-146100000D03*
X339800000Y-145300000D03*
X339800000Y-144500000D03*
X339800000Y-143700000D03*
X339800000Y-142900000D03*
X339800000Y-142100000D03*
X339800000Y-141300000D03*
X339800000Y-140500000D03*
X339800000Y-139700000D03*
X339800000Y-138900000D03*
D24*
X336049999Y-137500000D03*
X334150001Y-137500000D03*
D16*
X286543750Y-148750000D03*
X286543750Y-145450000D03*
X167481250Y-129700000D03*
X167481250Y-126400000D03*
X281781250Y-129443750D03*
X281781250Y-126143750D03*
X148431250Y-129700000D03*
X148431250Y-126400000D03*
X129381250Y-129850000D03*
X129381250Y-126550000D03*
D27*
X184300000Y-172100000D03*
X184300000Y-175400000D03*
D33*
X356528249Y-139771751D03*
X357871751Y-138428249D03*
D16*
X324700000Y-129650000D03*
X324700000Y-126350000D03*
X69850000Y-148750000D03*
X69850000Y-145450000D03*
X124618750Y-167770000D03*
X124618750Y-164470000D03*
D27*
X325100000Y-172100000D03*
X325100000Y-175400000D03*
D34*
X201550001Y-107262500D03*
X202500000Y-107262500D03*
X203449999Y-107262500D03*
X203449999Y-109537500D03*
X202500000Y-109537500D03*
X201550001Y-109537500D03*
D27*
X91600000Y-172100000D03*
X91600000Y-175400000D03*
D16*
X243681250Y-129443750D03*
X243681250Y-126143750D03*
D35*
X358023223Y-141421142D03*
X359578858Y-142976777D03*
X358376777Y-144178858D03*
X356821142Y-142623223D03*
D16*
X172243750Y-148750000D03*
X172243750Y-145450000D03*
D36*
X351400000Y-166350001D03*
X357600000Y-166350001D03*
X351400000Y-162649999D03*
X357600000Y-162649999D03*
D16*
X177006250Y-110650000D03*
X177006250Y-107350000D03*
X219868750Y-167770000D03*
X219868750Y-164470000D03*
X196056250Y-110650000D03*
X196056250Y-107350000D03*
X100806250Y-110650000D03*
X100806250Y-107350000D03*
D17*
X354250001Y-136600000D03*
X356149999Y-136600000D03*
D25*
X205300000Y-100487500D03*
X205300000Y-102312500D03*
D16*
X272256250Y-110650000D03*
X272256250Y-107350000D03*
X300831250Y-129700000D03*
X300831250Y-126400000D03*
X115093750Y-148750000D03*
X115093750Y-145450000D03*
X110331250Y-129700000D03*
X110331250Y-126400000D03*
D27*
X70300000Y-172250000D03*
X70300000Y-175550000D03*
D16*
X357981250Y-129750000D03*
X357981250Y-126450000D03*
D24*
X336749999Y-148400000D03*
X334850001Y-148400000D03*
D16*
X205581250Y-129700000D03*
X205581250Y-126400000D03*
X134143750Y-148750000D03*
X134143750Y-145450000D03*
X81756250Y-110650000D03*
X81756250Y-107350000D03*
X319881250Y-110650000D03*
X319881250Y-107350000D03*
X307975000Y-167770000D03*
X307975000Y-164470000D03*
D27*
X113000000Y-172100000D03*
X113000000Y-175400000D03*
D16*
X224631250Y-129700000D03*
X224631250Y-126400000D03*
X157956250Y-110650000D03*
X157956250Y-107350000D03*
X105568750Y-167770000D03*
X105568750Y-164470000D03*
%LPD*%
M02*
