G04 #@! TF.GenerationSoftware,KiCad,Pcbnew,8.0.2*
G04 #@! TF.CreationDate,2025-03-10T15:51:09-05:00*
G04 #@! TF.ProjectId,65,36352e6b-6963-4616-945f-706362585858,rev?*
G04 #@! TF.SameCoordinates,Original*
G04 #@! TF.FileFunction,Legend,Top*
G04 #@! TF.FilePolarity,Positive*
%FSLAX46Y46*%
G04 Gerber Fmt 4.6, Leading zero omitted, Abs format (unit mm)*
G04 Created by KiCad (PCBNEW 8.0.2) date 2025-03-10 15:51:09*
%MOMM*%
%LPD*%
G01*
G04 APERTURE LIST*
%ADD10C,0.150000*%
%ADD11C,0.300000*%
%ADD12C,0.120000*%
%ADD13C,0.000000*%
%ADD14C,1.700000*%
%ADD15C,4.000000*%
%ADD16C,2.200000*%
%ADD17C,3.050000*%
%ADD18C,0.650000*%
%ADD19O,1.000000X1.600000*%
%ADD20O,1.000000X2.100000*%
G04 APERTURE END LIST*
D10*
X353636714Y-96960819D02*
X353636714Y-95960819D01*
X354208142Y-96960819D02*
X353779571Y-96389390D01*
X354208142Y-95960819D02*
X353636714Y-96532247D01*
X355160523Y-96960819D02*
X354589095Y-96960819D01*
X354874809Y-96960819D02*
X354874809Y-95960819D01*
X354874809Y-95960819D02*
X354779571Y-96103676D01*
X354779571Y-96103676D02*
X354684333Y-96198914D01*
X354684333Y-96198914D02*
X354589095Y-96246533D01*
X356065285Y-95960819D02*
X355589095Y-95960819D01*
X355589095Y-95960819D02*
X355541476Y-96437009D01*
X355541476Y-96437009D02*
X355589095Y-96389390D01*
X355589095Y-96389390D02*
X355684333Y-96341771D01*
X355684333Y-96341771D02*
X355922428Y-96341771D01*
X355922428Y-96341771D02*
X356017666Y-96389390D01*
X356017666Y-96389390D02*
X356065285Y-96437009D01*
X356065285Y-96437009D02*
X356112904Y-96532247D01*
X356112904Y-96532247D02*
X356112904Y-96770342D01*
X356112904Y-96770342D02*
X356065285Y-96865580D01*
X356065285Y-96865580D02*
X356017666Y-96913200D01*
X356017666Y-96913200D02*
X355922428Y-96960819D01*
X355922428Y-96960819D02*
X355684333Y-96960819D01*
X355684333Y-96960819D02*
X355589095Y-96913200D01*
X355589095Y-96913200D02*
X355541476Y-96865580D01*
X244099214Y-135060819D02*
X244099214Y-134060819D01*
X244670642Y-135060819D02*
X244242071Y-134489390D01*
X244670642Y-134060819D02*
X244099214Y-134632247D01*
X245527785Y-134394152D02*
X245527785Y-135060819D01*
X245289690Y-134013200D02*
X245051595Y-134727485D01*
X245051595Y-134727485D02*
X245670642Y-134727485D01*
X246242071Y-134060819D02*
X246337309Y-134060819D01*
X246337309Y-134060819D02*
X246432547Y-134108438D01*
X246432547Y-134108438D02*
X246480166Y-134156057D01*
X246480166Y-134156057D02*
X246527785Y-134251295D01*
X246527785Y-134251295D02*
X246575404Y-134441771D01*
X246575404Y-134441771D02*
X246575404Y-134679866D01*
X246575404Y-134679866D02*
X246527785Y-134870342D01*
X246527785Y-134870342D02*
X246480166Y-134965580D01*
X246480166Y-134965580D02*
X246432547Y-135013200D01*
X246432547Y-135013200D02*
X246337309Y-135060819D01*
X246337309Y-135060819D02*
X246242071Y-135060819D01*
X246242071Y-135060819D02*
X246146833Y-135013200D01*
X246146833Y-135013200D02*
X246099214Y-134965580D01*
X246099214Y-134965580D02*
X246051595Y-134870342D01*
X246051595Y-134870342D02*
X246003976Y-134679866D01*
X246003976Y-134679866D02*
X246003976Y-134441771D01*
X246003976Y-134441771D02*
X246051595Y-134251295D01*
X246051595Y-134251295D02*
X246099214Y-134156057D01*
X246099214Y-134156057D02*
X246146833Y-134108438D01*
X246146833Y-134108438D02*
X246242071Y-134060819D01*
X77891905Y-96960819D02*
X77891905Y-95960819D01*
X78463333Y-96960819D02*
X78034762Y-96389390D01*
X78463333Y-95960819D02*
X77891905Y-96532247D01*
X78844286Y-96056057D02*
X78891905Y-96008438D01*
X78891905Y-96008438D02*
X78987143Y-95960819D01*
X78987143Y-95960819D02*
X79225238Y-95960819D01*
X79225238Y-95960819D02*
X79320476Y-96008438D01*
X79320476Y-96008438D02*
X79368095Y-96056057D01*
X79368095Y-96056057D02*
X79415714Y-96151295D01*
X79415714Y-96151295D02*
X79415714Y-96246533D01*
X79415714Y-96246533D02*
X79368095Y-96389390D01*
X79368095Y-96389390D02*
X78796667Y-96960819D01*
X78796667Y-96960819D02*
X79415714Y-96960819D01*
D11*
X188881428Y-174438328D02*
X188881428Y-175509757D01*
X188881428Y-175509757D02*
X188809999Y-175724042D01*
X188809999Y-175724042D02*
X188667142Y-175866900D01*
X188667142Y-175866900D02*
X188452856Y-175938328D01*
X188452856Y-175938328D02*
X188309999Y-175938328D01*
X189809999Y-175938328D02*
X189667142Y-175866900D01*
X189667142Y-175866900D02*
X189595713Y-175795471D01*
X189595713Y-175795471D02*
X189524285Y-175652614D01*
X189524285Y-175652614D02*
X189524285Y-175224042D01*
X189524285Y-175224042D02*
X189595713Y-175081185D01*
X189595713Y-175081185D02*
X189667142Y-175009757D01*
X189667142Y-175009757D02*
X189809999Y-174938328D01*
X189809999Y-174938328D02*
X190024285Y-174938328D01*
X190024285Y-174938328D02*
X190167142Y-175009757D01*
X190167142Y-175009757D02*
X190238571Y-175081185D01*
X190238571Y-175081185D02*
X190309999Y-175224042D01*
X190309999Y-175224042D02*
X190309999Y-175652614D01*
X190309999Y-175652614D02*
X190238571Y-175795471D01*
X190238571Y-175795471D02*
X190167142Y-175866900D01*
X190167142Y-175866900D02*
X190024285Y-175938328D01*
X190024285Y-175938328D02*
X189809999Y-175938328D01*
X190881428Y-175866900D02*
X191024285Y-175938328D01*
X191024285Y-175938328D02*
X191309999Y-175938328D01*
X191309999Y-175938328D02*
X191452856Y-175866900D01*
X191452856Y-175866900D02*
X191524285Y-175724042D01*
X191524285Y-175724042D02*
X191524285Y-175652614D01*
X191524285Y-175652614D02*
X191452856Y-175509757D01*
X191452856Y-175509757D02*
X191309999Y-175438328D01*
X191309999Y-175438328D02*
X191095714Y-175438328D01*
X191095714Y-175438328D02*
X190952856Y-175366900D01*
X190952856Y-175366900D02*
X190881428Y-175224042D01*
X190881428Y-175224042D02*
X190881428Y-175152614D01*
X190881428Y-175152614D02*
X190952856Y-175009757D01*
X190952856Y-175009757D02*
X191095714Y-174938328D01*
X191095714Y-174938328D02*
X191309999Y-174938328D01*
X191309999Y-174938328D02*
X191452856Y-175009757D01*
X192167142Y-175938328D02*
X192167142Y-174438328D01*
X192810000Y-175938328D02*
X192810000Y-175152614D01*
X192810000Y-175152614D02*
X192738571Y-175009757D01*
X192738571Y-175009757D02*
X192595714Y-174938328D01*
X192595714Y-174938328D02*
X192381428Y-174938328D01*
X192381428Y-174938328D02*
X192238571Y-175009757D01*
X192238571Y-175009757D02*
X192167142Y-175081185D01*
X193452857Y-175509757D02*
X194167143Y-175509757D01*
X193310000Y-175938328D02*
X193810000Y-174438328D01*
X193810000Y-174438328D02*
X194310000Y-175938328D01*
X194809999Y-175938328D02*
X194809999Y-174938328D01*
X194809999Y-175081185D02*
X194881428Y-175009757D01*
X194881428Y-175009757D02*
X195024285Y-174938328D01*
X195024285Y-174938328D02*
X195238571Y-174938328D01*
X195238571Y-174938328D02*
X195381428Y-175009757D01*
X195381428Y-175009757D02*
X195452857Y-175152614D01*
X195452857Y-175152614D02*
X195452857Y-175938328D01*
X195452857Y-175152614D02*
X195524285Y-175009757D01*
X195524285Y-175009757D02*
X195667142Y-174938328D01*
X195667142Y-174938328D02*
X195881428Y-174938328D01*
X195881428Y-174938328D02*
X196024285Y-175009757D01*
X196024285Y-175009757D02*
X196095714Y-175152614D01*
X196095714Y-175152614D02*
X196095714Y-175938328D01*
X197452857Y-175938328D02*
X197452857Y-175152614D01*
X197452857Y-175152614D02*
X197381428Y-175009757D01*
X197381428Y-175009757D02*
X197238571Y-174938328D01*
X197238571Y-174938328D02*
X196952857Y-174938328D01*
X196952857Y-174938328D02*
X196809999Y-175009757D01*
X197452857Y-175866900D02*
X197309999Y-175938328D01*
X197309999Y-175938328D02*
X196952857Y-175938328D01*
X196952857Y-175938328D02*
X196809999Y-175866900D01*
X196809999Y-175866900D02*
X196738571Y-175724042D01*
X196738571Y-175724042D02*
X196738571Y-175581185D01*
X196738571Y-175581185D02*
X196809999Y-175438328D01*
X196809999Y-175438328D02*
X196952857Y-175366900D01*
X196952857Y-175366900D02*
X197309999Y-175366900D01*
X197309999Y-175366900D02*
X197452857Y-175295471D01*
X198167142Y-174938328D02*
X198167142Y-175938328D01*
X198167142Y-175081185D02*
X198238571Y-175009757D01*
X198238571Y-175009757D02*
X198381428Y-174938328D01*
X198381428Y-174938328D02*
X198595714Y-174938328D01*
X198595714Y-174938328D02*
X198738571Y-175009757D01*
X198738571Y-175009757D02*
X198810000Y-175152614D01*
X198810000Y-175152614D02*
X198810000Y-175938328D01*
X199524285Y-174938328D02*
X199524285Y-175938328D01*
X199524285Y-175081185D02*
X199595714Y-175009757D01*
X199595714Y-175009757D02*
X199738571Y-174938328D01*
X199738571Y-174938328D02*
X199952857Y-174938328D01*
X199952857Y-174938328D02*
X200095714Y-175009757D01*
X200095714Y-175009757D02*
X200167143Y-175152614D01*
X200167143Y-175152614D02*
X200167143Y-175938328D01*
D10*
X115991905Y-96960819D02*
X115991905Y-95960819D01*
X116563333Y-96960819D02*
X116134762Y-96389390D01*
X116563333Y-95960819D02*
X115991905Y-96532247D01*
X117420476Y-96294152D02*
X117420476Y-96960819D01*
X117182381Y-95913200D02*
X116944286Y-96627485D01*
X116944286Y-96627485D02*
X117563333Y-96627485D01*
X58841905Y-96960819D02*
X58841905Y-95960819D01*
X59413333Y-96960819D02*
X58984762Y-96389390D01*
X59413333Y-95960819D02*
X58841905Y-96532247D01*
X60365714Y-96960819D02*
X59794286Y-96960819D01*
X60080000Y-96960819D02*
X60080000Y-95960819D01*
X60080000Y-95960819D02*
X59984762Y-96103676D01*
X59984762Y-96103676D02*
X59889524Y-96198914D01*
X59889524Y-96198914D02*
X59794286Y-96246533D01*
X192191905Y-96960819D02*
X192191905Y-95960819D01*
X192763333Y-96960819D02*
X192334762Y-96389390D01*
X192763333Y-95960819D02*
X192191905Y-96532247D01*
X193334762Y-96389390D02*
X193239524Y-96341771D01*
X193239524Y-96341771D02*
X193191905Y-96294152D01*
X193191905Y-96294152D02*
X193144286Y-96198914D01*
X193144286Y-96198914D02*
X193144286Y-96151295D01*
X193144286Y-96151295D02*
X193191905Y-96056057D01*
X193191905Y-96056057D02*
X193239524Y-96008438D01*
X193239524Y-96008438D02*
X193334762Y-95960819D01*
X193334762Y-95960819D02*
X193525238Y-95960819D01*
X193525238Y-95960819D02*
X193620476Y-96008438D01*
X193620476Y-96008438D02*
X193668095Y-96056057D01*
X193668095Y-96056057D02*
X193715714Y-96151295D01*
X193715714Y-96151295D02*
X193715714Y-96198914D01*
X193715714Y-96198914D02*
X193668095Y-96294152D01*
X193668095Y-96294152D02*
X193620476Y-96341771D01*
X193620476Y-96341771D02*
X193525238Y-96389390D01*
X193525238Y-96389390D02*
X193334762Y-96389390D01*
X193334762Y-96389390D02*
X193239524Y-96437009D01*
X193239524Y-96437009D02*
X193191905Y-96484628D01*
X193191905Y-96484628D02*
X193144286Y-96579866D01*
X193144286Y-96579866D02*
X193144286Y-96770342D01*
X193144286Y-96770342D02*
X193191905Y-96865580D01*
X193191905Y-96865580D02*
X193239524Y-96913200D01*
X193239524Y-96913200D02*
X193334762Y-96960819D01*
X193334762Y-96960819D02*
X193525238Y-96960819D01*
X193525238Y-96960819D02*
X193620476Y-96913200D01*
X193620476Y-96913200D02*
X193668095Y-96865580D01*
X193668095Y-96865580D02*
X193715714Y-96770342D01*
X193715714Y-96770342D02*
X193715714Y-96579866D01*
X193715714Y-96579866D02*
X193668095Y-96484628D01*
X193668095Y-96484628D02*
X193620476Y-96437009D01*
X193620476Y-96437009D02*
X193525238Y-96389390D01*
X148849214Y-135060819D02*
X148849214Y-134060819D01*
X149420642Y-135060819D02*
X148992071Y-134489390D01*
X149420642Y-134060819D02*
X148849214Y-134632247D01*
X149753976Y-134060819D02*
X150373023Y-134060819D01*
X150373023Y-134060819D02*
X150039690Y-134441771D01*
X150039690Y-134441771D02*
X150182547Y-134441771D01*
X150182547Y-134441771D02*
X150277785Y-134489390D01*
X150277785Y-134489390D02*
X150325404Y-134537009D01*
X150325404Y-134537009D02*
X150373023Y-134632247D01*
X150373023Y-134632247D02*
X150373023Y-134870342D01*
X150373023Y-134870342D02*
X150325404Y-134965580D01*
X150325404Y-134965580D02*
X150277785Y-135013200D01*
X150277785Y-135013200D02*
X150182547Y-135060819D01*
X150182547Y-135060819D02*
X149896833Y-135060819D01*
X149896833Y-135060819D02*
X149801595Y-135013200D01*
X149801595Y-135013200D02*
X149753976Y-134965580D01*
X151277785Y-134060819D02*
X150801595Y-134060819D01*
X150801595Y-134060819D02*
X150753976Y-134537009D01*
X150753976Y-134537009D02*
X150801595Y-134489390D01*
X150801595Y-134489390D02*
X150896833Y-134441771D01*
X150896833Y-134441771D02*
X151134928Y-134441771D01*
X151134928Y-134441771D02*
X151230166Y-134489390D01*
X151230166Y-134489390D02*
X151277785Y-134537009D01*
X151277785Y-134537009D02*
X151325404Y-134632247D01*
X151325404Y-134632247D02*
X151325404Y-134870342D01*
X151325404Y-134870342D02*
X151277785Y-134965580D01*
X151277785Y-134965580D02*
X151230166Y-135013200D01*
X151230166Y-135013200D02*
X151134928Y-135060819D01*
X151134928Y-135060819D02*
X150896833Y-135060819D01*
X150896833Y-135060819D02*
X150801595Y-135013200D01*
X150801595Y-135013200D02*
X150753976Y-134965580D01*
X303631714Y-154110819D02*
X303631714Y-153110819D01*
X304203142Y-154110819D02*
X303774571Y-153539390D01*
X304203142Y-153110819D02*
X303631714Y-153682247D01*
X305107904Y-153110819D02*
X304631714Y-153110819D01*
X304631714Y-153110819D02*
X304584095Y-153587009D01*
X304584095Y-153587009D02*
X304631714Y-153539390D01*
X304631714Y-153539390D02*
X304726952Y-153491771D01*
X304726952Y-153491771D02*
X304965047Y-153491771D01*
X304965047Y-153491771D02*
X305060285Y-153539390D01*
X305060285Y-153539390D02*
X305107904Y-153587009D01*
X305107904Y-153587009D02*
X305155523Y-153682247D01*
X305155523Y-153682247D02*
X305155523Y-153920342D01*
X305155523Y-153920342D02*
X305107904Y-154015580D01*
X305107904Y-154015580D02*
X305060285Y-154063200D01*
X305060285Y-154063200D02*
X304965047Y-154110819D01*
X304965047Y-154110819D02*
X304726952Y-154110819D01*
X304726952Y-154110819D02*
X304631714Y-154063200D01*
X304631714Y-154063200D02*
X304584095Y-154015580D01*
X306060285Y-153110819D02*
X305584095Y-153110819D01*
X305584095Y-153110819D02*
X305536476Y-153587009D01*
X305536476Y-153587009D02*
X305584095Y-153539390D01*
X305584095Y-153539390D02*
X305679333Y-153491771D01*
X305679333Y-153491771D02*
X305917428Y-153491771D01*
X305917428Y-153491771D02*
X306012666Y-153539390D01*
X306012666Y-153539390D02*
X306060285Y-153587009D01*
X306060285Y-153587009D02*
X306107904Y-153682247D01*
X306107904Y-153682247D02*
X306107904Y-153920342D01*
X306107904Y-153920342D02*
X306060285Y-154015580D01*
X306060285Y-154015580D02*
X306012666Y-154063200D01*
X306012666Y-154063200D02*
X305917428Y-154110819D01*
X305917428Y-154110819D02*
X305679333Y-154110819D01*
X305679333Y-154110819D02*
X305584095Y-154063200D01*
X305584095Y-154063200D02*
X305536476Y-154015580D01*
X272676214Y-154110819D02*
X272676214Y-153110819D01*
X273247642Y-154110819D02*
X272819071Y-153539390D01*
X273247642Y-153110819D02*
X272676214Y-153682247D01*
X274152404Y-153110819D02*
X273676214Y-153110819D01*
X273676214Y-153110819D02*
X273628595Y-153587009D01*
X273628595Y-153587009D02*
X273676214Y-153539390D01*
X273676214Y-153539390D02*
X273771452Y-153491771D01*
X273771452Y-153491771D02*
X274009547Y-153491771D01*
X274009547Y-153491771D02*
X274104785Y-153539390D01*
X274104785Y-153539390D02*
X274152404Y-153587009D01*
X274152404Y-153587009D02*
X274200023Y-153682247D01*
X274200023Y-153682247D02*
X274200023Y-153920342D01*
X274200023Y-153920342D02*
X274152404Y-154015580D01*
X274152404Y-154015580D02*
X274104785Y-154063200D01*
X274104785Y-154063200D02*
X274009547Y-154110819D01*
X274009547Y-154110819D02*
X273771452Y-154110819D01*
X273771452Y-154110819D02*
X273676214Y-154063200D01*
X273676214Y-154063200D02*
X273628595Y-154015580D01*
X275057166Y-153444152D02*
X275057166Y-154110819D01*
X274819071Y-153063200D02*
X274580976Y-153777485D01*
X274580976Y-153777485D02*
X275200023Y-153777485D01*
X234576214Y-154110819D02*
X234576214Y-153110819D01*
X235147642Y-154110819D02*
X234719071Y-153539390D01*
X235147642Y-153110819D02*
X234576214Y-153682247D01*
X236052404Y-153110819D02*
X235576214Y-153110819D01*
X235576214Y-153110819D02*
X235528595Y-153587009D01*
X235528595Y-153587009D02*
X235576214Y-153539390D01*
X235576214Y-153539390D02*
X235671452Y-153491771D01*
X235671452Y-153491771D02*
X235909547Y-153491771D01*
X235909547Y-153491771D02*
X236004785Y-153539390D01*
X236004785Y-153539390D02*
X236052404Y-153587009D01*
X236052404Y-153587009D02*
X236100023Y-153682247D01*
X236100023Y-153682247D02*
X236100023Y-153920342D01*
X236100023Y-153920342D02*
X236052404Y-154015580D01*
X236052404Y-154015580D02*
X236004785Y-154063200D01*
X236004785Y-154063200D02*
X235909547Y-154110819D01*
X235909547Y-154110819D02*
X235671452Y-154110819D01*
X235671452Y-154110819D02*
X235576214Y-154063200D01*
X235576214Y-154063200D02*
X235528595Y-154015580D01*
X236480976Y-153206057D02*
X236528595Y-153158438D01*
X236528595Y-153158438D02*
X236623833Y-153110819D01*
X236623833Y-153110819D02*
X236861928Y-153110819D01*
X236861928Y-153110819D02*
X236957166Y-153158438D01*
X236957166Y-153158438D02*
X237004785Y-153206057D01*
X237004785Y-153206057D02*
X237052404Y-153301295D01*
X237052404Y-153301295D02*
X237052404Y-153396533D01*
X237052404Y-153396533D02*
X237004785Y-153539390D01*
X237004785Y-153539390D02*
X236433357Y-154110819D01*
X236433357Y-154110819D02*
X237052404Y-154110819D01*
X139326214Y-154110819D02*
X139326214Y-153110819D01*
X139897642Y-154110819D02*
X139469071Y-153539390D01*
X139897642Y-153110819D02*
X139326214Y-153682247D01*
X140754785Y-153444152D02*
X140754785Y-154110819D01*
X140516690Y-153063200D02*
X140278595Y-153777485D01*
X140278595Y-153777485D02*
X140897642Y-153777485D01*
X141183357Y-153110819D02*
X141850023Y-153110819D01*
X141850023Y-153110819D02*
X141421452Y-154110819D01*
X353636714Y-173160819D02*
X353636714Y-172160819D01*
X354208142Y-173160819D02*
X353779571Y-172589390D01*
X354208142Y-172160819D02*
X353636714Y-172732247D01*
X355065285Y-172160819D02*
X354874809Y-172160819D01*
X354874809Y-172160819D02*
X354779571Y-172208438D01*
X354779571Y-172208438D02*
X354731952Y-172256057D01*
X354731952Y-172256057D02*
X354636714Y-172398914D01*
X354636714Y-172398914D02*
X354589095Y-172589390D01*
X354589095Y-172589390D02*
X354589095Y-172970342D01*
X354589095Y-172970342D02*
X354636714Y-173065580D01*
X354636714Y-173065580D02*
X354684333Y-173113200D01*
X354684333Y-173113200D02*
X354779571Y-173160819D01*
X354779571Y-173160819D02*
X354970047Y-173160819D01*
X354970047Y-173160819D02*
X355065285Y-173113200D01*
X355065285Y-173113200D02*
X355112904Y-173065580D01*
X355112904Y-173065580D02*
X355160523Y-172970342D01*
X355160523Y-172970342D02*
X355160523Y-172732247D01*
X355160523Y-172732247D02*
X355112904Y-172637009D01*
X355112904Y-172637009D02*
X355065285Y-172589390D01*
X355065285Y-172589390D02*
X354970047Y-172541771D01*
X354970047Y-172541771D02*
X354779571Y-172541771D01*
X354779571Y-172541771D02*
X354684333Y-172589390D01*
X354684333Y-172589390D02*
X354636714Y-172637009D01*
X354636714Y-172637009D02*
X354589095Y-172732247D01*
X356017666Y-172160819D02*
X355827190Y-172160819D01*
X355827190Y-172160819D02*
X355731952Y-172208438D01*
X355731952Y-172208438D02*
X355684333Y-172256057D01*
X355684333Y-172256057D02*
X355589095Y-172398914D01*
X355589095Y-172398914D02*
X355541476Y-172589390D01*
X355541476Y-172589390D02*
X355541476Y-172970342D01*
X355541476Y-172970342D02*
X355589095Y-173065580D01*
X355589095Y-173065580D02*
X355636714Y-173113200D01*
X355636714Y-173113200D02*
X355731952Y-173160819D01*
X355731952Y-173160819D02*
X355922428Y-173160819D01*
X355922428Y-173160819D02*
X356017666Y-173113200D01*
X356017666Y-173113200D02*
X356065285Y-173065580D01*
X356065285Y-173065580D02*
X356112904Y-172970342D01*
X356112904Y-172970342D02*
X356112904Y-172732247D01*
X356112904Y-172732247D02*
X356065285Y-172637009D01*
X356065285Y-172637009D02*
X356017666Y-172589390D01*
X356017666Y-172589390D02*
X355922428Y-172541771D01*
X355922428Y-172541771D02*
X355731952Y-172541771D01*
X355731952Y-172541771D02*
X355636714Y-172589390D01*
X355636714Y-172589390D02*
X355589095Y-172637009D01*
X355589095Y-172637009D02*
X355541476Y-172732247D01*
X282199214Y-135060819D02*
X282199214Y-134060819D01*
X282770642Y-135060819D02*
X282342071Y-134489390D01*
X282770642Y-134060819D02*
X282199214Y-134632247D01*
X283627785Y-134394152D02*
X283627785Y-135060819D01*
X283389690Y-134013200D02*
X283151595Y-134727485D01*
X283151595Y-134727485D02*
X283770642Y-134727485D01*
X284103976Y-134156057D02*
X284151595Y-134108438D01*
X284151595Y-134108438D02*
X284246833Y-134060819D01*
X284246833Y-134060819D02*
X284484928Y-134060819D01*
X284484928Y-134060819D02*
X284580166Y-134108438D01*
X284580166Y-134108438D02*
X284627785Y-134156057D01*
X284627785Y-134156057D02*
X284675404Y-134251295D01*
X284675404Y-134251295D02*
X284675404Y-134346533D01*
X284675404Y-134346533D02*
X284627785Y-134489390D01*
X284627785Y-134489390D02*
X284056357Y-135060819D01*
X284056357Y-135060819D02*
X284675404Y-135060819D01*
X246481714Y-173160819D02*
X246481714Y-172160819D01*
X247053142Y-173160819D02*
X246624571Y-172589390D01*
X247053142Y-172160819D02*
X246481714Y-172732247D01*
X247910285Y-172160819D02*
X247719809Y-172160819D01*
X247719809Y-172160819D02*
X247624571Y-172208438D01*
X247624571Y-172208438D02*
X247576952Y-172256057D01*
X247576952Y-172256057D02*
X247481714Y-172398914D01*
X247481714Y-172398914D02*
X247434095Y-172589390D01*
X247434095Y-172589390D02*
X247434095Y-172970342D01*
X247434095Y-172970342D02*
X247481714Y-173065580D01*
X247481714Y-173065580D02*
X247529333Y-173113200D01*
X247529333Y-173113200D02*
X247624571Y-173160819D01*
X247624571Y-173160819D02*
X247815047Y-173160819D01*
X247815047Y-173160819D02*
X247910285Y-173113200D01*
X247910285Y-173113200D02*
X247957904Y-173065580D01*
X247957904Y-173065580D02*
X248005523Y-172970342D01*
X248005523Y-172970342D02*
X248005523Y-172732247D01*
X248005523Y-172732247D02*
X247957904Y-172637009D01*
X247957904Y-172637009D02*
X247910285Y-172589390D01*
X247910285Y-172589390D02*
X247815047Y-172541771D01*
X247815047Y-172541771D02*
X247624571Y-172541771D01*
X247624571Y-172541771D02*
X247529333Y-172589390D01*
X247529333Y-172589390D02*
X247481714Y-172637009D01*
X247481714Y-172637009D02*
X247434095Y-172732247D01*
X248957904Y-173160819D02*
X248386476Y-173160819D01*
X248672190Y-173160819D02*
X248672190Y-172160819D01*
X248672190Y-172160819D02*
X248576952Y-172303676D01*
X248576952Y-172303676D02*
X248481714Y-172398914D01*
X248481714Y-172398914D02*
X248386476Y-172446533D01*
X263149214Y-135060819D02*
X263149214Y-134060819D01*
X263720642Y-135060819D02*
X263292071Y-134489390D01*
X263720642Y-134060819D02*
X263149214Y-134632247D01*
X264577785Y-134394152D02*
X264577785Y-135060819D01*
X264339690Y-134013200D02*
X264101595Y-134727485D01*
X264101595Y-134727485D02*
X264720642Y-134727485D01*
X265625404Y-135060819D02*
X265053976Y-135060819D01*
X265339690Y-135060819D02*
X265339690Y-134060819D01*
X265339690Y-134060819D02*
X265244452Y-134203676D01*
X265244452Y-134203676D02*
X265149214Y-134298914D01*
X265149214Y-134298914D02*
X265053976Y-134346533D01*
X286965714Y-96960819D02*
X286965714Y-95960819D01*
X287537142Y-96960819D02*
X287108571Y-96389390D01*
X287537142Y-95960819D02*
X286965714Y-96532247D01*
X288489523Y-96960819D02*
X287918095Y-96960819D01*
X288203809Y-96960819D02*
X288203809Y-95960819D01*
X288203809Y-95960819D02*
X288108571Y-96103676D01*
X288108571Y-96103676D02*
X288013333Y-96198914D01*
X288013333Y-96198914D02*
X287918095Y-96246533D01*
X288822857Y-95960819D02*
X289441904Y-95960819D01*
X289441904Y-95960819D02*
X289108571Y-96341771D01*
X289108571Y-96341771D02*
X289251428Y-96341771D01*
X289251428Y-96341771D02*
X289346666Y-96389390D01*
X289346666Y-96389390D02*
X289394285Y-96437009D01*
X289394285Y-96437009D02*
X289441904Y-96532247D01*
X289441904Y-96532247D02*
X289441904Y-96770342D01*
X289441904Y-96770342D02*
X289394285Y-96865580D01*
X289394285Y-96865580D02*
X289346666Y-96913200D01*
X289346666Y-96913200D02*
X289251428Y-96960819D01*
X289251428Y-96960819D02*
X288965714Y-96960819D01*
X288965714Y-96960819D02*
X288870476Y-96913200D01*
X288870476Y-96913200D02*
X288822857Y-96865580D01*
X154091905Y-96960819D02*
X154091905Y-95960819D01*
X154663333Y-96960819D02*
X154234762Y-96389390D01*
X154663333Y-95960819D02*
X154091905Y-96532247D01*
X155520476Y-95960819D02*
X155330000Y-95960819D01*
X155330000Y-95960819D02*
X155234762Y-96008438D01*
X155234762Y-96008438D02*
X155187143Y-96056057D01*
X155187143Y-96056057D02*
X155091905Y-96198914D01*
X155091905Y-96198914D02*
X155044286Y-96389390D01*
X155044286Y-96389390D02*
X155044286Y-96770342D01*
X155044286Y-96770342D02*
X155091905Y-96865580D01*
X155091905Y-96865580D02*
X155139524Y-96913200D01*
X155139524Y-96913200D02*
X155234762Y-96960819D01*
X155234762Y-96960819D02*
X155425238Y-96960819D01*
X155425238Y-96960819D02*
X155520476Y-96913200D01*
X155520476Y-96913200D02*
X155568095Y-96865580D01*
X155568095Y-96865580D02*
X155615714Y-96770342D01*
X155615714Y-96770342D02*
X155615714Y-96532247D01*
X155615714Y-96532247D02*
X155568095Y-96437009D01*
X155568095Y-96437009D02*
X155520476Y-96389390D01*
X155520476Y-96389390D02*
X155425238Y-96341771D01*
X155425238Y-96341771D02*
X155234762Y-96341771D01*
X155234762Y-96341771D02*
X155139524Y-96389390D01*
X155139524Y-96389390D02*
X155091905Y-96437009D01*
X155091905Y-96437009D02*
X155044286Y-96532247D01*
X60745714Y-173160819D02*
X60745714Y-172160819D01*
X61317142Y-173160819D02*
X60888571Y-172589390D01*
X61317142Y-172160819D02*
X60745714Y-172732247D01*
X62221904Y-172160819D02*
X61745714Y-172160819D01*
X61745714Y-172160819D02*
X61698095Y-172637009D01*
X61698095Y-172637009D02*
X61745714Y-172589390D01*
X61745714Y-172589390D02*
X61840952Y-172541771D01*
X61840952Y-172541771D02*
X62079047Y-172541771D01*
X62079047Y-172541771D02*
X62174285Y-172589390D01*
X62174285Y-172589390D02*
X62221904Y-172637009D01*
X62221904Y-172637009D02*
X62269523Y-172732247D01*
X62269523Y-172732247D02*
X62269523Y-172970342D01*
X62269523Y-172970342D02*
X62221904Y-173065580D01*
X62221904Y-173065580D02*
X62174285Y-173113200D01*
X62174285Y-173113200D02*
X62079047Y-173160819D01*
X62079047Y-173160819D02*
X61840952Y-173160819D01*
X61840952Y-173160819D02*
X61745714Y-173113200D01*
X61745714Y-173113200D02*
X61698095Y-173065580D01*
X62602857Y-172160819D02*
X63269523Y-172160819D01*
X63269523Y-172160819D02*
X62840952Y-173160819D01*
X267915714Y-96960819D02*
X267915714Y-95960819D01*
X268487142Y-96960819D02*
X268058571Y-96389390D01*
X268487142Y-95960819D02*
X267915714Y-96532247D01*
X269439523Y-96960819D02*
X268868095Y-96960819D01*
X269153809Y-96960819D02*
X269153809Y-95960819D01*
X269153809Y-95960819D02*
X269058571Y-96103676D01*
X269058571Y-96103676D02*
X268963333Y-96198914D01*
X268963333Y-96198914D02*
X268868095Y-96246533D01*
X269820476Y-96056057D02*
X269868095Y-96008438D01*
X269868095Y-96008438D02*
X269963333Y-95960819D01*
X269963333Y-95960819D02*
X270201428Y-95960819D01*
X270201428Y-95960819D02*
X270296666Y-96008438D01*
X270296666Y-96008438D02*
X270344285Y-96056057D01*
X270344285Y-96056057D02*
X270391904Y-96151295D01*
X270391904Y-96151295D02*
X270391904Y-96246533D01*
X270391904Y-96246533D02*
X270344285Y-96389390D01*
X270344285Y-96389390D02*
X269772857Y-96960819D01*
X269772857Y-96960819D02*
X270391904Y-96960819D01*
X334586714Y-173160819D02*
X334586714Y-172160819D01*
X335158142Y-173160819D02*
X334729571Y-172589390D01*
X335158142Y-172160819D02*
X334586714Y-172732247D01*
X336015285Y-172160819D02*
X335824809Y-172160819D01*
X335824809Y-172160819D02*
X335729571Y-172208438D01*
X335729571Y-172208438D02*
X335681952Y-172256057D01*
X335681952Y-172256057D02*
X335586714Y-172398914D01*
X335586714Y-172398914D02*
X335539095Y-172589390D01*
X335539095Y-172589390D02*
X335539095Y-172970342D01*
X335539095Y-172970342D02*
X335586714Y-173065580D01*
X335586714Y-173065580D02*
X335634333Y-173113200D01*
X335634333Y-173113200D02*
X335729571Y-173160819D01*
X335729571Y-173160819D02*
X335920047Y-173160819D01*
X335920047Y-173160819D02*
X336015285Y-173113200D01*
X336015285Y-173113200D02*
X336062904Y-173065580D01*
X336062904Y-173065580D02*
X336110523Y-172970342D01*
X336110523Y-172970342D02*
X336110523Y-172732247D01*
X336110523Y-172732247D02*
X336062904Y-172637009D01*
X336062904Y-172637009D02*
X336015285Y-172589390D01*
X336015285Y-172589390D02*
X335920047Y-172541771D01*
X335920047Y-172541771D02*
X335729571Y-172541771D01*
X335729571Y-172541771D02*
X335634333Y-172589390D01*
X335634333Y-172589390D02*
X335586714Y-172637009D01*
X335586714Y-172637009D02*
X335539095Y-172732247D01*
X337015285Y-172160819D02*
X336539095Y-172160819D01*
X336539095Y-172160819D02*
X336491476Y-172637009D01*
X336491476Y-172637009D02*
X336539095Y-172589390D01*
X336539095Y-172589390D02*
X336634333Y-172541771D01*
X336634333Y-172541771D02*
X336872428Y-172541771D01*
X336872428Y-172541771D02*
X336967666Y-172589390D01*
X336967666Y-172589390D02*
X337015285Y-172637009D01*
X337015285Y-172637009D02*
X337062904Y-172732247D01*
X337062904Y-172732247D02*
X337062904Y-172970342D01*
X337062904Y-172970342D02*
X337015285Y-173065580D01*
X337015285Y-173065580D02*
X336967666Y-173113200D01*
X336967666Y-173113200D02*
X336872428Y-173160819D01*
X336872428Y-173160819D02*
X336634333Y-173160819D01*
X336634333Y-173160819D02*
X336539095Y-173113200D01*
X336539095Y-173113200D02*
X336491476Y-173065580D01*
X120285714Y-154110819D02*
X120285714Y-153110819D01*
X120857142Y-154110819D02*
X120428571Y-153539390D01*
X120857142Y-153110819D02*
X120285714Y-153682247D01*
X121714285Y-153444152D02*
X121714285Y-154110819D01*
X121476190Y-153063200D02*
X121238095Y-153777485D01*
X121238095Y-153777485D02*
X121857142Y-153777485D01*
X122666666Y-153110819D02*
X122476190Y-153110819D01*
X122476190Y-153110819D02*
X122380952Y-153158438D01*
X122380952Y-153158438D02*
X122333333Y-153206057D01*
X122333333Y-153206057D02*
X122238095Y-153348914D01*
X122238095Y-153348914D02*
X122190476Y-153539390D01*
X122190476Y-153539390D02*
X122190476Y-153920342D01*
X122190476Y-153920342D02*
X122238095Y-154015580D01*
X122238095Y-154015580D02*
X122285714Y-154063200D01*
X122285714Y-154063200D02*
X122380952Y-154110819D01*
X122380952Y-154110819D02*
X122571428Y-154110819D01*
X122571428Y-154110819D02*
X122666666Y-154063200D01*
X122666666Y-154063200D02*
X122714285Y-154015580D01*
X122714285Y-154015580D02*
X122761904Y-153920342D01*
X122761904Y-153920342D02*
X122761904Y-153682247D01*
X122761904Y-153682247D02*
X122714285Y-153587009D01*
X122714285Y-153587009D02*
X122666666Y-153539390D01*
X122666666Y-153539390D02*
X122571428Y-153491771D01*
X122571428Y-153491771D02*
X122380952Y-153491771D01*
X122380952Y-153491771D02*
X122285714Y-153539390D01*
X122285714Y-153539390D02*
X122238095Y-153587009D01*
X122238095Y-153587009D02*
X122190476Y-153682247D01*
X167899214Y-135060819D02*
X167899214Y-134060819D01*
X168470642Y-135060819D02*
X168042071Y-134489390D01*
X168470642Y-134060819D02*
X167899214Y-134632247D01*
X168803976Y-134060819D02*
X169423023Y-134060819D01*
X169423023Y-134060819D02*
X169089690Y-134441771D01*
X169089690Y-134441771D02*
X169232547Y-134441771D01*
X169232547Y-134441771D02*
X169327785Y-134489390D01*
X169327785Y-134489390D02*
X169375404Y-134537009D01*
X169375404Y-134537009D02*
X169423023Y-134632247D01*
X169423023Y-134632247D02*
X169423023Y-134870342D01*
X169423023Y-134870342D02*
X169375404Y-134965580D01*
X169375404Y-134965580D02*
X169327785Y-135013200D01*
X169327785Y-135013200D02*
X169232547Y-135060819D01*
X169232547Y-135060819D02*
X168946833Y-135060819D01*
X168946833Y-135060819D02*
X168851595Y-135013200D01*
X168851595Y-135013200D02*
X168803976Y-134965580D01*
X170280166Y-134060819D02*
X170089690Y-134060819D01*
X170089690Y-134060819D02*
X169994452Y-134108438D01*
X169994452Y-134108438D02*
X169946833Y-134156057D01*
X169946833Y-134156057D02*
X169851595Y-134298914D01*
X169851595Y-134298914D02*
X169803976Y-134489390D01*
X169803976Y-134489390D02*
X169803976Y-134870342D01*
X169803976Y-134870342D02*
X169851595Y-134965580D01*
X169851595Y-134965580D02*
X169899214Y-135013200D01*
X169899214Y-135013200D02*
X169994452Y-135060819D01*
X169994452Y-135060819D02*
X170184928Y-135060819D01*
X170184928Y-135060819D02*
X170280166Y-135013200D01*
X170280166Y-135013200D02*
X170327785Y-134965580D01*
X170327785Y-134965580D02*
X170375404Y-134870342D01*
X170375404Y-134870342D02*
X170375404Y-134632247D01*
X170375404Y-134632247D02*
X170327785Y-134537009D01*
X170327785Y-134537009D02*
X170280166Y-134489390D01*
X170280166Y-134489390D02*
X170184928Y-134441771D01*
X170184928Y-134441771D02*
X169994452Y-134441771D01*
X169994452Y-134441771D02*
X169899214Y-134489390D01*
X169899214Y-134489390D02*
X169851595Y-134537009D01*
X169851595Y-134537009D02*
X169803976Y-134632247D01*
X277439714Y-116010819D02*
X277439714Y-115010819D01*
X278011142Y-116010819D02*
X277582571Y-115439390D01*
X278011142Y-115010819D02*
X277439714Y-115582247D01*
X278392095Y-115106057D02*
X278439714Y-115058438D01*
X278439714Y-115058438D02*
X278534952Y-115010819D01*
X278534952Y-115010819D02*
X278773047Y-115010819D01*
X278773047Y-115010819D02*
X278868285Y-115058438D01*
X278868285Y-115058438D02*
X278915904Y-115106057D01*
X278915904Y-115106057D02*
X278963523Y-115201295D01*
X278963523Y-115201295D02*
X278963523Y-115296533D01*
X278963523Y-115296533D02*
X278915904Y-115439390D01*
X278915904Y-115439390D02*
X278344476Y-116010819D01*
X278344476Y-116010819D02*
X278963523Y-116010819D01*
X279296857Y-115010819D02*
X279963523Y-115010819D01*
X279963523Y-115010819D02*
X279534952Y-116010819D01*
X296489714Y-116010819D02*
X296489714Y-115010819D01*
X297061142Y-116010819D02*
X296632571Y-115439390D01*
X297061142Y-115010819D02*
X296489714Y-115582247D01*
X297442095Y-115106057D02*
X297489714Y-115058438D01*
X297489714Y-115058438D02*
X297584952Y-115010819D01*
X297584952Y-115010819D02*
X297823047Y-115010819D01*
X297823047Y-115010819D02*
X297918285Y-115058438D01*
X297918285Y-115058438D02*
X297965904Y-115106057D01*
X297965904Y-115106057D02*
X298013523Y-115201295D01*
X298013523Y-115201295D02*
X298013523Y-115296533D01*
X298013523Y-115296533D02*
X297965904Y-115439390D01*
X297965904Y-115439390D02*
X297394476Y-116010819D01*
X297394476Y-116010819D02*
X298013523Y-116010819D01*
X298584952Y-115439390D02*
X298489714Y-115391771D01*
X298489714Y-115391771D02*
X298442095Y-115344152D01*
X298442095Y-115344152D02*
X298394476Y-115248914D01*
X298394476Y-115248914D02*
X298394476Y-115201295D01*
X298394476Y-115201295D02*
X298442095Y-115106057D01*
X298442095Y-115106057D02*
X298489714Y-115058438D01*
X298489714Y-115058438D02*
X298584952Y-115010819D01*
X298584952Y-115010819D02*
X298775428Y-115010819D01*
X298775428Y-115010819D02*
X298870666Y-115058438D01*
X298870666Y-115058438D02*
X298918285Y-115106057D01*
X298918285Y-115106057D02*
X298965904Y-115201295D01*
X298965904Y-115201295D02*
X298965904Y-115248914D01*
X298965904Y-115248914D02*
X298918285Y-115344152D01*
X298918285Y-115344152D02*
X298870666Y-115391771D01*
X298870666Y-115391771D02*
X298775428Y-115439390D01*
X298775428Y-115439390D02*
X298584952Y-115439390D01*
X298584952Y-115439390D02*
X298489714Y-115487009D01*
X298489714Y-115487009D02*
X298442095Y-115534628D01*
X298442095Y-115534628D02*
X298394476Y-115629866D01*
X298394476Y-115629866D02*
X298394476Y-115820342D01*
X298394476Y-115820342D02*
X298442095Y-115915580D01*
X298442095Y-115915580D02*
X298489714Y-115963200D01*
X298489714Y-115963200D02*
X298584952Y-116010819D01*
X298584952Y-116010819D02*
X298775428Y-116010819D01*
X298775428Y-116010819D02*
X298870666Y-115963200D01*
X298870666Y-115963200D02*
X298918285Y-115915580D01*
X298918285Y-115915580D02*
X298965904Y-115820342D01*
X298965904Y-115820342D02*
X298965904Y-115629866D01*
X298965904Y-115629866D02*
X298918285Y-115534628D01*
X298918285Y-115534628D02*
X298870666Y-115487009D01*
X298870666Y-115487009D02*
X298775428Y-115439390D01*
X129799214Y-135060819D02*
X129799214Y-134060819D01*
X130370642Y-135060819D02*
X129942071Y-134489390D01*
X130370642Y-134060819D02*
X129799214Y-134632247D01*
X130703976Y-134060819D02*
X131323023Y-134060819D01*
X131323023Y-134060819D02*
X130989690Y-134441771D01*
X130989690Y-134441771D02*
X131132547Y-134441771D01*
X131132547Y-134441771D02*
X131227785Y-134489390D01*
X131227785Y-134489390D02*
X131275404Y-134537009D01*
X131275404Y-134537009D02*
X131323023Y-134632247D01*
X131323023Y-134632247D02*
X131323023Y-134870342D01*
X131323023Y-134870342D02*
X131275404Y-134965580D01*
X131275404Y-134965580D02*
X131227785Y-135013200D01*
X131227785Y-135013200D02*
X131132547Y-135060819D01*
X131132547Y-135060819D02*
X130846833Y-135060819D01*
X130846833Y-135060819D02*
X130751595Y-135013200D01*
X130751595Y-135013200D02*
X130703976Y-134965580D01*
X132180166Y-134394152D02*
X132180166Y-135060819D01*
X131942071Y-134013200D02*
X131703976Y-134727485D01*
X131703976Y-134727485D02*
X132323023Y-134727485D01*
X70270714Y-154110819D02*
X70270714Y-153110819D01*
X70842142Y-154110819D02*
X70413571Y-153539390D01*
X70842142Y-153110819D02*
X70270714Y-153682247D01*
X71699285Y-153444152D02*
X71699285Y-154110819D01*
X71461190Y-153063200D02*
X71223095Y-153777485D01*
X71223095Y-153777485D02*
X71842142Y-153777485D01*
X72651666Y-153444152D02*
X72651666Y-154110819D01*
X72413571Y-153063200D02*
X72175476Y-153777485D01*
X72175476Y-153777485D02*
X72794523Y-153777485D01*
X174998214Y-173160819D02*
X174998214Y-172160819D01*
X175569642Y-173160819D02*
X175141071Y-172589390D01*
X175569642Y-172160819D02*
X174998214Y-172732247D01*
X176426785Y-172160819D02*
X176236309Y-172160819D01*
X176236309Y-172160819D02*
X176141071Y-172208438D01*
X176141071Y-172208438D02*
X176093452Y-172256057D01*
X176093452Y-172256057D02*
X175998214Y-172398914D01*
X175998214Y-172398914D02*
X175950595Y-172589390D01*
X175950595Y-172589390D02*
X175950595Y-172970342D01*
X175950595Y-172970342D02*
X175998214Y-173065580D01*
X175998214Y-173065580D02*
X176045833Y-173113200D01*
X176045833Y-173113200D02*
X176141071Y-173160819D01*
X176141071Y-173160819D02*
X176331547Y-173160819D01*
X176331547Y-173160819D02*
X176426785Y-173113200D01*
X176426785Y-173113200D02*
X176474404Y-173065580D01*
X176474404Y-173065580D02*
X176522023Y-172970342D01*
X176522023Y-172970342D02*
X176522023Y-172732247D01*
X176522023Y-172732247D02*
X176474404Y-172637009D01*
X176474404Y-172637009D02*
X176426785Y-172589390D01*
X176426785Y-172589390D02*
X176331547Y-172541771D01*
X176331547Y-172541771D02*
X176141071Y-172541771D01*
X176141071Y-172541771D02*
X176045833Y-172589390D01*
X176045833Y-172589390D02*
X175998214Y-172637009D01*
X175998214Y-172637009D02*
X175950595Y-172732247D01*
X177141071Y-172160819D02*
X177236309Y-172160819D01*
X177236309Y-172160819D02*
X177331547Y-172208438D01*
X177331547Y-172208438D02*
X177379166Y-172256057D01*
X177379166Y-172256057D02*
X177426785Y-172351295D01*
X177426785Y-172351295D02*
X177474404Y-172541771D01*
X177474404Y-172541771D02*
X177474404Y-172779866D01*
X177474404Y-172779866D02*
X177426785Y-172970342D01*
X177426785Y-172970342D02*
X177379166Y-173065580D01*
X177379166Y-173065580D02*
X177331547Y-173113200D01*
X177331547Y-173113200D02*
X177236309Y-173160819D01*
X177236309Y-173160819D02*
X177141071Y-173160819D01*
X177141071Y-173160819D02*
X177045833Y-173113200D01*
X177045833Y-173113200D02*
X176998214Y-173065580D01*
X176998214Y-173065580D02*
X176950595Y-172970342D01*
X176950595Y-172970342D02*
X176902976Y-172779866D01*
X176902976Y-172779866D02*
X176902976Y-172541771D01*
X176902976Y-172541771D02*
X176950595Y-172351295D01*
X176950595Y-172351295D02*
X176998214Y-172256057D01*
X176998214Y-172256057D02*
X177045833Y-172208438D01*
X177045833Y-172208438D02*
X177141071Y-172160819D01*
X101226214Y-154110819D02*
X101226214Y-153110819D01*
X101797642Y-154110819D02*
X101369071Y-153539390D01*
X101797642Y-153110819D02*
X101226214Y-153682247D01*
X102654785Y-153444152D02*
X102654785Y-154110819D01*
X102416690Y-153063200D02*
X102178595Y-153777485D01*
X102178595Y-153777485D02*
X102797642Y-153777485D01*
X103654785Y-153110819D02*
X103178595Y-153110819D01*
X103178595Y-153110819D02*
X103130976Y-153587009D01*
X103130976Y-153587009D02*
X103178595Y-153539390D01*
X103178595Y-153539390D02*
X103273833Y-153491771D01*
X103273833Y-153491771D02*
X103511928Y-153491771D01*
X103511928Y-153491771D02*
X103607166Y-153539390D01*
X103607166Y-153539390D02*
X103654785Y-153587009D01*
X103654785Y-153587009D02*
X103702404Y-153682247D01*
X103702404Y-153682247D02*
X103702404Y-153920342D01*
X103702404Y-153920342D02*
X103654785Y-154015580D01*
X103654785Y-154015580D02*
X103607166Y-154063200D01*
X103607166Y-154063200D02*
X103511928Y-154110819D01*
X103511928Y-154110819D02*
X103273833Y-154110819D01*
X103273833Y-154110819D02*
X103178595Y-154063200D01*
X103178595Y-154063200D02*
X103130976Y-154015580D01*
X220289714Y-116010819D02*
X220289714Y-115010819D01*
X220861142Y-116010819D02*
X220432571Y-115439390D01*
X220861142Y-115010819D02*
X220289714Y-115582247D01*
X221242095Y-115106057D02*
X221289714Y-115058438D01*
X221289714Y-115058438D02*
X221384952Y-115010819D01*
X221384952Y-115010819D02*
X221623047Y-115010819D01*
X221623047Y-115010819D02*
X221718285Y-115058438D01*
X221718285Y-115058438D02*
X221765904Y-115106057D01*
X221765904Y-115106057D02*
X221813523Y-115201295D01*
X221813523Y-115201295D02*
X221813523Y-115296533D01*
X221813523Y-115296533D02*
X221765904Y-115439390D01*
X221765904Y-115439390D02*
X221194476Y-116010819D01*
X221194476Y-116010819D02*
X221813523Y-116010819D01*
X222670666Y-115344152D02*
X222670666Y-116010819D01*
X222432571Y-114963200D02*
X222194476Y-115677485D01*
X222194476Y-115677485D02*
X222813523Y-115677485D01*
X125039714Y-116010819D02*
X125039714Y-115010819D01*
X125611142Y-116010819D02*
X125182571Y-115439390D01*
X125611142Y-115010819D02*
X125039714Y-115582247D01*
X126563523Y-116010819D02*
X125992095Y-116010819D01*
X126277809Y-116010819D02*
X126277809Y-115010819D01*
X126277809Y-115010819D02*
X126182571Y-115153676D01*
X126182571Y-115153676D02*
X126087333Y-115248914D01*
X126087333Y-115248914D02*
X125992095Y-115296533D01*
X127039714Y-116010819D02*
X127230190Y-116010819D01*
X127230190Y-116010819D02*
X127325428Y-115963200D01*
X127325428Y-115963200D02*
X127373047Y-115915580D01*
X127373047Y-115915580D02*
X127468285Y-115772723D01*
X127468285Y-115772723D02*
X127515904Y-115582247D01*
X127515904Y-115582247D02*
X127515904Y-115201295D01*
X127515904Y-115201295D02*
X127468285Y-115106057D01*
X127468285Y-115106057D02*
X127420666Y-115058438D01*
X127420666Y-115058438D02*
X127325428Y-115010819D01*
X127325428Y-115010819D02*
X127134952Y-115010819D01*
X127134952Y-115010819D02*
X127039714Y-115058438D01*
X127039714Y-115058438D02*
X126992095Y-115106057D01*
X126992095Y-115106057D02*
X126944476Y-115201295D01*
X126944476Y-115201295D02*
X126944476Y-115439390D01*
X126944476Y-115439390D02*
X126992095Y-115534628D01*
X126992095Y-115534628D02*
X127039714Y-115582247D01*
X127039714Y-115582247D02*
X127134952Y-115629866D01*
X127134952Y-115629866D02*
X127325428Y-115629866D01*
X127325428Y-115629866D02*
X127420666Y-115582247D01*
X127420666Y-115582247D02*
X127468285Y-115534628D01*
X127468285Y-115534628D02*
X127515904Y-115439390D01*
X105989714Y-116010819D02*
X105989714Y-115010819D01*
X106561142Y-116010819D02*
X106132571Y-115439390D01*
X106561142Y-115010819D02*
X105989714Y-115582247D01*
X107513523Y-116010819D02*
X106942095Y-116010819D01*
X107227809Y-116010819D02*
X107227809Y-115010819D01*
X107227809Y-115010819D02*
X107132571Y-115153676D01*
X107132571Y-115153676D02*
X107037333Y-115248914D01*
X107037333Y-115248914D02*
X106942095Y-115296533D01*
X108084952Y-115439390D02*
X107989714Y-115391771D01*
X107989714Y-115391771D02*
X107942095Y-115344152D01*
X107942095Y-115344152D02*
X107894476Y-115248914D01*
X107894476Y-115248914D02*
X107894476Y-115201295D01*
X107894476Y-115201295D02*
X107942095Y-115106057D01*
X107942095Y-115106057D02*
X107989714Y-115058438D01*
X107989714Y-115058438D02*
X108084952Y-115010819D01*
X108084952Y-115010819D02*
X108275428Y-115010819D01*
X108275428Y-115010819D02*
X108370666Y-115058438D01*
X108370666Y-115058438D02*
X108418285Y-115106057D01*
X108418285Y-115106057D02*
X108465904Y-115201295D01*
X108465904Y-115201295D02*
X108465904Y-115248914D01*
X108465904Y-115248914D02*
X108418285Y-115344152D01*
X108418285Y-115344152D02*
X108370666Y-115391771D01*
X108370666Y-115391771D02*
X108275428Y-115439390D01*
X108275428Y-115439390D02*
X108084952Y-115439390D01*
X108084952Y-115439390D02*
X107989714Y-115487009D01*
X107989714Y-115487009D02*
X107942095Y-115534628D01*
X107942095Y-115534628D02*
X107894476Y-115629866D01*
X107894476Y-115629866D02*
X107894476Y-115820342D01*
X107894476Y-115820342D02*
X107942095Y-115915580D01*
X107942095Y-115915580D02*
X107989714Y-115963200D01*
X107989714Y-115963200D02*
X108084952Y-116010819D01*
X108084952Y-116010819D02*
X108275428Y-116010819D01*
X108275428Y-116010819D02*
X108370666Y-115963200D01*
X108370666Y-115963200D02*
X108418285Y-115915580D01*
X108418285Y-115915580D02*
X108465904Y-115820342D01*
X108465904Y-115820342D02*
X108465904Y-115629866D01*
X108465904Y-115629866D02*
X108418285Y-115534628D01*
X108418285Y-115534628D02*
X108370666Y-115487009D01*
X108370666Y-115487009D02*
X108275428Y-115439390D01*
X177426214Y-154110819D02*
X177426214Y-153110819D01*
X177997642Y-154110819D02*
X177569071Y-153539390D01*
X177997642Y-153110819D02*
X177426214Y-153682247D01*
X178854785Y-153444152D02*
X178854785Y-154110819D01*
X178616690Y-153063200D02*
X178378595Y-153777485D01*
X178378595Y-153777485D02*
X178997642Y-153777485D01*
X179426214Y-154110819D02*
X179616690Y-154110819D01*
X179616690Y-154110819D02*
X179711928Y-154063200D01*
X179711928Y-154063200D02*
X179759547Y-154015580D01*
X179759547Y-154015580D02*
X179854785Y-153872723D01*
X179854785Y-153872723D02*
X179902404Y-153682247D01*
X179902404Y-153682247D02*
X179902404Y-153301295D01*
X179902404Y-153301295D02*
X179854785Y-153206057D01*
X179854785Y-153206057D02*
X179807166Y-153158438D01*
X179807166Y-153158438D02*
X179711928Y-153110819D01*
X179711928Y-153110819D02*
X179521452Y-153110819D01*
X179521452Y-153110819D02*
X179426214Y-153158438D01*
X179426214Y-153158438D02*
X179378595Y-153206057D01*
X179378595Y-153206057D02*
X179330976Y-153301295D01*
X179330976Y-153301295D02*
X179330976Y-153539390D01*
X179330976Y-153539390D02*
X179378595Y-153634628D01*
X179378595Y-153634628D02*
X179426214Y-153682247D01*
X179426214Y-153682247D02*
X179521452Y-153729866D01*
X179521452Y-153729866D02*
X179711928Y-153729866D01*
X179711928Y-153729866D02*
X179807166Y-153682247D01*
X179807166Y-153682247D02*
X179854785Y-153634628D01*
X179854785Y-153634628D02*
X179902404Y-153539390D01*
X353636714Y-116010819D02*
X353636714Y-115010819D01*
X354208142Y-116010819D02*
X353779571Y-115439390D01*
X354208142Y-115010819D02*
X353636714Y-115582247D01*
X354541476Y-115010819D02*
X355160523Y-115010819D01*
X355160523Y-115010819D02*
X354827190Y-115391771D01*
X354827190Y-115391771D02*
X354970047Y-115391771D01*
X354970047Y-115391771D02*
X355065285Y-115439390D01*
X355065285Y-115439390D02*
X355112904Y-115487009D01*
X355112904Y-115487009D02*
X355160523Y-115582247D01*
X355160523Y-115582247D02*
X355160523Y-115820342D01*
X355160523Y-115820342D02*
X355112904Y-115915580D01*
X355112904Y-115915580D02*
X355065285Y-115963200D01*
X355065285Y-115963200D02*
X354970047Y-116010819D01*
X354970047Y-116010819D02*
X354684333Y-116010819D01*
X354684333Y-116010819D02*
X354589095Y-115963200D01*
X354589095Y-115963200D02*
X354541476Y-115915580D01*
X355779571Y-115010819D02*
X355874809Y-115010819D01*
X355874809Y-115010819D02*
X355970047Y-115058438D01*
X355970047Y-115058438D02*
X356017666Y-115106057D01*
X356017666Y-115106057D02*
X356065285Y-115201295D01*
X356065285Y-115201295D02*
X356112904Y-115391771D01*
X356112904Y-115391771D02*
X356112904Y-115629866D01*
X356112904Y-115629866D02*
X356065285Y-115820342D01*
X356065285Y-115820342D02*
X356017666Y-115915580D01*
X356017666Y-115915580D02*
X355970047Y-115963200D01*
X355970047Y-115963200D02*
X355874809Y-116010819D01*
X355874809Y-116010819D02*
X355779571Y-116010819D01*
X355779571Y-116010819D02*
X355684333Y-115963200D01*
X355684333Y-115963200D02*
X355636714Y-115915580D01*
X355636714Y-115915580D02*
X355589095Y-115820342D01*
X355589095Y-115820342D02*
X355541476Y-115629866D01*
X355541476Y-115629866D02*
X355541476Y-115391771D01*
X355541476Y-115391771D02*
X355589095Y-115201295D01*
X355589095Y-115201295D02*
X355636714Y-115106057D01*
X355636714Y-115106057D02*
X355684333Y-115058438D01*
X355684333Y-115058438D02*
X355779571Y-115010819D01*
X334586714Y-154110819D02*
X334586714Y-153110819D01*
X335158142Y-154110819D02*
X334729571Y-153539390D01*
X335158142Y-153110819D02*
X334586714Y-153682247D01*
X336062904Y-153110819D02*
X335586714Y-153110819D01*
X335586714Y-153110819D02*
X335539095Y-153587009D01*
X335539095Y-153587009D02*
X335586714Y-153539390D01*
X335586714Y-153539390D02*
X335681952Y-153491771D01*
X335681952Y-153491771D02*
X335920047Y-153491771D01*
X335920047Y-153491771D02*
X336015285Y-153539390D01*
X336015285Y-153539390D02*
X336062904Y-153587009D01*
X336062904Y-153587009D02*
X336110523Y-153682247D01*
X336110523Y-153682247D02*
X336110523Y-153920342D01*
X336110523Y-153920342D02*
X336062904Y-154015580D01*
X336062904Y-154015580D02*
X336015285Y-154063200D01*
X336015285Y-154063200D02*
X335920047Y-154110819D01*
X335920047Y-154110819D02*
X335681952Y-154110819D01*
X335681952Y-154110819D02*
X335586714Y-154063200D01*
X335586714Y-154063200D02*
X335539095Y-154015580D01*
X336967666Y-153110819D02*
X336777190Y-153110819D01*
X336777190Y-153110819D02*
X336681952Y-153158438D01*
X336681952Y-153158438D02*
X336634333Y-153206057D01*
X336634333Y-153206057D02*
X336539095Y-153348914D01*
X336539095Y-153348914D02*
X336491476Y-153539390D01*
X336491476Y-153539390D02*
X336491476Y-153920342D01*
X336491476Y-153920342D02*
X336539095Y-154015580D01*
X336539095Y-154015580D02*
X336586714Y-154063200D01*
X336586714Y-154063200D02*
X336681952Y-154110819D01*
X336681952Y-154110819D02*
X336872428Y-154110819D01*
X336872428Y-154110819D02*
X336967666Y-154063200D01*
X336967666Y-154063200D02*
X337015285Y-154015580D01*
X337015285Y-154015580D02*
X337062904Y-153920342D01*
X337062904Y-153920342D02*
X337062904Y-153682247D01*
X337062904Y-153682247D02*
X337015285Y-153587009D01*
X337015285Y-153587009D02*
X336967666Y-153539390D01*
X336967666Y-153539390D02*
X336872428Y-153491771D01*
X336872428Y-153491771D02*
X336681952Y-153491771D01*
X336681952Y-153491771D02*
X336586714Y-153539390D01*
X336586714Y-153539390D02*
X336539095Y-153587009D01*
X336539095Y-153587009D02*
X336491476Y-153682247D01*
X248865714Y-96960819D02*
X248865714Y-95960819D01*
X249437142Y-96960819D02*
X249008571Y-96389390D01*
X249437142Y-95960819D02*
X248865714Y-96532247D01*
X250389523Y-96960819D02*
X249818095Y-96960819D01*
X250103809Y-96960819D02*
X250103809Y-95960819D01*
X250103809Y-95960819D02*
X250008571Y-96103676D01*
X250008571Y-96103676D02*
X249913333Y-96198914D01*
X249913333Y-96198914D02*
X249818095Y-96246533D01*
X251341904Y-96960819D02*
X250770476Y-96960819D01*
X251056190Y-96960819D02*
X251056190Y-95960819D01*
X251056190Y-95960819D02*
X250960952Y-96103676D01*
X250960952Y-96103676D02*
X250865714Y-96198914D01*
X250865714Y-96198914D02*
X250770476Y-96246533D01*
X196476214Y-154110819D02*
X196476214Y-153110819D01*
X197047642Y-154110819D02*
X196619071Y-153539390D01*
X197047642Y-153110819D02*
X196476214Y-153682247D01*
X197952404Y-153110819D02*
X197476214Y-153110819D01*
X197476214Y-153110819D02*
X197428595Y-153587009D01*
X197428595Y-153587009D02*
X197476214Y-153539390D01*
X197476214Y-153539390D02*
X197571452Y-153491771D01*
X197571452Y-153491771D02*
X197809547Y-153491771D01*
X197809547Y-153491771D02*
X197904785Y-153539390D01*
X197904785Y-153539390D02*
X197952404Y-153587009D01*
X197952404Y-153587009D02*
X198000023Y-153682247D01*
X198000023Y-153682247D02*
X198000023Y-153920342D01*
X198000023Y-153920342D02*
X197952404Y-154015580D01*
X197952404Y-154015580D02*
X197904785Y-154063200D01*
X197904785Y-154063200D02*
X197809547Y-154110819D01*
X197809547Y-154110819D02*
X197571452Y-154110819D01*
X197571452Y-154110819D02*
X197476214Y-154063200D01*
X197476214Y-154063200D02*
X197428595Y-154015580D01*
X198619071Y-153110819D02*
X198714309Y-153110819D01*
X198714309Y-153110819D02*
X198809547Y-153158438D01*
X198809547Y-153158438D02*
X198857166Y-153206057D01*
X198857166Y-153206057D02*
X198904785Y-153301295D01*
X198904785Y-153301295D02*
X198952404Y-153491771D01*
X198952404Y-153491771D02*
X198952404Y-153729866D01*
X198952404Y-153729866D02*
X198904785Y-153920342D01*
X198904785Y-153920342D02*
X198857166Y-154015580D01*
X198857166Y-154015580D02*
X198809547Y-154063200D01*
X198809547Y-154063200D02*
X198714309Y-154110819D01*
X198714309Y-154110819D02*
X198619071Y-154110819D01*
X198619071Y-154110819D02*
X198523833Y-154063200D01*
X198523833Y-154063200D02*
X198476214Y-154015580D01*
X198476214Y-154015580D02*
X198428595Y-153920342D01*
X198428595Y-153920342D02*
X198380976Y-153729866D01*
X198380976Y-153729866D02*
X198380976Y-153491771D01*
X198380976Y-153491771D02*
X198428595Y-153301295D01*
X198428595Y-153301295D02*
X198476214Y-153206057D01*
X198476214Y-153206057D02*
X198523833Y-153158438D01*
X198523833Y-153158438D02*
X198619071Y-153110819D01*
X63125714Y-116010819D02*
X63125714Y-115010819D01*
X63697142Y-116010819D02*
X63268571Y-115439390D01*
X63697142Y-115010819D02*
X63125714Y-115582247D01*
X64649523Y-116010819D02*
X64078095Y-116010819D01*
X64363809Y-116010819D02*
X64363809Y-115010819D01*
X64363809Y-115010819D02*
X64268571Y-115153676D01*
X64268571Y-115153676D02*
X64173333Y-115248914D01*
X64173333Y-115248914D02*
X64078095Y-115296533D01*
X65506666Y-115010819D02*
X65316190Y-115010819D01*
X65316190Y-115010819D02*
X65220952Y-115058438D01*
X65220952Y-115058438D02*
X65173333Y-115106057D01*
X65173333Y-115106057D02*
X65078095Y-115248914D01*
X65078095Y-115248914D02*
X65030476Y-115439390D01*
X65030476Y-115439390D02*
X65030476Y-115820342D01*
X65030476Y-115820342D02*
X65078095Y-115915580D01*
X65078095Y-115915580D02*
X65125714Y-115963200D01*
X65125714Y-115963200D02*
X65220952Y-116010819D01*
X65220952Y-116010819D02*
X65411428Y-116010819D01*
X65411428Y-116010819D02*
X65506666Y-115963200D01*
X65506666Y-115963200D02*
X65554285Y-115915580D01*
X65554285Y-115915580D02*
X65601904Y-115820342D01*
X65601904Y-115820342D02*
X65601904Y-115582247D01*
X65601904Y-115582247D02*
X65554285Y-115487009D01*
X65554285Y-115487009D02*
X65506666Y-115439390D01*
X65506666Y-115439390D02*
X65411428Y-115391771D01*
X65411428Y-115391771D02*
X65220952Y-115391771D01*
X65220952Y-115391771D02*
X65125714Y-115439390D01*
X65125714Y-115439390D02*
X65078095Y-115487009D01*
X65078095Y-115487009D02*
X65030476Y-115582247D01*
X294105714Y-173160819D02*
X294105714Y-172160819D01*
X294677142Y-173160819D02*
X294248571Y-172589390D01*
X294677142Y-172160819D02*
X294105714Y-172732247D01*
X295534285Y-172160819D02*
X295343809Y-172160819D01*
X295343809Y-172160819D02*
X295248571Y-172208438D01*
X295248571Y-172208438D02*
X295200952Y-172256057D01*
X295200952Y-172256057D02*
X295105714Y-172398914D01*
X295105714Y-172398914D02*
X295058095Y-172589390D01*
X295058095Y-172589390D02*
X295058095Y-172970342D01*
X295058095Y-172970342D02*
X295105714Y-173065580D01*
X295105714Y-173065580D02*
X295153333Y-173113200D01*
X295153333Y-173113200D02*
X295248571Y-173160819D01*
X295248571Y-173160819D02*
X295439047Y-173160819D01*
X295439047Y-173160819D02*
X295534285Y-173113200D01*
X295534285Y-173113200D02*
X295581904Y-173065580D01*
X295581904Y-173065580D02*
X295629523Y-172970342D01*
X295629523Y-172970342D02*
X295629523Y-172732247D01*
X295629523Y-172732247D02*
X295581904Y-172637009D01*
X295581904Y-172637009D02*
X295534285Y-172589390D01*
X295534285Y-172589390D02*
X295439047Y-172541771D01*
X295439047Y-172541771D02*
X295248571Y-172541771D01*
X295248571Y-172541771D02*
X295153333Y-172589390D01*
X295153333Y-172589390D02*
X295105714Y-172637009D01*
X295105714Y-172637009D02*
X295058095Y-172732247D01*
X295962857Y-172160819D02*
X296581904Y-172160819D01*
X296581904Y-172160819D02*
X296248571Y-172541771D01*
X296248571Y-172541771D02*
X296391428Y-172541771D01*
X296391428Y-172541771D02*
X296486666Y-172589390D01*
X296486666Y-172589390D02*
X296534285Y-172637009D01*
X296534285Y-172637009D02*
X296581904Y-172732247D01*
X296581904Y-172732247D02*
X296581904Y-172970342D01*
X296581904Y-172970342D02*
X296534285Y-173065580D01*
X296534285Y-173065580D02*
X296486666Y-173113200D01*
X296486666Y-173113200D02*
X296391428Y-173160819D01*
X296391428Y-173160819D02*
X296105714Y-173160819D01*
X296105714Y-173160819D02*
X296010476Y-173113200D01*
X296010476Y-173113200D02*
X295962857Y-173065580D01*
X215526214Y-154110819D02*
X215526214Y-153110819D01*
X216097642Y-154110819D02*
X215669071Y-153539390D01*
X216097642Y-153110819D02*
X215526214Y-153682247D01*
X217002404Y-153110819D02*
X216526214Y-153110819D01*
X216526214Y-153110819D02*
X216478595Y-153587009D01*
X216478595Y-153587009D02*
X216526214Y-153539390D01*
X216526214Y-153539390D02*
X216621452Y-153491771D01*
X216621452Y-153491771D02*
X216859547Y-153491771D01*
X216859547Y-153491771D02*
X216954785Y-153539390D01*
X216954785Y-153539390D02*
X217002404Y-153587009D01*
X217002404Y-153587009D02*
X217050023Y-153682247D01*
X217050023Y-153682247D02*
X217050023Y-153920342D01*
X217050023Y-153920342D02*
X217002404Y-154015580D01*
X217002404Y-154015580D02*
X216954785Y-154063200D01*
X216954785Y-154063200D02*
X216859547Y-154110819D01*
X216859547Y-154110819D02*
X216621452Y-154110819D01*
X216621452Y-154110819D02*
X216526214Y-154063200D01*
X216526214Y-154063200D02*
X216478595Y-154015580D01*
X218002404Y-154110819D02*
X217430976Y-154110819D01*
X217716690Y-154110819D02*
X217716690Y-153110819D01*
X217716690Y-153110819D02*
X217621452Y-153253676D01*
X217621452Y-153253676D02*
X217526214Y-153348914D01*
X217526214Y-153348914D02*
X217430976Y-153396533D01*
X229815714Y-96960819D02*
X229815714Y-95960819D01*
X230387142Y-96960819D02*
X229958571Y-96389390D01*
X230387142Y-95960819D02*
X229815714Y-96532247D01*
X231339523Y-96960819D02*
X230768095Y-96960819D01*
X231053809Y-96960819D02*
X231053809Y-95960819D01*
X231053809Y-95960819D02*
X230958571Y-96103676D01*
X230958571Y-96103676D02*
X230863333Y-96198914D01*
X230863333Y-96198914D02*
X230768095Y-96246533D01*
X231958571Y-95960819D02*
X232053809Y-95960819D01*
X232053809Y-95960819D02*
X232149047Y-96008438D01*
X232149047Y-96008438D02*
X232196666Y-96056057D01*
X232196666Y-96056057D02*
X232244285Y-96151295D01*
X232244285Y-96151295D02*
X232291904Y-96341771D01*
X232291904Y-96341771D02*
X232291904Y-96579866D01*
X232291904Y-96579866D02*
X232244285Y-96770342D01*
X232244285Y-96770342D02*
X232196666Y-96865580D01*
X232196666Y-96865580D02*
X232149047Y-96913200D01*
X232149047Y-96913200D02*
X232053809Y-96960819D01*
X232053809Y-96960819D02*
X231958571Y-96960819D01*
X231958571Y-96960819D02*
X231863333Y-96913200D01*
X231863333Y-96913200D02*
X231815714Y-96865580D01*
X231815714Y-96865580D02*
X231768095Y-96770342D01*
X231768095Y-96770342D02*
X231720476Y-96579866D01*
X231720476Y-96579866D02*
X231720476Y-96341771D01*
X231720476Y-96341771D02*
X231768095Y-96151295D01*
X231768095Y-96151295D02*
X231815714Y-96056057D01*
X231815714Y-96056057D02*
X231863333Y-96008438D01*
X231863333Y-96008438D02*
X231958571Y-95960819D01*
X86939714Y-116010819D02*
X86939714Y-115010819D01*
X87511142Y-116010819D02*
X87082571Y-115439390D01*
X87511142Y-115010819D02*
X86939714Y-115582247D01*
X88463523Y-116010819D02*
X87892095Y-116010819D01*
X88177809Y-116010819D02*
X88177809Y-115010819D01*
X88177809Y-115010819D02*
X88082571Y-115153676D01*
X88082571Y-115153676D02*
X87987333Y-115248914D01*
X87987333Y-115248914D02*
X87892095Y-115296533D01*
X88796857Y-115010819D02*
X89463523Y-115010819D01*
X89463523Y-115010819D02*
X89034952Y-116010819D01*
X110745714Y-135060819D02*
X110745714Y-134060819D01*
X111317142Y-135060819D02*
X110888571Y-134489390D01*
X111317142Y-134060819D02*
X110745714Y-134632247D01*
X111650476Y-134060819D02*
X112269523Y-134060819D01*
X112269523Y-134060819D02*
X111936190Y-134441771D01*
X111936190Y-134441771D02*
X112079047Y-134441771D01*
X112079047Y-134441771D02*
X112174285Y-134489390D01*
X112174285Y-134489390D02*
X112221904Y-134537009D01*
X112221904Y-134537009D02*
X112269523Y-134632247D01*
X112269523Y-134632247D02*
X112269523Y-134870342D01*
X112269523Y-134870342D02*
X112221904Y-134965580D01*
X112221904Y-134965580D02*
X112174285Y-135013200D01*
X112174285Y-135013200D02*
X112079047Y-135060819D01*
X112079047Y-135060819D02*
X111793333Y-135060819D01*
X111793333Y-135060819D02*
X111698095Y-135013200D01*
X111698095Y-135013200D02*
X111650476Y-134965580D01*
X112602857Y-134060819D02*
X113221904Y-134060819D01*
X113221904Y-134060819D02*
X112888571Y-134441771D01*
X112888571Y-134441771D02*
X113031428Y-134441771D01*
X113031428Y-134441771D02*
X113126666Y-134489390D01*
X113126666Y-134489390D02*
X113174285Y-134537009D01*
X113174285Y-134537009D02*
X113221904Y-134632247D01*
X113221904Y-134632247D02*
X113221904Y-134870342D01*
X113221904Y-134870342D02*
X113174285Y-134965580D01*
X113174285Y-134965580D02*
X113126666Y-135013200D01*
X113126666Y-135013200D02*
X113031428Y-135060819D01*
X113031428Y-135060819D02*
X112745714Y-135060819D01*
X112745714Y-135060819D02*
X112650476Y-135013200D01*
X112650476Y-135013200D02*
X112602857Y-134965580D01*
X144089714Y-116010819D02*
X144089714Y-115010819D01*
X144661142Y-116010819D02*
X144232571Y-115439390D01*
X144661142Y-115010819D02*
X144089714Y-115582247D01*
X145042095Y-115106057D02*
X145089714Y-115058438D01*
X145089714Y-115058438D02*
X145184952Y-115010819D01*
X145184952Y-115010819D02*
X145423047Y-115010819D01*
X145423047Y-115010819D02*
X145518285Y-115058438D01*
X145518285Y-115058438D02*
X145565904Y-115106057D01*
X145565904Y-115106057D02*
X145613523Y-115201295D01*
X145613523Y-115201295D02*
X145613523Y-115296533D01*
X145613523Y-115296533D02*
X145565904Y-115439390D01*
X145565904Y-115439390D02*
X144994476Y-116010819D01*
X144994476Y-116010819D02*
X145613523Y-116010819D01*
X146232571Y-115010819D02*
X146327809Y-115010819D01*
X146327809Y-115010819D02*
X146423047Y-115058438D01*
X146423047Y-115058438D02*
X146470666Y-115106057D01*
X146470666Y-115106057D02*
X146518285Y-115201295D01*
X146518285Y-115201295D02*
X146565904Y-115391771D01*
X146565904Y-115391771D02*
X146565904Y-115629866D01*
X146565904Y-115629866D02*
X146518285Y-115820342D01*
X146518285Y-115820342D02*
X146470666Y-115915580D01*
X146470666Y-115915580D02*
X146423047Y-115963200D01*
X146423047Y-115963200D02*
X146327809Y-116010819D01*
X146327809Y-116010819D02*
X146232571Y-116010819D01*
X146232571Y-116010819D02*
X146137333Y-115963200D01*
X146137333Y-115963200D02*
X146089714Y-115915580D01*
X146089714Y-115915580D02*
X146042095Y-115820342D01*
X146042095Y-115820342D02*
X145994476Y-115629866D01*
X145994476Y-115629866D02*
X145994476Y-115391771D01*
X145994476Y-115391771D02*
X146042095Y-115201295D01*
X146042095Y-115201295D02*
X146089714Y-115106057D01*
X146089714Y-115106057D02*
X146137333Y-115058438D01*
X146137333Y-115058438D02*
X146232571Y-115010819D01*
X173141905Y-96960819D02*
X173141905Y-95960819D01*
X173713333Y-96960819D02*
X173284762Y-96389390D01*
X173713333Y-95960819D02*
X173141905Y-96532247D01*
X174046667Y-95960819D02*
X174713333Y-95960819D01*
X174713333Y-95960819D02*
X174284762Y-96960819D01*
X91699214Y-135060819D02*
X91699214Y-134060819D01*
X92270642Y-135060819D02*
X91842071Y-134489390D01*
X92270642Y-134060819D02*
X91699214Y-134632247D01*
X92603976Y-134060819D02*
X93223023Y-134060819D01*
X93223023Y-134060819D02*
X92889690Y-134441771D01*
X92889690Y-134441771D02*
X93032547Y-134441771D01*
X93032547Y-134441771D02*
X93127785Y-134489390D01*
X93127785Y-134489390D02*
X93175404Y-134537009D01*
X93175404Y-134537009D02*
X93223023Y-134632247D01*
X93223023Y-134632247D02*
X93223023Y-134870342D01*
X93223023Y-134870342D02*
X93175404Y-134965580D01*
X93175404Y-134965580D02*
X93127785Y-135013200D01*
X93127785Y-135013200D02*
X93032547Y-135060819D01*
X93032547Y-135060819D02*
X92746833Y-135060819D01*
X92746833Y-135060819D02*
X92651595Y-135013200D01*
X92651595Y-135013200D02*
X92603976Y-134965580D01*
X93603976Y-134156057D02*
X93651595Y-134108438D01*
X93651595Y-134108438D02*
X93746833Y-134060819D01*
X93746833Y-134060819D02*
X93984928Y-134060819D01*
X93984928Y-134060819D02*
X94080166Y-134108438D01*
X94080166Y-134108438D02*
X94127785Y-134156057D01*
X94127785Y-134156057D02*
X94175404Y-134251295D01*
X94175404Y-134251295D02*
X94175404Y-134346533D01*
X94175404Y-134346533D02*
X94127785Y-134489390D01*
X94127785Y-134489390D02*
X93556357Y-135060819D01*
X93556357Y-135060819D02*
X94175404Y-135060819D01*
X270248214Y-173160819D02*
X270248214Y-172160819D01*
X270819642Y-173160819D02*
X270391071Y-172589390D01*
X270819642Y-172160819D02*
X270248214Y-172732247D01*
X271676785Y-172160819D02*
X271486309Y-172160819D01*
X271486309Y-172160819D02*
X271391071Y-172208438D01*
X271391071Y-172208438D02*
X271343452Y-172256057D01*
X271343452Y-172256057D02*
X271248214Y-172398914D01*
X271248214Y-172398914D02*
X271200595Y-172589390D01*
X271200595Y-172589390D02*
X271200595Y-172970342D01*
X271200595Y-172970342D02*
X271248214Y-173065580D01*
X271248214Y-173065580D02*
X271295833Y-173113200D01*
X271295833Y-173113200D02*
X271391071Y-173160819D01*
X271391071Y-173160819D02*
X271581547Y-173160819D01*
X271581547Y-173160819D02*
X271676785Y-173113200D01*
X271676785Y-173113200D02*
X271724404Y-173065580D01*
X271724404Y-173065580D02*
X271772023Y-172970342D01*
X271772023Y-172970342D02*
X271772023Y-172732247D01*
X271772023Y-172732247D02*
X271724404Y-172637009D01*
X271724404Y-172637009D02*
X271676785Y-172589390D01*
X271676785Y-172589390D02*
X271581547Y-172541771D01*
X271581547Y-172541771D02*
X271391071Y-172541771D01*
X271391071Y-172541771D02*
X271295833Y-172589390D01*
X271295833Y-172589390D02*
X271248214Y-172637009D01*
X271248214Y-172637009D02*
X271200595Y-172732247D01*
X272152976Y-172256057D02*
X272200595Y-172208438D01*
X272200595Y-172208438D02*
X272295833Y-172160819D01*
X272295833Y-172160819D02*
X272533928Y-172160819D01*
X272533928Y-172160819D02*
X272629166Y-172208438D01*
X272629166Y-172208438D02*
X272676785Y-172256057D01*
X272676785Y-172256057D02*
X272724404Y-172351295D01*
X272724404Y-172351295D02*
X272724404Y-172446533D01*
X272724404Y-172446533D02*
X272676785Y-172589390D01*
X272676785Y-172589390D02*
X272105357Y-173160819D01*
X272105357Y-173160819D02*
X272724404Y-173160819D01*
X315540714Y-96960819D02*
X315540714Y-95960819D01*
X316112142Y-96960819D02*
X315683571Y-96389390D01*
X316112142Y-95960819D02*
X315540714Y-96532247D01*
X317064523Y-96960819D02*
X316493095Y-96960819D01*
X316778809Y-96960819D02*
X316778809Y-95960819D01*
X316778809Y-95960819D02*
X316683571Y-96103676D01*
X316683571Y-96103676D02*
X316588333Y-96198914D01*
X316588333Y-96198914D02*
X316493095Y-96246533D01*
X317921666Y-96294152D02*
X317921666Y-96960819D01*
X317683571Y-95913200D02*
X317445476Y-96627485D01*
X317445476Y-96627485D02*
X318064523Y-96627485D01*
X96941905Y-96960819D02*
X96941905Y-95960819D01*
X97513333Y-96960819D02*
X97084762Y-96389390D01*
X97513333Y-95960819D02*
X96941905Y-96532247D01*
X97846667Y-95960819D02*
X98465714Y-95960819D01*
X98465714Y-95960819D02*
X98132381Y-96341771D01*
X98132381Y-96341771D02*
X98275238Y-96341771D01*
X98275238Y-96341771D02*
X98370476Y-96389390D01*
X98370476Y-96389390D02*
X98418095Y-96437009D01*
X98418095Y-96437009D02*
X98465714Y-96532247D01*
X98465714Y-96532247D02*
X98465714Y-96770342D01*
X98465714Y-96770342D02*
X98418095Y-96865580D01*
X98418095Y-96865580D02*
X98370476Y-96913200D01*
X98370476Y-96913200D02*
X98275238Y-96960819D01*
X98275238Y-96960819D02*
X97989524Y-96960819D01*
X97989524Y-96960819D02*
X97894286Y-96913200D01*
X97894286Y-96913200D02*
X97846667Y-96865580D01*
X103560714Y-173160819D02*
X103560714Y-172160819D01*
X104132142Y-173160819D02*
X103703571Y-172589390D01*
X104132142Y-172160819D02*
X103560714Y-172732247D01*
X105036904Y-172160819D02*
X104560714Y-172160819D01*
X104560714Y-172160819D02*
X104513095Y-172637009D01*
X104513095Y-172637009D02*
X104560714Y-172589390D01*
X104560714Y-172589390D02*
X104655952Y-172541771D01*
X104655952Y-172541771D02*
X104894047Y-172541771D01*
X104894047Y-172541771D02*
X104989285Y-172589390D01*
X104989285Y-172589390D02*
X105036904Y-172637009D01*
X105036904Y-172637009D02*
X105084523Y-172732247D01*
X105084523Y-172732247D02*
X105084523Y-172970342D01*
X105084523Y-172970342D02*
X105036904Y-173065580D01*
X105036904Y-173065580D02*
X104989285Y-173113200D01*
X104989285Y-173113200D02*
X104894047Y-173160819D01*
X104894047Y-173160819D02*
X104655952Y-173160819D01*
X104655952Y-173160819D02*
X104560714Y-173113200D01*
X104560714Y-173113200D02*
X104513095Y-173065580D01*
X105560714Y-173160819D02*
X105751190Y-173160819D01*
X105751190Y-173160819D02*
X105846428Y-173113200D01*
X105846428Y-173113200D02*
X105894047Y-173065580D01*
X105894047Y-173065580D02*
X105989285Y-172922723D01*
X105989285Y-172922723D02*
X106036904Y-172732247D01*
X106036904Y-172732247D02*
X106036904Y-172351295D01*
X106036904Y-172351295D02*
X105989285Y-172256057D01*
X105989285Y-172256057D02*
X105941666Y-172208438D01*
X105941666Y-172208438D02*
X105846428Y-172160819D01*
X105846428Y-172160819D02*
X105655952Y-172160819D01*
X105655952Y-172160819D02*
X105560714Y-172208438D01*
X105560714Y-172208438D02*
X105513095Y-172256057D01*
X105513095Y-172256057D02*
X105465476Y-172351295D01*
X105465476Y-172351295D02*
X105465476Y-172589390D01*
X105465476Y-172589390D02*
X105513095Y-172684628D01*
X105513095Y-172684628D02*
X105560714Y-172732247D01*
X105560714Y-172732247D02*
X105655952Y-172779866D01*
X105655952Y-172779866D02*
X105846428Y-172779866D01*
X105846428Y-172779866D02*
X105941666Y-172732247D01*
X105941666Y-172732247D02*
X105989285Y-172684628D01*
X105989285Y-172684628D02*
X106036904Y-172589390D01*
X158376214Y-154110819D02*
X158376214Y-153110819D01*
X158947642Y-154110819D02*
X158519071Y-153539390D01*
X158947642Y-153110819D02*
X158376214Y-153682247D01*
X159804785Y-153444152D02*
X159804785Y-154110819D01*
X159566690Y-153063200D02*
X159328595Y-153777485D01*
X159328595Y-153777485D02*
X159947642Y-153777485D01*
X160471452Y-153539390D02*
X160376214Y-153491771D01*
X160376214Y-153491771D02*
X160328595Y-153444152D01*
X160328595Y-153444152D02*
X160280976Y-153348914D01*
X160280976Y-153348914D02*
X160280976Y-153301295D01*
X160280976Y-153301295D02*
X160328595Y-153206057D01*
X160328595Y-153206057D02*
X160376214Y-153158438D01*
X160376214Y-153158438D02*
X160471452Y-153110819D01*
X160471452Y-153110819D02*
X160661928Y-153110819D01*
X160661928Y-153110819D02*
X160757166Y-153158438D01*
X160757166Y-153158438D02*
X160804785Y-153206057D01*
X160804785Y-153206057D02*
X160852404Y-153301295D01*
X160852404Y-153301295D02*
X160852404Y-153348914D01*
X160852404Y-153348914D02*
X160804785Y-153444152D01*
X160804785Y-153444152D02*
X160757166Y-153491771D01*
X160757166Y-153491771D02*
X160661928Y-153539390D01*
X160661928Y-153539390D02*
X160471452Y-153539390D01*
X160471452Y-153539390D02*
X160376214Y-153587009D01*
X160376214Y-153587009D02*
X160328595Y-153634628D01*
X160328595Y-153634628D02*
X160280976Y-153729866D01*
X160280976Y-153729866D02*
X160280976Y-153920342D01*
X160280976Y-153920342D02*
X160328595Y-154015580D01*
X160328595Y-154015580D02*
X160376214Y-154063200D01*
X160376214Y-154063200D02*
X160471452Y-154110819D01*
X160471452Y-154110819D02*
X160661928Y-154110819D01*
X160661928Y-154110819D02*
X160757166Y-154063200D01*
X160757166Y-154063200D02*
X160804785Y-154015580D01*
X160804785Y-154015580D02*
X160852404Y-153920342D01*
X160852404Y-153920342D02*
X160852404Y-153729866D01*
X160852404Y-153729866D02*
X160804785Y-153634628D01*
X160804785Y-153634628D02*
X160757166Y-153587009D01*
X160757166Y-153587009D02*
X160661928Y-153539390D01*
X201239714Y-116010819D02*
X201239714Y-115010819D01*
X201811142Y-116010819D02*
X201382571Y-115439390D01*
X201811142Y-115010819D02*
X201239714Y-115582247D01*
X202192095Y-115106057D02*
X202239714Y-115058438D01*
X202239714Y-115058438D02*
X202334952Y-115010819D01*
X202334952Y-115010819D02*
X202573047Y-115010819D01*
X202573047Y-115010819D02*
X202668285Y-115058438D01*
X202668285Y-115058438D02*
X202715904Y-115106057D01*
X202715904Y-115106057D02*
X202763523Y-115201295D01*
X202763523Y-115201295D02*
X202763523Y-115296533D01*
X202763523Y-115296533D02*
X202715904Y-115439390D01*
X202715904Y-115439390D02*
X202144476Y-116010819D01*
X202144476Y-116010819D02*
X202763523Y-116010819D01*
X203096857Y-115010819D02*
X203715904Y-115010819D01*
X203715904Y-115010819D02*
X203382571Y-115391771D01*
X203382571Y-115391771D02*
X203525428Y-115391771D01*
X203525428Y-115391771D02*
X203620666Y-115439390D01*
X203620666Y-115439390D02*
X203668285Y-115487009D01*
X203668285Y-115487009D02*
X203715904Y-115582247D01*
X203715904Y-115582247D02*
X203715904Y-115820342D01*
X203715904Y-115820342D02*
X203668285Y-115915580D01*
X203668285Y-115915580D02*
X203620666Y-115963200D01*
X203620666Y-115963200D02*
X203525428Y-116010819D01*
X203525428Y-116010819D02*
X203239714Y-116010819D01*
X203239714Y-116010819D02*
X203144476Y-115963200D01*
X203144476Y-115963200D02*
X203096857Y-115915580D01*
X239339714Y-116010819D02*
X239339714Y-115010819D01*
X239911142Y-116010819D02*
X239482571Y-115439390D01*
X239911142Y-115010819D02*
X239339714Y-115582247D01*
X240292095Y-115106057D02*
X240339714Y-115058438D01*
X240339714Y-115058438D02*
X240434952Y-115010819D01*
X240434952Y-115010819D02*
X240673047Y-115010819D01*
X240673047Y-115010819D02*
X240768285Y-115058438D01*
X240768285Y-115058438D02*
X240815904Y-115106057D01*
X240815904Y-115106057D02*
X240863523Y-115201295D01*
X240863523Y-115201295D02*
X240863523Y-115296533D01*
X240863523Y-115296533D02*
X240815904Y-115439390D01*
X240815904Y-115439390D02*
X240244476Y-116010819D01*
X240244476Y-116010819D02*
X240863523Y-116010819D01*
X241768285Y-115010819D02*
X241292095Y-115010819D01*
X241292095Y-115010819D02*
X241244476Y-115487009D01*
X241244476Y-115487009D02*
X241292095Y-115439390D01*
X241292095Y-115439390D02*
X241387333Y-115391771D01*
X241387333Y-115391771D02*
X241625428Y-115391771D01*
X241625428Y-115391771D02*
X241720666Y-115439390D01*
X241720666Y-115439390D02*
X241768285Y-115487009D01*
X241768285Y-115487009D02*
X241815904Y-115582247D01*
X241815904Y-115582247D02*
X241815904Y-115820342D01*
X241815904Y-115820342D02*
X241768285Y-115915580D01*
X241768285Y-115915580D02*
X241720666Y-115963200D01*
X241720666Y-115963200D02*
X241625428Y-116010819D01*
X241625428Y-116010819D02*
X241387333Y-116010819D01*
X241387333Y-116010819D02*
X241292095Y-115963200D01*
X241292095Y-115963200D02*
X241244476Y-115915580D01*
X253626214Y-154110819D02*
X253626214Y-153110819D01*
X254197642Y-154110819D02*
X253769071Y-153539390D01*
X254197642Y-153110819D02*
X253626214Y-153682247D01*
X255102404Y-153110819D02*
X254626214Y-153110819D01*
X254626214Y-153110819D02*
X254578595Y-153587009D01*
X254578595Y-153587009D02*
X254626214Y-153539390D01*
X254626214Y-153539390D02*
X254721452Y-153491771D01*
X254721452Y-153491771D02*
X254959547Y-153491771D01*
X254959547Y-153491771D02*
X255054785Y-153539390D01*
X255054785Y-153539390D02*
X255102404Y-153587009D01*
X255102404Y-153587009D02*
X255150023Y-153682247D01*
X255150023Y-153682247D02*
X255150023Y-153920342D01*
X255150023Y-153920342D02*
X255102404Y-154015580D01*
X255102404Y-154015580D02*
X255054785Y-154063200D01*
X255054785Y-154063200D02*
X254959547Y-154110819D01*
X254959547Y-154110819D02*
X254721452Y-154110819D01*
X254721452Y-154110819D02*
X254626214Y-154063200D01*
X254626214Y-154063200D02*
X254578595Y-154015580D01*
X255483357Y-153110819D02*
X256102404Y-153110819D01*
X256102404Y-153110819D02*
X255769071Y-153491771D01*
X255769071Y-153491771D02*
X255911928Y-153491771D01*
X255911928Y-153491771D02*
X256007166Y-153539390D01*
X256007166Y-153539390D02*
X256054785Y-153587009D01*
X256054785Y-153587009D02*
X256102404Y-153682247D01*
X256102404Y-153682247D02*
X256102404Y-153920342D01*
X256102404Y-153920342D02*
X256054785Y-154015580D01*
X256054785Y-154015580D02*
X256007166Y-154063200D01*
X256007166Y-154063200D02*
X255911928Y-154110819D01*
X255911928Y-154110819D02*
X255626214Y-154110819D01*
X255626214Y-154110819D02*
X255530976Y-154063200D01*
X255530976Y-154063200D02*
X255483357Y-154015580D01*
X313154714Y-135060819D02*
X313154714Y-134060819D01*
X313726142Y-135060819D02*
X313297571Y-134489390D01*
X313726142Y-134060819D02*
X313154714Y-134632247D01*
X314583285Y-134394152D02*
X314583285Y-135060819D01*
X314345190Y-134013200D02*
X314107095Y-134727485D01*
X314107095Y-134727485D02*
X314726142Y-134727485D01*
X315011857Y-134060819D02*
X315630904Y-134060819D01*
X315630904Y-134060819D02*
X315297571Y-134441771D01*
X315297571Y-134441771D02*
X315440428Y-134441771D01*
X315440428Y-134441771D02*
X315535666Y-134489390D01*
X315535666Y-134489390D02*
X315583285Y-134537009D01*
X315583285Y-134537009D02*
X315630904Y-134632247D01*
X315630904Y-134632247D02*
X315630904Y-134870342D01*
X315630904Y-134870342D02*
X315583285Y-134965580D01*
X315583285Y-134965580D02*
X315535666Y-135013200D01*
X315535666Y-135013200D02*
X315440428Y-135060819D01*
X315440428Y-135060819D02*
X315154714Y-135060819D01*
X315154714Y-135060819D02*
X315059476Y-135013200D01*
X315059476Y-135013200D02*
X315011857Y-134965580D01*
X65505714Y-135060819D02*
X65505714Y-134060819D01*
X66077142Y-135060819D02*
X65648571Y-134489390D01*
X66077142Y-134060819D02*
X65505714Y-134632247D01*
X66410476Y-134060819D02*
X67029523Y-134060819D01*
X67029523Y-134060819D02*
X66696190Y-134441771D01*
X66696190Y-134441771D02*
X66839047Y-134441771D01*
X66839047Y-134441771D02*
X66934285Y-134489390D01*
X66934285Y-134489390D02*
X66981904Y-134537009D01*
X66981904Y-134537009D02*
X67029523Y-134632247D01*
X67029523Y-134632247D02*
X67029523Y-134870342D01*
X67029523Y-134870342D02*
X66981904Y-134965580D01*
X66981904Y-134965580D02*
X66934285Y-135013200D01*
X66934285Y-135013200D02*
X66839047Y-135060819D01*
X66839047Y-135060819D02*
X66553333Y-135060819D01*
X66553333Y-135060819D02*
X66458095Y-135013200D01*
X66458095Y-135013200D02*
X66410476Y-134965580D01*
X67981904Y-135060819D02*
X67410476Y-135060819D01*
X67696190Y-135060819D02*
X67696190Y-134060819D01*
X67696190Y-134060819D02*
X67600952Y-134203676D01*
X67600952Y-134203676D02*
X67505714Y-134298914D01*
X67505714Y-134298914D02*
X67410476Y-134346533D01*
X211241905Y-96960819D02*
X211241905Y-95960819D01*
X211813333Y-96960819D02*
X211384762Y-96389390D01*
X211813333Y-95960819D02*
X211241905Y-96532247D01*
X212289524Y-96960819D02*
X212480000Y-96960819D01*
X212480000Y-96960819D02*
X212575238Y-96913200D01*
X212575238Y-96913200D02*
X212622857Y-96865580D01*
X212622857Y-96865580D02*
X212718095Y-96722723D01*
X212718095Y-96722723D02*
X212765714Y-96532247D01*
X212765714Y-96532247D02*
X212765714Y-96151295D01*
X212765714Y-96151295D02*
X212718095Y-96056057D01*
X212718095Y-96056057D02*
X212670476Y-96008438D01*
X212670476Y-96008438D02*
X212575238Y-95960819D01*
X212575238Y-95960819D02*
X212384762Y-95960819D01*
X212384762Y-95960819D02*
X212289524Y-96008438D01*
X212289524Y-96008438D02*
X212241905Y-96056057D01*
X212241905Y-96056057D02*
X212194286Y-96151295D01*
X212194286Y-96151295D02*
X212194286Y-96389390D01*
X212194286Y-96389390D02*
X212241905Y-96484628D01*
X212241905Y-96484628D02*
X212289524Y-96532247D01*
X212289524Y-96532247D02*
X212384762Y-96579866D01*
X212384762Y-96579866D02*
X212575238Y-96579866D01*
X212575238Y-96579866D02*
X212670476Y-96532247D01*
X212670476Y-96532247D02*
X212718095Y-96484628D01*
X212718095Y-96484628D02*
X212765714Y-96389390D01*
X320283714Y-116010819D02*
X320283714Y-115010819D01*
X320855142Y-116010819D02*
X320426571Y-115439390D01*
X320855142Y-115010819D02*
X320283714Y-115582247D01*
X321236095Y-115106057D02*
X321283714Y-115058438D01*
X321283714Y-115058438D02*
X321378952Y-115010819D01*
X321378952Y-115010819D02*
X321617047Y-115010819D01*
X321617047Y-115010819D02*
X321712285Y-115058438D01*
X321712285Y-115058438D02*
X321759904Y-115106057D01*
X321759904Y-115106057D02*
X321807523Y-115201295D01*
X321807523Y-115201295D02*
X321807523Y-115296533D01*
X321807523Y-115296533D02*
X321759904Y-115439390D01*
X321759904Y-115439390D02*
X321188476Y-116010819D01*
X321188476Y-116010819D02*
X321807523Y-116010819D01*
X322283714Y-116010819D02*
X322474190Y-116010819D01*
X322474190Y-116010819D02*
X322569428Y-115963200D01*
X322569428Y-115963200D02*
X322617047Y-115915580D01*
X322617047Y-115915580D02*
X322712285Y-115772723D01*
X322712285Y-115772723D02*
X322759904Y-115582247D01*
X322759904Y-115582247D02*
X322759904Y-115201295D01*
X322759904Y-115201295D02*
X322712285Y-115106057D01*
X322712285Y-115106057D02*
X322664666Y-115058438D01*
X322664666Y-115058438D02*
X322569428Y-115010819D01*
X322569428Y-115010819D02*
X322378952Y-115010819D01*
X322378952Y-115010819D02*
X322283714Y-115058438D01*
X322283714Y-115058438D02*
X322236095Y-115106057D01*
X322236095Y-115106057D02*
X322188476Y-115201295D01*
X322188476Y-115201295D02*
X322188476Y-115439390D01*
X322188476Y-115439390D02*
X322236095Y-115534628D01*
X322236095Y-115534628D02*
X322283714Y-115582247D01*
X322283714Y-115582247D02*
X322378952Y-115629866D01*
X322378952Y-115629866D02*
X322569428Y-115629866D01*
X322569428Y-115629866D02*
X322664666Y-115582247D01*
X322664666Y-115582247D02*
X322712285Y-115534628D01*
X322712285Y-115534628D02*
X322759904Y-115439390D01*
X225049214Y-135060819D02*
X225049214Y-134060819D01*
X225620642Y-135060819D02*
X225192071Y-134489390D01*
X225620642Y-134060819D02*
X225049214Y-134632247D01*
X225953976Y-134060819D02*
X226573023Y-134060819D01*
X226573023Y-134060819D02*
X226239690Y-134441771D01*
X226239690Y-134441771D02*
X226382547Y-134441771D01*
X226382547Y-134441771D02*
X226477785Y-134489390D01*
X226477785Y-134489390D02*
X226525404Y-134537009D01*
X226525404Y-134537009D02*
X226573023Y-134632247D01*
X226573023Y-134632247D02*
X226573023Y-134870342D01*
X226573023Y-134870342D02*
X226525404Y-134965580D01*
X226525404Y-134965580D02*
X226477785Y-135013200D01*
X226477785Y-135013200D02*
X226382547Y-135060819D01*
X226382547Y-135060819D02*
X226096833Y-135060819D01*
X226096833Y-135060819D02*
X226001595Y-135013200D01*
X226001595Y-135013200D02*
X225953976Y-134965580D01*
X227049214Y-135060819D02*
X227239690Y-135060819D01*
X227239690Y-135060819D02*
X227334928Y-135013200D01*
X227334928Y-135013200D02*
X227382547Y-134965580D01*
X227382547Y-134965580D02*
X227477785Y-134822723D01*
X227477785Y-134822723D02*
X227525404Y-134632247D01*
X227525404Y-134632247D02*
X227525404Y-134251295D01*
X227525404Y-134251295D02*
X227477785Y-134156057D01*
X227477785Y-134156057D02*
X227430166Y-134108438D01*
X227430166Y-134108438D02*
X227334928Y-134060819D01*
X227334928Y-134060819D02*
X227144452Y-134060819D01*
X227144452Y-134060819D02*
X227049214Y-134108438D01*
X227049214Y-134108438D02*
X227001595Y-134156057D01*
X227001595Y-134156057D02*
X226953976Y-134251295D01*
X226953976Y-134251295D02*
X226953976Y-134489390D01*
X226953976Y-134489390D02*
X227001595Y-134584628D01*
X227001595Y-134584628D02*
X227049214Y-134632247D01*
X227049214Y-134632247D02*
X227144452Y-134679866D01*
X227144452Y-134679866D02*
X227334928Y-134679866D01*
X227334928Y-134679866D02*
X227430166Y-134632247D01*
X227430166Y-134632247D02*
X227477785Y-134584628D01*
X227477785Y-134584628D02*
X227525404Y-134489390D01*
X135041905Y-96960819D02*
X135041905Y-95960819D01*
X135613333Y-96960819D02*
X135184762Y-96389390D01*
X135613333Y-95960819D02*
X135041905Y-96532247D01*
X136518095Y-95960819D02*
X136041905Y-95960819D01*
X136041905Y-95960819D02*
X135994286Y-96437009D01*
X135994286Y-96437009D02*
X136041905Y-96389390D01*
X136041905Y-96389390D02*
X136137143Y-96341771D01*
X136137143Y-96341771D02*
X136375238Y-96341771D01*
X136375238Y-96341771D02*
X136470476Y-96389390D01*
X136470476Y-96389390D02*
X136518095Y-96437009D01*
X136518095Y-96437009D02*
X136565714Y-96532247D01*
X136565714Y-96532247D02*
X136565714Y-96770342D01*
X136565714Y-96770342D02*
X136518095Y-96865580D01*
X136518095Y-96865580D02*
X136470476Y-96913200D01*
X136470476Y-96913200D02*
X136375238Y-96960819D01*
X136375238Y-96960819D02*
X136137143Y-96960819D01*
X136137143Y-96960819D02*
X136041905Y-96913200D01*
X136041905Y-96913200D02*
X135994286Y-96865580D01*
X163139714Y-116010819D02*
X163139714Y-115010819D01*
X163711142Y-116010819D02*
X163282571Y-115439390D01*
X163711142Y-115010819D02*
X163139714Y-115582247D01*
X164092095Y-115106057D02*
X164139714Y-115058438D01*
X164139714Y-115058438D02*
X164234952Y-115010819D01*
X164234952Y-115010819D02*
X164473047Y-115010819D01*
X164473047Y-115010819D02*
X164568285Y-115058438D01*
X164568285Y-115058438D02*
X164615904Y-115106057D01*
X164615904Y-115106057D02*
X164663523Y-115201295D01*
X164663523Y-115201295D02*
X164663523Y-115296533D01*
X164663523Y-115296533D02*
X164615904Y-115439390D01*
X164615904Y-115439390D02*
X164044476Y-116010819D01*
X164044476Y-116010819D02*
X164663523Y-116010819D01*
X165615904Y-116010819D02*
X165044476Y-116010819D01*
X165330190Y-116010819D02*
X165330190Y-115010819D01*
X165330190Y-115010819D02*
X165234952Y-115153676D01*
X165234952Y-115153676D02*
X165139714Y-115248914D01*
X165139714Y-115248914D02*
X165044476Y-115296533D01*
X186949214Y-135060819D02*
X186949214Y-134060819D01*
X187520642Y-135060819D02*
X187092071Y-134489390D01*
X187520642Y-134060819D02*
X186949214Y-134632247D01*
X187853976Y-134060819D02*
X188473023Y-134060819D01*
X188473023Y-134060819D02*
X188139690Y-134441771D01*
X188139690Y-134441771D02*
X188282547Y-134441771D01*
X188282547Y-134441771D02*
X188377785Y-134489390D01*
X188377785Y-134489390D02*
X188425404Y-134537009D01*
X188425404Y-134537009D02*
X188473023Y-134632247D01*
X188473023Y-134632247D02*
X188473023Y-134870342D01*
X188473023Y-134870342D02*
X188425404Y-134965580D01*
X188425404Y-134965580D02*
X188377785Y-135013200D01*
X188377785Y-135013200D02*
X188282547Y-135060819D01*
X188282547Y-135060819D02*
X187996833Y-135060819D01*
X187996833Y-135060819D02*
X187901595Y-135013200D01*
X187901595Y-135013200D02*
X187853976Y-134965580D01*
X188806357Y-134060819D02*
X189473023Y-134060819D01*
X189473023Y-134060819D02*
X189044452Y-135060819D01*
X258389714Y-116010819D02*
X258389714Y-115010819D01*
X258961142Y-116010819D02*
X258532571Y-115439390D01*
X258961142Y-115010819D02*
X258389714Y-115582247D01*
X259342095Y-115106057D02*
X259389714Y-115058438D01*
X259389714Y-115058438D02*
X259484952Y-115010819D01*
X259484952Y-115010819D02*
X259723047Y-115010819D01*
X259723047Y-115010819D02*
X259818285Y-115058438D01*
X259818285Y-115058438D02*
X259865904Y-115106057D01*
X259865904Y-115106057D02*
X259913523Y-115201295D01*
X259913523Y-115201295D02*
X259913523Y-115296533D01*
X259913523Y-115296533D02*
X259865904Y-115439390D01*
X259865904Y-115439390D02*
X259294476Y-116010819D01*
X259294476Y-116010819D02*
X259913523Y-116010819D01*
X260770666Y-115010819D02*
X260580190Y-115010819D01*
X260580190Y-115010819D02*
X260484952Y-115058438D01*
X260484952Y-115058438D02*
X260437333Y-115106057D01*
X260437333Y-115106057D02*
X260342095Y-115248914D01*
X260342095Y-115248914D02*
X260294476Y-115439390D01*
X260294476Y-115439390D02*
X260294476Y-115820342D01*
X260294476Y-115820342D02*
X260342095Y-115915580D01*
X260342095Y-115915580D02*
X260389714Y-115963200D01*
X260389714Y-115963200D02*
X260484952Y-116010819D01*
X260484952Y-116010819D02*
X260675428Y-116010819D01*
X260675428Y-116010819D02*
X260770666Y-115963200D01*
X260770666Y-115963200D02*
X260818285Y-115915580D01*
X260818285Y-115915580D02*
X260865904Y-115820342D01*
X260865904Y-115820342D02*
X260865904Y-115582247D01*
X260865904Y-115582247D02*
X260818285Y-115487009D01*
X260818285Y-115487009D02*
X260770666Y-115439390D01*
X260770666Y-115439390D02*
X260675428Y-115391771D01*
X260675428Y-115391771D02*
X260484952Y-115391771D01*
X260484952Y-115391771D02*
X260389714Y-115439390D01*
X260389714Y-115439390D02*
X260342095Y-115487009D01*
X260342095Y-115487009D02*
X260294476Y-115582247D01*
X315536714Y-173160819D02*
X315536714Y-172160819D01*
X316108142Y-173160819D02*
X315679571Y-172589390D01*
X316108142Y-172160819D02*
X315536714Y-172732247D01*
X316965285Y-172160819D02*
X316774809Y-172160819D01*
X316774809Y-172160819D02*
X316679571Y-172208438D01*
X316679571Y-172208438D02*
X316631952Y-172256057D01*
X316631952Y-172256057D02*
X316536714Y-172398914D01*
X316536714Y-172398914D02*
X316489095Y-172589390D01*
X316489095Y-172589390D02*
X316489095Y-172970342D01*
X316489095Y-172970342D02*
X316536714Y-173065580D01*
X316536714Y-173065580D02*
X316584333Y-173113200D01*
X316584333Y-173113200D02*
X316679571Y-173160819D01*
X316679571Y-173160819D02*
X316870047Y-173160819D01*
X316870047Y-173160819D02*
X316965285Y-173113200D01*
X316965285Y-173113200D02*
X317012904Y-173065580D01*
X317012904Y-173065580D02*
X317060523Y-172970342D01*
X317060523Y-172970342D02*
X317060523Y-172732247D01*
X317060523Y-172732247D02*
X317012904Y-172637009D01*
X317012904Y-172637009D02*
X316965285Y-172589390D01*
X316965285Y-172589390D02*
X316870047Y-172541771D01*
X316870047Y-172541771D02*
X316679571Y-172541771D01*
X316679571Y-172541771D02*
X316584333Y-172589390D01*
X316584333Y-172589390D02*
X316536714Y-172637009D01*
X316536714Y-172637009D02*
X316489095Y-172732247D01*
X317917666Y-172494152D02*
X317917666Y-173160819D01*
X317679571Y-172113200D02*
X317441476Y-172827485D01*
X317441476Y-172827485D02*
X318060523Y-172827485D01*
X182189714Y-116010819D02*
X182189714Y-115010819D01*
X182761142Y-116010819D02*
X182332571Y-115439390D01*
X182761142Y-115010819D02*
X182189714Y-115582247D01*
X183142095Y-115106057D02*
X183189714Y-115058438D01*
X183189714Y-115058438D02*
X183284952Y-115010819D01*
X183284952Y-115010819D02*
X183523047Y-115010819D01*
X183523047Y-115010819D02*
X183618285Y-115058438D01*
X183618285Y-115058438D02*
X183665904Y-115106057D01*
X183665904Y-115106057D02*
X183713523Y-115201295D01*
X183713523Y-115201295D02*
X183713523Y-115296533D01*
X183713523Y-115296533D02*
X183665904Y-115439390D01*
X183665904Y-115439390D02*
X183094476Y-116010819D01*
X183094476Y-116010819D02*
X183713523Y-116010819D01*
X184094476Y-115106057D02*
X184142095Y-115058438D01*
X184142095Y-115058438D02*
X184237333Y-115010819D01*
X184237333Y-115010819D02*
X184475428Y-115010819D01*
X184475428Y-115010819D02*
X184570666Y-115058438D01*
X184570666Y-115058438D02*
X184618285Y-115106057D01*
X184618285Y-115106057D02*
X184665904Y-115201295D01*
X184665904Y-115201295D02*
X184665904Y-115296533D01*
X184665904Y-115296533D02*
X184618285Y-115439390D01*
X184618285Y-115439390D02*
X184046857Y-116010819D01*
X184046857Y-116010819D02*
X184665904Y-116010819D01*
X82176714Y-173160819D02*
X82176714Y-172160819D01*
X82748142Y-173160819D02*
X82319571Y-172589390D01*
X82748142Y-172160819D02*
X82176714Y-172732247D01*
X83652904Y-172160819D02*
X83176714Y-172160819D01*
X83176714Y-172160819D02*
X83129095Y-172637009D01*
X83129095Y-172637009D02*
X83176714Y-172589390D01*
X83176714Y-172589390D02*
X83271952Y-172541771D01*
X83271952Y-172541771D02*
X83510047Y-172541771D01*
X83510047Y-172541771D02*
X83605285Y-172589390D01*
X83605285Y-172589390D02*
X83652904Y-172637009D01*
X83652904Y-172637009D02*
X83700523Y-172732247D01*
X83700523Y-172732247D02*
X83700523Y-172970342D01*
X83700523Y-172970342D02*
X83652904Y-173065580D01*
X83652904Y-173065580D02*
X83605285Y-173113200D01*
X83605285Y-173113200D02*
X83510047Y-173160819D01*
X83510047Y-173160819D02*
X83271952Y-173160819D01*
X83271952Y-173160819D02*
X83176714Y-173113200D01*
X83176714Y-173113200D02*
X83129095Y-173065580D01*
X84271952Y-172589390D02*
X84176714Y-172541771D01*
X84176714Y-172541771D02*
X84129095Y-172494152D01*
X84129095Y-172494152D02*
X84081476Y-172398914D01*
X84081476Y-172398914D02*
X84081476Y-172351295D01*
X84081476Y-172351295D02*
X84129095Y-172256057D01*
X84129095Y-172256057D02*
X84176714Y-172208438D01*
X84176714Y-172208438D02*
X84271952Y-172160819D01*
X84271952Y-172160819D02*
X84462428Y-172160819D01*
X84462428Y-172160819D02*
X84557666Y-172208438D01*
X84557666Y-172208438D02*
X84605285Y-172256057D01*
X84605285Y-172256057D02*
X84652904Y-172351295D01*
X84652904Y-172351295D02*
X84652904Y-172398914D01*
X84652904Y-172398914D02*
X84605285Y-172494152D01*
X84605285Y-172494152D02*
X84557666Y-172541771D01*
X84557666Y-172541771D02*
X84462428Y-172589390D01*
X84462428Y-172589390D02*
X84271952Y-172589390D01*
X84271952Y-172589390D02*
X84176714Y-172637009D01*
X84176714Y-172637009D02*
X84129095Y-172684628D01*
X84129095Y-172684628D02*
X84081476Y-172779866D01*
X84081476Y-172779866D02*
X84081476Y-172970342D01*
X84081476Y-172970342D02*
X84129095Y-173065580D01*
X84129095Y-173065580D02*
X84176714Y-173113200D01*
X84176714Y-173113200D02*
X84271952Y-173160819D01*
X84271952Y-173160819D02*
X84462428Y-173160819D01*
X84462428Y-173160819D02*
X84557666Y-173113200D01*
X84557666Y-173113200D02*
X84605285Y-173065580D01*
X84605285Y-173065580D02*
X84652904Y-172970342D01*
X84652904Y-172970342D02*
X84652904Y-172779866D01*
X84652904Y-172779866D02*
X84605285Y-172684628D01*
X84605285Y-172684628D02*
X84557666Y-172637009D01*
X84557666Y-172637009D02*
X84462428Y-172589390D01*
X205999214Y-135060819D02*
X205999214Y-134060819D01*
X206570642Y-135060819D02*
X206142071Y-134489390D01*
X206570642Y-134060819D02*
X205999214Y-134632247D01*
X206903976Y-134060819D02*
X207523023Y-134060819D01*
X207523023Y-134060819D02*
X207189690Y-134441771D01*
X207189690Y-134441771D02*
X207332547Y-134441771D01*
X207332547Y-134441771D02*
X207427785Y-134489390D01*
X207427785Y-134489390D02*
X207475404Y-134537009D01*
X207475404Y-134537009D02*
X207523023Y-134632247D01*
X207523023Y-134632247D02*
X207523023Y-134870342D01*
X207523023Y-134870342D02*
X207475404Y-134965580D01*
X207475404Y-134965580D02*
X207427785Y-135013200D01*
X207427785Y-135013200D02*
X207332547Y-135060819D01*
X207332547Y-135060819D02*
X207046833Y-135060819D01*
X207046833Y-135060819D02*
X206951595Y-135013200D01*
X206951595Y-135013200D02*
X206903976Y-134965580D01*
X208094452Y-134489390D02*
X207999214Y-134441771D01*
X207999214Y-134441771D02*
X207951595Y-134394152D01*
X207951595Y-134394152D02*
X207903976Y-134298914D01*
X207903976Y-134298914D02*
X207903976Y-134251295D01*
X207903976Y-134251295D02*
X207951595Y-134156057D01*
X207951595Y-134156057D02*
X207999214Y-134108438D01*
X207999214Y-134108438D02*
X208094452Y-134060819D01*
X208094452Y-134060819D02*
X208284928Y-134060819D01*
X208284928Y-134060819D02*
X208380166Y-134108438D01*
X208380166Y-134108438D02*
X208427785Y-134156057D01*
X208427785Y-134156057D02*
X208475404Y-134251295D01*
X208475404Y-134251295D02*
X208475404Y-134298914D01*
X208475404Y-134298914D02*
X208427785Y-134394152D01*
X208427785Y-134394152D02*
X208380166Y-134441771D01*
X208380166Y-134441771D02*
X208284928Y-134489390D01*
X208284928Y-134489390D02*
X208094452Y-134489390D01*
X208094452Y-134489390D02*
X207999214Y-134537009D01*
X207999214Y-134537009D02*
X207951595Y-134584628D01*
X207951595Y-134584628D02*
X207903976Y-134679866D01*
X207903976Y-134679866D02*
X207903976Y-134870342D01*
X207903976Y-134870342D02*
X207951595Y-134965580D01*
X207951595Y-134965580D02*
X207999214Y-135013200D01*
X207999214Y-135013200D02*
X208094452Y-135060819D01*
X208094452Y-135060819D02*
X208284928Y-135060819D01*
X208284928Y-135060819D02*
X208380166Y-135013200D01*
X208380166Y-135013200D02*
X208427785Y-134965580D01*
X208427785Y-134965580D02*
X208475404Y-134870342D01*
X208475404Y-134870342D02*
X208475404Y-134679866D01*
X208475404Y-134679866D02*
X208427785Y-134584628D01*
X208427785Y-134584628D02*
X208380166Y-134537009D01*
X208380166Y-134537009D02*
X208284928Y-134489390D01*
D12*
X347866000Y-97395000D02*
X361836000Y-97395000D01*
X347866000Y-111365000D02*
X347866000Y-97395000D01*
X361836000Y-97395000D02*
X361836000Y-111365000D01*
X361836000Y-111365000D02*
X347866000Y-111365000D01*
X238328500Y-135495000D02*
X252298500Y-135495000D01*
X238328500Y-149465000D02*
X238328500Y-135495000D01*
X252298500Y-135495000D02*
X252298500Y-149465000D01*
X252298500Y-149465000D02*
X238328500Y-149465000D01*
X71645000Y-97395000D02*
X85615000Y-97395000D01*
X71645000Y-111365000D02*
X71645000Y-97395000D01*
X85615000Y-97395000D02*
X85615000Y-111365000D01*
X85615000Y-111365000D02*
X71645000Y-111365000D01*
D13*
G36*
X190805239Y-186196466D02*
G01*
X190912334Y-186209650D01*
X191379282Y-186259325D01*
X191673112Y-186266204D01*
X191829027Y-186229693D01*
X191867177Y-186193537D01*
X191961255Y-186155775D01*
X192066167Y-186293696D01*
X192272544Y-186484908D01*
X192643161Y-186635702D01*
X192688679Y-186647832D01*
X193190115Y-186775739D01*
X192788367Y-186872382D01*
X192386619Y-186969025D01*
X192618645Y-187170260D01*
X192820165Y-187332681D01*
X192902245Y-187354714D01*
X192897856Y-187251935D01*
X192954399Y-187112236D01*
X193004204Y-187083640D01*
X193091135Y-187106875D01*
X193072541Y-187203201D01*
X193072630Y-187345034D01*
X193125607Y-187371495D01*
X193179764Y-187313682D01*
X193491231Y-187313682D01*
X193537299Y-187420848D01*
X193574288Y-187414614D01*
X194550094Y-187414614D01*
X194624843Y-187477772D01*
X194794420Y-187573357D01*
X194817013Y-187537357D01*
X194784257Y-187477772D01*
X194629050Y-187376727D01*
X194592002Y-187373123D01*
X194550094Y-187414614D01*
X193574288Y-187414614D01*
X193579794Y-187413686D01*
X193667483Y-187273518D01*
X193668358Y-187258947D01*
X193597052Y-187160862D01*
X193579794Y-187158943D01*
X193500505Y-187244952D01*
X193491231Y-187313682D01*
X193179764Y-187313682D01*
X193211488Y-187279816D01*
X193244881Y-187079236D01*
X193264240Y-186895815D01*
X193324012Y-186911035D01*
X193339275Y-186933437D01*
X193473296Y-187027022D01*
X193539284Y-187013618D01*
X193710584Y-186986679D01*
X193976001Y-187013263D01*
X193984843Y-187015002D01*
X194198323Y-187078023D01*
X194217429Y-187150574D01*
X194181742Y-187180904D01*
X194128620Y-187240347D01*
X194266539Y-187215953D01*
X194267201Y-187215768D01*
X194518220Y-187222713D01*
X194917259Y-187328664D01*
X195430621Y-187522367D01*
X196024607Y-187792573D01*
X196087446Y-187823519D01*
X196358651Y-187979026D01*
X196443061Y-188089641D01*
X196406274Y-188144944D01*
X196354157Y-188203557D01*
X196468824Y-188177815D01*
X196674039Y-188192040D01*
X196980152Y-188298374D01*
X197315644Y-188464624D01*
X197608993Y-188658600D01*
X197687874Y-188726516D01*
X197849774Y-188840572D01*
X197912846Y-188859362D01*
X198028669Y-188921634D01*
X198266086Y-189088031D01*
X198582314Y-189327920D01*
X198728895Y-189443663D01*
X199503831Y-189999739D01*
X200196701Y-190364936D01*
X200755662Y-190530465D01*
X200996754Y-190582003D01*
X201089797Y-190672859D01*
X201065621Y-190865810D01*
X201010199Y-191048733D01*
X200912896Y-191388467D01*
X200848045Y-191651959D01*
X200783381Y-191947067D01*
X199089182Y-191930876D01*
X198451586Y-191923217D01*
X197992992Y-191911419D01*
X197679849Y-191891078D01*
X197478607Y-191857794D01*
X197355715Y-191807166D01*
X197277623Y-191734791D01*
X197244781Y-191688906D01*
X197231825Y-191675680D01*
X197600575Y-191675680D01*
X197653714Y-191728818D01*
X197706852Y-191675680D01*
X197693546Y-191662374D01*
X197841645Y-191662374D01*
X197844005Y-191715194D01*
X197966270Y-191728818D01*
X198127169Y-191675680D01*
X198450785Y-191675680D01*
X198503923Y-191728818D01*
X198557061Y-191675680D01*
X198503923Y-191622541D01*
X198450785Y-191675680D01*
X198127169Y-191675680D01*
X198143005Y-191670450D01*
X198178969Y-191632453D01*
X198144964Y-191578141D01*
X198025827Y-191591710D01*
X197841645Y-191662374D01*
X197693546Y-191662374D01*
X197653714Y-191622541D01*
X197600575Y-191675680D01*
X197231825Y-191675680D01*
X197076728Y-191517347D01*
X197006353Y-191463127D01*
X197600575Y-191463127D01*
X197653714Y-191516265D01*
X197706852Y-191463127D01*
X197653714Y-191409989D01*
X197600575Y-191463127D01*
X197006353Y-191463127D01*
X196868411Y-191356851D01*
X198131956Y-191356851D01*
X198185094Y-191409989D01*
X198238232Y-191356851D01*
X198185094Y-191303713D01*
X198131956Y-191356851D01*
X196868411Y-191356851D01*
X196788556Y-191295327D01*
X196638578Y-191197437D01*
X196962919Y-191197437D01*
X197001803Y-191284914D01*
X197033769Y-191268288D01*
X197046273Y-191144299D01*
X197600575Y-191144299D01*
X197653714Y-191197437D01*
X197706852Y-191144299D01*
X197689139Y-191126586D01*
X198061105Y-191126586D01*
X198075694Y-191189767D01*
X198131956Y-191197437D01*
X198219434Y-191158552D01*
X198202807Y-191126586D01*
X198076682Y-191113867D01*
X198061105Y-191126586D01*
X197689139Y-191126586D01*
X197653714Y-191091161D01*
X197600575Y-191144299D01*
X197046273Y-191144299D01*
X197046488Y-191142163D01*
X197033769Y-191126586D01*
X196970588Y-191141175D01*
X196962919Y-191197437D01*
X196638578Y-191197437D01*
X196486386Y-191098102D01*
X196138001Y-190905101D01*
X196068705Y-190878608D01*
X197600575Y-190878608D01*
X197636835Y-190982121D01*
X197647441Y-190984885D01*
X197738177Y-190910413D01*
X197759990Y-190878608D01*
X197751564Y-190780677D01*
X197713124Y-190772332D01*
X197604900Y-190849479D01*
X197600575Y-190878608D01*
X196068705Y-190878608D01*
X195832328Y-190788237D01*
X195484078Y-190723798D01*
X195012397Y-190688302D01*
X194589839Y-190673232D01*
X194264892Y-190688983D01*
X193962464Y-190749982D01*
X193607460Y-190870657D01*
X193190115Y-191038424D01*
X192764605Y-191219112D01*
X192407364Y-191380063D01*
X192168726Y-191498138D01*
X192105440Y-191537080D01*
X191928464Y-191591055D01*
X191863686Y-191570653D01*
X191779100Y-191583061D01*
X191779323Y-191641211D01*
X191715327Y-191755117D01*
X191575068Y-191785148D01*
X191354650Y-191819365D01*
X191265096Y-191864855D01*
X191141634Y-191886148D01*
X190835784Y-191905028D01*
X190377706Y-191920636D01*
X189797557Y-191932116D01*
X189125496Y-191938611D01*
X188629097Y-191939743D01*
X187926276Y-191935888D01*
X187308331Y-191925916D01*
X186802220Y-191910813D01*
X186434903Y-191891564D01*
X186233338Y-191869154D01*
X186206577Y-191851218D01*
X186287955Y-191742251D01*
X186262514Y-191597133D01*
X191270100Y-191597133D01*
X191374564Y-191614151D01*
X191512406Y-191594612D01*
X191514052Y-191558333D01*
X191371813Y-191532963D01*
X191310356Y-191549943D01*
X191270100Y-191597133D01*
X186262514Y-191597133D01*
X186253551Y-191546006D01*
X186222201Y-191463127D01*
X186654132Y-191463127D01*
X186707270Y-191516265D01*
X187053690Y-191516265D01*
X188374067Y-191516265D01*
X189694445Y-191516265D01*
X189836046Y-191370170D01*
X190252773Y-191370170D01*
X190393932Y-191388570D01*
X190426935Y-191389271D01*
X190608436Y-191377783D01*
X190624416Y-191344514D01*
X190614941Y-191340279D01*
X190603491Y-191339138D01*
X190834327Y-191339138D01*
X190848916Y-191402319D01*
X190905178Y-191409989D01*
X190992655Y-191371104D01*
X190976029Y-191339138D01*
X190849904Y-191326419D01*
X190834327Y-191339138D01*
X190603491Y-191339138D01*
X190403963Y-191319255D01*
X190296113Y-191336341D01*
X190252773Y-191370170D01*
X189836046Y-191370170D01*
X190050748Y-191148654D01*
X190099280Y-191091161D01*
X190586349Y-191091161D01*
X190625234Y-191178638D01*
X190657200Y-191162011D01*
X190669919Y-191035887D01*
X190657200Y-191020310D01*
X190594019Y-191034898D01*
X190586349Y-191091161D01*
X190099280Y-191091161D01*
X190269750Y-190889214D01*
X190329670Y-190715949D01*
X190319987Y-190692625D01*
X190481701Y-190692625D01*
X190562743Y-190850170D01*
X190657200Y-190878608D01*
X190761570Y-190843029D01*
X190752249Y-190825470D01*
X190905178Y-190825470D01*
X190958316Y-190878608D01*
X191011454Y-190825470D01*
X190958316Y-190772332D01*
X190905178Y-190825470D01*
X190752249Y-190825470D01*
X190738144Y-190798901D01*
X190582491Y-190638299D01*
X190562644Y-190612918D01*
X190496894Y-190602513D01*
X190481701Y-190692625D01*
X190319987Y-190692625D01*
X190299735Y-190643842D01*
X190232182Y-190478434D01*
X190150140Y-190164167D01*
X190069195Y-189762597D01*
X190053589Y-189671701D01*
X190018972Y-189463510D01*
X190185495Y-189463510D01*
X190214383Y-189491482D01*
X190399029Y-189480819D01*
X190563971Y-189484433D01*
X190728177Y-189514280D01*
X190707227Y-189603261D01*
X190670247Y-189645962D01*
X190544032Y-189726859D01*
X190497786Y-189699100D01*
X190399775Y-189602345D01*
X190298293Y-189667357D01*
X190267521Y-189798134D01*
X190315609Y-190027478D01*
X190446335Y-190074832D01*
X190550002Y-190014464D01*
X190671738Y-189958116D01*
X190692626Y-190004016D01*
X190607737Y-190131909D01*
X190533211Y-190173108D01*
X190392314Y-190289016D01*
X190373797Y-190350164D01*
X190435079Y-190420820D01*
X190468032Y-190407808D01*
X190604378Y-190427790D01*
X190686818Y-190499644D01*
X190884076Y-190600573D01*
X191070826Y-190602671D01*
X191265255Y-190604216D01*
X191330283Y-190663978D01*
X191245792Y-190769610D01*
X191197437Y-190779802D01*
X191171353Y-190817703D01*
X191277144Y-190878608D01*
X191412364Y-190946964D01*
X191357516Y-190977391D01*
X191224006Y-190989743D01*
X191068516Y-191014194D01*
X191120390Y-191051540D01*
X191144299Y-191058143D01*
X191302249Y-191171240D01*
X191330283Y-191258368D01*
X191385810Y-191395458D01*
X191477617Y-191377117D01*
X191722165Y-191377117D01*
X191805763Y-191391312D01*
X191828287Y-191356851D01*
X191967939Y-191356851D01*
X192021078Y-191409989D01*
X192074216Y-191356851D01*
X192021078Y-191303713D01*
X191967939Y-191356851D01*
X191828287Y-191356851D01*
X191903431Y-191241883D01*
X191962420Y-191051783D01*
X191923113Y-190988940D01*
X191874058Y-190984885D01*
X191774833Y-191073330D01*
X191724594Y-191197437D01*
X191722165Y-191377117D01*
X191477617Y-191377117D01*
X191501208Y-191372404D01*
X191581621Y-191249652D01*
X191587218Y-191007899D01*
X191492030Y-190709317D01*
X191366728Y-190511016D01*
X191622214Y-190511016D01*
X191693949Y-190677466D01*
X191896636Y-190766467D01*
X191954383Y-190768952D01*
X192070984Y-190751904D01*
X192044660Y-190719194D01*
X193030701Y-190719194D01*
X193083839Y-190772332D01*
X193136977Y-190719194D01*
X193083839Y-190666056D01*
X193030701Y-190719194D01*
X192044660Y-190719194D01*
X192010495Y-190676742D01*
X191958612Y-190636107D01*
X191943381Y-190612918D01*
X193243253Y-190612918D01*
X193296391Y-190666056D01*
X193349529Y-190612918D01*
X193296391Y-190559780D01*
X193243253Y-190612918D01*
X191943381Y-190612918D01*
X191904360Y-190553508D01*
X193562082Y-190553508D01*
X193639229Y-190661731D01*
X193668358Y-190666056D01*
X193771871Y-190629796D01*
X193774634Y-190619190D01*
X193769486Y-190612918D01*
X197175471Y-190612918D01*
X197228609Y-190666056D01*
X197281747Y-190612918D01*
X197494299Y-190612918D01*
X197547437Y-190666056D01*
X197600575Y-190612918D01*
X197547437Y-190559780D01*
X197494299Y-190612918D01*
X197281747Y-190612918D01*
X197228609Y-190559780D01*
X197175471Y-190612918D01*
X193769486Y-190612918D01*
X193700162Y-190528455D01*
X193668358Y-190506642D01*
X194199739Y-190506642D01*
X194252877Y-190559780D01*
X194306015Y-190506642D01*
X194412291Y-190506642D01*
X194465429Y-190559780D01*
X194518567Y-190506642D01*
X194465429Y-190453504D01*
X194412291Y-190506642D01*
X194306015Y-190506642D01*
X194252877Y-190453504D01*
X194199739Y-190506642D01*
X193668358Y-190506642D01*
X193570426Y-190515068D01*
X193562082Y-190553508D01*
X191904360Y-190553508D01*
X191842537Y-190459382D01*
X191843049Y-190347228D01*
X191847145Y-190323609D01*
X193086699Y-190323609D01*
X193094786Y-190364940D01*
X193181945Y-190452067D01*
X193190115Y-190453504D01*
X193274967Y-190380826D01*
X193285444Y-190364940D01*
X193253781Y-190286680D01*
X193190115Y-190276377D01*
X194128888Y-190276377D01*
X194143476Y-190339558D01*
X194199739Y-190347228D01*
X194253795Y-190323199D01*
X194571588Y-190323199D01*
X194587717Y-190403769D01*
X194670829Y-190548517D01*
X194721187Y-190486666D01*
X194731119Y-190340956D01*
X194692621Y-190195573D01*
X197190415Y-190195573D01*
X197243005Y-190365002D01*
X197319669Y-190453434D01*
X197321600Y-190453504D01*
X197330587Y-190400366D01*
X197494299Y-190400366D01*
X197547437Y-190453504D01*
X197600575Y-190400366D01*
X197547437Y-190347228D01*
X197494299Y-190400366D01*
X197330587Y-190400366D01*
X197336150Y-190367476D01*
X197311438Y-190236736D01*
X197246253Y-190086130D01*
X197201982Y-190072739D01*
X197190415Y-190195573D01*
X194692621Y-190195573D01*
X194691882Y-190192782D01*
X194629485Y-190184945D01*
X194571588Y-190323199D01*
X194253795Y-190323199D01*
X194287216Y-190308343D01*
X194270589Y-190276377D01*
X194144464Y-190263658D01*
X194128888Y-190276377D01*
X193190115Y-190276377D01*
X193086699Y-190323609D01*
X191847145Y-190323609D01*
X191860865Y-190244486D01*
X191770746Y-190292344D01*
X191718221Y-190334759D01*
X191622214Y-190511016D01*
X191366728Y-190511016D01*
X191333547Y-190458504D01*
X191280316Y-190409027D01*
X191138778Y-190211013D01*
X191098511Y-190081537D01*
X190998106Y-189871309D01*
X190905178Y-189796748D01*
X190808675Y-189737147D01*
X190917299Y-189717346D01*
X190924355Y-189717040D01*
X191080171Y-189619151D01*
X191136908Y-189473809D01*
X191167823Y-189325257D01*
X191224445Y-189334316D01*
X191349310Y-189511629D01*
X191361268Y-189529948D01*
X191457369Y-189736857D01*
X191483435Y-189913041D01*
X191446491Y-190005516D01*
X191353565Y-189961292D01*
X191311285Y-189906900D01*
X191242316Y-189840527D01*
X191244861Y-189965936D01*
X191246318Y-189975261D01*
X191349476Y-190138154D01*
X191527444Y-190186448D01*
X191653852Y-190127756D01*
X193163034Y-190127756D01*
X193177571Y-190134675D01*
X193186540Y-190127756D01*
X193481862Y-190127756D01*
X193496399Y-190134675D01*
X193593385Y-190059859D01*
X193615220Y-190028399D01*
X193642301Y-189929043D01*
X193627764Y-189922123D01*
X193530778Y-189996939D01*
X193508944Y-190028399D01*
X193481862Y-190127756D01*
X193186540Y-190127756D01*
X193274557Y-190059859D01*
X193296391Y-190028399D01*
X193323473Y-189929043D01*
X193308936Y-189922123D01*
X193211950Y-189996939D01*
X193190115Y-190028399D01*
X193163034Y-190127756D01*
X191653852Y-190127756D01*
X191686606Y-190112548D01*
X191732671Y-190014730D01*
X191707550Y-189892052D01*
X194042513Y-189892052D01*
X194098060Y-190056366D01*
X194222479Y-190134675D01*
X194262926Y-190081537D01*
X196962919Y-190081537D01*
X197016057Y-190134675D01*
X197069195Y-190081537D01*
X197016057Y-190028399D01*
X196962919Y-190081537D01*
X194262926Y-190081537D01*
X194282163Y-190056265D01*
X194264247Y-189966569D01*
X194261309Y-189957548D01*
X194447716Y-189957548D01*
X194462305Y-190020730D01*
X194518567Y-190028399D01*
X194606044Y-189989514D01*
X194598631Y-189975261D01*
X194837396Y-189975261D01*
X194890534Y-190028399D01*
X194930659Y-189988274D01*
X195262500Y-189988274D01*
X195314196Y-190020085D01*
X195446729Y-189892016D01*
X197292522Y-189892016D01*
X197399013Y-189869718D01*
X197400966Y-189868985D01*
X198344508Y-189868985D01*
X198397647Y-189922123D01*
X198450785Y-189868985D01*
X198397647Y-189815847D01*
X198344508Y-189868985D01*
X197400966Y-189868985D01*
X197419176Y-189862152D01*
X197549315Y-189777961D01*
X197550250Y-189730096D01*
X197437825Y-189742017D01*
X197359683Y-189802659D01*
X197292522Y-189892016D01*
X195446729Y-189892016D01*
X195455477Y-189883563D01*
X195488609Y-189842416D01*
X195580521Y-189716532D01*
X195525487Y-189742923D01*
X195448483Y-189802291D01*
X195301295Y-189933393D01*
X195262500Y-189988274D01*
X194930659Y-189988274D01*
X194943672Y-189975261D01*
X194890534Y-189922123D01*
X194837396Y-189975261D01*
X194598631Y-189975261D01*
X194589418Y-189957548D01*
X194463293Y-189944829D01*
X194447716Y-189957548D01*
X194261309Y-189957548D01*
X194207852Y-189793435D01*
X194207280Y-189790214D01*
X194446479Y-189790214D01*
X194585271Y-189813942D01*
X194607131Y-189814220D01*
X194788884Y-189769834D01*
X194810876Y-189683002D01*
X194803471Y-189676027D01*
X195085373Y-189676027D01*
X195120123Y-189758373D01*
X195253644Y-189684818D01*
X195346227Y-189615863D01*
X195748510Y-189615863D01*
X195862699Y-189645825D01*
X196051125Y-189624254D01*
X196197638Y-189570139D01*
X196218985Y-189538952D01*
X196192846Y-189532444D01*
X196466963Y-189532444D01*
X196481552Y-189595625D01*
X196537814Y-189603295D01*
X196625291Y-189564410D01*
X196617878Y-189550157D01*
X196962919Y-189550157D01*
X197016057Y-189603295D01*
X197069195Y-189550157D01*
X197016057Y-189497018D01*
X196962919Y-189550157D01*
X196617878Y-189550157D01*
X196608665Y-189532444D01*
X196482540Y-189519725D01*
X196466963Y-189532444D01*
X196192846Y-189532444D01*
X196128492Y-189516421D01*
X195960957Y-189520754D01*
X195782905Y-189561895D01*
X195748510Y-189615863D01*
X195346227Y-189615863D01*
X195410251Y-189568179D01*
X195460496Y-189532791D01*
X195406031Y-189519523D01*
X195292225Y-189524000D01*
X195122428Y-189595546D01*
X195085373Y-189676027D01*
X194803471Y-189676027D01*
X194680578Y-189560263D01*
X194562898Y-189525462D01*
X194452524Y-189528023D01*
X194504023Y-189564895D01*
X194595669Y-189636180D01*
X194504023Y-189720808D01*
X194446479Y-189790214D01*
X194207280Y-189790214D01*
X194199739Y-189747745D01*
X194131473Y-189742042D01*
X194098104Y-189759840D01*
X194042513Y-189892052D01*
X191707550Y-189892052D01*
X191690164Y-189807151D01*
X191678465Y-189790438D01*
X192970519Y-189790438D01*
X193074983Y-189807457D01*
X193212824Y-189787917D01*
X193214470Y-189751638D01*
X193072231Y-189726268D01*
X193010774Y-189743248D01*
X192970519Y-189790438D01*
X191678465Y-189790438D01*
X191593690Y-189669332D01*
X191505279Y-189550157D01*
X192499320Y-189550157D01*
X192552458Y-189603295D01*
X192605596Y-189550157D01*
X192818149Y-189550157D01*
X192871287Y-189603295D01*
X192924425Y-189550157D01*
X192871287Y-189497018D01*
X192818149Y-189550157D01*
X192605596Y-189550157D01*
X192552458Y-189497018D01*
X192499320Y-189550157D01*
X191505279Y-189550157D01*
X191496591Y-189538446D01*
X191517531Y-189497018D01*
X191606038Y-189412377D01*
X191608303Y-189396367D01*
X193162261Y-189396367D01*
X193179498Y-189457203D01*
X193251744Y-189576726D01*
X193438621Y-189753304D01*
X193614215Y-189803519D01*
X193747206Y-189785979D01*
X193675657Y-189751309D01*
X193647679Y-189743722D01*
X193509077Y-189644044D01*
X193497416Y-189570067D01*
X193497715Y-189532444D01*
X193703783Y-189532444D01*
X193718372Y-189595625D01*
X193774634Y-189603295D01*
X193862111Y-189564410D01*
X193854698Y-189550157D01*
X194093462Y-189550157D01*
X194146601Y-189603295D01*
X194199739Y-189550157D01*
X194146601Y-189497018D01*
X194093462Y-189550157D01*
X193854698Y-189550157D01*
X193845485Y-189532444D01*
X193719360Y-189519725D01*
X193703783Y-189532444D01*
X193497715Y-189532444D01*
X193497939Y-189504283D01*
X193481191Y-189528023D01*
X193376495Y-189539774D01*
X193268983Y-189474885D01*
X193202767Y-189426168D01*
X197317172Y-189426168D01*
X197331761Y-189489349D01*
X197388023Y-189497018D01*
X197475500Y-189458134D01*
X197458874Y-189426168D01*
X197848553Y-189426168D01*
X197863142Y-189489349D01*
X197919404Y-189497018D01*
X198006881Y-189458134D01*
X197990255Y-189426168D01*
X197864130Y-189413449D01*
X197848553Y-189426168D01*
X197458874Y-189426168D01*
X197332749Y-189413449D01*
X197317172Y-189426168D01*
X193202767Y-189426168D01*
X193162261Y-189396367D01*
X191608303Y-189396367D01*
X191613686Y-189358318D01*
X191595279Y-189337604D01*
X191755387Y-189337604D01*
X191808525Y-189390742D01*
X191861663Y-189337604D01*
X191808525Y-189284466D01*
X191755387Y-189337604D01*
X191595279Y-189337604D01*
X191532258Y-189266686D01*
X191274199Y-189246140D01*
X191179725Y-189251510D01*
X190921146Y-189258842D01*
X190866823Y-189231328D01*
X193030701Y-189231328D01*
X193083839Y-189284466D01*
X193136977Y-189231328D01*
X193243253Y-189231328D01*
X193296391Y-189284466D01*
X193349529Y-189231328D01*
X193296391Y-189178190D01*
X193243253Y-189231328D01*
X193136977Y-189231328D01*
X193083839Y-189178190D01*
X193030701Y-189231328D01*
X190866823Y-189231328D01*
X190853223Y-189224440D01*
X190905178Y-189175369D01*
X190953529Y-189125052D01*
X191330283Y-189125052D01*
X191383421Y-189178190D01*
X191436559Y-189125052D01*
X191383421Y-189071914D01*
X191330283Y-189125052D01*
X190953529Y-189125052D01*
X190970115Y-189107792D01*
X190853524Y-189104246D01*
X190753112Y-189119211D01*
X190465965Y-189214413D01*
X190274869Y-189341101D01*
X190185495Y-189463510D01*
X190018972Y-189463510D01*
X189959749Y-189107339D01*
X190090394Y-189107339D01*
X190104983Y-189170520D01*
X190161245Y-189178190D01*
X190248722Y-189139305D01*
X190232096Y-189107339D01*
X190105971Y-189094620D01*
X190090394Y-189107339D01*
X189959749Y-189107339D01*
X189945023Y-189018776D01*
X192924425Y-189018776D01*
X192977563Y-189071914D01*
X193005911Y-189043566D01*
X193136977Y-189043566D01*
X193221586Y-189065667D01*
X193326099Y-189047248D01*
X193554247Y-189075007D01*
X193649117Y-189141129D01*
X193822370Y-189264381D01*
X193901362Y-189284466D01*
X193917879Y-189227442D01*
X193794906Y-189089553D01*
X193787215Y-189082826D01*
X193768240Y-189072721D01*
X194100424Y-189072721D01*
X194126814Y-189127756D01*
X194186183Y-189204759D01*
X194341304Y-189369984D01*
X194410546Y-189369266D01*
X194412291Y-189350617D01*
X194347274Y-189271198D01*
X194758733Y-189271198D01*
X194836586Y-189220262D01*
X194843361Y-189213615D01*
X195085373Y-189213615D01*
X195099962Y-189276796D01*
X195156224Y-189284466D01*
X195243701Y-189245581D01*
X195236288Y-189231328D01*
X195475052Y-189231328D01*
X195528191Y-189284466D01*
X195581329Y-189231328D01*
X195793881Y-189231328D01*
X195847019Y-189284466D01*
X195900157Y-189231328D01*
X195882444Y-189213615D01*
X196254411Y-189213615D01*
X196268999Y-189276796D01*
X196325262Y-189284466D01*
X196382423Y-189259057D01*
X196796460Y-189259057D01*
X196900924Y-189276076D01*
X197038766Y-189256536D01*
X197039910Y-189231328D01*
X197175471Y-189231328D01*
X197228609Y-189284466D01*
X197254018Y-189259057D01*
X197752946Y-189259057D01*
X197857409Y-189276076D01*
X197995251Y-189256536D01*
X197996897Y-189220258D01*
X197854658Y-189194888D01*
X197793201Y-189211867D01*
X197752946Y-189259057D01*
X197254018Y-189259057D01*
X197281747Y-189231328D01*
X197228609Y-189178190D01*
X197175471Y-189231328D01*
X197039910Y-189231328D01*
X197040412Y-189220258D01*
X196898173Y-189194888D01*
X196836716Y-189211867D01*
X196796460Y-189259057D01*
X196382423Y-189259057D01*
X196412739Y-189245581D01*
X196396112Y-189213615D01*
X196269987Y-189200896D01*
X196254411Y-189213615D01*
X195882444Y-189213615D01*
X195847019Y-189178190D01*
X195793881Y-189231328D01*
X195581329Y-189231328D01*
X195528191Y-189178190D01*
X195475052Y-189231328D01*
X195236288Y-189231328D01*
X195227075Y-189213615D01*
X195100950Y-189200896D01*
X195085373Y-189213615D01*
X194843361Y-189213615D01*
X194850583Y-189206530D01*
X194934529Y-189067190D01*
X194923147Y-189015964D01*
X194844091Y-189047857D01*
X194791090Y-189147037D01*
X194758733Y-189271198D01*
X194347274Y-189271198D01*
X194339665Y-189261904D01*
X194226308Y-189164634D01*
X194100424Y-189072721D01*
X193768240Y-189072721D01*
X193633682Y-189001063D01*
X195297926Y-189001063D01*
X195312514Y-189064244D01*
X195368776Y-189071914D01*
X195456254Y-189033029D01*
X195448840Y-189018776D01*
X195687605Y-189018776D01*
X195740743Y-189071914D01*
X195793881Y-189018776D01*
X195740743Y-188965638D01*
X195900157Y-188965638D01*
X195939042Y-189053115D01*
X195971008Y-189036488D01*
X195972794Y-189018776D01*
X196112709Y-189018776D01*
X196165847Y-189071914D01*
X196218985Y-189018776D01*
X196165847Y-188965638D01*
X196112709Y-189018776D01*
X195972794Y-189018776D01*
X195983512Y-188912500D01*
X197600575Y-188912500D01*
X197653714Y-188965638D01*
X197706852Y-188912500D01*
X197653714Y-188859362D01*
X197600575Y-188912500D01*
X195983512Y-188912500D01*
X195983727Y-188910364D01*
X195971008Y-188894787D01*
X195907827Y-188909375D01*
X195900157Y-188965638D01*
X195740743Y-188965638D01*
X195687605Y-189018776D01*
X195448840Y-189018776D01*
X195439627Y-189001063D01*
X195313502Y-188988344D01*
X195297926Y-189001063D01*
X193633682Y-189001063D01*
X193584105Y-188974661D01*
X193354837Y-188935715D01*
X193181353Y-188970933D01*
X193136977Y-189043566D01*
X193005911Y-189043566D01*
X193030701Y-189018776D01*
X192977563Y-188965638D01*
X192924425Y-189018776D01*
X189945023Y-189018776D01*
X189917962Y-188856026D01*
X194624843Y-188856026D01*
X194702744Y-188914501D01*
X194784257Y-188897794D01*
X194924092Y-188822361D01*
X194935579Y-188806223D01*
X195262500Y-188806223D01*
X195315638Y-188859362D01*
X195368776Y-188806223D01*
X195315638Y-188753085D01*
X195262500Y-188806223D01*
X194935579Y-188806223D01*
X194943672Y-188794853D01*
X194856888Y-188757702D01*
X194784257Y-188753085D01*
X194642802Y-188808703D01*
X194624843Y-188856026D01*
X189917962Y-188856026D01*
X189914759Y-188836761D01*
X189267500Y-188878775D01*
X188539456Y-189010962D01*
X187946453Y-189297567D01*
X187500159Y-189727816D01*
X187212244Y-190290940D01*
X187099725Y-190879827D01*
X187053690Y-191516265D01*
X186707270Y-191516265D01*
X186760408Y-191463127D01*
X186707270Y-191409989D01*
X186654132Y-191463127D01*
X186222201Y-191463127D01*
X186218866Y-191454310D01*
X186171490Y-191250575D01*
X186760408Y-191250575D01*
X186813546Y-191303713D01*
X186866684Y-191250575D01*
X186813546Y-191197437D01*
X186760408Y-191250575D01*
X186171490Y-191250575D01*
X186162350Y-191211267D01*
X186148152Y-191091161D01*
X186441580Y-191091161D01*
X186522453Y-191194349D01*
X186547856Y-191197437D01*
X186651044Y-191116563D01*
X186654132Y-191091161D01*
X186573258Y-190987973D01*
X186547856Y-190984885D01*
X186444668Y-191065758D01*
X186441580Y-191091161D01*
X186148152Y-191091161D01*
X186129306Y-190931747D01*
X186760408Y-190931747D01*
X186813546Y-190984885D01*
X186866684Y-190931747D01*
X186813546Y-190878608D01*
X186760408Y-190931747D01*
X186129306Y-190931747D01*
X186116424Y-190822774D01*
X186088006Y-190355901D01*
X186082734Y-190134675D01*
X186083716Y-189779816D01*
X186364822Y-189779816D01*
X186404010Y-189948445D01*
X186521287Y-190113167D01*
X186647246Y-190330952D01*
X186569381Y-190492164D01*
X186547856Y-190506642D01*
X186445364Y-190658529D01*
X186441580Y-190692641D01*
X186482569Y-190726746D01*
X186490106Y-190719194D01*
X186654132Y-190719194D01*
X186707270Y-190772332D01*
X186760408Y-190719194D01*
X186707270Y-190666056D01*
X186654132Y-190719194D01*
X186490106Y-190719194D01*
X186576482Y-190632648D01*
X186679741Y-190471525D01*
X186748765Y-190304554D01*
X186757028Y-190249808D01*
X186796786Y-190154289D01*
X186830583Y-190169425D01*
X186933728Y-190146696D01*
X187063108Y-190007812D01*
X187159746Y-189820096D01*
X187100906Y-189734524D01*
X187098547Y-189733720D01*
X187018359Y-189636097D01*
X187031708Y-189594218D01*
X187052099Y-189502883D01*
X186956343Y-189529033D01*
X186799179Y-189655617D01*
X186702815Y-189838693D01*
X186717533Y-189947877D01*
X186738693Y-190021523D01*
X186701001Y-189996236D01*
X186627955Y-189823862D01*
X186594632Y-189539500D01*
X186603789Y-189240472D01*
X186611788Y-189208654D01*
X186671263Y-189208654D01*
X186697122Y-189268046D01*
X186804130Y-189382138D01*
X186865650Y-189358733D01*
X186866684Y-189343876D01*
X186791198Y-189253986D01*
X186743988Y-189221180D01*
X186671263Y-189208654D01*
X186611788Y-189208654D01*
X186658186Y-189024103D01*
X186672817Y-189001668D01*
X186706708Y-188855551D01*
X186666944Y-188814142D01*
X186560192Y-188835371D01*
X186490332Y-189003802D01*
X186474492Y-189255007D01*
X186501946Y-189434842D01*
X186518306Y-189650209D01*
X186453101Y-189709571D01*
X186364822Y-189779816D01*
X186083716Y-189779816D01*
X186084126Y-189631477D01*
X186109893Y-189270811D01*
X186172071Y-188983019D01*
X186282700Y-188698439D01*
X186358592Y-188538345D01*
X186385570Y-188490616D01*
X186681619Y-188490616D01*
X186702900Y-188533462D01*
X186804238Y-188643337D01*
X186813795Y-188603613D01*
X187935206Y-188603613D01*
X187983022Y-188623908D01*
X188047383Y-188571382D01*
X188220943Y-188506654D01*
X188483901Y-188564502D01*
X188731835Y-188622770D01*
X188868309Y-188565292D01*
X188895716Y-188528339D01*
X188973629Y-188445960D01*
X188990580Y-188513964D01*
X189091308Y-188607520D01*
X189373024Y-188646227D01*
X189423584Y-188646809D01*
X189705551Y-188623226D01*
X189793340Y-188554954D01*
X189784801Y-188533288D01*
X189639170Y-188461464D01*
X189574771Y-188473439D01*
X189432635Y-188442866D01*
X189353327Y-188305381D01*
X189389209Y-188178957D01*
X189537896Y-188125102D01*
X189653992Y-188115429D01*
X189785054Y-188079881D01*
X189830507Y-187935705D01*
X189822263Y-187716893D01*
X189776626Y-187488986D01*
X190070076Y-187488986D01*
X190083621Y-187842234D01*
X190125850Y-188201556D01*
X190188199Y-188477424D01*
X190219830Y-188549347D01*
X190346698Y-188641051D01*
X190461199Y-188604510D01*
X190464397Y-188593671D01*
X190586349Y-188593671D01*
X190639488Y-188646809D01*
X190689405Y-188596892D01*
X193164464Y-188596892D01*
X193185745Y-188639739D01*
X193287083Y-188749613D01*
X193299032Y-188699947D01*
X193668358Y-188699947D01*
X193721496Y-188753085D01*
X193774634Y-188699947D01*
X194093462Y-188699947D01*
X194146601Y-188753085D01*
X194199739Y-188699947D01*
X194146601Y-188646809D01*
X194093462Y-188699947D01*
X193774634Y-188699947D01*
X193721496Y-188646809D01*
X193668358Y-188699947D01*
X193299032Y-188699947D01*
X193305725Y-188672128D01*
X193289966Y-188621401D01*
X194352109Y-188621401D01*
X194456573Y-188638419D01*
X194594414Y-188618880D01*
X194595558Y-188593671D01*
X195049948Y-188593671D01*
X195103086Y-188646809D01*
X195156224Y-188593671D01*
X195475052Y-188593671D01*
X195528191Y-188646809D01*
X195581329Y-188593671D01*
X195528191Y-188540533D01*
X195475052Y-188593671D01*
X195156224Y-188593671D01*
X195103086Y-188540533D01*
X195049948Y-188593671D01*
X194595558Y-188593671D01*
X194596060Y-188582601D01*
X194453821Y-188557231D01*
X194392364Y-188574211D01*
X194352109Y-188621401D01*
X193289966Y-188621401D01*
X193279927Y-188589088D01*
X193213350Y-188490605D01*
X196977421Y-188490605D01*
X196998313Y-188588551D01*
X197072272Y-188650960D01*
X197243440Y-188743229D01*
X197254025Y-188698663D01*
X197173339Y-188591103D01*
X197038169Y-188485175D01*
X196977421Y-188490605D01*
X193213350Y-188490605D01*
X193201684Y-188473348D01*
X193166344Y-188475741D01*
X193164464Y-188596892D01*
X190689405Y-188596892D01*
X190692626Y-188593671D01*
X190639488Y-188540533D01*
X190586349Y-188593671D01*
X190464397Y-188593671D01*
X190480073Y-188540533D01*
X190399200Y-188437345D01*
X190373797Y-188434257D01*
X190326944Y-188363406D01*
X192853574Y-188363406D01*
X192868163Y-188426587D01*
X192924425Y-188434257D01*
X193011902Y-188395372D01*
X193004489Y-188381119D01*
X193455806Y-188381119D01*
X193508944Y-188434257D01*
X193562082Y-188381119D01*
X193544369Y-188363406D01*
X194022612Y-188363406D01*
X194037200Y-188426587D01*
X194093462Y-188434257D01*
X194180940Y-188395372D01*
X194173078Y-188380257D01*
X194677224Y-188380257D01*
X194729340Y-188411544D01*
X194965903Y-188412501D01*
X194995445Y-188411586D01*
X195226566Y-188394075D01*
X195264069Y-188381119D01*
X196750366Y-188381119D01*
X196803504Y-188434257D01*
X196856642Y-188381119D01*
X196803504Y-188327981D01*
X196750366Y-188381119D01*
X195264069Y-188381119D01*
X195307340Y-188366170D01*
X195287705Y-188354095D01*
X195171933Y-188224419D01*
X195154597Y-188133141D01*
X195122961Y-188030720D01*
X195074889Y-188071373D01*
X194923682Y-188214107D01*
X194784257Y-188305991D01*
X194677224Y-188380257D01*
X194173078Y-188380257D01*
X194164313Y-188363406D01*
X194038188Y-188350687D01*
X194022612Y-188363406D01*
X193544369Y-188363406D01*
X193508944Y-188327981D01*
X193455806Y-188381119D01*
X193004489Y-188381119D01*
X192995276Y-188363406D01*
X192869151Y-188350687D01*
X192853574Y-188363406D01*
X190326944Y-188363406D01*
X190311297Y-188339745D01*
X190301913Y-188274843D01*
X193243253Y-188274843D01*
X193296391Y-188327981D01*
X193349529Y-188274843D01*
X193296391Y-188221705D01*
X193243253Y-188274843D01*
X190301913Y-188274843D01*
X190276534Y-188099314D01*
X190272884Y-187956014D01*
X192818149Y-187956014D01*
X192871287Y-188009152D01*
X192895453Y-187984986D01*
X193074423Y-187984986D01*
X193088378Y-188016496D01*
X193175615Y-188109306D01*
X193189194Y-188062290D01*
X193349529Y-188062290D01*
X193402667Y-188115429D01*
X193455806Y-188062290D01*
X193402667Y-188009152D01*
X193349529Y-188062290D01*
X193189194Y-188062290D01*
X193207196Y-187999959D01*
X193207828Y-187960689D01*
X193160929Y-187854104D01*
X193117531Y-187861757D01*
X193074423Y-187984986D01*
X192895453Y-187984986D01*
X192924425Y-187956014D01*
X192871287Y-187902876D01*
X192818149Y-187956014D01*
X190272884Y-187956014D01*
X190268341Y-187777626D01*
X190270980Y-187725749D01*
X192641022Y-187725749D01*
X192655610Y-187788930D01*
X192711873Y-187796600D01*
X192714611Y-187795383D01*
X193509696Y-187795383D01*
X193526802Y-187855775D01*
X193609700Y-187837150D01*
X193749748Y-187834913D01*
X193774634Y-187882650D01*
X193691335Y-188017159D01*
X193641789Y-188045044D01*
X193649443Y-188076434D01*
X193825311Y-188092235D01*
X193934048Y-188092565D01*
X194140149Y-188079778D01*
X194171911Y-188054435D01*
X194120032Y-188040426D01*
X194110476Y-188035648D01*
X194423974Y-188035648D01*
X194458190Y-188103716D01*
X194599300Y-188164263D01*
X194700183Y-188145341D01*
X194810050Y-188084126D01*
X194727326Y-188025468D01*
X194670211Y-188003909D01*
X194461183Y-187958050D01*
X194423974Y-188035648D01*
X194110476Y-188035648D01*
X193933161Y-187946987D01*
X193880910Y-187842347D01*
X193809399Y-187725749D01*
X194022612Y-187725749D01*
X194037200Y-187788930D01*
X194093462Y-187796600D01*
X194180940Y-187757715D01*
X194171303Y-187739187D01*
X195527723Y-187739187D01*
X195537095Y-187929445D01*
X195564701Y-188148177D01*
X195600815Y-188211057D01*
X195680193Y-188173161D01*
X195687892Y-188168389D01*
X195735283Y-188026247D01*
X195684153Y-187896426D01*
X195654918Y-187849738D01*
X195793881Y-187849738D01*
X195847019Y-187902876D01*
X195900157Y-187849738D01*
X195847019Y-187796600D01*
X195793881Y-187849738D01*
X195654918Y-187849738D01*
X195572226Y-187717681D01*
X195527723Y-187739187D01*
X194171303Y-187739187D01*
X194164313Y-187725749D01*
X194038188Y-187713030D01*
X194022612Y-187725749D01*
X193809399Y-187725749D01*
X193803712Y-187716476D01*
X193642637Y-187699948D01*
X193509696Y-187795383D01*
X192714611Y-187795383D01*
X192799350Y-187757715D01*
X192782723Y-187725749D01*
X192656598Y-187713030D01*
X192641022Y-187725749D01*
X190270980Y-187725749D01*
X190280892Y-187530910D01*
X192924425Y-187530910D01*
X192977563Y-187584048D01*
X193030701Y-187530910D01*
X193243253Y-187530910D01*
X193296391Y-187584048D01*
X193349529Y-187530910D01*
X193296391Y-187477772D01*
X193243253Y-187530910D01*
X193030701Y-187530910D01*
X192977563Y-187477772D01*
X192924425Y-187530910D01*
X190280892Y-187530910D01*
X190285551Y-187439340D01*
X190287651Y-187424634D01*
X192073009Y-187424634D01*
X192223203Y-187105805D01*
X192313637Y-186877349D01*
X192333050Y-186747215D01*
X192330083Y-186742695D01*
X192249764Y-186741263D01*
X192175657Y-186925512D01*
X192135389Y-187106023D01*
X192073009Y-187424634D01*
X190287651Y-187424634D01*
X190326999Y-187149116D01*
X190391518Y-186971615D01*
X190400366Y-186961350D01*
X190470387Y-186869788D01*
X190365898Y-186891327D01*
X190346311Y-186898679D01*
X190177707Y-187049782D01*
X190093777Y-187231339D01*
X190070076Y-187488986D01*
X189776626Y-187488986D01*
X189767072Y-187441275D01*
X189668999Y-187343595D01*
X189656433Y-187344926D01*
X189531325Y-187285668D01*
X189503343Y-187061757D01*
X189505098Y-187043811D01*
X189425573Y-186988271D01*
X189358270Y-186981816D01*
X189220634Y-187038542D01*
X189204760Y-187083393D01*
X189142723Y-187117901D01*
X189067216Y-187070818D01*
X188919902Y-187031442D01*
X188708346Y-187141262D01*
X188615542Y-187213397D01*
X188426693Y-187379071D01*
X188395614Y-187454606D01*
X188508581Y-187475429D01*
X188513965Y-187475577D01*
X188653680Y-187495738D01*
X188596724Y-187564381D01*
X188567103Y-187584048D01*
X188461279Y-187668529D01*
X188541171Y-187696274D01*
X188567103Y-187698281D01*
X188584905Y-187729290D01*
X188432665Y-187792668D01*
X188361444Y-187814322D01*
X188140617Y-187903338D01*
X188105543Y-187983598D01*
X188122315Y-187996988D01*
X188186287Y-188104952D01*
X188092232Y-188281110D01*
X187974202Y-188472561D01*
X187935206Y-188603613D01*
X186813795Y-188603613D01*
X186822880Y-188565852D01*
X186797081Y-188482812D01*
X186728335Y-188381119D01*
X187291789Y-188381119D01*
X187344927Y-188434257D01*
X187398065Y-188381119D01*
X187344927Y-188327981D01*
X187291789Y-188381119D01*
X186728335Y-188381119D01*
X186718839Y-188367072D01*
X186683499Y-188369465D01*
X186681619Y-188490616D01*
X186385570Y-188490616D01*
X186567605Y-188168567D01*
X187185513Y-188168567D01*
X187238651Y-188221705D01*
X187291789Y-188168567D01*
X187238651Y-188115429D01*
X187185513Y-188168567D01*
X186567605Y-188168567D01*
X186578925Y-188148541D01*
X186712765Y-187956014D01*
X187716893Y-187956014D01*
X187770032Y-188009152D01*
X187823170Y-187956014D01*
X187770032Y-187902876D01*
X187716893Y-187956014D01*
X186712765Y-187956014D01*
X186834519Y-187780873D01*
X186985451Y-187604345D01*
X187404314Y-187258956D01*
X187970613Y-186909270D01*
X188622669Y-186589035D01*
X189298797Y-186331998D01*
X189327824Y-186322766D01*
X189715258Y-186211184D01*
X190032376Y-186157099D01*
X190366571Y-186154273D01*
X190805239Y-186196466D01*
G37*
G36*
X201089453Y-169817906D02*
G01*
X201204416Y-170034410D01*
X201221415Y-170075052D01*
X201320570Y-170304495D01*
X201487854Y-170674964D01*
X201700030Y-171135570D01*
X201933859Y-171635428D01*
X201937253Y-171642625D01*
X202157500Y-172116231D01*
X202342244Y-172525861D01*
X202473306Y-172830316D01*
X202532509Y-172988403D01*
X202533777Y-172994570D01*
X202607566Y-173173990D01*
X202627904Y-173198266D01*
X202697111Y-173362364D01*
X202701831Y-173418338D01*
X202769438Y-173597560D01*
X202914383Y-173792632D01*
X203063025Y-173932674D01*
X203126889Y-173954158D01*
X203126935Y-173952787D01*
X203151937Y-173821016D01*
X203216785Y-173548588D01*
X203288235Y-173268522D01*
X203392903Y-172815672D01*
X203481106Y-172343615D01*
X203513277Y-172120868D01*
X203557002Y-171802728D01*
X203597909Y-171579988D01*
X203615123Y-171524046D01*
X203635284Y-171393338D01*
X203653852Y-171107342D01*
X203667308Y-170723310D01*
X203668898Y-170649109D01*
X203687360Y-170274324D01*
X203722229Y-170007692D01*
X203766738Y-169895985D01*
X203777719Y-169897182D01*
X203863564Y-170042721D01*
X203870868Y-170105656D01*
X203902554Y-170274855D01*
X203986247Y-170583076D01*
X204104904Y-170968318D01*
X204124791Y-171029300D01*
X204250919Y-171422746D01*
X204355527Y-171781638D01*
X204441521Y-172132392D01*
X204511804Y-172501425D01*
X204569285Y-172915153D01*
X204616867Y-173399993D01*
X204657456Y-173982362D01*
X204693959Y-174688675D01*
X204729281Y-175545350D01*
X204766327Y-176578802D01*
X204780295Y-176988857D01*
X204805828Y-177584032D01*
X204838887Y-178120179D01*
X204876040Y-178553963D01*
X204913855Y-178842052D01*
X204933399Y-178921935D01*
X205152797Y-179221595D01*
X205527954Y-179376935D01*
X205813459Y-179400784D01*
X206175881Y-179400784D01*
X206243415Y-180885401D01*
X206264856Y-181876545D01*
X206229469Y-182667665D01*
X206136820Y-183263672D01*
X206000177Y-183644757D01*
X205850846Y-183779855D01*
X205543659Y-183892711D01*
X205142985Y-183978599D01*
X204764694Y-184058417D01*
X204474394Y-184142438D01*
X204330987Y-184213387D01*
X204327812Y-184217674D01*
X204366592Y-184274865D01*
X204585960Y-184257563D01*
X204624845Y-184250113D01*
X204991418Y-184181226D01*
X205378007Y-184114842D01*
X205390195Y-184112882D01*
X205793622Y-184048205D01*
X205580909Y-184407967D01*
X205060675Y-185080395D01*
X204370596Y-185628325D01*
X203515203Y-186048797D01*
X202688576Y-186297563D01*
X202203019Y-186367234D01*
X201586099Y-186394497D01*
X200914467Y-186380634D01*
X200264774Y-186326927D01*
X199777426Y-186248871D01*
X199117319Y-186076649D01*
X198453568Y-185832847D01*
X197722892Y-185492431D01*
X197556597Y-185405387D01*
X199513546Y-185405387D01*
X199566684Y-185458525D01*
X199619822Y-185405387D01*
X199726098Y-185405387D01*
X199779237Y-185458525D01*
X199832375Y-185405387D01*
X199779237Y-185352249D01*
X199726098Y-185405387D01*
X199619822Y-185405387D01*
X199566684Y-185352249D01*
X199513546Y-185405387D01*
X197556597Y-185405387D01*
X197353560Y-185299111D01*
X197706852Y-185299111D01*
X197759990Y-185352249D01*
X197813128Y-185299111D01*
X197759990Y-185245972D01*
X197706852Y-185299111D01*
X197353560Y-185299111D01*
X197281747Y-185261522D01*
X196484676Y-184831802D01*
X196516408Y-184374661D01*
X196554546Y-183930987D01*
X196610830Y-183407866D01*
X196679085Y-182849878D01*
X196753139Y-182301601D01*
X196826817Y-181807616D01*
X196893948Y-181412500D01*
X196948356Y-181160834D01*
X196969719Y-181101203D01*
X197017786Y-181110297D01*
X197050245Y-181317905D01*
X197065240Y-181710436D01*
X197065963Y-181805282D01*
X197076207Y-182264146D01*
X197100311Y-182684964D01*
X197133402Y-182986938D01*
X197139185Y-183018726D01*
X197171806Y-183249776D01*
X197127079Y-183322414D01*
X197025959Y-183298369D01*
X196898738Y-183279957D01*
X196896177Y-183403322D01*
X196913562Y-183466516D01*
X197024781Y-183702357D01*
X197116329Y-183811244D01*
X197233809Y-183976617D01*
X197356641Y-184250409D01*
X197379530Y-184316056D01*
X197504653Y-184607387D01*
X197611863Y-184699915D01*
X197684569Y-184592429D01*
X197706852Y-184339968D01*
X197729948Y-184081004D01*
X197836115Y-183956709D01*
X198025680Y-183901579D01*
X198277308Y-183821174D01*
X198319264Y-183719235D01*
X198151456Y-183590821D01*
X198018608Y-183527893D01*
X197692707Y-183386140D01*
X197762213Y-182695872D01*
X197810601Y-182333925D01*
X197857947Y-182115190D01*
X198788346Y-182115190D01*
X198796957Y-182232113D01*
X198911829Y-182448932D01*
X199095115Y-182709298D01*
X199308973Y-182956861D01*
X199430022Y-183070625D01*
X199833364Y-183351702D01*
X200243236Y-183538351D01*
X200610801Y-183616111D01*
X200887224Y-183570521D01*
X200954195Y-183521958D01*
X200922633Y-183437270D01*
X200742030Y-183335583D01*
X200724087Y-183328578D01*
X200336934Y-183123581D01*
X200101309Y-182873941D01*
X200044927Y-182678873D01*
X200090996Y-182545108D01*
X200264192Y-182489524D01*
X200438149Y-182482793D01*
X200683430Y-182469210D01*
X200747587Y-182418323D01*
X200699901Y-182351323D01*
X200556929Y-182296757D01*
X200267830Y-182236927D01*
X199894124Y-182179431D01*
X199497334Y-182131869D01*
X199138984Y-182101842D01*
X198880595Y-182096949D01*
X198788346Y-182115190D01*
X197857947Y-182115190D01*
X197868948Y-182064366D01*
X197921060Y-181950388D01*
X197986647Y-181811860D01*
X197991472Y-181684170D01*
X198020414Y-181533448D01*
X198181311Y-181482349D01*
X198291370Y-181481561D01*
X198639919Y-181517631D01*
X198902458Y-181572790D01*
X199133571Y-181602971D01*
X199194718Y-181537828D01*
X199111046Y-181428362D01*
X199061873Y-181419901D01*
X198899642Y-181355170D01*
X198669974Y-181195749D01*
X198623772Y-181157248D01*
X198371971Y-180966696D01*
X198155083Y-180843890D01*
X198132344Y-180835635D01*
X198020389Y-180761268D01*
X197980571Y-180596319D01*
X197999202Y-180282730D01*
X198000066Y-180274648D01*
X198055661Y-179895418D01*
X198118335Y-179717226D01*
X198185937Y-179745078D01*
X198206723Y-179793986D01*
X198428639Y-180142441D01*
X198812824Y-180474541D01*
X199309419Y-180760464D01*
X199868566Y-180970389D01*
X200329728Y-181063845D01*
X201026262Y-181045328D01*
X201672098Y-180829787D01*
X202243980Y-180430971D01*
X202718650Y-179862631D01*
X202899731Y-179544497D01*
X203122517Y-179008639D01*
X203318263Y-178374143D01*
X203465700Y-177725529D01*
X203543558Y-177147319D01*
X203550469Y-176958569D01*
X203468768Y-176080093D01*
X203242175Y-175219439D01*
X202891485Y-174434780D01*
X202437490Y-173784289D01*
X202401589Y-173744420D01*
X202054796Y-173481471D01*
X201594630Y-173279761D01*
X201112206Y-173170473D01*
X200740088Y-173175798D01*
X200421474Y-173280641D01*
X200071863Y-173458179D01*
X199990018Y-173510521D01*
X199743735Y-173661170D01*
X199577762Y-173732134D01*
X199545850Y-173729601D01*
X199548892Y-173610323D01*
X199607059Y-173351521D01*
X199683994Y-173086692D01*
X199800129Y-172750845D01*
X199903588Y-172572398D01*
X200034276Y-172502802D01*
X200172149Y-172492834D01*
X200404888Y-172532036D01*
X200768303Y-172636702D01*
X201198198Y-172787424D01*
X201374917Y-172856473D01*
X201767837Y-173007784D01*
X202073806Y-173112041D01*
X202249681Y-173155241D01*
X202275401Y-173148733D01*
X202191869Y-172983255D01*
X201976668Y-172743052D01*
X201676517Y-172468969D01*
X201338134Y-172201854D01*
X201008235Y-171982552D01*
X200839980Y-171893721D01*
X200531631Y-171738909D01*
X200320469Y-171606793D01*
X200257479Y-171537638D01*
X200294732Y-171375419D01*
X200391745Y-171091162D01*
X200526400Y-170738882D01*
X200676580Y-170372592D01*
X200820166Y-170046307D01*
X200935041Y-169814040D01*
X200997822Y-169729654D01*
X201089453Y-169817906D01*
G37*
G36*
X202511819Y-160672541D02*
G01*
X202994763Y-160911278D01*
X203336906Y-161308626D01*
X203467681Y-161601383D01*
X203631680Y-162241197D01*
X203637820Y-162757850D01*
X203484894Y-163171838D01*
X203366057Y-163327685D01*
X203117674Y-163567471D01*
X202879348Y-163746221D01*
X202841663Y-163767191D01*
X202472155Y-163866204D01*
X202024597Y-163868198D01*
X201608490Y-163776165D01*
X201506224Y-163730700D01*
X201305991Y-163653564D01*
X201214538Y-163672242D01*
X201213965Y-163678216D01*
X201287604Y-163776258D01*
X201305503Y-163778190D01*
X201356639Y-163866611D01*
X201346252Y-164043880D01*
X201346898Y-164247894D01*
X201414127Y-164309571D01*
X201519326Y-164223694D01*
X201532793Y-164150157D01*
X201583244Y-164008628D01*
X201626020Y-163990742D01*
X201680894Y-164084615D01*
X201770584Y-164329114D01*
X201878759Y-164668557D01*
X201989084Y-165047266D01*
X202085227Y-165409559D01*
X202150854Y-165699756D01*
X202170450Y-165846729D01*
X202104751Y-165908045D01*
X201918602Y-165815947D01*
X201628425Y-165579638D01*
X201529117Y-165487310D01*
X201284651Y-165247820D01*
X201172954Y-165095000D01*
X201172296Y-164969545D01*
X201260950Y-164812148D01*
X201274285Y-164791766D01*
X201385072Y-164597992D01*
X201378170Y-164458608D01*
X201239321Y-164281607D01*
X201186482Y-164225115D01*
X200962287Y-163934472D01*
X200753273Y-163582753D01*
X200719059Y-163512500D01*
X200584482Y-163299947D01*
X202489278Y-163299947D01*
X202542416Y-163353085D01*
X202595555Y-163299947D01*
X202542416Y-163246809D01*
X202489278Y-163299947D01*
X200584482Y-163299947D01*
X200517193Y-163193671D01*
X202701831Y-163193671D01*
X202754969Y-163246809D01*
X202808107Y-163193671D01*
X202754969Y-163140533D01*
X202701831Y-163193671D01*
X200517193Y-163193671D01*
X200514213Y-163188964D01*
X200347456Y-163087395D01*
X201001412Y-163087395D01*
X201054550Y-163140533D01*
X201107688Y-163087395D01*
X201054550Y-163034257D01*
X201001412Y-163087395D01*
X200347456Y-163087395D01*
X200293916Y-163054785D01*
X200293628Y-163054744D01*
X200091207Y-162932719D01*
X200027409Y-162750854D01*
X202418428Y-162750854D01*
X202433016Y-162814035D01*
X202489278Y-162821705D01*
X202576756Y-162782820D01*
X202560129Y-162750854D01*
X202434004Y-162738135D01*
X202418428Y-162750854D01*
X200027409Y-162750854D01*
X199997001Y-162664172D01*
X199999271Y-162602880D01*
X201107688Y-162602880D01*
X201189708Y-162695673D01*
X201374251Y-162711398D01*
X201569041Y-162658030D01*
X201675870Y-162556014D01*
X202808107Y-162556014D01*
X202861245Y-162609152D01*
X202914383Y-162556014D01*
X202861245Y-162502876D01*
X202808107Y-162556014D01*
X201675870Y-162556014D01*
X201678445Y-162553555D01*
X201693836Y-162448201D01*
X201579854Y-162478595D01*
X201528205Y-162505332D01*
X201318446Y-162570247D01*
X201211768Y-162554657D01*
X201115426Y-162565191D01*
X201107688Y-162602880D01*
X199999271Y-162602880D01*
X200011025Y-162285533D01*
X200133294Y-161833230D01*
X200293002Y-161473423D01*
X200452364Y-161203500D01*
X200561221Y-161083600D01*
X200597959Y-161121603D01*
X200540965Y-161325384D01*
X200513833Y-161392931D01*
X200414359Y-161687085D01*
X200393709Y-161870720D01*
X200442403Y-161915479D01*
X200509475Y-161839811D01*
X201260059Y-161839811D01*
X201364522Y-161856829D01*
X201502364Y-161837290D01*
X201504010Y-161801011D01*
X201466771Y-161794369D01*
X202630980Y-161794369D01*
X202645568Y-161857550D01*
X202701831Y-161865219D01*
X202789308Y-161826335D01*
X202772681Y-161794369D01*
X202646557Y-161781649D01*
X202630980Y-161794369D01*
X201466771Y-161794369D01*
X201361771Y-161775641D01*
X201300314Y-161792621D01*
X201260059Y-161839811D01*
X200509475Y-161839811D01*
X200550961Y-161793008D01*
X200611707Y-161685687D01*
X200669123Y-161599529D01*
X201320241Y-161599529D01*
X201373379Y-161652667D01*
X201426517Y-161599529D01*
X201373379Y-161546391D01*
X201320241Y-161599529D01*
X200669123Y-161599529D01*
X200799157Y-161404399D01*
X200921458Y-161280700D01*
X201426517Y-161280700D01*
X201479655Y-161333839D01*
X201532793Y-161280700D01*
X201479655Y-161227562D01*
X201426517Y-161280700D01*
X200921458Y-161280700D01*
X201010100Y-161191044D01*
X201017727Y-161185586D01*
X201146192Y-161063676D01*
X201567950Y-161063676D01*
X201665638Y-161100016D01*
X201823587Y-161177965D01*
X201851621Y-161235355D01*
X201934694Y-161328528D01*
X201974369Y-161333839D01*
X202006593Y-161270504D01*
X201907028Y-161123792D01*
X201867132Y-161094717D01*
X202278353Y-161094717D01*
X202295905Y-161217784D01*
X202369688Y-161141644D01*
X202383002Y-161121286D01*
X202468936Y-161034817D01*
X202487651Y-161094717D01*
X202564403Y-161218123D01*
X202608567Y-161227562D01*
X202664729Y-161176166D01*
X202595555Y-161068148D01*
X202419160Y-160923423D01*
X202304387Y-160960293D01*
X202278353Y-161094717D01*
X201867132Y-161094717D01*
X201727704Y-160993107D01*
X201598297Y-160988454D01*
X201567950Y-161063676D01*
X201146192Y-161063676D01*
X201170529Y-161040581D01*
X201148530Y-160907681D01*
X201121898Y-160872717D01*
X201075746Y-160749320D01*
X202064174Y-160749320D01*
X202117312Y-160802458D01*
X202170450Y-160749320D01*
X202117312Y-160696182D01*
X202064174Y-160749320D01*
X201075746Y-160749320D01*
X201070916Y-160736406D01*
X201194506Y-160647423D01*
X201505313Y-160601123D01*
X201886883Y-160591654D01*
X202511819Y-160672541D01*
G37*
G36*
X194889591Y-184814217D02*
G01*
X194920145Y-184995664D01*
X194909742Y-185045414D01*
X194926728Y-185215453D01*
X195033328Y-185253442D01*
X195131699Y-185273127D01*
X195034435Y-185329038D01*
X195000684Y-185342501D01*
X194867663Y-185407024D01*
X194920102Y-185453161D01*
X195054001Y-185489847D01*
X195247450Y-185603039D01*
X195453357Y-185864408D01*
X195668272Y-186249087D01*
X195851400Y-186594742D01*
X196005857Y-186859678D01*
X196100915Y-186991516D01*
X196106185Y-186995496D01*
X196168514Y-186933166D01*
X196232296Y-186715438D01*
X196256593Y-186574424D01*
X198025680Y-186574424D01*
X198078818Y-186627562D01*
X198131956Y-186574424D01*
X198078818Y-186521286D01*
X198025680Y-186574424D01*
X196256593Y-186574424D01*
X196261536Y-186545733D01*
X196305259Y-186232015D01*
X197203331Y-186232015D01*
X197222886Y-186299474D01*
X197328010Y-186408552D01*
X197381068Y-186311636D01*
X197388023Y-186181203D01*
X197361986Y-186027019D01*
X197272219Y-186063216D01*
X197269752Y-186065666D01*
X197203331Y-186232015D01*
X196305259Y-186232015D01*
X196320979Y-186119226D01*
X196376422Y-185724215D01*
X196644090Y-185724215D01*
X196697228Y-185777353D01*
X196750366Y-185724215D01*
X196697228Y-185671077D01*
X196644090Y-185724215D01*
X196376422Y-185724215D01*
X196381913Y-185685097D01*
X196395491Y-185588930D01*
X196417420Y-185493950D01*
X196679515Y-185493950D01*
X196694104Y-185557131D01*
X196750366Y-185564801D01*
X196962919Y-185564801D01*
X196999178Y-185668314D01*
X197009785Y-185671077D01*
X197100520Y-185596606D01*
X197122333Y-185564801D01*
X197113907Y-185466869D01*
X197075467Y-185458525D01*
X196967244Y-185535672D01*
X196962919Y-185564801D01*
X196750366Y-185564801D01*
X196837844Y-185525916D01*
X196821217Y-185493950D01*
X196695092Y-185481231D01*
X196679515Y-185493950D01*
X196417420Y-185493950D01*
X196480659Y-185220047D01*
X196602002Y-185059144D01*
X196758846Y-185107028D01*
X196780882Y-185127701D01*
X196824177Y-185225035D01*
X196691914Y-185259963D01*
X196644812Y-185283468D01*
X196780101Y-185325069D01*
X196856642Y-185339870D01*
X197113330Y-185413435D01*
X197212603Y-185539524D01*
X197220170Y-185644709D01*
X197246753Y-185831114D01*
X197299878Y-185883629D01*
X197377950Y-185795468D01*
X197394760Y-185697646D01*
X197420632Y-185615847D01*
X197489897Y-185734434D01*
X197506879Y-185775838D01*
X197570115Y-186046683D01*
X197563230Y-186227512D01*
X197565324Y-186383188D01*
X197610525Y-186415010D01*
X197682955Y-186324003D01*
X197706852Y-186149320D01*
X197759279Y-185940004D01*
X197857455Y-185883629D01*
X198049986Y-185923334D01*
X198325389Y-186022271D01*
X198616074Y-186150173D01*
X198854457Y-186276773D01*
X198972948Y-186371805D01*
X198976294Y-186384664D01*
X198933527Y-186567309D01*
X198832236Y-186878797D01*
X198691428Y-187270287D01*
X198530107Y-187692936D01*
X198367278Y-188097903D01*
X198221949Y-188436345D01*
X198113123Y-188659420D01*
X198066935Y-188721621D01*
X197913793Y-188681215D01*
X197808282Y-188587833D01*
X197631873Y-188449821D01*
X197297676Y-188251520D01*
X196845220Y-188011666D01*
X196314034Y-187748994D01*
X195743646Y-187482241D01*
X195173586Y-187230141D01*
X194643382Y-187011431D01*
X194192562Y-186844845D01*
X194007905Y-186786558D01*
X193835007Y-186707971D01*
X193800449Y-186645113D01*
X193844026Y-186556712D01*
X194128888Y-186556712D01*
X194143476Y-186619893D01*
X194199739Y-186627562D01*
X194287216Y-186588678D01*
X194270589Y-186556712D01*
X194144464Y-186543992D01*
X194128888Y-186556712D01*
X193844026Y-186556712D01*
X193862459Y-186519319D01*
X193889430Y-186463473D01*
X194553992Y-186463473D01*
X194600060Y-186570639D01*
X194642556Y-186563477D01*
X194730244Y-186423309D01*
X194731119Y-186408738D01*
X194659814Y-186310653D01*
X194642556Y-186308734D01*
X194563266Y-186394743D01*
X194553992Y-186463473D01*
X193889430Y-186463473D01*
X193988136Y-186259097D01*
X194040751Y-186149320D01*
X194518567Y-186149320D01*
X194571705Y-186202458D01*
X194624843Y-186149320D01*
X194571705Y-186096182D01*
X194518567Y-186149320D01*
X194040751Y-186149320D01*
X194091688Y-186043044D01*
X194306015Y-186043044D01*
X194359153Y-186096182D01*
X194412291Y-186043044D01*
X194359153Y-185989906D01*
X194306015Y-186043044D01*
X194091688Y-186043044D01*
X194142625Y-185936767D01*
X194224032Y-185777353D01*
X194518567Y-185777353D01*
X194557452Y-185864831D01*
X194589418Y-185848204D01*
X194591204Y-185830491D01*
X194943672Y-185830491D01*
X194996810Y-185883629D01*
X195049948Y-185830491D01*
X194996810Y-185777353D01*
X194943672Y-185830491D01*
X194591204Y-185830491D01*
X194602137Y-185722079D01*
X194589418Y-185706502D01*
X194526237Y-185721091D01*
X194518567Y-185777353D01*
X194224032Y-185777353D01*
X194315299Y-185598630D01*
X194468133Y-185339558D01*
X194562634Y-185221031D01*
X194619423Y-185150072D01*
X194594535Y-185141324D01*
X194572011Y-185062753D01*
X194626436Y-184924167D01*
X194768594Y-184780501D01*
X194889591Y-184814217D01*
G37*
G36*
X201191610Y-186554194D02*
G01*
X201395397Y-186673577D01*
X201724034Y-186803184D01*
X201994437Y-186884464D01*
X202849897Y-187177861D01*
X203537114Y-187577879D01*
X204082283Y-188105273D01*
X204511598Y-188780796D01*
X204587452Y-188938970D01*
X204736495Y-189313543D01*
X204816465Y-189672468D01*
X204844023Y-190107916D01*
X204843723Y-190356633D01*
X204817063Y-190833660D01*
X204757048Y-191265480D01*
X204676147Y-191566153D01*
X204583425Y-191768281D01*
X204479504Y-191880515D01*
X204304992Y-191929303D01*
X204000499Y-191941090D01*
X203833554Y-191941370D01*
X203147737Y-191941370D01*
X203292435Y-191460574D01*
X203376914Y-191062944D01*
X203361985Y-190788649D01*
X203250412Y-190668825D01*
X203221841Y-190666056D01*
X203131903Y-190749119D01*
X203126935Y-190787956D01*
X203063861Y-190932555D01*
X202901599Y-191174838D01*
X202754013Y-191364958D01*
X202546146Y-191625001D01*
X202462674Y-191765863D01*
X202491912Y-191831642D01*
X202621168Y-191866242D01*
X202635179Y-191888286D01*
X202469552Y-191908185D01*
X202157197Y-191922837D01*
X201977305Y-191926897D01*
X201544991Y-191929742D01*
X201286363Y-191915539D01*
X201162745Y-191876316D01*
X201135465Y-191804103D01*
X201145232Y-191755387D01*
X201248292Y-191386971D01*
X201315095Y-191199088D01*
X201372119Y-191169186D01*
X201445839Y-191274714D01*
X201528083Y-191429298D01*
X201720406Y-191706780D01*
X201923961Y-191797294D01*
X202176499Y-191704059D01*
X202431258Y-191506296D01*
X202811442Y-191101576D01*
X203052711Y-190691970D01*
X203126935Y-190360787D01*
X203034402Y-190127492D01*
X202789362Y-189863137D01*
X202440655Y-189604768D01*
X202037118Y-189389429D01*
X201685453Y-189267390D01*
X201110257Y-189125052D01*
X201107099Y-189043880D01*
X202388038Y-189043880D01*
X202460688Y-189067139D01*
X202517409Y-189068682D01*
X202691049Y-188986651D01*
X202880646Y-188780005D01*
X202915548Y-188726516D01*
X203067315Y-188385938D01*
X203122164Y-188058592D01*
X203074193Y-187810547D01*
X203004239Y-187733314D01*
X202932030Y-187720205D01*
X202962420Y-187788346D01*
X202976755Y-187972916D01*
X202906356Y-188260159D01*
X202780881Y-188573605D01*
X202629990Y-188836782D01*
X202507233Y-188961946D01*
X202388038Y-189043880D01*
X201107099Y-189043880D01*
X201090232Y-188610297D01*
X201550960Y-188610297D01*
X201553692Y-188725271D01*
X201603644Y-188788511D01*
X201750254Y-188856984D01*
X201847249Y-188795515D01*
X201851621Y-188764456D01*
X201767046Y-188648276D01*
X201692207Y-188608377D01*
X201550960Y-188610297D01*
X201090232Y-188610297D01*
X201070980Y-188115429D01*
X202276726Y-188115429D01*
X202315611Y-188202906D01*
X202347577Y-188186279D01*
X202360296Y-188060154D01*
X202347577Y-188044578D01*
X202284396Y-188059166D01*
X202276726Y-188115429D01*
X201070980Y-188115429D01*
X201056941Y-187754561D01*
X201054611Y-187690324D01*
X202170450Y-187690324D01*
X202209335Y-187777801D01*
X202241301Y-187761175D01*
X202247359Y-187701099D01*
X202519385Y-187701099D01*
X202541684Y-187807590D01*
X202549249Y-187827753D01*
X202633441Y-187957892D01*
X202681306Y-187958827D01*
X202669385Y-187846401D01*
X202608742Y-187768260D01*
X202519385Y-187701099D01*
X202247359Y-187701099D01*
X202254020Y-187635050D01*
X202241301Y-187619473D01*
X202178120Y-187634062D01*
X202170450Y-187690324D01*
X201054611Y-187690324D01*
X201048187Y-187513197D01*
X201674495Y-187513197D01*
X201689083Y-187576378D01*
X201745345Y-187584048D01*
X201832823Y-187545163D01*
X201816196Y-187513197D01*
X201690071Y-187500478D01*
X201674495Y-187513197D01*
X201048187Y-187513197D01*
X201044975Y-187424634D01*
X202170450Y-187424634D01*
X202223588Y-187477772D01*
X202276726Y-187424634D01*
X202266706Y-187414614D01*
X202520805Y-187414614D01*
X202595555Y-187477772D01*
X202765132Y-187573357D01*
X202787724Y-187537357D01*
X202754969Y-187477772D01*
X202599761Y-187376727D01*
X202562713Y-187373123D01*
X202520805Y-187414614D01*
X202266706Y-187414614D01*
X202223588Y-187371495D01*
X202170450Y-187424634D01*
X201044975Y-187424634D01*
X201036699Y-187196453D01*
X201029480Y-186821195D01*
X201038592Y-186599307D01*
X201067341Y-186501311D01*
X201119035Y-186497726D01*
X201191610Y-186554194D01*
G37*
G36*
X194915288Y-191000049D02*
G01*
X194993422Y-191042147D01*
X194943672Y-191091161D01*
X194861968Y-191176477D01*
X194910831Y-191195809D01*
X195079668Y-191121150D01*
X195102253Y-191092508D01*
X195261734Y-191019418D01*
X195547427Y-191043501D01*
X195907586Y-191145703D01*
X196290464Y-191306968D01*
X196644316Y-191508239D01*
X196917393Y-191730461D01*
X196957835Y-191775830D01*
X197005561Y-191859204D01*
X196954696Y-191908917D01*
X196770661Y-191933399D01*
X196418878Y-191941081D01*
X196278864Y-191941370D01*
X195844685Y-191928746D01*
X195588964Y-191892446D01*
X195528191Y-191835094D01*
X195525559Y-191781956D01*
X196006433Y-191781956D01*
X196059571Y-191835094D01*
X196112709Y-191781956D01*
X196059571Y-191728818D01*
X196006433Y-191781956D01*
X195525559Y-191781956D01*
X195523332Y-191737006D01*
X195487597Y-191728818D01*
X195336598Y-191803240D01*
X195326930Y-191816823D01*
X195207377Y-191847937D01*
X194912633Y-191876634D01*
X194480058Y-191900615D01*
X193947014Y-191917582D01*
X193593671Y-191923448D01*
X191914801Y-191942068D01*
X192205467Y-191764243D01*
X195085373Y-191764243D01*
X195099962Y-191827424D01*
X195156224Y-191835094D01*
X195243701Y-191796209D01*
X195227075Y-191764243D01*
X195100950Y-191751524D01*
X195085373Y-191764243D01*
X192205467Y-191764243D01*
X192268689Y-191725565D01*
X192367594Y-191675680D01*
X193136977Y-191675680D01*
X193190115Y-191728818D01*
X193243253Y-191675680D01*
X193225540Y-191657967D01*
X194766545Y-191657967D01*
X194781133Y-191721148D01*
X194837396Y-191728818D01*
X194924873Y-191689933D01*
X194908246Y-191657967D01*
X194782121Y-191645248D01*
X194766545Y-191657967D01*
X193225540Y-191657967D01*
X193190115Y-191622541D01*
X193136977Y-191675680D01*
X192367594Y-191675680D01*
X192578306Y-191569403D01*
X194518567Y-191569403D01*
X194571705Y-191622541D01*
X194624843Y-191569403D01*
X194571705Y-191516265D01*
X194518567Y-191569403D01*
X192578306Y-191569403D01*
X192668284Y-191524021D01*
X192825233Y-191463127D01*
X195156224Y-191463127D01*
X195209362Y-191516265D01*
X195262500Y-191463127D01*
X195209362Y-191409989D01*
X195156224Y-191463127D01*
X192825233Y-191463127D01*
X193177614Y-191326408D01*
X193722954Y-191155671D01*
X193845054Y-191126586D01*
X194447716Y-191126586D01*
X194462305Y-191189767D01*
X194518567Y-191197437D01*
X194606044Y-191158552D01*
X194589418Y-191126586D01*
X194463293Y-191113867D01*
X194447716Y-191126586D01*
X193845054Y-191126586D01*
X194230578Y-191034752D01*
X194626761Y-190986595D01*
X194643582Y-190986512D01*
X194915288Y-191000049D01*
G37*
G36*
X200157356Y-163166822D02*
G01*
X200322016Y-163243611D01*
X200456908Y-163429717D01*
X200586311Y-163758351D01*
X200731013Y-164250025D01*
X200888777Y-164749091D01*
X201058013Y-165160977D01*
X201214870Y-165428731D01*
X201233993Y-165450944D01*
X201416580Y-165618338D01*
X201675918Y-165823213D01*
X201951032Y-166021494D01*
X202180945Y-166169108D01*
X202301183Y-166222289D01*
X202314893Y-166124549D01*
X202325026Y-165866246D01*
X202329715Y-165499362D01*
X202329836Y-165425218D01*
X202329808Y-164628399D01*
X202728372Y-164628399D01*
X203126935Y-164628399D01*
X203126935Y-165584885D01*
X203117360Y-166079323D01*
X203086456Y-166385578D01*
X203030952Y-166527249D01*
X202994090Y-166543733D01*
X202971559Y-166598116D01*
X203096733Y-166727025D01*
X203111561Y-166738618D01*
X203278861Y-166945132D01*
X203317381Y-167162372D01*
X203225513Y-167320230D01*
X203125715Y-167355570D01*
X202967555Y-167321254D01*
X202666034Y-167213122D01*
X202269318Y-167049527D01*
X201957898Y-166910520D01*
X201354865Y-166619197D01*
X200953208Y-166381956D01*
X201320241Y-166381956D01*
X201373379Y-166435094D01*
X201426517Y-166381956D01*
X201373379Y-166328818D01*
X201320241Y-166381956D01*
X200953208Y-166381956D01*
X200912203Y-166357736D01*
X200815930Y-166275680D01*
X202489278Y-166275680D01*
X202542416Y-166328818D01*
X202595555Y-166275680D01*
X202542416Y-166222541D01*
X202489278Y-166275680D01*
X200815930Y-166275680D01*
X200691239Y-166169403D01*
X201532793Y-166169403D01*
X201585931Y-166222541D01*
X201639069Y-166169403D01*
X201585931Y-166116265D01*
X201532793Y-166169403D01*
X200691239Y-166169403D01*
X200590471Y-166083516D01*
X200350228Y-165753915D01*
X200152033Y-165326311D01*
X199956446Y-164758085D01*
X199951415Y-164742236D01*
X199772324Y-164144355D01*
X199673481Y-163716205D01*
X199654667Y-163430787D01*
X199715662Y-163261100D01*
X199856250Y-163180144D01*
X199938651Y-163166140D01*
X200157356Y-163166822D01*
G37*
G36*
X195712212Y-163156146D02*
G01*
X195849525Y-163250922D01*
X195851286Y-163253713D01*
X195999128Y-163332296D01*
X196202956Y-163348728D01*
X196482806Y-163342714D01*
X196646529Y-163399988D01*
X196734434Y-163565559D01*
X196786831Y-163884438D01*
X196801716Y-164017311D01*
X196874736Y-164496235D01*
X196987361Y-165035036D01*
X197077841Y-165383790D01*
X197218088Y-165913523D01*
X197274836Y-166250058D01*
X197248315Y-166395567D01*
X197183069Y-166386652D01*
X197089467Y-166421509D01*
X197050224Y-166530412D01*
X197009379Y-166620222D01*
X196915288Y-166586426D01*
X196737748Y-166410825D01*
X196608119Y-166264013D01*
X196309287Y-165961950D01*
X195989770Y-165703154D01*
X195823685Y-165599713D01*
X195447190Y-165406560D01*
X195886226Y-165230892D01*
X196198642Y-165088415D01*
X196304407Y-164995428D01*
X196204134Y-164954310D01*
X195898436Y-164967439D01*
X195820450Y-164975885D01*
X195315638Y-165034148D01*
X194943672Y-164395578D01*
X194833126Y-164203295D01*
X196537814Y-164203295D01*
X196576699Y-164290772D01*
X196608665Y-164274145D01*
X196621384Y-164148020D01*
X196608665Y-164132444D01*
X196545484Y-164147032D01*
X196537814Y-164203295D01*
X194833126Y-164203295D01*
X194752951Y-164063839D01*
X194607752Y-163803226D01*
X194538946Y-163669172D01*
X194538551Y-163668136D01*
X194608173Y-163587210D01*
X194822407Y-163493631D01*
X194910518Y-163466768D01*
X195224966Y-163384196D01*
X195393937Y-163368762D01*
X195476529Y-163429926D01*
X195528191Y-163565638D01*
X195646288Y-163737972D01*
X195747905Y-163778190D01*
X195820235Y-163739535D01*
X195728016Y-163607141D01*
X195687605Y-163565638D01*
X195531570Y-163375304D01*
X195475052Y-163246809D01*
X195552024Y-163154126D01*
X195712212Y-163156146D01*
G37*
G36*
X190254467Y-177935803D02*
G01*
X190535737Y-177990264D01*
X190896679Y-178096639D01*
X191283702Y-178234029D01*
X191643218Y-178381539D01*
X191921637Y-178518269D01*
X192065371Y-178623324D01*
X192074216Y-178645421D01*
X192160731Y-178728680D01*
X192371199Y-178842544D01*
X192393044Y-178852368D01*
X192633905Y-178993972D01*
X192702591Y-179113049D01*
X192590622Y-179181406D01*
X192494043Y-179188232D01*
X192115853Y-179276160D01*
X191735003Y-179505917D01*
X191405925Y-179826465D01*
X191183056Y-180186766D01*
X191117730Y-180478686D01*
X191167687Y-180868251D01*
X191333843Y-181151211D01*
X191640621Y-181344670D01*
X192112448Y-181465734D01*
X192605493Y-181520521D01*
X193402462Y-181579445D01*
X193497372Y-182031119D01*
X193585196Y-182331337D01*
X193675337Y-182468146D01*
X193745810Y-182428484D01*
X193774631Y-182199289D01*
X193774634Y-182195847D01*
X193800298Y-182021147D01*
X193861097Y-182009864D01*
X193956197Y-182187863D01*
X194060311Y-182479356D01*
X194155941Y-182817510D01*
X194225587Y-183135491D01*
X194251751Y-183366466D01*
X194235531Y-183439961D01*
X194006608Y-183551938D01*
X193616340Y-183640465D01*
X193114986Y-183702166D01*
X192552803Y-183733664D01*
X191980050Y-183731583D01*
X191446985Y-183692545D01*
X191152419Y-183647114D01*
X190449609Y-183409169D01*
X189857564Y-183012774D01*
X189385374Y-182486136D01*
X189042126Y-181857459D01*
X188836909Y-181154950D01*
X188778810Y-180406813D01*
X188876918Y-179641256D01*
X189140321Y-178886482D01*
X189446392Y-178352369D01*
X189641151Y-178083160D01*
X189797422Y-177951613D01*
X189993135Y-177917555D01*
X190254467Y-177935803D01*
G37*
G36*
X203196371Y-175759681D02*
G01*
X203282076Y-176055128D01*
X203325909Y-176464687D01*
X203324014Y-176964164D01*
X203272531Y-177529360D01*
X203167605Y-178136079D01*
X203127313Y-178313488D01*
X202921966Y-179047296D01*
X202685239Y-179616235D01*
X202387622Y-180067980D01*
X201999601Y-180450207D01*
X201641991Y-180712937D01*
X201367328Y-180814022D01*
X200959902Y-180870474D01*
X200495379Y-180879327D01*
X200049425Y-180837616D01*
X199813922Y-180784601D01*
X199312124Y-180571097D01*
X198860940Y-180266239D01*
X198495843Y-179906838D01*
X198252308Y-179529703D01*
X198165807Y-179171644D01*
X198173997Y-179082906D01*
X198226904Y-178796314D01*
X198299615Y-178414271D01*
X198382001Y-177988479D01*
X198463931Y-177570639D01*
X198535277Y-177212449D01*
X198585908Y-176965611D01*
X198605312Y-176881514D01*
X198702736Y-176899982D01*
X198931867Y-176972275D01*
X199039372Y-177009694D01*
X199791528Y-177169736D01*
X200559680Y-177138488D01*
X201302782Y-176929413D01*
X201979792Y-176555979D01*
X202549667Y-176031651D01*
X202726602Y-175799993D01*
X202914777Y-175607917D01*
X203072652Y-175602545D01*
X203196371Y-175759681D01*
G37*
G36*
X201511057Y-173440629D02*
G01*
X201924113Y-173575816D01*
X202197488Y-173739480D01*
X202354320Y-173928634D01*
X202544345Y-174221848D01*
X202734878Y-174558896D01*
X202893232Y-174879554D01*
X202986722Y-175123597D01*
X202997157Y-175212887D01*
X202883059Y-175235093D01*
X202570013Y-175190335D01*
X202060626Y-175079130D01*
X201357508Y-174901997D01*
X201134859Y-174842954D01*
X200897508Y-174777772D01*
X202170450Y-174777772D01*
X202223588Y-174830910D01*
X202276726Y-174777772D01*
X202223588Y-174724634D01*
X202170450Y-174777772D01*
X200897508Y-174777772D01*
X200546409Y-174681352D01*
X200036292Y-174533286D01*
X199637168Y-174408895D01*
X199381700Y-174318313D01*
X199301596Y-174273992D01*
X199387116Y-174148578D01*
X199607932Y-173965568D01*
X199908487Y-173760928D01*
X200233223Y-173570619D01*
X200526581Y-173430605D01*
X200678462Y-173382732D01*
X201065012Y-173369028D01*
X201511057Y-173440629D01*
G37*
G36*
X192331122Y-177078360D02*
G01*
X192574341Y-177142819D01*
X192638815Y-177208536D01*
X192685713Y-177395544D01*
X192740881Y-177703616D01*
X192765890Y-177872762D01*
X192816073Y-178232860D01*
X192860161Y-178539839D01*
X192873678Y-178630282D01*
X192894910Y-178816284D01*
X192890815Y-178869403D01*
X192800884Y-178813663D01*
X192583891Y-178667532D01*
X192286813Y-178462645D01*
X192286765Y-178462612D01*
X191851494Y-178187845D01*
X191383859Y-177938081D01*
X190940561Y-177739595D01*
X190578300Y-177618662D01*
X190412547Y-177594090D01*
X190282518Y-177565355D01*
X190326798Y-177490907D01*
X190516803Y-177388381D01*
X190823949Y-177275415D01*
X191022218Y-177217934D01*
X191507240Y-177116196D01*
X191959481Y-177069578D01*
X192331122Y-177078360D01*
G37*
G36*
X195667030Y-165684334D02*
G01*
X195986762Y-165859389D01*
X196297962Y-166114928D01*
X196567815Y-166427685D01*
X196763510Y-166774394D01*
X196852235Y-167131789D01*
X196854279Y-167200318D01*
X196753389Y-167562100D01*
X196485876Y-167856742D01*
X196093239Y-168060267D01*
X195616980Y-168148701D01*
X195248349Y-168128086D01*
X194914666Y-168046911D01*
X194596552Y-167923717D01*
X194348915Y-167786063D01*
X194226663Y-167661503D01*
X194227807Y-167615906D01*
X194336799Y-167395347D01*
X194494058Y-167050413D01*
X194669068Y-166651304D01*
X194831308Y-166268219D01*
X194950261Y-165971359D01*
X194984762Y-165874734D01*
X195133217Y-165668741D01*
X195371578Y-165613030D01*
X195667030Y-165684334D01*
G37*
G36*
X193898315Y-164068963D02*
G01*
X194179836Y-164278781D01*
X194501549Y-164582932D01*
X194777803Y-164893154D01*
X194999579Y-165183166D01*
X195091664Y-165368931D01*
X195073743Y-165497413D01*
X195046980Y-165535322D01*
X194892705Y-165669397D01*
X194747983Y-165641070D01*
X194565082Y-165436963D01*
X194531835Y-165390966D01*
X194306178Y-165135674D01*
X194019058Y-164891214D01*
X193724478Y-164694307D01*
X193476444Y-164581674D01*
X193340471Y-164580859D01*
X193304411Y-164555261D01*
X193371208Y-164394590D01*
X193410283Y-164325298D01*
X193563274Y-164105510D01*
X193686116Y-163994144D01*
X193701435Y-163990742D01*
X193898315Y-164068963D01*
G37*
G36*
X193220943Y-164809419D02*
G01*
X193494873Y-165027380D01*
X193893908Y-165379151D01*
X194140591Y-165605820D01*
X194677981Y-166104999D01*
X194207136Y-166585863D01*
X193722678Y-167016124D01*
X193263567Y-167273476D01*
X192778521Y-167383272D01*
X192577411Y-167391579D01*
X192103107Y-167391579D01*
X192035523Y-166898503D01*
X191984152Y-166466980D01*
X191979299Y-166198965D01*
X192027592Y-166049193D01*
X192135659Y-165972396D01*
X192173057Y-165959211D01*
X192331741Y-165836092D01*
X192536003Y-165582321D01*
X192705346Y-165314392D01*
X192882820Y-165013175D01*
X193020606Y-164803566D01*
X193083533Y-164734675D01*
X193220943Y-164809419D01*
G37*
G36*
X192875571Y-179389523D02*
G01*
X192939324Y-179491385D01*
X193012901Y-179747076D01*
X193086733Y-180098761D01*
X193151251Y-180488602D01*
X193196887Y-180858764D01*
X193214071Y-181151410D01*
X193193236Y-181308705D01*
X193193123Y-181308888D01*
X193034959Y-181389829D01*
X192740589Y-181417638D01*
X192378655Y-181395898D01*
X192017796Y-181328193D01*
X191756527Y-181233883D01*
X191411415Y-180977695D01*
X191267040Y-180652956D01*
X191321839Y-180254938D01*
X191383846Y-180105694D01*
X191682567Y-179708436D01*
X192117346Y-179461964D01*
X192663300Y-179378224D01*
X192875571Y-179389523D01*
G37*
G36*
X198491685Y-188919718D02*
G01*
X198743479Y-189034448D01*
X199089019Y-189219989D01*
X199487124Y-189452237D01*
X199896619Y-189707083D01*
X200276324Y-189960421D01*
X200585062Y-190188145D01*
X200611031Y-190209055D01*
X200797042Y-190376515D01*
X200812254Y-190439513D01*
X200652297Y-190397962D01*
X200312800Y-190251780D01*
X200204341Y-190201222D01*
X199907881Y-190042726D01*
X199555881Y-189826776D01*
X199188925Y-189582238D01*
X198847597Y-189337977D01*
X198572479Y-189122861D01*
X198404157Y-188965756D01*
X198374813Y-188899908D01*
X198491685Y-188919718D01*
G37*
G36*
X187743462Y-190462360D02*
G01*
X187942796Y-190818753D01*
X188088587Y-191125522D01*
X188161586Y-191337503D01*
X188147331Y-191409989D01*
X188039171Y-191323442D01*
X187889092Y-191104486D01*
X187817916Y-190974586D01*
X187697879Y-190704001D01*
X187648495Y-190517818D01*
X187656341Y-190478630D01*
X187740567Y-190458310D01*
X187743462Y-190462360D01*
G37*
G36*
X188043454Y-169972443D02*
G01*
X188141870Y-170045490D01*
X188141998Y-170048483D01*
X188051244Y-170129067D01*
X187882580Y-170154759D01*
X187657551Y-170115574D01*
X187557479Y-170048483D01*
X187599008Y-169973215D01*
X187805776Y-169942258D01*
X187816897Y-169942207D01*
X188043454Y-169972443D01*
G37*
G36*
X185643505Y-185448473D02*
G01*
X185757491Y-185580378D01*
X185737500Y-185692572D01*
X185585958Y-185776605D01*
X185395751Y-185714323D01*
X185284730Y-185587574D01*
X185243623Y-185441390D01*
X185371251Y-185396305D01*
X185413836Y-185395062D01*
X185643505Y-185448473D01*
G37*
G36*
X199488216Y-165511864D02*
G01*
X199513059Y-165540592D01*
X199360441Y-165556711D01*
X199247856Y-165558083D01*
X199042043Y-165547620D01*
X199010818Y-165523616D01*
X199063112Y-165509720D01*
X199340028Y-165492609D01*
X199488216Y-165511864D01*
G37*
G36*
X195258175Y-160667053D02*
G01*
X195262500Y-160696182D01*
X195226240Y-160799695D01*
X195215634Y-160802458D01*
X195124899Y-160727986D01*
X195103086Y-160696182D01*
X195111512Y-160598250D01*
X195149952Y-160589906D01*
X195258175Y-160667053D01*
G37*
G36*
X194841414Y-160673009D02*
G01*
X194875828Y-160749320D01*
X194878037Y-160886167D01*
X194834060Y-160908734D01*
X194742716Y-160822604D01*
X194731119Y-160749320D01*
X194753857Y-160607525D01*
X194772887Y-160589906D01*
X194841414Y-160673009D01*
G37*
G36*
X194302926Y-160670779D02*
G01*
X194306015Y-160696182D01*
X194225141Y-160799370D01*
X194199739Y-160802458D01*
X194096551Y-160721584D01*
X194093462Y-160696182D01*
X194174336Y-160592994D01*
X194199739Y-160589906D01*
X194302926Y-160670779D01*
G37*
G36*
X193984144Y-160666183D02*
G01*
X193987186Y-160689910D01*
X193909934Y-160833843D01*
X193880910Y-160855596D01*
X193789927Y-160831503D01*
X193774634Y-160755592D01*
X193830121Y-160610183D01*
X193880910Y-160589906D01*
X193984144Y-160666183D01*
G37*
G36*
X193475290Y-160673155D02*
G01*
X193556489Y-160808431D01*
X193546140Y-160853825D01*
X193435103Y-160850535D01*
X193420380Y-160837883D01*
X193350312Y-160674273D01*
X193349529Y-160657214D01*
X193403449Y-160617699D01*
X193475290Y-160673155D01*
G37*
G36*
X192393044Y-160643044D02*
G01*
X192494430Y-160738544D01*
X192499320Y-160755592D01*
X192417095Y-160801239D01*
X192393044Y-160802458D01*
X192290852Y-160720758D01*
X192286768Y-160689910D01*
X192351877Y-160626438D01*
X192393044Y-160643044D01*
G37*
G36*
X189290758Y-163514848D02*
G01*
X189311036Y-163565638D01*
X189234758Y-163668872D01*
X189211032Y-163671914D01*
X189067098Y-163594662D01*
X189045345Y-163565638D01*
X189069438Y-163474655D01*
X189145349Y-163459362D01*
X189290758Y-163514848D01*
G37*
G36*
X188562778Y-188298852D02*
G01*
X188567103Y-188327981D01*
X188530843Y-188431494D01*
X188520237Y-188434257D01*
X188429501Y-188359785D01*
X188407688Y-188327981D01*
X188416115Y-188230049D01*
X188454554Y-188221705D01*
X188562778Y-188298852D01*
G37*
G36*
X187926357Y-161414712D02*
G01*
X187929446Y-161440115D01*
X187848572Y-161543303D01*
X187823170Y-161546391D01*
X187719982Y-161465517D01*
X187716893Y-161440115D01*
X187797767Y-161336927D01*
X187823170Y-161333839D01*
X187926357Y-161414712D01*
G37*
G36*
X185268217Y-166193412D02*
G01*
X185272542Y-166222541D01*
X185236282Y-166326055D01*
X185225676Y-166328818D01*
X185134941Y-166254346D01*
X185113128Y-166222541D01*
X185121554Y-166124610D01*
X185159994Y-166116265D01*
X185268217Y-166193412D01*
G37*
G36*
X183892686Y-189338676D02*
G01*
X183949244Y-189461066D01*
X183869276Y-189580052D01*
X183784676Y-189603295D01*
X183646098Y-189526780D01*
X183629800Y-189504362D01*
X183636703Y-189378377D01*
X183764468Y-189311070D01*
X183892686Y-189338676D01*
G37*
G36*
X183037655Y-183201323D02*
G01*
X183040743Y-183226726D01*
X182959869Y-183329913D01*
X182934467Y-183333002D01*
X182831279Y-183252128D01*
X182828191Y-183226726D01*
X182909064Y-183123538D01*
X182934467Y-183120449D01*
X183037655Y-183201323D01*
G37*
G36*
X201517570Y-175138081D02*
G01*
X201594488Y-175247216D01*
X201556181Y-175294698D01*
X201411509Y-175279314D01*
X201319270Y-175201706D01*
X201256731Y-175072545D01*
X201346051Y-175054975D01*
X201517570Y-175138081D01*
G37*
G36*
X206598623Y-177204410D02*
G01*
X206584034Y-177267591D01*
X206527772Y-177275261D01*
X206440295Y-177236376D01*
X206456921Y-177204410D01*
X206583046Y-177191691D01*
X206598623Y-177204410D01*
G37*
G36*
X197671426Y-185706502D02*
G01*
X197684145Y-185832627D01*
X197671426Y-185848204D01*
X197608245Y-185833615D01*
X197600575Y-185777353D01*
X197639460Y-185689876D01*
X197671426Y-185706502D01*
G37*
G36*
X197671426Y-165514034D02*
G01*
X197656838Y-165577215D01*
X197600575Y-165584885D01*
X197513098Y-165546000D01*
X197529725Y-165514034D01*
X197655850Y-165501315D01*
X197671426Y-165514034D01*
G37*
G36*
X195547651Y-160676255D02*
G01*
X195560321Y-160842352D01*
X195539261Y-160879951D01*
X195490957Y-160848255D01*
X195483443Y-160740463D01*
X195509397Y-160627063D01*
X195547651Y-160676255D01*
G37*
G36*
X194483142Y-160625331D02*
G01*
X194495861Y-160751456D01*
X194483142Y-160767032D01*
X194419961Y-160752444D01*
X194412291Y-160696182D01*
X194451176Y-160608704D01*
X194483142Y-160625331D01*
G37*
G36*
X192888999Y-160625331D02*
G01*
X192901719Y-160751456D01*
X192888999Y-160767032D01*
X192825818Y-160752444D01*
X192818149Y-160696182D01*
X192857033Y-160608704D01*
X192888999Y-160625331D01*
G37*
G36*
X192676447Y-160625331D02*
G01*
X192689166Y-160751456D01*
X192676447Y-160767032D01*
X192613266Y-160752444D01*
X192605596Y-160696182D01*
X192644481Y-160608704D01*
X192676447Y-160625331D01*
G37*
G36*
X191827986Y-160676255D02*
G01*
X191840656Y-160842352D01*
X191819596Y-160879951D01*
X191771292Y-160848255D01*
X191763777Y-160740463D01*
X191789732Y-160627063D01*
X191827986Y-160676255D01*
G37*
G36*
X191507409Y-160625331D02*
G01*
X191520129Y-160751456D01*
X191507409Y-160767032D01*
X191444228Y-160752444D01*
X191436559Y-160696182D01*
X191475443Y-160608704D01*
X191507409Y-160625331D01*
G37*
G36*
X191190329Y-160676255D02*
G01*
X191202999Y-160842352D01*
X191181939Y-160879951D01*
X191133635Y-160848255D01*
X191126120Y-160740463D01*
X191152075Y-160627063D01*
X191190329Y-160676255D01*
G37*
G36*
X190949207Y-190136194D02*
G01*
X190991096Y-190286701D01*
X190949207Y-190345709D01*
X190864320Y-190362153D01*
X190844449Y-190240952D01*
X190878670Y-190105400D01*
X190949207Y-190136194D01*
G37*
G36*
X190871501Y-160676255D02*
G01*
X190884170Y-160842352D01*
X190863110Y-160879951D01*
X190814807Y-160848255D01*
X190807292Y-160740463D01*
X190833247Y-160627063D01*
X190871501Y-160676255D01*
G37*
G36*
X190657200Y-189213615D02*
G01*
X190669919Y-189339740D01*
X190657200Y-189355317D01*
X190594019Y-189340728D01*
X190586349Y-189284466D01*
X190625234Y-189196989D01*
X190657200Y-189213615D01*
G37*
G36*
X189594439Y-162325749D02*
G01*
X189607158Y-162451874D01*
X189594439Y-162467451D01*
X189531258Y-162452862D01*
X189523588Y-162396600D01*
X189562473Y-162309123D01*
X189594439Y-162325749D01*
G37*
G36*
X189169334Y-188257130D02*
G01*
X189154746Y-188320311D01*
X189098483Y-188327981D01*
X189011006Y-188289096D01*
X189027633Y-188257130D01*
X189153758Y-188244411D01*
X189169334Y-188257130D01*
G37*
G36*
X207165429Y-172120868D02*
G01*
X207112291Y-172174006D01*
X207059153Y-172120868D01*
X207112291Y-172067730D01*
X207165429Y-172120868D01*
G37*
G36*
X206740324Y-165531747D02*
G01*
X206687186Y-165584885D01*
X206634048Y-165531747D01*
X206687186Y-165478608D01*
X206740324Y-165531747D01*
G37*
G36*
X205465011Y-164468985D02*
G01*
X205411873Y-164522123D01*
X205358734Y-164468985D01*
X205411873Y-164415847D01*
X205465011Y-164468985D01*
G37*
G36*
X205252458Y-188381119D02*
G01*
X205199320Y-188434257D01*
X205146182Y-188381119D01*
X205199320Y-188327981D01*
X205252458Y-188381119D01*
G37*
G36*
X203764592Y-163831328D02*
G01*
X203711454Y-163884466D01*
X203658316Y-163831328D01*
X203711454Y-163778190D01*
X203764592Y-163831328D01*
G37*
G36*
X200895136Y-160855596D02*
G01*
X200841998Y-160908734D01*
X200788860Y-160855596D01*
X200841998Y-160802458D01*
X200895136Y-160855596D01*
G37*
G36*
X199513546Y-161599529D02*
G01*
X199460408Y-161652667D01*
X199407270Y-161599529D01*
X199460408Y-161546391D01*
X199513546Y-161599529D01*
G37*
G36*
X196962919Y-163406223D02*
G01*
X196909780Y-163459362D01*
X196856642Y-163406223D01*
X196909780Y-163353085D01*
X196962919Y-163406223D01*
G37*
G36*
X195900157Y-161174424D02*
G01*
X195847019Y-161227562D01*
X195793881Y-161174424D01*
X195847019Y-161121286D01*
X195900157Y-161174424D01*
G37*
G36*
X195687605Y-188062290D02*
G01*
X195634467Y-188115429D01*
X195581329Y-188062290D01*
X195634467Y-188009152D01*
X195687605Y-188062290D01*
G37*
G36*
X194412291Y-165531747D02*
G01*
X194359153Y-165584885D01*
X194306015Y-165531747D01*
X194359153Y-165478608D01*
X194412291Y-165531747D01*
G37*
G36*
X193562082Y-161386977D02*
G01*
X193508944Y-161440115D01*
X193455806Y-161386977D01*
X193508944Y-161333839D01*
X193562082Y-161386977D01*
G37*
G36*
X192074216Y-162449738D02*
G01*
X192021078Y-162502876D01*
X191967939Y-162449738D01*
X192021078Y-162396600D01*
X192074216Y-162449738D01*
G37*
G36*
X191861663Y-161493253D02*
G01*
X191808525Y-161546391D01*
X191755387Y-161493253D01*
X191808525Y-161440115D01*
X191861663Y-161493253D01*
G37*
G36*
X191011454Y-189550157D02*
G01*
X190958316Y-189603295D01*
X190905178Y-189550157D01*
X190958316Y-189497018D01*
X191011454Y-189550157D01*
G37*
G36*
X191011454Y-161493253D02*
G01*
X190958316Y-161546391D01*
X190905178Y-161493253D01*
X190958316Y-161440115D01*
X191011454Y-161493253D01*
G37*
G36*
X190480073Y-189337604D02*
G01*
X190426935Y-189390742D01*
X190373797Y-189337604D01*
X190426935Y-189284466D01*
X190480073Y-189337604D01*
G37*
G36*
X189098483Y-187318357D02*
G01*
X189045345Y-187371495D01*
X188992207Y-187318357D01*
X189045345Y-187265219D01*
X189098483Y-187318357D01*
G37*
G36*
X188992207Y-187743462D02*
G01*
X188939069Y-187796600D01*
X188885931Y-187743462D01*
X188939069Y-187690324D01*
X188992207Y-187743462D01*
G37*
G36*
X188141998Y-169676516D02*
G01*
X188088860Y-169729654D01*
X188035722Y-169676516D01*
X188088860Y-169623378D01*
X188141998Y-169676516D01*
G37*
G36*
X187929446Y-185405387D02*
G01*
X187876308Y-185458525D01*
X187823170Y-185405387D01*
X187876308Y-185352249D01*
X187929446Y-185405387D01*
G37*
G36*
X186229027Y-185299111D02*
G01*
X186175889Y-185352249D01*
X186122751Y-185299111D01*
X186175889Y-185245972D01*
X186229027Y-185299111D01*
G37*
G36*
X183997228Y-184874006D02*
G01*
X183944090Y-184927144D01*
X183890952Y-184874006D01*
X183944090Y-184820868D01*
X183997228Y-184874006D01*
G37*
G36*
X183784676Y-166488232D02*
G01*
X183731538Y-166541370D01*
X183678400Y-166488232D01*
X183731538Y-166435094D01*
X183784676Y-166488232D01*
G37*
D12*
X109745000Y-97395000D02*
X123715000Y-97395000D01*
X109745000Y-111365000D02*
X109745000Y-97395000D01*
X123715000Y-97395000D02*
X123715000Y-111365000D01*
X123715000Y-111365000D02*
X109745000Y-111365000D01*
X52595000Y-97395000D02*
X66565000Y-97395000D01*
X52595000Y-111365000D02*
X52595000Y-97395000D01*
X66565000Y-97395000D02*
X66565000Y-111365000D01*
X66565000Y-111365000D02*
X52595000Y-111365000D01*
X185945000Y-97395000D02*
X199915000Y-97395000D01*
X185945000Y-111365000D02*
X185945000Y-97395000D01*
X199915000Y-97395000D02*
X199915000Y-111365000D01*
X199915000Y-111365000D02*
X185945000Y-111365000D01*
X143078500Y-135495000D02*
X157048500Y-135495000D01*
X143078500Y-149465000D02*
X143078500Y-135495000D01*
X157048500Y-135495000D02*
X157048500Y-149465000D01*
X157048500Y-149465000D02*
X143078500Y-149465000D01*
X297861000Y-154545000D02*
X311831000Y-154545000D01*
X297861000Y-168515000D02*
X297861000Y-154545000D01*
X311831000Y-154545000D02*
X311831000Y-168515000D01*
X311831000Y-168515000D02*
X297861000Y-168515000D01*
X266905500Y-154545000D02*
X280875500Y-154545000D01*
X266905500Y-168515000D02*
X266905500Y-154545000D01*
X280875500Y-154545000D02*
X280875500Y-168515000D01*
X280875500Y-168515000D02*
X266905500Y-168515000D01*
X228805500Y-154545000D02*
X242775500Y-154545000D01*
X228805500Y-168515000D02*
X228805500Y-154545000D01*
X242775500Y-154545000D02*
X242775500Y-168515000D01*
X242775500Y-168515000D02*
X228805500Y-168515000D01*
X133555500Y-154545000D02*
X147525500Y-154545000D01*
X133555500Y-168515000D02*
X133555500Y-154545000D01*
X147525500Y-154545000D02*
X147525500Y-168515000D01*
X147525500Y-168515000D02*
X133555500Y-168515000D01*
X347866000Y-173595000D02*
X361836000Y-173595000D01*
X347866000Y-187565000D02*
X347866000Y-173595000D01*
X361836000Y-173595000D02*
X361836000Y-187565000D01*
X361836000Y-187565000D02*
X347866000Y-187565000D01*
X276428500Y-135495000D02*
X290398500Y-135495000D01*
X276428500Y-149465000D02*
X276428500Y-135495000D01*
X290398500Y-135495000D02*
X290398500Y-149465000D01*
X290398500Y-149465000D02*
X276428500Y-149465000D01*
X240711000Y-173595000D02*
X254681000Y-173595000D01*
X240711000Y-187565000D02*
X240711000Y-173595000D01*
X254681000Y-173595000D02*
X254681000Y-187565000D01*
X254681000Y-187565000D02*
X240711000Y-187565000D01*
X257378500Y-135495000D02*
X271348500Y-135495000D01*
X257378500Y-149465000D02*
X257378500Y-135495000D01*
X271348500Y-135495000D02*
X271348500Y-149465000D01*
X271348500Y-149465000D02*
X257378500Y-149465000D01*
X281195000Y-97395000D02*
X295165000Y-97395000D01*
X281195000Y-111365000D02*
X281195000Y-97395000D01*
X295165000Y-97395000D02*
X295165000Y-111365000D01*
X295165000Y-111365000D02*
X281195000Y-111365000D01*
X147845000Y-97395000D02*
X161815000Y-97395000D01*
X147845000Y-111365000D02*
X147845000Y-97395000D01*
X161815000Y-97395000D02*
X161815000Y-111365000D01*
X161815000Y-111365000D02*
X147845000Y-111365000D01*
X54975000Y-173595000D02*
X68945000Y-173595000D01*
X54975000Y-187565000D02*
X54975000Y-173595000D01*
X68945000Y-173595000D02*
X68945000Y-187565000D01*
X68945000Y-187565000D02*
X54975000Y-187565000D01*
X262145000Y-97395000D02*
X276115000Y-97395000D01*
X262145000Y-111365000D02*
X262145000Y-97395000D01*
X276115000Y-97395000D02*
X276115000Y-111365000D01*
X276115000Y-111365000D02*
X262145000Y-111365000D01*
X328816000Y-173595000D02*
X342786000Y-173595000D01*
X328816000Y-187565000D02*
X328816000Y-173595000D01*
X342786000Y-173595000D02*
X342786000Y-187565000D01*
X342786000Y-187565000D02*
X328816000Y-187565000D01*
X114515000Y-154545000D02*
X128485000Y-154545000D01*
X114515000Y-168515000D02*
X114515000Y-154545000D01*
X128485000Y-154545000D02*
X128485000Y-168515000D01*
X128485000Y-168515000D02*
X114515000Y-168515000D01*
X162128500Y-135495000D02*
X176098500Y-135495000D01*
X162128500Y-149465000D02*
X162128500Y-135495000D01*
X176098500Y-135495000D02*
X176098500Y-149465000D01*
X176098500Y-149465000D02*
X162128500Y-149465000D01*
X271669000Y-116445000D02*
X285639000Y-116445000D01*
X271669000Y-130415000D02*
X271669000Y-116445000D01*
X285639000Y-116445000D02*
X285639000Y-130415000D01*
X285639000Y-130415000D02*
X271669000Y-130415000D01*
X290719000Y-116445000D02*
X304689000Y-116445000D01*
X290719000Y-130415000D02*
X290719000Y-116445000D01*
X304689000Y-116445000D02*
X304689000Y-130415000D01*
X304689000Y-130415000D02*
X290719000Y-130415000D01*
X124028500Y-135495000D02*
X137998500Y-135495000D01*
X124028500Y-149465000D02*
X124028500Y-135495000D01*
X137998500Y-135495000D02*
X137998500Y-149465000D01*
X137998500Y-149465000D02*
X124028500Y-149465000D01*
X64500000Y-154545000D02*
X78470000Y-154545000D01*
X64500000Y-168515000D02*
X64500000Y-154545000D01*
X78470000Y-154545000D02*
X78470000Y-168515000D01*
X78470000Y-168515000D02*
X64500000Y-168515000D01*
X169227500Y-173595000D02*
X183197500Y-173595000D01*
X169227500Y-187565000D02*
X169227500Y-173595000D01*
X183197500Y-173595000D02*
X183197500Y-187565000D01*
X183197500Y-187565000D02*
X169227500Y-187565000D01*
X95455500Y-154545000D02*
X109425500Y-154545000D01*
X95455500Y-168515000D02*
X95455500Y-154545000D01*
X109425500Y-154545000D02*
X109425500Y-168515000D01*
X109425500Y-168515000D02*
X95455500Y-168515000D01*
X214519000Y-116445000D02*
X228489000Y-116445000D01*
X214519000Y-130415000D02*
X214519000Y-116445000D01*
X228489000Y-116445000D02*
X228489000Y-130415000D01*
X228489000Y-130415000D02*
X214519000Y-130415000D01*
X119269000Y-116445000D02*
X133239000Y-116445000D01*
X119269000Y-130415000D02*
X119269000Y-116445000D01*
X133239000Y-116445000D02*
X133239000Y-130415000D01*
X133239000Y-130415000D02*
X119269000Y-130415000D01*
X100219000Y-116445000D02*
X114189000Y-116445000D01*
X100219000Y-130415000D02*
X100219000Y-116445000D01*
X114189000Y-116445000D02*
X114189000Y-130415000D01*
X114189000Y-130415000D02*
X100219000Y-130415000D01*
X171655500Y-154545000D02*
X185625500Y-154545000D01*
X171655500Y-168515000D02*
X171655500Y-154545000D01*
X185625500Y-154545000D02*
X185625500Y-168515000D01*
X185625500Y-168515000D02*
X171655500Y-168515000D01*
X347866000Y-116445000D02*
X361836000Y-116445000D01*
X347866000Y-130415000D02*
X347866000Y-116445000D01*
X361836000Y-116445000D02*
X361836000Y-130415000D01*
X361836000Y-130415000D02*
X347866000Y-130415000D01*
X328816000Y-154545000D02*
X342786000Y-154545000D01*
X328816000Y-168515000D02*
X328816000Y-154545000D01*
X342786000Y-154545000D02*
X342786000Y-168515000D01*
X342786000Y-168515000D02*
X328816000Y-168515000D01*
X243095000Y-97395000D02*
X257065000Y-97395000D01*
X243095000Y-111365000D02*
X243095000Y-97395000D01*
X257065000Y-97395000D02*
X257065000Y-111365000D01*
X257065000Y-111365000D02*
X243095000Y-111365000D01*
X204675500Y-168515000D02*
X190705500Y-168515000D01*
X204675500Y-154545000D02*
X204675500Y-168515000D01*
X190705500Y-168515000D02*
X190705500Y-154545000D01*
X190705500Y-154545000D02*
X204675500Y-154545000D01*
X57355000Y-116445000D02*
X71325000Y-116445000D01*
X57355000Y-130415000D02*
X57355000Y-116445000D01*
X71325000Y-116445000D02*
X71325000Y-130415000D01*
X71325000Y-130415000D02*
X57355000Y-130415000D01*
X288335000Y-173595000D02*
X302305000Y-173595000D01*
X288335000Y-187565000D02*
X288335000Y-173595000D01*
X302305000Y-173595000D02*
X302305000Y-187565000D01*
X302305000Y-187565000D02*
X288335000Y-187565000D01*
X209755500Y-154545000D02*
X223725500Y-154545000D01*
X209755500Y-168515000D02*
X209755500Y-154545000D01*
X223725500Y-154545000D02*
X223725500Y-168515000D01*
X223725500Y-168515000D02*
X209755500Y-168515000D01*
X224045000Y-97395000D02*
X238015000Y-97395000D01*
X224045000Y-111365000D02*
X224045000Y-97395000D01*
X238015000Y-97395000D02*
X238015000Y-111365000D01*
X238015000Y-111365000D02*
X224045000Y-111365000D01*
X81169000Y-116445000D02*
X95139000Y-116445000D01*
X81169000Y-130415000D02*
X81169000Y-116445000D01*
X95139000Y-116445000D02*
X95139000Y-130415000D01*
X95139000Y-130415000D02*
X81169000Y-130415000D01*
X104975000Y-135495000D02*
X118945000Y-135495000D01*
X104975000Y-149465000D02*
X104975000Y-135495000D01*
X118945000Y-135495000D02*
X118945000Y-149465000D01*
X118945000Y-149465000D02*
X104975000Y-149465000D01*
X138319000Y-116445000D02*
X152289000Y-116445000D01*
X138319000Y-130415000D02*
X138319000Y-116445000D01*
X152289000Y-116445000D02*
X152289000Y-130415000D01*
X152289000Y-130415000D02*
X138319000Y-130415000D01*
X166895000Y-97395000D02*
X180865000Y-97395000D01*
X166895000Y-111365000D02*
X166895000Y-97395000D01*
X180865000Y-97395000D02*
X180865000Y-111365000D01*
X180865000Y-111365000D02*
X166895000Y-111365000D01*
X85928500Y-135495000D02*
X99898500Y-135495000D01*
X85928500Y-149465000D02*
X85928500Y-135495000D01*
X99898500Y-135495000D02*
X99898500Y-149465000D01*
X99898500Y-149465000D02*
X85928500Y-149465000D01*
X264477500Y-173595000D02*
X278447500Y-173595000D01*
X264477500Y-187565000D02*
X264477500Y-173595000D01*
X278447500Y-173595000D02*
X278447500Y-187565000D01*
X278447500Y-187565000D02*
X264477500Y-187565000D01*
X309770000Y-97395000D02*
X323740000Y-97395000D01*
X309770000Y-111365000D02*
X309770000Y-97395000D01*
X323740000Y-97395000D02*
X323740000Y-111365000D01*
X323740000Y-111365000D02*
X309770000Y-111365000D01*
X90695000Y-97395000D02*
X104665000Y-97395000D01*
X90695000Y-111365000D02*
X90695000Y-97395000D01*
X104665000Y-97395000D02*
X104665000Y-111365000D01*
X104665000Y-111365000D02*
X90695000Y-111365000D01*
X97790000Y-173595000D02*
X111760000Y-173595000D01*
X97790000Y-187565000D02*
X97790000Y-173595000D01*
X111760000Y-173595000D02*
X111760000Y-187565000D01*
X111760000Y-187565000D02*
X97790000Y-187565000D01*
X152605500Y-154545000D02*
X166575500Y-154545000D01*
X152605500Y-168515000D02*
X152605500Y-154545000D01*
X166575500Y-154545000D02*
X166575500Y-168515000D01*
X166575500Y-168515000D02*
X152605500Y-168515000D01*
X195469000Y-116445000D02*
X209439000Y-116445000D01*
X195469000Y-130415000D02*
X195469000Y-116445000D01*
X209439000Y-116445000D02*
X209439000Y-130415000D01*
X209439000Y-130415000D02*
X195469000Y-130415000D01*
X233569000Y-116445000D02*
X247539000Y-116445000D01*
X233569000Y-130415000D02*
X233569000Y-116445000D01*
X247539000Y-116445000D02*
X247539000Y-130415000D01*
X247539000Y-130415000D02*
X233569000Y-130415000D01*
X247855500Y-154545000D02*
X261825500Y-154545000D01*
X247855500Y-168515000D02*
X247855500Y-154545000D01*
X261825500Y-154545000D02*
X261825500Y-168515000D01*
X261825500Y-168515000D02*
X247855500Y-168515000D01*
X307384000Y-135495000D02*
X321354000Y-135495000D01*
X307384000Y-149465000D02*
X307384000Y-135495000D01*
X321354000Y-135495000D02*
X321354000Y-149465000D01*
X321354000Y-149465000D02*
X307384000Y-149465000D01*
X59735000Y-135495000D02*
X73705000Y-135495000D01*
X59735000Y-149465000D02*
X59735000Y-135495000D01*
X73705000Y-135495000D02*
X73705000Y-149465000D01*
X73705000Y-149465000D02*
X59735000Y-149465000D01*
X204995000Y-97395000D02*
X218965000Y-97395000D01*
X204995000Y-111365000D02*
X204995000Y-97395000D01*
X218965000Y-97395000D02*
X218965000Y-111365000D01*
X218965000Y-111365000D02*
X204995000Y-111365000D01*
X314513000Y-116445000D02*
X328483000Y-116445000D01*
X314513000Y-130415000D02*
X314513000Y-116445000D01*
X328483000Y-116445000D02*
X328483000Y-130415000D01*
X328483000Y-130415000D02*
X314513000Y-130415000D01*
X219278500Y-135495000D02*
X233248500Y-135495000D01*
X219278500Y-149465000D02*
X219278500Y-135495000D01*
X233248500Y-135495000D02*
X233248500Y-149465000D01*
X233248500Y-149465000D02*
X219278500Y-149465000D01*
X128795000Y-97395000D02*
X142765000Y-97395000D01*
X128795000Y-111365000D02*
X128795000Y-97395000D01*
X142765000Y-97395000D02*
X142765000Y-111365000D01*
X142765000Y-111365000D02*
X128795000Y-111365000D01*
X157369000Y-116445000D02*
X171339000Y-116445000D01*
X157369000Y-130415000D02*
X157369000Y-116445000D01*
X171339000Y-116445000D02*
X171339000Y-130415000D01*
X171339000Y-130415000D02*
X157369000Y-130415000D01*
X181178500Y-135495000D02*
X195148500Y-135495000D01*
X181178500Y-149465000D02*
X181178500Y-135495000D01*
X195148500Y-135495000D02*
X195148500Y-149465000D01*
X195148500Y-149465000D02*
X181178500Y-149465000D01*
X252619000Y-116445000D02*
X266589000Y-116445000D01*
X252619000Y-130415000D02*
X252619000Y-116445000D01*
X266589000Y-116445000D02*
X266589000Y-130415000D01*
X266589000Y-130415000D02*
X252619000Y-130415000D01*
X309766000Y-173595000D02*
X323736000Y-173595000D01*
X309766000Y-187565000D02*
X309766000Y-173595000D01*
X323736000Y-173595000D02*
X323736000Y-187565000D01*
X323736000Y-187565000D02*
X309766000Y-187565000D01*
X176419000Y-116445000D02*
X190389000Y-116445000D01*
X176419000Y-130415000D02*
X176419000Y-116445000D01*
X190389000Y-116445000D02*
X190389000Y-130415000D01*
X190389000Y-130415000D02*
X176419000Y-130415000D01*
X76406000Y-173595000D02*
X90376000Y-173595000D01*
X76406000Y-187565000D02*
X76406000Y-173595000D01*
X90376000Y-173595000D02*
X90376000Y-187565000D01*
X90376000Y-187565000D02*
X76406000Y-187565000D01*
X200228500Y-135495000D02*
X214198500Y-135495000D01*
X200228500Y-149465000D02*
X200228500Y-135495000D01*
X214198500Y-135495000D02*
X214198500Y-149465000D01*
X214198500Y-149465000D02*
X200228500Y-149465000D01*
%LPC*%
D14*
X349771000Y-104380000D03*
D15*
X354851000Y-104380000D03*
D14*
X359931000Y-104380000D03*
D16*
X351041000Y-101840000D03*
X357391000Y-99300000D03*
D14*
X240233500Y-142480000D03*
D15*
X245313500Y-142480000D03*
D14*
X250393500Y-142480000D03*
D16*
X241503500Y-139940000D03*
X247853500Y-137400000D03*
D14*
X73550000Y-104380000D03*
D15*
X78630000Y-104380000D03*
D14*
X83710000Y-104380000D03*
D16*
X74820000Y-101840000D03*
X81170000Y-99300000D03*
D14*
X111650000Y-104380000D03*
D15*
X116730000Y-104380000D03*
D14*
X121810000Y-104380000D03*
D16*
X112920000Y-101840000D03*
X119270000Y-99300000D03*
D14*
X54500000Y-104380000D03*
D15*
X59580000Y-104380000D03*
D14*
X64660000Y-104380000D03*
D16*
X55770000Y-101840000D03*
X62120000Y-99300000D03*
D14*
X187850000Y-104380000D03*
D15*
X192930000Y-104380000D03*
D14*
X198010000Y-104380000D03*
D16*
X189120000Y-101840000D03*
X195470000Y-99300000D03*
D14*
X144983500Y-142480000D03*
D15*
X150063500Y-142480000D03*
D14*
X155143500Y-142480000D03*
D16*
X146253500Y-139940000D03*
X152603500Y-137400000D03*
D17*
X292946000Y-154530000D03*
D15*
X292946000Y-169770000D03*
D14*
X299766000Y-161530000D03*
D15*
X304846000Y-161530000D03*
D14*
X309926000Y-161530000D03*
D17*
X316746000Y-154530000D03*
D15*
X316746000Y-169770000D03*
D16*
X301036000Y-158990000D03*
X307386000Y-156450000D03*
D14*
X268810500Y-161530000D03*
D15*
X273890500Y-161530000D03*
D14*
X278970500Y-161530000D03*
D16*
X270080500Y-158990000D03*
X276430500Y-156450000D03*
D14*
X230710500Y-161530000D03*
D15*
X235790500Y-161530000D03*
D14*
X240870500Y-161530000D03*
D16*
X231980500Y-158990000D03*
X238330500Y-156450000D03*
D14*
X135460500Y-161530000D03*
D15*
X140540500Y-161530000D03*
D14*
X145620500Y-161530000D03*
D16*
X136730500Y-158990000D03*
X143080500Y-156450000D03*
D14*
X349771000Y-180580000D03*
D15*
X354851000Y-180580000D03*
D14*
X359931000Y-180580000D03*
D16*
X351041000Y-178040000D03*
X357391000Y-175500000D03*
D14*
X278333500Y-142480000D03*
D15*
X283413500Y-142480000D03*
D14*
X288493500Y-142480000D03*
D16*
X279603500Y-139940000D03*
X285953500Y-137400000D03*
D14*
X242616000Y-180580000D03*
D15*
X247696000Y-180580000D03*
D14*
X252776000Y-180580000D03*
D16*
X243886000Y-178040000D03*
X250236000Y-175500000D03*
D14*
X259283500Y-142480000D03*
D15*
X264363500Y-142480000D03*
D14*
X269443500Y-142480000D03*
D16*
X260553500Y-139940000D03*
X266903500Y-137400000D03*
D14*
X283100000Y-104380000D03*
D15*
X288180000Y-104380000D03*
D14*
X293260000Y-104380000D03*
D16*
X284370000Y-101840000D03*
X290720000Y-99300000D03*
D14*
X149750000Y-104380000D03*
D15*
X154830000Y-104380000D03*
D14*
X159910000Y-104380000D03*
D16*
X151020000Y-101840000D03*
X157370000Y-99300000D03*
D14*
X56880000Y-180580000D03*
D15*
X61960000Y-180580000D03*
D14*
X67040000Y-180580000D03*
D16*
X58150000Y-178040000D03*
X64500000Y-175500000D03*
D14*
X264050000Y-104380000D03*
D15*
X269130000Y-104380000D03*
D14*
X274210000Y-104380000D03*
D16*
X265320000Y-101840000D03*
X271670000Y-99300000D03*
D14*
X330721000Y-180580000D03*
D15*
X335801000Y-180580000D03*
D14*
X340881000Y-180580000D03*
D16*
X331991000Y-178040000D03*
X338341000Y-175500000D03*
D14*
X116420000Y-161530000D03*
D15*
X121500000Y-161530000D03*
D14*
X126580000Y-161530000D03*
D16*
X117690000Y-158990000D03*
X124040000Y-156450000D03*
D14*
X164033500Y-142480000D03*
D15*
X169113500Y-142480000D03*
D14*
X174193500Y-142480000D03*
D16*
X165303500Y-139940000D03*
X171653500Y-137400000D03*
D14*
X273574000Y-123430000D03*
D15*
X278654000Y-123430000D03*
D14*
X283734000Y-123430000D03*
D16*
X274844000Y-120890000D03*
X281194000Y-118350000D03*
D14*
X292624000Y-123430000D03*
D15*
X297704000Y-123430000D03*
D14*
X302784000Y-123430000D03*
D16*
X293894000Y-120890000D03*
X300244000Y-118350000D03*
D14*
X125933500Y-142480000D03*
D15*
X131013500Y-142480000D03*
D14*
X136093500Y-142480000D03*
D16*
X127203500Y-139940000D03*
X133553500Y-137400000D03*
D17*
X59585000Y-154530000D03*
D15*
X59585000Y-169770000D03*
D14*
X66405000Y-161530000D03*
D15*
X71485000Y-161530000D03*
D14*
X76565000Y-161530000D03*
D17*
X83385000Y-154530000D03*
D15*
X83385000Y-169770000D03*
D16*
X67675000Y-158990000D03*
X74025000Y-156450000D03*
D17*
X126212500Y-173580000D03*
D15*
X126212500Y-188820000D03*
D14*
X171132500Y-180580000D03*
D15*
X176212500Y-180580000D03*
D14*
X181292500Y-180580000D03*
D17*
X226212500Y-173580000D03*
D15*
X226212500Y-188820000D03*
D16*
X172402500Y-178040000D03*
X178752500Y-175500000D03*
D14*
X97360500Y-161530000D03*
D15*
X102440500Y-161530000D03*
D14*
X107520500Y-161530000D03*
D16*
X98630500Y-158990000D03*
X104980500Y-156450000D03*
D14*
X216424000Y-123430000D03*
D15*
X221504000Y-123430000D03*
D14*
X226584000Y-123430000D03*
D16*
X217694000Y-120890000D03*
X224044000Y-118350000D03*
D14*
X121174000Y-123430000D03*
D15*
X126254000Y-123430000D03*
D14*
X131334000Y-123430000D03*
D16*
X122444000Y-120890000D03*
X128794000Y-118350000D03*
D14*
X102124000Y-123430000D03*
D15*
X107204000Y-123430000D03*
D14*
X112284000Y-123430000D03*
D16*
X103394000Y-120890000D03*
X109744000Y-118350000D03*
D14*
X173560500Y-161530000D03*
D15*
X178640500Y-161530000D03*
D14*
X183720500Y-161530000D03*
D16*
X174830500Y-158990000D03*
X181180500Y-156450000D03*
D14*
X349771000Y-123430000D03*
D15*
X354851000Y-123430000D03*
D14*
X359931000Y-123430000D03*
D16*
X351041000Y-120890000D03*
X357391000Y-118350000D03*
D14*
X330721000Y-161530000D03*
D15*
X335801000Y-161530000D03*
D14*
X340881000Y-161530000D03*
D16*
X331991000Y-158990000D03*
X338341000Y-156450000D03*
D14*
X245000000Y-104380000D03*
D15*
X250080000Y-104380000D03*
D14*
X255160000Y-104380000D03*
D16*
X246270000Y-101840000D03*
X252620000Y-99300000D03*
X200230500Y-156450000D03*
X193880500Y-158990000D03*
D14*
X202770500Y-161530000D03*
D15*
X197690500Y-161530000D03*
D14*
X192610500Y-161530000D03*
X59260000Y-123430000D03*
D15*
X64340000Y-123430000D03*
D14*
X69420000Y-123430000D03*
D16*
X60530000Y-120890000D03*
X66880000Y-118350000D03*
D14*
X290240000Y-180580000D03*
D15*
X295320000Y-180580000D03*
D14*
X300400000Y-180580000D03*
D16*
X291510000Y-178040000D03*
X297860000Y-175500000D03*
D14*
X211660500Y-161530000D03*
D15*
X216740500Y-161530000D03*
D14*
X221820500Y-161530000D03*
D16*
X212930500Y-158990000D03*
X219280500Y-156450000D03*
D14*
X225950000Y-104380000D03*
D15*
X231030000Y-104380000D03*
D14*
X236110000Y-104380000D03*
D16*
X227220000Y-101840000D03*
X233570000Y-99300000D03*
D14*
X83074000Y-123430000D03*
D15*
X88154000Y-123430000D03*
D14*
X93234000Y-123430000D03*
D16*
X84344000Y-120890000D03*
X90694000Y-118350000D03*
D14*
X106880000Y-142480000D03*
D15*
X111960000Y-142480000D03*
D14*
X117040000Y-142480000D03*
D16*
X108150000Y-139940000D03*
X114500000Y-137400000D03*
D14*
X140224000Y-123430000D03*
D15*
X145304000Y-123430000D03*
D14*
X150384000Y-123430000D03*
D16*
X141494000Y-120890000D03*
X147844000Y-118350000D03*
D14*
X168800000Y-104380000D03*
D15*
X173880000Y-104380000D03*
D14*
X178960000Y-104380000D03*
D16*
X170070000Y-101840000D03*
X176420000Y-99300000D03*
D14*
X87833500Y-142480000D03*
D15*
X92913500Y-142480000D03*
D14*
X97993500Y-142480000D03*
D16*
X89103500Y-139940000D03*
X95453500Y-137400000D03*
D14*
X266382500Y-180580000D03*
D15*
X271462500Y-180580000D03*
D14*
X276542500Y-180580000D03*
D16*
X267652500Y-178040000D03*
X274002500Y-175500000D03*
D17*
X304855000Y-97380000D03*
D15*
X304855000Y-112620000D03*
D14*
X311675000Y-104380000D03*
D15*
X316755000Y-104380000D03*
D14*
X321835000Y-104380000D03*
D17*
X328655000Y-97380000D03*
D15*
X328655000Y-112620000D03*
D16*
X312945000Y-101840000D03*
X319295000Y-99300000D03*
D14*
X92600000Y-104380000D03*
D15*
X97680000Y-104380000D03*
D14*
X102760000Y-104380000D03*
D16*
X93870000Y-101840000D03*
X100220000Y-99300000D03*
D14*
X99695000Y-180580000D03*
D15*
X104775000Y-180580000D03*
D14*
X109855000Y-180580000D03*
D16*
X100965000Y-178040000D03*
X107315000Y-175500000D03*
D14*
X154510500Y-161530000D03*
D15*
X159590500Y-161530000D03*
D14*
X164670500Y-161530000D03*
D16*
X155780500Y-158990000D03*
X162130500Y-156450000D03*
D14*
X197374000Y-123430000D03*
D15*
X202454000Y-123430000D03*
D14*
X207534000Y-123430000D03*
D16*
X198644000Y-120890000D03*
X204994000Y-118350000D03*
D14*
X235474000Y-123430000D03*
D15*
X240554000Y-123430000D03*
D14*
X245634000Y-123430000D03*
D16*
X236744000Y-120890000D03*
X243094000Y-118350000D03*
D14*
X249760500Y-161530000D03*
D15*
X254840500Y-161530000D03*
D14*
X259920500Y-161530000D03*
D16*
X251030500Y-158990000D03*
X257380500Y-156450000D03*
D17*
X302469000Y-135480000D03*
D15*
X302469000Y-150720000D03*
D14*
X309289000Y-142480000D03*
D15*
X314369000Y-142480000D03*
D14*
X319449000Y-142480000D03*
D17*
X326269000Y-135480000D03*
D15*
X326269000Y-150720000D03*
D16*
X310559000Y-139940000D03*
X316909000Y-137400000D03*
D14*
X61640000Y-142480000D03*
D15*
X66720000Y-142480000D03*
D14*
X71800000Y-142480000D03*
D16*
X62910000Y-139940000D03*
X69260000Y-137400000D03*
D14*
X206900000Y-104380000D03*
D15*
X211980000Y-104380000D03*
D14*
X217060000Y-104380000D03*
D16*
X208170000Y-101840000D03*
X214520000Y-99300000D03*
D14*
X316418000Y-123430000D03*
D15*
X321498000Y-123430000D03*
D14*
X326578000Y-123430000D03*
D16*
X317688000Y-120890000D03*
X324038000Y-118350000D03*
D14*
X221183500Y-142480000D03*
D15*
X226263500Y-142480000D03*
D14*
X231343500Y-142480000D03*
D16*
X222453500Y-139940000D03*
X228803500Y-137400000D03*
D14*
X130700000Y-104380000D03*
D15*
X135780000Y-104380000D03*
D14*
X140860000Y-104380000D03*
D16*
X131970000Y-101840000D03*
X138320000Y-99300000D03*
D14*
X159274000Y-123430000D03*
D15*
X164354000Y-123430000D03*
D14*
X169434000Y-123430000D03*
D16*
X160544000Y-120890000D03*
X166894000Y-118350000D03*
D14*
X183083500Y-142480000D03*
D15*
X188163500Y-142480000D03*
D14*
X193243500Y-142480000D03*
D16*
X184353500Y-139940000D03*
X190703500Y-137400000D03*
D14*
X254524000Y-123430000D03*
D15*
X259604000Y-123430000D03*
D14*
X264684000Y-123430000D03*
D16*
X255794000Y-120890000D03*
X262144000Y-118350000D03*
D14*
X311671000Y-180580000D03*
D15*
X316751000Y-180580000D03*
D14*
X321831000Y-180580000D03*
D16*
X312941000Y-178040000D03*
X319291000Y-175500000D03*
D14*
X178324000Y-123430000D03*
D15*
X183404000Y-123430000D03*
D14*
X188484000Y-123430000D03*
D16*
X179594000Y-120890000D03*
X185944000Y-118350000D03*
D14*
X78311000Y-180580000D03*
D15*
X83391000Y-180580000D03*
D14*
X88471000Y-180580000D03*
D16*
X79581000Y-178040000D03*
X85931000Y-175500000D03*
D14*
X202133500Y-142480000D03*
D15*
X207213500Y-142480000D03*
D14*
X212293500Y-142480000D03*
D16*
X203403500Y-139940000D03*
X209753500Y-137400000D03*
D18*
X199610000Y-94800000D03*
X205390000Y-94800000D03*
D19*
X198180000Y-91150000D03*
D20*
X198180000Y-95330000D03*
D19*
X206820000Y-91150000D03*
D20*
X206820000Y-95330000D03*
%LPD*%
M02*
