G04 #@! TF.GenerationSoftware,KiCad,Pcbnew,8.0.2*
G04 #@! TF.CreationDate,2025-03-10T15:51:09-05:00*
G04 #@! TF.ProjectId,65,36352e6b-6963-4616-945f-706362585858,rev?*
G04 #@! TF.SameCoordinates,Original*
G04 #@! TF.FileFunction,Soldermask,Top*
G04 #@! TF.FilePolarity,Negative*
%FSLAX46Y46*%
G04 Gerber Fmt 4.6, Leading zero omitted, Abs format (unit mm)*
G04 Created by KiCad (PCBNEW 8.0.2) date 2025-03-10 15:51:09*
%MOMM*%
%LPD*%
G01*
G04 APERTURE LIST*
%ADD10C,1.700000*%
%ADD11C,4.000000*%
%ADD12C,2.200000*%
%ADD13C,3.050000*%
%ADD14C,0.650000*%
%ADD15O,1.000000X1.600000*%
%ADD16O,1.000000X2.100000*%
G04 APERTURE END LIST*
D10*
X349771000Y-104380000D03*
D11*
X354851000Y-104380000D03*
D10*
X359931000Y-104380000D03*
D12*
X351041000Y-101840000D03*
X357391000Y-99300000D03*
D10*
X240233500Y-142480000D03*
D11*
X245313500Y-142480000D03*
D10*
X250393500Y-142480000D03*
D12*
X241503500Y-139940000D03*
X247853500Y-137400000D03*
D10*
X73550000Y-104380000D03*
D11*
X78630000Y-104380000D03*
D10*
X83710000Y-104380000D03*
D12*
X74820000Y-101840000D03*
X81170000Y-99300000D03*
D10*
X111650000Y-104380000D03*
D11*
X116730000Y-104380000D03*
D10*
X121810000Y-104380000D03*
D12*
X112920000Y-101840000D03*
X119270000Y-99300000D03*
D10*
X54500000Y-104380000D03*
D11*
X59580000Y-104380000D03*
D10*
X64660000Y-104380000D03*
D12*
X55770000Y-101840000D03*
X62120000Y-99300000D03*
D10*
X187850000Y-104380000D03*
D11*
X192930000Y-104380000D03*
D10*
X198010000Y-104380000D03*
D12*
X189120000Y-101840000D03*
X195470000Y-99300000D03*
D10*
X144983500Y-142480000D03*
D11*
X150063500Y-142480000D03*
D10*
X155143500Y-142480000D03*
D12*
X146253500Y-139940000D03*
X152603500Y-137400000D03*
D13*
X292946000Y-154530000D03*
D11*
X292946000Y-169770000D03*
D10*
X299766000Y-161530000D03*
D11*
X304846000Y-161530000D03*
D10*
X309926000Y-161530000D03*
D13*
X316746000Y-154530000D03*
D11*
X316746000Y-169770000D03*
D12*
X301036000Y-158990000D03*
X307386000Y-156450000D03*
D10*
X268810500Y-161530000D03*
D11*
X273890500Y-161530000D03*
D10*
X278970500Y-161530000D03*
D12*
X270080500Y-158990000D03*
X276430500Y-156450000D03*
D10*
X230710500Y-161530000D03*
D11*
X235790500Y-161530000D03*
D10*
X240870500Y-161530000D03*
D12*
X231980500Y-158990000D03*
X238330500Y-156450000D03*
D10*
X135460500Y-161530000D03*
D11*
X140540500Y-161530000D03*
D10*
X145620500Y-161530000D03*
D12*
X136730500Y-158990000D03*
X143080500Y-156450000D03*
D10*
X349771000Y-180580000D03*
D11*
X354851000Y-180580000D03*
D10*
X359931000Y-180580000D03*
D12*
X351041000Y-178040000D03*
X357391000Y-175500000D03*
D10*
X278333500Y-142480000D03*
D11*
X283413500Y-142480000D03*
D10*
X288493500Y-142480000D03*
D12*
X279603500Y-139940000D03*
X285953500Y-137400000D03*
D10*
X242616000Y-180580000D03*
D11*
X247696000Y-180580000D03*
D10*
X252776000Y-180580000D03*
D12*
X243886000Y-178040000D03*
X250236000Y-175500000D03*
D10*
X259283500Y-142480000D03*
D11*
X264363500Y-142480000D03*
D10*
X269443500Y-142480000D03*
D12*
X260553500Y-139940000D03*
X266903500Y-137400000D03*
D10*
X283100000Y-104380000D03*
D11*
X288180000Y-104380000D03*
D10*
X293260000Y-104380000D03*
D12*
X284370000Y-101840000D03*
X290720000Y-99300000D03*
D10*
X149750000Y-104380000D03*
D11*
X154830000Y-104380000D03*
D10*
X159910000Y-104380000D03*
D12*
X151020000Y-101840000D03*
X157370000Y-99300000D03*
D10*
X56880000Y-180580000D03*
D11*
X61960000Y-180580000D03*
D10*
X67040000Y-180580000D03*
D12*
X58150000Y-178040000D03*
X64500000Y-175500000D03*
D10*
X264050000Y-104380000D03*
D11*
X269130000Y-104380000D03*
D10*
X274210000Y-104380000D03*
D12*
X265320000Y-101840000D03*
X271670000Y-99300000D03*
D10*
X330721000Y-180580000D03*
D11*
X335801000Y-180580000D03*
D10*
X340881000Y-180580000D03*
D12*
X331991000Y-178040000D03*
X338341000Y-175500000D03*
D10*
X116420000Y-161530000D03*
D11*
X121500000Y-161530000D03*
D10*
X126580000Y-161530000D03*
D12*
X117690000Y-158990000D03*
X124040000Y-156450000D03*
D10*
X164033500Y-142480000D03*
D11*
X169113500Y-142480000D03*
D10*
X174193500Y-142480000D03*
D12*
X165303500Y-139940000D03*
X171653500Y-137400000D03*
D10*
X273574000Y-123430000D03*
D11*
X278654000Y-123430000D03*
D10*
X283734000Y-123430000D03*
D12*
X274844000Y-120890000D03*
X281194000Y-118350000D03*
D10*
X292624000Y-123430000D03*
D11*
X297704000Y-123430000D03*
D10*
X302784000Y-123430000D03*
D12*
X293894000Y-120890000D03*
X300244000Y-118350000D03*
D10*
X125933500Y-142480000D03*
D11*
X131013500Y-142480000D03*
D10*
X136093500Y-142480000D03*
D12*
X127203500Y-139940000D03*
X133553500Y-137400000D03*
D13*
X59585000Y-154530000D03*
D11*
X59585000Y-169770000D03*
D10*
X66405000Y-161530000D03*
D11*
X71485000Y-161530000D03*
D10*
X76565000Y-161530000D03*
D13*
X83385000Y-154530000D03*
D11*
X83385000Y-169770000D03*
D12*
X67675000Y-158990000D03*
X74025000Y-156450000D03*
D13*
X126212500Y-173580000D03*
D11*
X126212500Y-188820000D03*
D10*
X171132500Y-180580000D03*
D11*
X176212500Y-180580000D03*
D10*
X181292500Y-180580000D03*
D13*
X226212500Y-173580000D03*
D11*
X226212500Y-188820000D03*
D12*
X172402500Y-178040000D03*
X178752500Y-175500000D03*
D10*
X97360500Y-161530000D03*
D11*
X102440500Y-161530000D03*
D10*
X107520500Y-161530000D03*
D12*
X98630500Y-158990000D03*
X104980500Y-156450000D03*
D10*
X216424000Y-123430000D03*
D11*
X221504000Y-123430000D03*
D10*
X226584000Y-123430000D03*
D12*
X217694000Y-120890000D03*
X224044000Y-118350000D03*
D10*
X121174000Y-123430000D03*
D11*
X126254000Y-123430000D03*
D10*
X131334000Y-123430000D03*
D12*
X122444000Y-120890000D03*
X128794000Y-118350000D03*
D10*
X102124000Y-123430000D03*
D11*
X107204000Y-123430000D03*
D10*
X112284000Y-123430000D03*
D12*
X103394000Y-120890000D03*
X109744000Y-118350000D03*
D10*
X173560500Y-161530000D03*
D11*
X178640500Y-161530000D03*
D10*
X183720500Y-161530000D03*
D12*
X174830500Y-158990000D03*
X181180500Y-156450000D03*
D10*
X349771000Y-123430000D03*
D11*
X354851000Y-123430000D03*
D10*
X359931000Y-123430000D03*
D12*
X351041000Y-120890000D03*
X357391000Y-118350000D03*
D10*
X330721000Y-161530000D03*
D11*
X335801000Y-161530000D03*
D10*
X340881000Y-161530000D03*
D12*
X331991000Y-158990000D03*
X338341000Y-156450000D03*
D10*
X245000000Y-104380000D03*
D11*
X250080000Y-104380000D03*
D10*
X255160000Y-104380000D03*
D12*
X246270000Y-101840000D03*
X252620000Y-99300000D03*
X200230500Y-156450000D03*
X193880500Y-158990000D03*
D10*
X202770500Y-161530000D03*
D11*
X197690500Y-161530000D03*
D10*
X192610500Y-161530000D03*
X59260000Y-123430000D03*
D11*
X64340000Y-123430000D03*
D10*
X69420000Y-123430000D03*
D12*
X60530000Y-120890000D03*
X66880000Y-118350000D03*
D10*
X290240000Y-180580000D03*
D11*
X295320000Y-180580000D03*
D10*
X300400000Y-180580000D03*
D12*
X291510000Y-178040000D03*
X297860000Y-175500000D03*
D10*
X211660500Y-161530000D03*
D11*
X216740500Y-161530000D03*
D10*
X221820500Y-161530000D03*
D12*
X212930500Y-158990000D03*
X219280500Y-156450000D03*
D10*
X225950000Y-104380000D03*
D11*
X231030000Y-104380000D03*
D10*
X236110000Y-104380000D03*
D12*
X227220000Y-101840000D03*
X233570000Y-99300000D03*
D10*
X83074000Y-123430000D03*
D11*
X88154000Y-123430000D03*
D10*
X93234000Y-123430000D03*
D12*
X84344000Y-120890000D03*
X90694000Y-118350000D03*
D10*
X106880000Y-142480000D03*
D11*
X111960000Y-142480000D03*
D10*
X117040000Y-142480000D03*
D12*
X108150000Y-139940000D03*
X114500000Y-137400000D03*
D10*
X140224000Y-123430000D03*
D11*
X145304000Y-123430000D03*
D10*
X150384000Y-123430000D03*
D12*
X141494000Y-120890000D03*
X147844000Y-118350000D03*
D10*
X168800000Y-104380000D03*
D11*
X173880000Y-104380000D03*
D10*
X178960000Y-104380000D03*
D12*
X170070000Y-101840000D03*
X176420000Y-99300000D03*
D10*
X87833500Y-142480000D03*
D11*
X92913500Y-142480000D03*
D10*
X97993500Y-142480000D03*
D12*
X89103500Y-139940000D03*
X95453500Y-137400000D03*
D10*
X266382500Y-180580000D03*
D11*
X271462500Y-180580000D03*
D10*
X276542500Y-180580000D03*
D12*
X267652500Y-178040000D03*
X274002500Y-175500000D03*
D13*
X304855000Y-97380000D03*
D11*
X304855000Y-112620000D03*
D10*
X311675000Y-104380000D03*
D11*
X316755000Y-104380000D03*
D10*
X321835000Y-104380000D03*
D13*
X328655000Y-97380000D03*
D11*
X328655000Y-112620000D03*
D12*
X312945000Y-101840000D03*
X319295000Y-99300000D03*
D10*
X92600000Y-104380000D03*
D11*
X97680000Y-104380000D03*
D10*
X102760000Y-104380000D03*
D12*
X93870000Y-101840000D03*
X100220000Y-99300000D03*
D10*
X99695000Y-180580000D03*
D11*
X104775000Y-180580000D03*
D10*
X109855000Y-180580000D03*
D12*
X100965000Y-178040000D03*
X107315000Y-175500000D03*
D10*
X154510500Y-161530000D03*
D11*
X159590500Y-161530000D03*
D10*
X164670500Y-161530000D03*
D12*
X155780500Y-158990000D03*
X162130500Y-156450000D03*
D10*
X197374000Y-123430000D03*
D11*
X202454000Y-123430000D03*
D10*
X207534000Y-123430000D03*
D12*
X198644000Y-120890000D03*
X204994000Y-118350000D03*
D10*
X235474000Y-123430000D03*
D11*
X240554000Y-123430000D03*
D10*
X245634000Y-123430000D03*
D12*
X236744000Y-120890000D03*
X243094000Y-118350000D03*
D10*
X249760500Y-161530000D03*
D11*
X254840500Y-161530000D03*
D10*
X259920500Y-161530000D03*
D12*
X251030500Y-158990000D03*
X257380500Y-156450000D03*
D13*
X302469000Y-135480000D03*
D11*
X302469000Y-150720000D03*
D10*
X309289000Y-142480000D03*
D11*
X314369000Y-142480000D03*
D10*
X319449000Y-142480000D03*
D13*
X326269000Y-135480000D03*
D11*
X326269000Y-150720000D03*
D12*
X310559000Y-139940000D03*
X316909000Y-137400000D03*
D10*
X61640000Y-142480000D03*
D11*
X66720000Y-142480000D03*
D10*
X71800000Y-142480000D03*
D12*
X62910000Y-139940000D03*
X69260000Y-137400000D03*
D10*
X206900000Y-104380000D03*
D11*
X211980000Y-104380000D03*
D10*
X217060000Y-104380000D03*
D12*
X208170000Y-101840000D03*
X214520000Y-99300000D03*
D10*
X316418000Y-123430000D03*
D11*
X321498000Y-123430000D03*
D10*
X326578000Y-123430000D03*
D12*
X317688000Y-120890000D03*
X324038000Y-118350000D03*
D10*
X221183500Y-142480000D03*
D11*
X226263500Y-142480000D03*
D10*
X231343500Y-142480000D03*
D12*
X222453500Y-139940000D03*
X228803500Y-137400000D03*
D10*
X130700000Y-104380000D03*
D11*
X135780000Y-104380000D03*
D10*
X140860000Y-104380000D03*
D12*
X131970000Y-101840000D03*
X138320000Y-99300000D03*
D10*
X159274000Y-123430000D03*
D11*
X164354000Y-123430000D03*
D10*
X169434000Y-123430000D03*
D12*
X160544000Y-120890000D03*
X166894000Y-118350000D03*
D10*
X183083500Y-142480000D03*
D11*
X188163500Y-142480000D03*
D10*
X193243500Y-142480000D03*
D12*
X184353500Y-139940000D03*
X190703500Y-137400000D03*
D10*
X254524000Y-123430000D03*
D11*
X259604000Y-123430000D03*
D10*
X264684000Y-123430000D03*
D12*
X255794000Y-120890000D03*
X262144000Y-118350000D03*
D10*
X311671000Y-180580000D03*
D11*
X316751000Y-180580000D03*
D10*
X321831000Y-180580000D03*
D12*
X312941000Y-178040000D03*
X319291000Y-175500000D03*
D10*
X178324000Y-123430000D03*
D11*
X183404000Y-123430000D03*
D10*
X188484000Y-123430000D03*
D12*
X179594000Y-120890000D03*
X185944000Y-118350000D03*
D10*
X78311000Y-180580000D03*
D11*
X83391000Y-180580000D03*
D10*
X88471000Y-180580000D03*
D12*
X79581000Y-178040000D03*
X85931000Y-175500000D03*
D10*
X202133500Y-142480000D03*
D11*
X207213500Y-142480000D03*
D10*
X212293500Y-142480000D03*
D12*
X203403500Y-139940000D03*
X209753500Y-137400000D03*
D14*
X199610000Y-94800000D03*
X205390000Y-94800000D03*
D15*
X198180000Y-91150000D03*
D16*
X198180000Y-95330000D03*
D15*
X206820000Y-91150000D03*
D16*
X206820000Y-95330000D03*
M02*
